<svg xmlns="http://www.w3.org/2000/svg" xmlns:xlink="http://www.w3.org/1999/xlink" width="512" zoomAndPan="magnify" viewBox="0 0 384 383.999986" height="512" preserveAspectRatio="xMidYMid meet" version="1.0"><path fill="#9ba7af" d="M 270.546875 74.183594 L 259.199219 74.183594 L 248.726562 47.128906 C 244.363281 37.527344 234.761719 30.546875 224.289062 30.546875 L 160.582031 30.546875 C 150.109375 30.546875 140.507812 36.652344 136.144531 47.128906 L 125.671875 74.183594 L 113.453125 74.183594 C 108.21875 74.183594 104.726562 77.671875 104.726562 82.910156 L 104.726562 91.636719 L 157.089844 91.636719 L 157.089844 82.910156 C 157.089844 77.671875 153.597656 74.183594 148.363281 74.183594 L 144 74.183594 L 151.855469 53.238281 C 153.601562 49.746094 156.21875 48 159.707031 48 L 223.417969 48 C 226.910156 48 230.398438 49.746094 231.273438 53.238281 L 239.128906 74.183594 L 235.636719 74.183594 C 230.398438 74.183594 226.910156 77.671875 226.910156 82.910156 L 226.910156 91.636719 L 279.273438 91.636719 L 279.273438 82.910156 C 279.273438 77.671875 275.78125 74.183594 270.546875 74.183594 Z M 270.546875 74.183594 " fill-opacity="1" fill-rule="nonzero"/><path fill="#b06328" d="M 357.816406 353.453125 L 26.183594 353.453125 C 16.582031 353.453125 8.726562 345.601562 8.726562 336 L 8.726562 144 L 375.273438 144 L 375.273438 336 C 375.273438 345.601562 367.417969 353.453125 357.816406 353.453125 Z M 357.816406 353.453125 " fill-opacity="1" fill-rule="nonzero"/><path fill="#a35425" d="M 357.816406 184.144531 L 226.910156 212.070312 C 226.035156 207.707031 222.546875 205.089844 218.183594 205.089844 L 183.273438 205.089844 C 178.039062 205.089844 174.546875 208.582031 174.546875 213.816406 L 165.820312 213.816406 L 13.964844 181.527344 C 12.21875 181.527344 10.472656 180.652344 8.726562 179.78125 L 8.726562 188.507812 C 10.472656 189.382812 12.21875 190.253906 13.964844 190.253906 L 165.816406 222.546875 L 174.546875 222.546875 L 174.546875 248.726562 C 174.546875 253.964844 178.035156 257.453125 183.273438 257.453125 L 209.453125 257.453125 C 219.054688 257.453125 226.910156 249.597656 226.910156 240 L 226.910156 238.253906 C 226.910156 227.78125 233.890625 219.054688 244.363281 216.4375 L 331.636719 198.109375 C 345.601562 195.492188 357.816406 205.964844 357.816406 219.054688 L 357.816406 326.398438 C 357.816406 331.636719 354.328125 335.128906 349.089844 335.128906 L 26.183594 335.128906 C 14.835938 335.128906 13.964844 352.582031 25.308594 352.582031 L 356.945312 352.582031 C 366.546875 352.582031 374.398438 344.726562 374.398438 335.128906 L 374.398438 179.78125 Z M 357.816406 184.144531 " fill-opacity="1" fill-rule="nonzero"/><path fill="#f6b545" d="M 8.726562 336 L 8.726562 309.816406 L 34.910156 309.816406 C 44.507812 309.816406 52.363281 317.671875 52.363281 327.273438 L 52.363281 353.453125 L 26.183594 353.453125 C 16.582031 353.453125 8.726562 345.601562 8.726562 336 Z M 8.726562 336 " fill-opacity="1" fill-rule="nonzero"/><path fill="#f19920" d="M 26.183594 336 C 14.835938 336 13.964844 352.582031 25.308594 353.453125 L 52.363281 353.453125 L 52.363281 336 Z M 26.183594 336 " fill-opacity="1" fill-rule="nonzero"/><path fill="#f6b545" d="M 357.816406 353.453125 L 331.636719 353.453125 L 331.636719 327.273438 C 331.636719 317.671875 339.492188 309.816406 349.089844 309.816406 L 375.273438 309.816406 L 375.273438 336 C 375.273438 345.601562 367.417969 353.453125 357.816406 353.453125 Z M 357.816406 353.453125 " fill-opacity="1" fill-rule="nonzero"/><path fill="#f19920" d="M 357.816406 309.816406 L 357.816406 327.273438 C 357.816406 332.507812 354.328125 336 349.089844 336 L 331.636719 336 L 331.636719 353.453125 L 357.816406 353.453125 C 367.417969 353.453125 375.273438 345.601562 375.273438 336 L 375.273438 309.816406 Z M 357.816406 309.816406 " fill-opacity="1" fill-rule="nonzero"/><path fill="#ffcb5b" d="M 39.273438 327.273438 L 21.816406 327.273438 C 19.199219 327.273438 17.453125 325.527344 17.453125 322.910156 C 17.453125 320.292969 19.199219 318.546875 21.816406 318.546875 L 39.273438 318.546875 C 41.890625 318.546875 43.636719 320.292969 43.636719 322.910156 C 43.636719 325.527344 41.890625 327.273438 39.273438 327.273438 Z M 39.273438 327.273438 " fill-opacity="1" fill-rule="nonzero"/><path fill="#c97629" d="M 366.546875 91.636719 L 17.453125 91.636719 C 7.855469 91.636719 0 99.492188 0 109.089844 L 0 164.945312 C 0 172.800781 6.109375 180.65625 13.964844 182.398438 L 165.816406 213.816406 L 218.183594 213.816406 L 370.035156 181.527344 C 377.890625 179.78125 384 172.800781 384 164.074219 L 384 108.21875 C 384 99.492188 376.144531 91.636719 366.546875 91.636719 Z M 366.546875 91.636719 " fill-opacity="1" fill-rule="nonzero"/><path fill="#f6b545" d="M 209.453125 248.726562 L 174.546875 248.726562 C 169.308594 248.726562 165.820312 245.234375 165.820312 240 L 165.820312 205.089844 C 165.820312 199.855469 169.308594 196.363281 174.546875 196.363281 L 209.453125 196.363281 C 214.691406 196.363281 218.183594 199.855469 218.183594 205.089844 L 218.183594 240 C 218.183594 245.238281 214.691406 248.726562 209.453125 248.726562 Z M 209.453125 248.726562 " fill-opacity="1" fill-rule="nonzero"/><path fill="#f19920" d="M 209.453125 196.363281 L 209.453125 240 L 165.816406 240 C 165.816406 245.238281 169.308594 248.726562 174.546875 248.726562 L 209.453125 248.726562 C 214.691406 248.726562 218.179688 245.234375 218.179688 240 L 218.179688 205.089844 C 218.183594 199.855469 214.691406 196.363281 209.453125 196.363281 Z M 209.453125 196.363281 " fill-opacity="1" fill-rule="nonzero"/><path fill="#ffcb5b" d="M 196.363281 213.816406 L 178.910156 213.816406 C 176.289062 213.816406 174.546875 212.074219 174.546875 209.453125 C 174.546875 206.835938 176.289062 205.089844 178.910156 205.089844 L 196.363281 205.089844 C 198.980469 205.089844 200.726562 206.835938 200.726562 209.453125 C 200.726562 212.074219 198.980469 213.816406 196.363281 213.816406 Z M 196.363281 213.816406 " fill-opacity="1" fill-rule="nonzero"/><path fill="#da8c36" d="M 21.816406 100.363281 L 65.453125 100.363281 C 68.074219 100.363281 69.816406 102.109375 69.816406 104.726562 C 69.816406 107.34375 68.074219 109.089844 65.453125 109.089844 L 21.816406 109.089844 C 19.199219 109.089844 17.453125 107.34375 17.453125 104.726562 C 17.453125 102.109375 19.199219 100.363281 21.816406 100.363281 Z M 21.816406 100.363281 " fill-opacity="1" fill-rule="nonzero"/><path fill="#c97629" d="M 26.183594 218.183594 L 26.183594 261.816406 C 26.183594 264.4375 24.4375 266.183594 21.816406 266.183594 C 19.199219 266.183594 17.453125 264.4375 17.453125 261.816406 L 17.453125 218.183594 C 17.453125 215.5625 19.199219 213.816406 21.816406 213.816406 C 24.4375 213.816406 26.183594 215.5625 26.183594 218.183594 Z M 26.183594 218.183594 " fill-opacity="1" fill-rule="nonzero"/><path fill="#da8c36" d="M 82.910156 100.363281 L 170.183594 100.363281 C 172.800781 100.363281 174.546875 102.109375 174.546875 104.726562 C 174.546875 107.34375 172.800781 109.089844 170.183594 109.089844 L 82.910156 109.089844 C 80.289062 109.089844 78.546875 107.34375 78.546875 104.726562 C 78.546875 102.109375 80.292969 100.363281 82.910156 100.363281 Z M 82.910156 100.363281 " fill-opacity="1" fill-rule="nonzero"/><path fill="#72818b" d="M 240 43.636719 L 252.21875 74.183594 L 259.199219 74.183594 L 248.726562 47.128906 C 245.234375 39.273438 238.253906 33.164062 230.398438 31.417969 C 233.890625 34.035156 238.253906 38.398438 240 43.636719 Z M 197.238281 39.273438 L 160.582031 39.273438 C 153.601562 39.273438 146.617188 43.636719 144 50.617188 L 134.398438 74.183594 L 143.128906 74.183594 L 150.980469 53.238281 C 152.726562 49.746094 155.34375 48 158.835938 48 L 218.183594 48 C 212.945312 42.761719 205.089844 39.273438 197.238281 39.273438 Z M 104.726562 82.910156 L 157.089844 82.910156 L 157.089844 91.636719 L 104.726562 91.636719 Z M 226.910156 82.910156 L 279.273438 82.910156 L 279.273438 91.636719 L 226.910156 91.636719 Z M 226.910156 82.910156 " fill-opacity="1" fill-rule="nonzero"/></svg>