<svg xmlns="http://www.w3.org/2000/svg" xmlns:xlink="http://www.w3.org/1999/xlink" width="512" zoomAndPan="magnify" viewBox="0 0 384 383.999986" height="512" preserveAspectRatio="xMidYMid meet" version="1.0"><path fill="#f76c82" d="M 328.71875 105.164062 C 328.71875 106.6875 328.679688 108.210938 328.605469 109.734375 C 328.53125 111.257812 328.417969 112.777344 328.269531 114.292969 C 328.121094 115.8125 327.933594 117.324219 327.710938 118.832031 C 327.484375 120.339844 327.226562 121.84375 326.925781 123.339844 C 326.628906 124.832031 326.296875 126.320312 325.925781 127.800781 C 325.554688 129.277344 325.148438 130.746094 324.707031 132.207031 C 324.261719 133.664062 323.785156 135.113281 323.273438 136.546875 C 322.757812 137.984375 322.210938 139.40625 321.625 140.816406 C 321.042969 142.222656 320.425781 143.617188 319.773438 144.996094 C 319.121094 146.375 318.4375 147.734375 317.71875 149.078125 C 317 150.425781 316.246094 151.75 315.464844 153.058594 C 314.679688 154.367188 313.863281 155.652344 313.015625 156.921875 C 312.167969 158.1875 311.292969 159.433594 310.382812 160.660156 C 309.476562 161.882812 308.539062 163.085938 307.570312 164.265625 C 306.601562 165.441406 305.609375 166.597656 304.582031 167.726562 C 303.558594 168.855469 302.507812 169.960938 301.429688 171.039062 C 300.351562 172.117188 299.25 173.167969 298.117188 174.191406 C 296.988281 175.214844 295.835938 176.210938 294.65625 177.179688 C 293.476562 178.144531 292.277344 179.082031 291.050781 179.992188 C 289.828125 180.898438 288.582031 181.777344 287.3125 182.625 C 286.046875 183.472656 284.757812 184.289062 283.449219 185.070312 C 282.140625 185.855469 280.816406 186.605469 279.472656 187.324219 C 278.125 188.042969 276.765625 188.730469 275.386719 189.382812 C 274.007812 190.03125 272.613281 190.652344 271.207031 191.234375 C 269.796875 191.816406 268.375 192.367188 266.941406 192.878906 C 265.503906 193.394531 264.058594 193.871094 262.597656 194.3125 C 261.140625 194.757812 259.671875 195.164062 258.191406 195.535156 C 256.710938 195.902344 255.226562 196.238281 253.730469 196.535156 C 252.234375 196.832031 250.734375 197.09375 249.222656 197.316406 C 247.714844 197.539062 246.203125 197.726562 244.6875 197.878906 C 243.167969 198.027344 241.648438 198.136719 240.125 198.214844 C 238.601562 198.289062 237.078125 198.324219 235.554688 198.324219 C 234.03125 198.324219 232.507812 198.289062 230.984375 198.214844 C 229.460938 198.136719 227.941406 198.027344 226.421875 197.878906 C 224.90625 197.726562 223.394531 197.539062 221.886719 197.316406 C 220.375 197.09375 218.875 196.832031 217.378906 196.535156 C 215.882812 196.238281 214.398438 195.902344 212.917969 195.535156 C 211.4375 195.164062 209.96875 194.757812 208.511719 194.3125 C 207.050781 193.871094 205.605469 193.394531 204.167969 192.878906 C 202.734375 192.367188 201.3125 191.816406 199.902344 191.234375 C 198.496094 190.652344 197.101562 190.03125 195.722656 189.382812 C 194.34375 188.730469 192.984375 188.042969 191.636719 187.324219 C 190.292969 186.605469 188.96875 185.855469 187.660156 185.070312 C 186.351562 184.289062 185.0625 183.472656 183.796875 182.625 C 182.527344 181.777344 181.28125 180.898438 180.058594 179.992188 C 178.832031 179.082031 177.632812 178.144531 176.453125 177.179688 C 175.273438 176.210938 174.121094 175.214844 172.992188 174.191406 C 171.859375 173.167969 170.757812 172.117188 169.679688 171.039062 C 168.601562 169.960938 167.550781 168.855469 166.527344 167.726562 C 165.5 166.597656 164.507812 165.441406 163.539062 164.265625 C 162.570312 163.085938 161.632812 161.882812 160.726562 160.660156 C 159.816406 159.433594 158.941406 158.1875 158.09375 156.921875 C 157.246094 155.652344 156.429688 154.367188 155.644531 153.058594 C 154.863281 151.75 154.109375 150.425781 153.390625 149.078125 C 152.671875 147.734375 151.988281 146.375 151.335938 144.996094 C 150.683594 143.617188 150.066406 142.222656 149.484375 140.816406 C 148.898438 139.40625 148.351562 137.984375 147.835938 136.546875 C 147.324219 135.113281 146.847656 133.664062 146.402344 132.207031 C 145.960938 130.746094 145.554688 129.277344 145.183594 127.800781 C 144.8125 126.320312 144.480469 124.832031 144.183594 123.339844 C 143.882812 121.84375 143.625 120.339844 143.398438 118.832031 C 143.175781 117.324219 142.988281 115.8125 142.839844 114.292969 C 142.691406 112.777344 142.578125 111.257812 142.503906 109.734375 C 142.429688 108.210938 142.390625 106.6875 142.390625 105.164062 C 142.390625 103.636719 142.429688 102.113281 142.503906 100.589844 C 142.578125 99.070312 142.691406 97.546875 142.839844 96.03125 C 142.988281 94.515625 143.175781 93 143.398438 91.492188 C 143.625 89.984375 143.882812 88.484375 144.183594 86.988281 C 144.480469 85.492188 144.8125 84.003906 145.183594 82.527344 C 145.554688 81.046875 145.960938 79.578125 146.402344 78.117188 C 146.847656 76.660156 147.324219 75.210938 147.835938 73.777344 C 148.351562 72.339844 148.898438 70.917969 149.484375 69.511719 C 150.066406 68.101562 150.683594 66.707031 151.335938 65.332031 C 151.988281 63.953125 152.671875 62.589844 153.390625 61.246094 C 154.109375 59.902344 154.863281 58.574219 155.644531 57.269531 C 156.429688 55.960938 157.246094 54.671875 158.09375 53.40625 C 158.941406 52.136719 159.816406 50.890625 160.726562 49.664062 C 161.632812 48.441406 162.570312 47.238281 163.539062 46.0625 C 164.507812 44.882812 165.5 43.726562 166.527344 42.597656 C 167.550781 41.46875 168.601562 40.363281 169.679688 39.285156 C 170.757812 38.207031 171.859375 37.15625 172.992188 36.132812 C 174.121094 35.109375 175.273438 34.113281 176.453125 33.148438 C 177.632812 32.179688 178.832031 31.242188 180.058594 30.332031 C 181.28125 29.425781 182.527344 28.546875 183.796875 27.699219 C 185.0625 26.855469 186.351562 26.039062 187.660156 25.253906 C 188.96875 24.46875 190.292969 23.71875 191.636719 23 C 192.984375 22.28125 194.34375 21.597656 195.722656 20.945312 C 197.101562 20.292969 198.496094 19.675781 199.902344 19.089844 C 201.3125 18.507812 202.734375 17.960938 204.167969 17.445312 C 205.605469 16.933594 207.050781 16.453125 208.511719 16.011719 C 209.96875 15.570312 211.4375 15.164062 212.917969 14.792969 C 214.398438 14.421875 215.882812 14.085938 217.378906 13.789062 C 218.875 13.492188 220.375 13.230469 221.886719 13.007812 C 223.394531 12.785156 224.90625 12.597656 226.421875 12.449219 C 227.941406 12.300781 229.460938 12.1875 230.984375 12.113281 C 232.507812 12.039062 234.03125 12 235.554688 12 C 237.078125 12 238.601562 12.039062 240.125 12.113281 C 241.648438 12.1875 243.167969 12.300781 244.6875 12.449219 C 246.203125 12.597656 247.714844 12.785156 249.222656 13.007812 C 250.734375 13.230469 252.234375 13.492188 253.730469 13.789062 C 255.226562 14.085938 256.710938 14.421875 258.191406 14.792969 C 259.671875 15.164062 261.140625 15.570312 262.597656 16.011719 C 264.058594 16.453125 265.503906 16.933594 266.941406 17.445312 C 268.375 17.960938 269.796875 18.507812 271.207031 19.089844 C 272.613281 19.675781 274.007812 20.292969 275.386719 20.945312 C 276.765625 21.597656 278.125 22.28125 279.472656 23 C 280.816406 23.71875 282.140625 24.46875 283.449219 25.253906 C 284.757812 26.039062 286.046875 26.855469 287.3125 27.699219 C 288.582031 28.546875 289.828125 29.425781 291.050781 30.332031 C 292.277344 31.242188 293.476562 32.179688 294.65625 33.148438 C 295.835938 34.113281 296.988281 35.109375 298.117188 36.132812 C 299.25 37.15625 300.351562 38.207031 301.429688 39.285156 C 302.507812 40.363281 303.558594 41.46875 304.582031 42.597656 C 305.609375 43.726562 306.601562 44.882812 307.570312 46.0625 C 308.539062 47.238281 309.476562 48.441406 310.382812 49.664062 C 311.292969 50.890625 312.167969 52.136719 313.015625 53.40625 C 313.863281 54.671875 314.679688 55.960938 315.464844 57.269531 C 316.246094 58.574219 317 59.902344 317.71875 61.246094 C 318.4375 62.589844 319.121094 63.953125 319.773438 65.332031 C 320.425781 66.707031 321.042969 68.101562 321.625 69.511719 C 322.210938 70.917969 322.757812 72.339844 323.273438 73.777344 C 323.785156 75.210938 324.261719 76.660156 324.707031 78.117188 C 325.148438 79.578125 325.554688 81.046875 325.925781 82.527344 C 326.296875 84.003906 326.628906 85.492188 326.925781 86.988281 C 327.226562 88.484375 327.484375 89.984375 327.710938 91.492188 C 327.933594 93 328.121094 94.515625 328.269531 96.03125 C 328.417969 97.546875 328.53125 99.070312 328.605469 100.589844 C 328.679688 102.113281 328.71875 103.636719 328.71875 105.164062 Z M 328.71875 105.164062 " fill-opacity="1" fill-rule="nonzero"/><path fill="#f4f6f8" d="M 277.28125 78.914062 L 293.097656 78.914062 C 294.335938 78.914062 295.347656 79.925781 295.347656 81.164062 L 295.347656 95.003906 L 309.1875 95.003906 C 310.425781 95.003906 311.4375 96.015625 311.4375 97.253906 L 311.4375 113.070312 C 311.4375 114.3125 310.425781 115.320312 309.1875 115.320312 L 295.347656 115.320312 L 295.347656 129.164062 C 295.347656 130.402344 294.335938 131.414062 293.097656 131.414062 L 277.28125 131.414062 C 276.039062 131.414062 275.03125 130.402344 275.03125 129.164062 L 275.03125 115.320312 L 261.1875 115.320312 C 259.949219 115.320312 258.9375 114.3125 258.9375 113.070312 L 258.9375 97.253906 C 258.9375 96.015625 259.949219 95.003906 261.1875 95.003906 L 275.03125 95.003906 L 275.03125 81.164062 C 275.03125 79.925781 276.039062 78.914062 277.28125 78.914062 Z M 277.28125 78.914062 " fill-opacity="1" fill-rule="evenodd"/><path fill="#66d4f1" d="M 240.414062 90.207031 C 240.660156 91.710938 240.867188 93.21875 241.039062 94.734375 C 241.210938 96.25 241.34375 97.769531 241.441406 99.289062 C 241.535156 100.8125 241.59375 102.335938 241.617188 103.859375 C 241.640625 105.382812 241.621094 106.910156 241.570312 108.433594 C 241.515625 109.957031 241.425781 111.476562 241.296875 112.996094 C 241.171875 114.515625 241.003906 116.03125 240.800781 117.542969 C 240.601562 119.054688 240.359375 120.558594 240.085938 122.058594 C 239.808594 123.558594 239.496094 125.050781 239.144531 126.535156 C 238.796875 128.019531 238.410156 129.492188 237.988281 130.957031 C 237.566406 132.421875 237.109375 133.875 236.617188 135.320312 C 236.125 136.761719 235.59375 138.191406 235.03125 139.609375 C 234.46875 141.023438 233.871094 142.425781 233.238281 143.816406 C 232.605469 145.203125 231.941406 146.574219 231.242188 147.929688 C 230.539062 149.28125 229.808594 150.621094 229.042969 151.9375 C 228.277344 153.257812 227.480469 154.554688 226.652344 155.835938 C 225.824219 157.117188 224.964844 158.375 224.070312 159.609375 C 223.179688 160.847656 222.261719 162.0625 221.308594 163.253906 C 220.359375 164.449219 219.378906 165.617188 218.371094 166.761719 C 217.363281 167.902344 216.328125 169.023438 215.265625 170.117188 C 214.203125 171.210938 213.117188 172.277344 212 173.316406 C 210.886719 174.355469 209.746094 175.367188 208.582031 176.351562 C 207.417969 177.335938 206.226562 178.289062 205.015625 179.214844 C 203.804688 180.140625 202.570312 181.035156 201.316406 181.902344 C 200.058594 182.765625 198.785156 183.601562 197.488281 184.402344 C 196.191406 185.203125 194.875 185.972656 193.539062 186.710938 C 192.207031 187.449219 190.855469 188.15625 189.484375 188.824219 C 188.117188 189.496094 186.734375 190.132812 185.332031 190.738281 C 183.933594 191.339844 182.519531 191.910156 181.089844 192.445312 C 179.660156 192.976562 178.222656 193.476562 176.769531 193.941406 C 175.316406 194.402344 173.851562 194.832031 172.378906 195.222656 C 170.90625 195.613281 169.421875 195.96875 167.933594 196.285156 C 166.441406 196.605469 164.945312 196.886719 163.4375 197.132812 C 161.933594 197.378906 160.425781 197.585938 158.910156 197.757812 C 157.394531 197.925781 155.875 198.0625 154.355469 198.15625 C 152.832031 198.253906 151.308594 198.3125 149.785156 198.335938 C 148.261719 198.355469 146.734375 198.339844 145.210938 198.285156 C 143.6875 198.234375 142.167969 198.144531 140.648438 198.015625 C 139.128906 197.886719 137.613281 197.722656 136.101562 197.519531 C 134.589844 197.316406 133.085938 197.078125 131.585938 196.800781 C 130.085938 196.527344 128.59375 196.214844 127.109375 195.863281 C 125.625 195.515625 124.152344 195.128906 122.6875 194.707031 C 121.222656 194.285156 119.769531 193.828125 118.324219 193.332031 C 116.882812 192.839844 115.453125 192.3125 114.035156 191.75 C 112.621094 191.183594 111.21875 190.585938 109.828125 189.957031 C 108.441406 189.324219 107.070312 188.65625 105.714844 187.957031 C 104.363281 187.257812 103.023438 186.527344 101.707031 185.761719 C 100.386719 184.996094 99.089844 184.199219 97.808594 183.367188 C 96.53125 182.539062 95.269531 181.679688 94.035156 180.789062 C 92.796875 179.898438 91.582031 178.976562 90.390625 178.027344 C 89.195312 177.078125 88.027344 176.097656 86.882812 175.089844 C 85.742188 174.082031 84.621094 173.046875 83.527344 171.984375 C 82.433594 170.921875 81.367188 169.832031 80.328125 168.71875 C 79.289062 167.601562 78.277344 166.460938 77.292969 165.296875 C 76.308594 164.132812 75.355469 162.945312 74.429688 161.734375 C 73.503906 160.523438 72.609375 159.289062 71.742188 158.03125 C 70.878906 156.777344 70.042969 155.5 69.242188 154.203125 C 68.441406 152.90625 67.671875 151.59375 66.933594 150.257812 C 66.195312 148.925781 65.492188 147.570312 64.820312 146.203125 C 64.148438 144.835938 63.511719 143.449219 62.90625 142.050781 C 62.304688 140.648438 61.734375 139.234375 61.199219 137.808594 C 60.667969 136.378906 60.167969 134.9375 59.703125 133.484375 C 59.242188 132.035156 58.8125 130.570312 58.421875 129.097656 C 58.03125 127.625 57.675781 126.140625 57.359375 124.648438 C 57.039062 123.160156 56.757812 121.660156 56.511719 120.15625 C 56.265625 118.652344 56.058594 117.140625 55.886719 115.625 C 55.71875 114.109375 55.582031 112.59375 55.488281 111.070312 C 55.390625 109.550781 55.332031 108.027344 55.308594 106.503906 C 55.289062 104.976562 55.304688 103.453125 55.359375 101.929688 C 55.410156 100.40625 55.5 98.882812 55.628906 97.363281 C 55.757812 95.84375 55.921875 94.332031 56.125 92.820312 C 56.328125 91.308594 56.566406 89.800781 56.84375 88.304688 C 57.117188 86.804688 57.429688 85.3125 57.78125 83.828125 C 58.128906 82.34375 58.515625 80.871094 58.9375 79.402344 C 59.359375 77.9375 59.816406 76.484375 60.3125 75.042969 C 60.804688 73.601562 61.332031 72.167969 61.894531 70.753906 C 62.460938 69.335938 63.058594 67.933594 63.6875 66.546875 C 64.320312 65.160156 64.988281 63.789062 65.6875 62.433594 C 66.386719 61.078125 67.117188 59.742188 67.882812 58.421875 C 68.648438 57.105469 69.445312 55.804688 70.277344 54.527344 C 71.105469 53.246094 71.964844 51.988281 72.855469 50.75 C 73.746094 49.511719 74.667969 48.296875 75.617188 47.105469 C 76.566406 45.914062 77.546875 44.746094 78.554688 43.601562 C 79.5625 42.457031 80.597656 41.339844 81.660156 40.246094 C 82.722656 39.152344 83.8125 38.085938 84.925781 37.046875 C 86.042969 36.007812 87.183594 34.996094 88.347656 34.011719 C 89.511719 33.027344 90.699219 32.070312 91.910156 31.144531 C 93.121094 30.222656 94.355469 29.324219 95.613281 28.460938 C 96.867188 27.59375 98.144531 26.761719 99.441406 25.960938 C 100.738281 25.15625 102.050781 24.386719 103.386719 23.648438 C 104.722656 22.910156 106.074219 22.207031 107.441406 21.535156 C 108.808594 20.863281 110.195312 20.226562 111.59375 19.625 C 112.996094 19.019531 114.410156 18.453125 115.835938 17.917969 C 117.265625 17.382812 118.707031 16.886719 120.160156 16.421875 C 121.609375 15.957031 123.074219 15.53125 124.546875 15.140625 C 126.019531 14.75 127.503906 14.394531 128.996094 14.074219 C 130.484375 13.757812 131.984375 13.476562 133.488281 13.230469 C 134.992188 12.984375 136.503906 12.777344 138.019531 12.605469 C 139.535156 12.433594 141.050781 12.300781 142.574219 12.203125 C 144.09375 12.109375 145.617188 12.050781 147.144531 12.027344 C 148.667969 12.007812 150.191406 12.023438 151.714844 12.074219 C 153.238281 12.128906 154.761719 12.21875 156.28125 12.347656 C 157.800781 12.472656 159.3125 12.640625 160.824219 12.84375 C 162.335938 13.042969 163.84375 13.285156 165.339844 13.558594 C 166.839844 13.835938 168.332031 14.148438 169.816406 14.5 C 171.300781 14.847656 172.773438 15.234375 174.242188 15.65625 C 175.707031 16.078125 177.160156 16.535156 178.601562 17.027344 C 180.046875 17.519531 181.476562 18.050781 182.890625 18.613281 C 184.308594 19.175781 185.710938 19.773438 187.097656 20.40625 C 188.484375 21.039062 189.855469 21.703125 191.210938 22.402344 C 192.566406 23.105469 193.902344 23.835938 195.222656 24.601562 C 196.539062 25.367188 197.839844 26.164062 199.117188 26.992188 C 200.398438 27.820312 201.65625 28.683594 202.894531 29.574219 C 204.132812 30.464844 205.347656 31.382812 206.539062 32.335938 C 207.730469 33.285156 208.898438 34.265625 210.042969 35.273438 C 211.1875 36.28125 212.304688 37.316406 213.398438 38.378906 C 214.492188 39.441406 215.558594 40.527344 216.597656 41.644531 C 217.636719 42.757812 218.648438 43.898438 219.632812 45.0625 C 220.617188 46.230469 221.574219 47.417969 222.5 48.628906 C 223.421875 49.839844 224.320312 51.074219 225.183594 52.328125 C 226.050781 53.585938 226.882812 54.859375 227.683594 56.15625 C 228.488281 57.453125 229.257812 58.769531 229.996094 60.105469 C 230.734375 61.4375 231.4375 62.789062 232.109375 64.160156 C 232.78125 65.527344 233.417969 66.910156 234.019531 68.3125 C 234.625 69.710938 235.191406 71.125 235.726562 72.554688 C 236.261719 73.984375 236.757812 75.421875 237.222656 76.875 C 237.6875 78.328125 238.113281 79.792969 238.503906 81.265625 C 238.894531 82.738281 239.25 84.222656 239.570312 85.710938 C 239.886719 87.203125 240.171875 88.699219 240.414062 90.207031 Z M 240.414062 90.207031 " fill-opacity="1" fill-rule="nonzero"/><path fill="#daa33b" d="M 85.808594 125.027344 C 85.5625 124.789062 85.34375 124.53125 85.152344 124.253906 C 84.957031 123.972656 84.792969 123.675781 84.65625 123.363281 C 84.519531 123.050781 84.414062 122.730469 84.34375 122.398438 C 84.269531 122.066406 84.230469 121.730469 84.222656 121.390625 C 84.214844 121.046875 84.238281 120.710938 84.296875 120.375 C 84.355469 120.039062 84.445312 119.714844 84.566406 119.394531 C 84.6875 119.078125 84.839844 118.773438 85.019531 118.488281 C 85.203125 118.199219 85.410156 117.929688 85.644531 117.683594 C 85.875 117.433594 86.132812 117.210938 86.40625 117.011719 C 86.683594 116.816406 86.976562 116.644531 87.289062 116.503906 C 87.597656 116.363281 87.917969 116.253906 88.25 116.175781 C 88.582031 116.097656 88.914062 116.050781 89.257812 116.039062 C 89.597656 116.023438 89.933594 116.042969 90.269531 116.097656 C 90.605469 116.148438 90.933594 116.234375 91.253906 116.351562 C 91.574219 116.46875 91.878906 116.613281 92.171875 116.789062 C 92.460938 116.96875 92.734375 117.167969 92.984375 117.398438 C 94.109375 118.460938 95.066406 119.277344 95.972656 119.734375 C 96.703125 120.105469 97.601562 120.304688 98.863281 120.304688 C 100.671875 120.304688 102.265625 119.691406 103.378906 118.699219 C 104.335938 117.84375 104.925781 116.695312 104.925781 115.453125 C 104.925781 114.210938 104.335938 113.058594 103.378906 112.203125 C 102.265625 111.210938 100.671875 110.597656 98.863281 110.597656 C 94.425781 110.597656 90.359375 108.949219 87.375 106.285156 C 84.238281 103.484375 82.296875 99.582031 82.296875 95.246094 L 82.320312 95.246094 C 82.320312 90.894531 84.253906 86.996094 87.375 84.203125 C 89.183594 82.601562 91.234375 81.4375 93.539062 80.710938 L 93.5 79.035156 C 93.496094 78.695312 93.527344 78.359375 93.589844 78.027344 C 93.65625 77.691406 93.75 77.367188 93.878906 77.054688 C 94.003906 76.738281 94.160156 76.4375 94.34375 76.152344 C 94.53125 75.867188 94.742188 75.605469 94.976562 75.359375 C 95.214844 75.117188 95.472656 74.898438 95.75 74.703125 C 96.03125 74.511719 96.324219 74.347656 96.636719 74.210938 C 96.949219 74.074219 97.269531 73.96875 97.601562 73.898438 C 97.933594 73.824219 98.269531 73.78125 98.609375 73.773438 C 98.949219 73.765625 99.285156 73.792969 99.621094 73.847656 C 99.953125 73.90625 100.28125 73.996094 100.597656 74.117188 C 100.914062 74.238281 101.21875 74.390625 101.507812 74.570312 C 101.792969 74.75 102.0625 74.957031 102.308594 75.1875 C 102.558594 75.421875 102.78125 75.675781 102.980469 75.949219 C 103.175781 76.226562 103.347656 76.519531 103.488281 76.828125 C 103.628906 77.136719 103.738281 77.457031 103.820312 77.785156 C 103.898438 78.117188 103.945312 78.453125 103.960938 78.789062 L 104.007812 80.800781 C 104.996094 81.105469 105.984375 81.484375 106.914062 81.917969 C 109.488281 83.113281 111.898438 84.855469 113.269531 86.941406 C 113.457031 87.226562 113.617188 87.53125 113.746094 87.847656 C 113.875 88.164062 113.972656 88.492188 114.035156 88.832031 C 114.101562 89.167969 114.132812 89.507812 114.128906 89.851562 C 114.125 90.195312 114.089844 90.535156 114.019531 90.871094 C 113.949219 91.207031 113.847656 91.53125 113.714844 91.847656 C 113.582031 92.164062 113.417969 92.464844 113.226562 92.75 C 113.03125 93.03125 112.8125 93.292969 112.570312 93.535156 C 112.324219 93.777344 112.058594 93.992188 111.773438 94.179688 C 111.484375 94.367188 111.183594 94.527344 110.863281 94.65625 C 110.546875 94.785156 110.21875 94.882812 109.882812 94.945312 C 109.546875 95.011719 109.203125 95.042969 108.863281 95.039062 C 108.519531 95.035156 108.179688 95 107.84375 94.929688 C 107.507812 94.859375 107.179688 94.757812 106.863281 94.625 C 106.546875 94.492188 106.25 94.328125 105.964844 94.136719 C 105.679688 93.941406 105.417969 93.722656 105.175781 93.480469 C 104.9375 93.234375 104.722656 92.96875 104.53125 92.683594 C 104.324219 92.363281 103.523438 91.898438 102.523438 91.433594 C 101.128906 90.78125 99.71875 90.371094 98.863281 90.371094 L 98.863281 90.390625 C 97.054688 90.390625 95.460938 91.007812 94.347656 92 C 93.378906 92.863281 92.777344 94.015625 92.777344 95.246094 L 92.800781 95.246094 C 92.800781 96.488281 93.390625 97.636719 94.351562 98.492188 C 95.460938 99.484375 97.054688 100.097656 98.863281 100.097656 C 103.300781 100.097656 107.367188 101.746094 110.351562 104.414062 C 113.488281 107.214844 115.429688 111.113281 115.429688 115.453125 C 115.429688 119.789062 113.488281 123.691406 110.351562 126.492188 C 108.546875 128.09375 106.496094 129.257812 104.195312 129.984375 L 104.226562 131.289062 C 104.230469 131.628906 104.199219 131.96875 104.136719 132.300781 C 104.074219 132.632812 103.976562 132.957031 103.851562 133.273438 C 103.722656 133.589844 103.566406 133.890625 103.382812 134.171875 C 103.199219 134.457031 102.988281 134.722656 102.75 134.964844 C 102.511719 135.210938 102.253906 135.429688 101.976562 135.621094 C 101.695312 135.816406 101.402344 135.980469 101.089844 136.117188 C 100.78125 136.253906 100.457031 136.355469 100.125 136.429688 C 99.792969 136.503906 99.457031 136.542969 99.121094 136.550781 C 98.78125 136.558594 98.441406 136.535156 98.109375 136.476562 C 97.773438 136.421875 97.445312 136.332031 97.128906 136.210938 C 96.8125 136.089844 96.511719 135.9375 96.222656 135.757812 C 95.933594 135.578125 95.664062 135.371094 95.417969 135.140625 C 95.171875 134.90625 94.945312 134.652344 94.75 134.375 C 94.550781 134.101562 94.378906 133.808594 94.238281 133.5 C 94.097656 133.191406 93.988281 132.871094 93.910156 132.542969 C 93.828125 132.210938 93.78125 131.875 93.769531 131.535156 L 93.734375 130.089844 C 92.871094 129.824219 92.050781 129.492188 91.257812 129.085938 C 89.222656 128.058594 87.585938 126.703125 85.808594 125.027344 Z M 85.808594 125.027344 " fill-opacity="1" fill-rule="evenodd"/><path fill="#b3a4ee" d="M 192.027344 187.550781 C 194.113281 186.449219 196.152344 185.265625 198.148438 184.003906 C 224.292969 167.503906 241.660156 138.363281 241.660156 105.164062 C 241.660156 71.574219 223.882812 42.132812 197.222656 25.742188 C 195.523438 24.699219 193.789062 23.707031 192.027344 22.773438 C 190.679688 23.484375 189.351562 24.230469 188.042969 25.007812 C 160.710938 41.242188 142.390625 71.0625 142.390625 105.164062 C 142.390625 138.050781 159.429688 166.957031 185.164062 183.535156 C 187.386719 184.96875 189.675781 186.308594 192.027344 187.550781 Z M 192.027344 187.550781 " fill-opacity="1" fill-rule="evenodd"/><path fill="#f76c82" d="M 193.253906 88.726562 C 196.171875 84.234375 199.402344 81.988281 205.152344 81.988281 C 212.394531 81.988281 218.277344 87.234375 218.277344 93.699219 C 218.277344 105.121094 205.792969 116.542969 193 127.964844 C 192.867188 128.085938 192.714844 128.179688 192.546875 128.242188 C 192.378906 128.308594 192.207031 128.339844 192.023438 128.339844 C 191.84375 128.339844 191.671875 128.308594 191.503906 128.242188 C 191.335938 128.179688 191.183594 128.085938 191.050781 127.964844 C 178.257812 116.542969 165.773438 105.121094 165.773438 93.699219 C 165.773438 87.234375 171.65625 81.988281 178.898438 81.988281 C 184.648438 81.988281 187.878906 84.234375 190.796875 88.726562 C 191.074219 89.15625 191.515625 89.394531 192.023438 89.394531 C 192.558594 89.402344 192.96875 89.179688 193.253906 88.726562 Z M 193.253906 88.726562 " fill-opacity="1" fill-rule="evenodd"/><path fill="#efc7a4" d="M 35.527344 259.070312 C 39.082031 269.863281 43.339844 284.613281 53.117188 291.332031 L 83.964844 312.535156 C 88.457031 315.621094 91.296875 319.765625 92.558594 325.066406 L 101.285156 361.742188 L 158.589844 344.550781 C 154.214844 327.019531 149.738281 309.519531 145.59375 291.933594 C 141.078125 272.746094 137.277344 261.238281 111.023438 254.035156 L 83.617188 234.347656 C 79.039062 231.058594 73.21875 230.679688 68.398438 232.84375 L 48.867188 186.648438 C 31.847656 146.386719 6.941406 172.316406 12.902344 190.398438 Z M 35.527344 259.070312 " fill-opacity="1" fill-rule="evenodd"/><path fill="#d5a889" d="M 62.269531 237.847656 L 123.378906 281.085938 C 118.554688 287.902344 109.035156 289.53125 102.21875 284.710938 L 65.894531 259.003906 C 59.078125 254.183594 57.449219 244.660156 62.269531 237.847656 Z M 62.269531 237.847656 " fill-opacity="1" fill-rule="evenodd"/><path fill="#e4e8eb" d="M 78.261719 345.914062 L 78.28125 364.625 C 78.285156 368.6875 81.59375 371.996094 85.65625 371.996094 L 161.777344 372 C 163.8125 372 165.5625 371.273438 166.996094 369.835938 C 168.433594 368.398438 169.15625 366.648438 169.15625 364.617188 L 169.136719 345.902344 C 169.132812 341.84375 165.820312 338.53125 161.761719 338.53125 L 85.640625 338.527344 C 83.605469 338.527344 81.855469 339.253906 80.421875 340.691406 C 78.984375 342.128906 78.257812 343.878906 78.261719 345.914062 Z M 78.261719 345.914062 " fill-opacity="1" fill-rule="evenodd"/><path fill="#efc7a4" d="M 348.472656 259.070312 C 344.917969 269.863281 340.660156 284.613281 330.882812 291.332031 L 300.035156 312.535156 C 295.542969 315.621094 292.703125 319.765625 291.441406 325.066406 L 282.714844 361.742188 L 225.410156 344.550781 C 229.785156 327.019531 234.261719 309.519531 238.40625 291.933594 C 242.921875 272.746094 246.722656 261.238281 272.976562 254.035156 L 300.382812 234.347656 C 304.960938 231.058594 310.78125 230.679688 315.601562 232.84375 L 335.132812 186.648438 C 352.152344 146.386719 377.054688 172.316406 371.097656 190.398438 Z M 348.472656 259.070312 " fill-opacity="1" fill-rule="evenodd"/><path fill="#d5a889" d="M 321.730469 237.847656 L 260.621094 281.085938 C 265.445312 287.902344 274.964844 289.53125 281.78125 284.710938 L 318.105469 259.003906 C 324.921875 254.183594 326.550781 244.660156 321.730469 237.847656 Z M 321.730469 237.847656 " fill-opacity="1" fill-rule="evenodd"/><path fill="#e4e8eb" d="M 305.738281 345.914062 L 305.71875 364.625 C 305.714844 368.6875 302.40625 371.996094 298.34375 371.996094 L 222.222656 372 C 220.1875 372 218.441406 371.273438 217.003906 369.835938 C 215.566406 368.398438 214.84375 366.648438 214.84375 364.617188 L 214.863281 345.902344 C 214.867188 341.84375 218.179688 338.53125 222.238281 338.53125 L 298.363281 338.527344 C 300.394531 338.527344 302.144531 339.253906 303.582031 340.691406 C 305.015625 342.128906 305.742188 343.878906 305.738281 345.914062 Z M 305.738281 345.914062 " fill-opacity="1" fill-rule="evenodd"/></svg>