<svg xmlns="http://www.w3.org/2000/svg" xmlns:xlink="http://www.w3.org/1999/xlink" width="512" zoomAndPan="magnify" viewBox="0 0 384 383.999986" height="512" preserveAspectRatio="xMidYMid meet" version="1.0"><path fill="#ed7161" d="M 334.847656 51.457031 L 100.609375 24.574219 C 89.855469 23.039062 80.640625 30.71875 79.105469 41.472656 L 47.617188 328.703125 C 46.078125 339.457031 53.761719 348.671875 64.511719 350.207031 L 298.753906 376.320312 C 309.503906 377.855469 318.71875 370.175781 320.257812 359.425781 L 352.511719 72.191406 C 353.28125 62.207031 345.601562 52.222656 334.847656 51.457031 Z M 334.847656 51.457031 " fill-opacity="1" fill-rule="nonzero"/><path fill="#e6e6e6" d="M 298.753906 7.679688 L 52.222656 7.679688 C 40.703125 7.679688 32.257812 16.894531 32.257812 27.648438 L 32.257812 329.472656 C 32.257812 340.222656 41.472656 349.441406 52.222656 349.441406 L 298.753906 349.441406 C 309.503906 349.441406 318.71875 340.222656 318.71875 329.472656 L 318.71875 27.648438 C 318.71875 16.894531 309.503906 7.679688 298.753906 7.679688 Z M 298.753906 7.679688 " fill-opacity="1" fill-rule="nonzero"/><path fill="#cccccc" d="M 298.753906 7.679688 L 32.257812 329.472656 C 32.257812 340.222656 41.472656 349.441406 52.222656 349.441406 L 298.753906 349.441406 C 309.503906 349.441406 318.71875 340.222656 318.71875 329.472656 L 318.71875 27.648438 C 318.71875 16.894531 309.503906 7.679688 298.753906 7.679688 Z M 298.753906 7.679688 " fill-opacity="1" fill-rule="nonzero"/><path fill="#666666" d="M 109.824219 38.398438 L 117.503906 38.398438 L 117.503906 84.480469 L 109.054688 84.480469 L 82.945312 50.6875 L 82.945312 84.480469 L 75.265625 84.480469 L 75.265625 38.398438 L 82.945312 38.398438 L 109.824219 72.960938 Z M 162.816406 38.398438 L 162.816406 46.078125 L 138.238281 46.078125 L 138.238281 58.367188 L 160.511719 58.367188 L 160.511719 65.28125 L 138.238281 65.28125 L 138.238281 76.800781 L 163.585938 76.800781 L 163.585938 84.480469 L 130.558594 84.480469 L 130.558594 38.398438 Z M 188.160156 71.425781 L 198.910156 38.398438 L 205.824219 38.398438 L 215.808594 71.425781 L 227.328125 38.398438 L 235.777344 38.398438 L 219.648438 84.480469 L 211.96875 84.480469 L 201.984375 52.992188 L 201.214844 52.992188 L 192 84.480469 L 184.320312 84.480469 L 168.191406 38.398438 L 176.640625 38.398438 Z M 257.28125 44.542969 C 254.976562 44.542969 253.441406 45.3125 251.902344 46.078125 C 250.367188 46.847656 249.601562 48.382812 249.601562 49.921875 C 249.601562 51.457031 250.367188 52.992188 251.902344 54.527344 C 253.441406 55.296875 256.511719 56.0625 261.121094 57.601562 C 265.726562 58.367188 269.566406 60.671875 271.871094 62.207031 C 274.175781 64.511719 275.710938 67.585938 275.710938 71.425781 C 275.710938 75.265625 274.175781 79.105469 271.105469 81.40625 C 268.03125 83.710938 264.191406 85.246094 258.816406 85.246094 C 251.902344 85.246094 244.992188 82.945312 239.617188 77.566406 L 244.222656 71.425781 C 248.832031 75.265625 253.441406 77.566406 258.816406 77.566406 C 261.121094 77.566406 263.425781 76.800781 264.960938 76.03125 C 266.496094 75.265625 267.265625 73.726562 267.265625 71.425781 C 267.265625 69.886719 266.496094 68.351562 264.960938 67.585938 C 263.425781 66.816406 261.121094 66.046875 258.046875 64.511719 C 254.976562 63.742188 251.902344 62.976562 250.367188 62.207031 C 248.0625 62.207031 246.527344 61.441406 245.761719 59.902344 C 242.6875 57.601562 241.921875 54.527344 241.921875 50.6875 C 241.921875 46.847656 243.457031 43.007812 246.527344 40.703125 C 249.601562 38.398438 253.441406 36.863281 258.046875 36.863281 C 261.121094 36.863281 264.191406 37.632812 266.496094 38.398438 C 269.566406 39.167969 271.871094 40.703125 274.175781 42.238281 L 270.335938 48.382812 C 268.800781 47.617188 266.496094 46.078125 264.191406 45.3125 C 261.886719 44.542969 259.585938 44.542969 257.28125 44.542969 Z M 257.28125 44.542969 " fill-opacity="1" fill-rule="nonzero"/><path fill="#ed7161" d="M 65.28125 99.839844 L 284.929688 99.839844 L 284.929688 112.128906 L 65.28125 112.128906 Z M 65.28125 99.839844 " fill-opacity="1" fill-rule="nonzero"/><path fill="#b3b3b3" d="M 65.28125 128.257812 L 168.191406 128.257812 L 168.191406 142.847656 L 65.28125 142.847656 Z M 182.015625 128.257812 L 284.929688 128.257812 L 284.929688 142.847656 L 182.015625 142.847656 Z M 65.28125 157.441406 L 168.191406 157.441406 L 168.191406 172.03125 L 65.28125 172.03125 Z M 182.015625 157.441406 L 284.929688 157.441406 L 284.929688 172.03125 L 182.015625 172.03125 Z M 65.28125 187.390625 L 168.191406 187.390625 L 168.191406 201.984375 L 65.28125 201.984375 Z M 182.015625 187.390625 L 284.929688 187.390625 L 284.929688 201.984375 L 182.015625 201.984375 Z M 182.015625 187.390625 " fill-opacity="1" fill-rule="nonzero"/><path fill="#b3b3b3" d="M 65.28125 216.574219 L 168.191406 216.574219 L 168.191406 231.167969 L 65.28125 231.167969 Z M 65.28125 246.527344 L 168.191406 246.527344 L 168.191406 261.121094 L 65.28125 261.121094 Z M 65.28125 276.480469 L 168.191406 276.480469 L 168.191406 291.070312 L 65.28125 291.070312 Z M 65.28125 276.480469 " fill-opacity="1" fill-rule="nonzero"/><path fill="#b3b3b3" d="M 65.28125 305.664062 L 168.191406 305.664062 L 168.191406 320.257812 L 65.28125 320.257812 Z M 182.015625 305.664062 L 284.929688 305.664062 L 284.929688 320.257812 L 182.015625 320.257812 Z M 182.015625 305.664062 " fill-opacity="1" fill-rule="nonzero"/><path fill="#88c057" d="M 182.015625 216.574219 L 284.929688 216.574219 L 284.929688 290.304688 L 182.015625 290.304688 Z M 182.015625 216.574219 " fill-opacity="1" fill-rule="nonzero"/></svg>