<svg xmlns="http://www.w3.org/2000/svg" xmlns:xlink="http://www.w3.org/1999/xlink" width="512" zoomAndPan="magnify" viewBox="0 0 384 383.999986" height="512" preserveAspectRatio="xMidYMid meet" version="1.0"><path fill="#475a61" d="M 73.5 40.800781 L 49.5 40.800781 C 37.507812 40.800781 27.75 50.554688 27.75 62.550781 L 27.75 97.050781 C 27.75 103.261719 32.785156 108.300781 39 108.300781 L 84 108.300781 C 90.214844 108.300781 95.25 103.261719 95.25 97.050781 L 95.25 62.550781 C 95.25 50.554688 85.492188 40.800781 73.5 40.800781 Z M 73.5 40.800781 " fill-opacity="1" fill-rule="nonzero"/><path fill="#697c84" d="M 350.25 85.800781 L 301.589844 85.800781 C 283.707031 85.800781 268.339844 76.207031 260.492188 60.140625 C 254.527344 47.9375 240.9375 40.050781 225.867188 40.050781 L 158.113281 40.050781 C 143.046875 40.050781 129.457031 47.9375 123.492188 60.140625 C 115.640625 76.207031 100.273438 85.800781 82.390625 85.800781 L 33.75 85.800781 C 15.140625 85.800781 0 100.941406 0 119.550781 L 0 279.300781 C 0 297.910156 15.140625 313.050781 33.75 313.050781 L 350.25 313.050781 C 368.859375 313.050781 384 297.910156 384 279.300781 L 384 119.550781 C 384 100.941406 368.859375 85.800781 350.25 85.800781 Z M 350.25 85.800781 " fill-opacity="1" fill-rule="nonzero"/><path fill="#475a61" d="M 350.25 85.800781 L 301.589844 85.800781 C 283.707031 85.800781 268.339844 76.207031 260.492188 60.140625 C 254.527344 47.9375 240.9375 40.050781 225.867188 40.050781 L 192 40.050781 L 192 313.050781 L 350.25 313.050781 C 368.859375 313.050781 384 297.910156 384 279.300781 L 384 119.550781 C 384 100.941406 368.859375 85.800781 350.25 85.800781 Z M 350.25 85.800781 " fill-opacity="1" fill-rule="nonzero"/><path fill="#475a61" d="M 192 343.949219 C 125.582031 343.949219 71.550781 289.917969 71.550781 223.5 C 71.550781 157.082031 125.582031 103.046875 192 103.046875 C 258.417969 103.046875 312.453125 157.082031 312.453125 223.5 C 312.453125 289.917969 258.417969 343.949219 192 343.949219 Z M 192 343.949219 " fill-opacity="1" fill-rule="nonzero"/><path fill="#32393f" d="M 192 103.046875 L 192 343.949219 C 258.417969 343.949219 312.449219 289.917969 312.449219 223.5 C 312.453125 157.082031 258.417969 103.046875 192 103.046875 Z M 192 103.046875 " fill-opacity="1" fill-rule="nonzero"/><path fill="#75e1f7" d="M 289.949219 223.5 C 289.949219 225.101562 289.910156 226.707031 289.832031 228.304688 C 289.753906 229.90625 289.636719 231.503906 289.480469 233.101562 C 289.320312 234.695312 289.125 236.285156 288.890625 237.871094 C 288.65625 239.457031 288.382812 241.035156 288.070312 242.609375 C 287.757812 244.179688 287.40625 245.746094 287.015625 247.300781 C 286.625 248.855469 286.199219 250.398438 285.734375 251.933594 C 285.269531 253.46875 284.765625 254.988281 284.226562 256.5 C 283.683594 258.007812 283.109375 259.503906 282.496094 260.984375 C 281.882812 262.464844 281.230469 263.929688 280.546875 265.378906 C 279.859375 266.828125 279.140625 268.261719 278.386719 269.671875 C 277.628906 271.085938 276.839844 272.480469 276.015625 273.855469 C 275.191406 275.230469 274.332031 276.585938 273.441406 277.917969 C 272.550781 279.25 271.628906 280.5625 270.675781 281.847656 C 269.71875 283.136719 268.734375 284.398438 267.71875 285.640625 C 266.699219 286.878906 265.652344 288.09375 264.578125 289.28125 C 263.5 290.46875 262.394531 291.628906 261.261719 292.761719 C 260.128906 293.894531 258.96875 295 257.78125 296.078125 C 256.59375 297.152344 255.378906 298.199219 254.140625 299.21875 C 252.898438 300.234375 251.636719 301.21875 250.347656 302.175781 C 249.0625 303.128906 247.75 304.050781 246.417969 304.941406 C 245.085938 305.832031 243.730469 306.691406 242.355469 307.515625 C 240.980469 308.339844 239.585938 309.128906 238.171875 309.886719 C 236.761719 310.640625 235.328125 311.359375 233.878906 312.046875 C 232.429688 312.730469 230.964844 313.382812 229.484375 313.996094 C 228.003906 314.609375 226.507812 315.183594 225 315.726562 C 223.488281 316.265625 221.96875 316.769531 220.433594 317.234375 C 218.898438 317.699219 217.355469 318.125 215.800781 318.515625 C 214.246094 318.90625 212.679688 319.257812 211.109375 319.570312 C 209.535156 319.882812 207.957031 320.15625 206.371094 320.390625 C 204.785156 320.625 203.195312 320.820312 201.601562 320.980469 C 200.003906 321.136719 198.40625 321.253906 196.804688 321.332031 C 195.203125 321.410156 193.601562 321.449219 192 321.449219 C 190.398438 321.449219 188.792969 321.410156 187.195312 321.332031 C 185.59375 321.253906 183.996094 321.136719 182.398438 320.980469 C 180.804688 320.820312 179.214844 320.625 177.628906 320.390625 C 176.042969 320.15625 174.464844 319.882812 172.890625 319.570312 C 171.320312 319.257812 169.753906 318.90625 168.199219 318.515625 C 166.644531 318.125 165.101562 317.699219 163.566406 317.234375 C 162.03125 316.769531 160.511719 316.265625 159 315.726562 C 157.492188 315.183594 155.996094 314.609375 154.515625 313.996094 C 153.035156 313.382812 151.570312 312.730469 150.121094 312.046875 C 148.671875 311.359375 147.238281 310.640625 145.828125 309.886719 C 144.414062 309.128906 143.019531 308.339844 141.644531 307.515625 C 140.269531 306.691406 138.914062 305.832031 137.582031 304.941406 C 136.25 304.050781 134.9375 303.128906 133.652344 302.175781 C 132.363281 301.21875 131.101562 300.234375 129.859375 299.21875 C 128.621094 298.199219 127.40625 297.152344 126.21875 296.078125 C 125.03125 295 123.871094 293.894531 122.738281 292.761719 C 121.605469 291.628906 120.5 290.46875 119.421875 289.28125 C 118.347656 288.09375 117.300781 286.878906 116.28125 285.640625 C 115.265625 284.398438 114.28125 283.136719 113.324219 281.847656 C 112.371094 280.5625 111.449219 279.25 110.558594 277.917969 C 109.667969 276.585938 108.808594 275.230469 107.984375 273.855469 C 107.160156 272.480469 106.371094 271.085938 105.613281 269.671875 C 104.859375 268.261719 104.140625 266.828125 103.453125 265.378906 C 102.769531 263.929688 102.117188 262.464844 101.503906 260.984375 C 100.890625 259.503906 100.316406 258.007812 99.773438 256.5 C 99.234375 254.988281 98.730469 253.46875 98.265625 251.933594 C 97.800781 250.398438 97.375 248.855469 96.984375 247.300781 C 96.59375 245.746094 96.242188 244.179688 95.929688 242.609375 C 95.617188 241.035156 95.34375 239.457031 95.109375 237.871094 C 94.875 236.285156 94.679688 234.695312 94.519531 233.101562 C 94.363281 231.503906 94.246094 229.90625 94.167969 228.304688 C 94.089844 226.707031 94.050781 225.101562 94.050781 223.5 C 94.050781 221.898438 94.089844 220.292969 94.167969 218.695312 C 94.246094 217.09375 94.363281 215.496094 94.519531 213.898438 C 94.679688 212.304688 94.875 210.714844 95.109375 209.128906 C 95.34375 207.542969 95.617188 205.964844 95.929688 204.390625 C 96.242188 202.820312 96.59375 201.253906 96.984375 199.699219 C 97.375 198.144531 97.800781 196.601562 98.265625 195.066406 C 98.730469 193.53125 99.234375 192.011719 99.773438 190.5 C 100.316406 188.992188 100.890625 187.496094 101.503906 186.015625 C 102.117188 184.535156 102.769531 183.070312 103.453125 181.621094 C 104.140625 180.171875 104.859375 178.738281 105.613281 177.328125 C 106.371094 175.914062 107.160156 174.519531 107.984375 173.144531 C 108.808594 171.769531 109.667969 170.414062 110.558594 169.082031 C 111.449219 167.75 112.371094 166.4375 113.324219 165.152344 C 114.28125 163.863281 115.265625 162.601562 116.28125 161.359375 C 117.300781 160.121094 118.347656 158.90625 119.421875 157.71875 C 120.5 156.53125 121.605469 155.371094 122.738281 154.238281 C 123.871094 153.105469 125.03125 152 126.21875 150.921875 C 127.40625 149.847656 128.621094 148.800781 129.859375 147.78125 C 131.101562 146.765625 132.363281 145.78125 133.652344 144.824219 C 134.9375 143.871094 136.25 142.949219 137.582031 142.058594 C 138.914062 141.167969 140.269531 140.308594 141.644531 139.484375 C 143.019531 138.660156 144.414062 137.871094 145.828125 137.113281 C 147.238281 136.359375 148.671875 135.640625 150.121094 134.953125 C 151.570312 134.269531 153.035156 133.617188 154.515625 133.003906 C 155.996094 132.390625 157.492188 131.816406 159 131.273438 C 160.511719 130.734375 162.03125 130.230469 163.566406 129.765625 C 165.101562 129.300781 166.644531 128.875 168.199219 128.484375 C 169.753906 128.09375 171.320312 127.742188 172.890625 127.429688 C 174.464844 127.117188 176.042969 126.84375 177.628906 126.609375 C 179.214844 126.375 180.804688 126.179688 182.398438 126.019531 C 183.996094 125.863281 185.59375 125.746094 187.195312 125.667969 C 188.792969 125.589844 190.398438 125.550781 192 125.550781 C 193.601562 125.550781 195.203125 125.589844 196.804688 125.667969 C 198.40625 125.746094 200.003906 125.863281 201.601562 126.019531 C 203.195312 126.179688 204.785156 126.375 206.371094 126.609375 C 207.957031 126.84375 209.535156 127.117188 211.109375 127.429688 C 212.679688 127.742188 214.246094 128.09375 215.800781 128.484375 C 217.355469 128.875 218.898438 129.300781 220.433594 129.765625 C 221.96875 130.230469 223.488281 130.734375 225 131.273438 C 226.507812 131.816406 228.003906 132.390625 229.484375 133.003906 C 230.964844 133.617188 232.429688 134.269531 233.878906 134.953125 C 235.328125 135.640625 236.761719 136.359375 238.171875 137.113281 C 239.585938 137.871094 240.980469 138.660156 242.355469 139.484375 C 243.730469 140.308594 245.085938 141.167969 246.417969 142.058594 C 247.75 142.949219 249.0625 143.871094 250.347656 144.824219 C 251.636719 145.78125 252.898438 146.765625 254.140625 147.78125 C 255.378906 148.800781 256.59375 149.847656 257.78125 150.921875 C 258.96875 152 260.128906 153.105469 261.261719 154.238281 C 262.394531 155.371094 263.5 156.53125 264.578125 157.71875 C 265.652344 158.90625 266.699219 160.121094 267.71875 161.359375 C 268.734375 162.601562 269.71875 163.863281 270.675781 165.152344 C 271.628906 166.4375 272.550781 167.75 273.441406 169.082031 C 274.332031 170.414062 275.191406 171.769531 276.015625 173.144531 C 276.839844 174.519531 277.628906 175.914062 278.386719 177.328125 C 279.140625 178.738281 279.859375 180.171875 280.546875 181.621094 C 281.230469 183.070312 281.882812 184.535156 282.496094 186.015625 C 283.109375 187.496094 283.683594 188.992188 284.226562 190.5 C 284.765625 192.011719 285.269531 193.53125 285.734375 195.066406 C 286.199219 196.601562 286.625 198.144531 287.015625 199.699219 C 287.40625 201.253906 287.757812 202.820312 288.070312 204.390625 C 288.382812 205.964844 288.65625 207.542969 288.890625 209.128906 C 289.125 210.714844 289.320312 212.304688 289.480469 213.898438 C 289.636719 215.496094 289.753906 217.09375 289.832031 218.695312 C 289.910156 220.292969 289.949219 221.898438 289.949219 223.5 Z M 289.949219 223.5 " fill-opacity="1" fill-rule="nonzero"/><path fill="#4cb8eb" d="M 192 125.546875 L 192 321.449219 C 246.011719 321.449219 289.949219 277.511719 289.949219 223.5 C 289.953125 169.488281 246.011719 125.546875 192 125.546875 Z M 192 125.546875 " fill-opacity="1" fill-rule="evenodd"/><path fill="#4cb8eb" d="M 254.699219 223.5 C 254.699219 225.554688 254.601562 227.601562 254.398438 229.644531 C 254.199219 231.6875 253.898438 233.71875 253.496094 235.730469 C 253.09375 237.746094 252.597656 239.734375 252 241.699219 C 251.40625 243.667969 250.714844 245.597656 249.929688 247.496094 C 249.140625 249.390625 248.265625 251.246094 247.296875 253.058594 C 246.328125 254.867188 245.273438 256.628906 244.132812 258.335938 C 242.992188 260.042969 241.769531 261.691406 240.46875 263.277344 C 239.164062 264.863281 237.789062 266.382812 236.335938 267.835938 C 234.882812 269.289062 233.363281 270.664062 231.777344 271.96875 C 230.191406 273.269531 228.542969 274.492188 226.835938 275.632812 C 225.128906 276.773438 223.367188 277.828125 221.558594 278.796875 C 219.746094 279.765625 217.890625 280.640625 215.996094 281.429688 C 214.097656 282.214844 212.167969 282.90625 210.199219 283.5 C 208.234375 284.097656 206.246094 284.59375 204.230469 284.996094 C 202.21875 285.398438 200.1875 285.699219 198.144531 285.898438 C 196.101562 286.101562 194.054688 286.199219 192 286.199219 C 189.945312 286.199219 187.898438 286.101562 185.855469 285.898438 C 183.8125 285.699219 181.78125 285.398438 179.769531 284.996094 C 177.753906 284.59375 175.765625 284.097656 173.800781 283.5 C 171.832031 282.90625 169.902344 282.214844 168.003906 281.429688 C 166.109375 280.640625 164.253906 279.765625 162.441406 278.796875 C 160.632812 277.828125 158.871094 276.773438 157.164062 275.632812 C 155.457031 274.492188 153.808594 273.269531 152.222656 271.96875 C 150.636719 270.664062 149.117188 269.289062 147.664062 267.835938 C 146.210938 266.382812 144.835938 264.863281 143.53125 263.277344 C 142.230469 261.691406 141.007812 260.042969 139.867188 258.335938 C 138.726562 256.628906 137.671875 254.867188 136.703125 253.058594 C 135.734375 251.246094 134.859375 249.390625 134.070312 247.496094 C 133.285156 245.597656 132.59375 243.667969 132 241.699219 C 131.402344 239.734375 130.90625 237.746094 130.503906 235.730469 C 130.101562 233.71875 129.800781 231.6875 129.601562 229.644531 C 129.398438 227.601562 129.300781 225.554688 129.300781 223.5 C 129.300781 221.445312 129.398438 219.398438 129.601562 217.355469 C 129.800781 215.3125 130.101562 213.28125 130.503906 211.269531 C 130.90625 209.253906 131.402344 207.265625 132 205.300781 C 132.59375 203.332031 133.285156 201.402344 134.070312 199.503906 C 134.859375 197.609375 135.734375 195.753906 136.703125 193.941406 C 137.671875 192.132812 138.726562 190.371094 139.867188 188.664062 C 141.007812 186.957031 142.230469 185.308594 143.53125 183.722656 C 144.835938 182.136719 146.210938 180.617188 147.664062 179.164062 C 149.117188 177.710938 150.636719 176.335938 152.222656 175.03125 C 153.808594 173.730469 155.457031 172.507812 157.164062 171.367188 C 158.871094 170.226562 160.632812 169.171875 162.441406 168.203125 C 164.253906 167.234375 166.109375 166.359375 168.003906 165.570312 C 169.902344 164.785156 171.832031 164.09375 173.800781 163.5 C 175.765625 162.902344 177.753906 162.40625 179.769531 162.003906 C 181.78125 161.601562 183.8125 161.300781 185.855469 161.101562 C 187.898438 160.898438 189.945312 160.800781 192 160.800781 C 194.054688 160.800781 196.101562 160.898438 198.144531 161.101562 C 200.1875 161.300781 202.21875 161.601562 204.230469 162.003906 C 206.246094 162.40625 208.234375 162.902344 210.199219 163.5 C 212.167969 164.09375 214.097656 164.785156 215.996094 165.570312 C 217.890625 166.359375 219.746094 167.234375 221.558594 168.203125 C 223.367188 169.171875 225.128906 170.226562 226.835938 171.367188 C 228.542969 172.507812 230.191406 173.730469 231.777344 175.03125 C 233.363281 176.335938 234.882812 177.710938 236.335938 179.164062 C 237.789062 180.617188 239.164062 182.136719 240.46875 183.722656 C 241.769531 185.308594 242.992188 186.957031 244.132812 188.664062 C 245.273438 190.371094 246.328125 192.132812 247.296875 193.941406 C 248.265625 195.753906 249.140625 197.609375 249.929688 199.503906 C 250.714844 201.402344 251.40625 203.332031 252 205.300781 C 252.597656 207.265625 253.09375 209.253906 253.496094 211.269531 C 253.898438 213.28125 254.199219 215.3125 254.398438 217.355469 C 254.601562 219.398438 254.699219 221.445312 254.699219 223.5 Z M 254.699219 223.5 " fill-opacity="1" fill-rule="nonzero"/><path fill="#ffc833" d="M 62.25 151.800781 L 52.5 151.800781 C 46.285156 151.800781 41.25 146.761719 41.25 140.550781 C 41.25 134.335938 46.285156 129.300781 52.5 129.300781 L 62.25 129.300781 C 68.464844 129.300781 73.5 134.335938 73.5 140.550781 C 73.5 146.761719 68.464844 151.800781 62.25 151.800781 Z M 62.25 151.800781 " fill-opacity="1" fill-rule="nonzero"/><path fill="#009ae4" d="M 192 160.796875 L 192 286.199219 C 226.574219 286.199219 254.699219 258.074219 254.699219 223.5 C 254.703125 188.925781 226.574219 160.796875 192 160.796875 Z M 192 160.796875 " fill-opacity="1" fill-rule="nonzero"/></svg>