<svg xmlns="http://www.w3.org/2000/svg" xmlns:xlink="http://www.w3.org/1999/xlink" width="512" zoomAndPan="magnify" viewBox="0 0 384 383.999986" height="512" preserveAspectRatio="xMidYMid meet" version="1.0"><path fill="#ffee6e" d="M 192.042969 356.234375 L 198.238281 342.515625 C 199.898438 338.839844 199.785156 334.59375 197.867188 331.046875 C 191.066406 318.4375 187.179688 304.023438 187.125 288.703125 C 186.945312 239.109375 227.441406 198.421875 277.039062 198.375 C 326.8125 198.328125 367.171875 238.6875 367.125 288.460938 C 367.078125 338.054688 326.390625 378.550781 276.796875 378.375 C 261.476562 378.320312 247.0625 374.433594 234.453125 367.628906 C 230.90625 365.714844 226.660156 365.597656 222.984375 367.257812 L 209.265625 373.457031 C 208.664062 373.726562 208.050781 373.953125 207.414062 374.128906 C 206.78125 374.308594 206.140625 374.433594 205.488281 374.515625 C 204.835938 374.59375 204.179688 374.625 203.523438 374.605469 C 202.867188 374.585938 202.214844 374.519531 201.566406 374.402344 C 200.921875 374.28125 200.285156 374.117188 199.664062 373.902344 C 199.042969 373.6875 198.441406 373.429688 197.859375 373.125 C 197.277344 372.816406 196.71875 372.46875 196.191406 372.082031 C 195.660156 371.691406 195.164062 371.265625 194.699219 370.800781 C 194.234375 370.335938 193.808594 369.835938 193.417969 369.308594 C 193.027344 368.777344 192.679688 368.222656 192.375 367.640625 C 192.070312 367.058594 191.808594 366.457031 191.597656 365.832031 C 191.382812 365.210938 191.214844 364.578125 191.097656 363.929688 C 190.980469 363.285156 190.910156 362.632812 190.890625 361.976562 C 190.875 361.316406 190.902344 360.664062 190.984375 360.011719 C 191.0625 359.359375 191.191406 358.714844 191.371094 358.082031 C 191.546875 357.449219 191.769531 356.832031 192.042969 356.234375 Z M 192.042969 356.234375 " fill-opacity="1" fill-rule="nonzero"/><path fill="#ffda45" d="M 254.625 288.460938 C 254.589844 250.65625 277.867188 218.285156 310.875 204.925781 C 300.425781 200.695312 289.003906 198.363281 277.039062 198.375 C 227.441406 198.421875 186.949219 239.109375 187.125 288.703125 C 187.179688 304.023438 191.066406 318.4375 197.871094 331.046875 C 199.785156 334.59375 199.902344 338.839844 198.242188 342.515625 L 192.042969 356.234375 C 191.769531 356.835938 191.546875 357.449219 191.371094 358.082031 C 191.191406 358.714844 191.0625 359.359375 190.984375 360.011719 C 190.902344 360.664062 190.875 361.320312 190.890625 361.976562 C 190.910156 362.632812 190.980469 363.285156 191.097656 363.933594 C 191.214844 364.578125 191.382812 365.214844 191.597656 365.835938 C 191.808594 366.457031 192.070312 367.058594 192.375 367.640625 C 192.679688 368.222656 193.027344 368.78125 193.417969 369.308594 C 193.808594 369.839844 194.234375 370.335938 194.699219 370.800781 C 195.164062 371.265625 195.660156 371.695312 196.191406 372.082031 C 196.722656 372.472656 197.277344 372.820312 197.859375 373.125 C 198.441406 373.429688 199.042969 373.691406 199.664062 373.90625 C 200.285156 374.117188 200.921875 374.285156 201.566406 374.402344 C 202.214844 374.519531 202.867188 374.589844 203.523438 374.609375 C 204.179688 374.628906 204.835938 374.597656 205.488281 374.515625 C 206.140625 374.4375 206.785156 374.308594 207.417969 374.132812 C 208.050781 373.953125 208.667969 373.730469 209.265625 373.457031 L 222.984375 367.261719 C 226.660156 365.601562 230.90625 365.714844 234.453125 367.632812 C 247.0625 374.433594 261.476562 378.320312 276.796875 378.375 C 282.636719 378.398438 288.425781 377.855469 294.160156 376.742188 C 299.894531 375.628906 305.464844 373.96875 310.875 371.761719 C 278.003906 358.355469 254.660156 326.019531 254.625 288.460938 Z M 254.625 288.460938 " fill-opacity="1" fill-rule="nonzero"/><path fill="#f5fafc" d="M 316.5 302.4375 L 316.5 267.75 C 316.5 246.003906 298.871094 228.375 277.125 228.375 C 255.378906 228.375 237.75 246.003906 237.75 267.75 L 237.75 302.4375 C 230.5 302.4375 224.625 308.3125 224.625 315.5625 C 224.625 322.8125 230.5 328.6875 237.75 328.6875 L 257.4375 328.6875 C 257.4375 339.5625 266.253906 348.375 277.125 348.375 C 287.996094 348.375 296.8125 339.5625 296.8125 328.6875 L 316.5 328.6875 C 323.75 328.6875 329.625 322.8125 329.625 315.5625 C 329.625 308.3125 323.75 302.4375 316.5 302.4375 Z M 316.5 302.4375 " fill-opacity="1" fill-rule="nonzero"/><path fill="#e1f1fa" d="M 264 315.5625 C 264 308.3125 269.875 302.4375 277.125 302.4375 L 277.125 267.75 C 277.125 253.179688 285.046875 240.464844 296.8125 233.65625 C 293.820312 231.921875 290.65625 230.609375 287.316406 229.710938 C 283.980469 228.816406 280.582031 228.371094 277.125 228.375 C 255.378906 228.375 237.75 246.003906 237.75 267.75 L 237.75 302.4375 C 230.5 302.4375 224.625 308.3125 224.625 315.5625 C 224.625 322.8125 230.5 328.6875 237.75 328.6875 L 257.4375 328.6875 C 257.4375 339.5625 266.25 348.375 277.125 348.375 C 288 348.375 296.8125 339.5625 296.8125 328.6875 L 277.125 328.6875 C 269.875 328.6875 264 322.8125 264 315.5625 Z M 264 315.5625 " fill-opacity="1" fill-rule="nonzero"/><path fill="#ff808c" d="M 209.890625 271.167969 L 202.65625 255.160156 C 200.71875 250.875 200.855469 245.921875 203.089844 241.78125 C 211.027344 227.074219 215.558594 210.257812 215.625 192.386719 C 215.832031 134.523438 168.589844 87.054688 110.726562 87 C 52.65625 86.945312 5.570312 134.03125 5.625 192.101562 C 5.679688 249.960938 53.148438 297.207031 111.007812 297 C 128.878906 296.933594 145.699219 292.402344 160.410156 284.464844 C 164.546875 282.230469 169.5 282.09375 173.789062 284.03125 L 189.796875 291.265625 C 190.492188 291.578125 191.210938 291.839844 191.953125 292.046875 C 192.691406 292.253906 193.441406 292.40625 194.203125 292.5 C 194.960938 292.59375 195.726562 292.628906 196.492188 292.605469 C 197.261719 292.582031 198.019531 292.503906 198.777344 292.363281 C 199.53125 292.226562 200.269531 292.03125 200.996094 291.785156 C 201.71875 291.535156 202.421875 291.230469 203.101562 290.875 C 203.78125 290.519531 204.429688 290.113281 205.046875 289.65625 C 205.664062 289.203125 206.246094 288.707031 206.789062 288.164062 C 207.332031 287.621094 207.828125 287.039062 208.285156 286.421875 C 208.738281 285.804688 209.144531 285.15625 209.5 284.476562 C 209.855469 283.796875 210.160156 283.09375 210.410156 282.371094 C 210.65625 281.644531 210.851562 280.902344 210.988281 280.148438 C 211.128906 279.394531 211.207031 278.632812 211.230469 277.867188 C 211.253906 277.101562 211.214844 276.335938 211.125 275.574219 C 211.03125 274.8125 210.878906 274.0625 210.671875 273.324219 C 210.464844 272.585938 210.203125 271.867188 209.890625 271.167969 Z M 209.890625 271.167969 " fill-opacity="1" fill-rule="nonzero"/><path fill="#ff6e7c" d="M 65.625 192.101562 C 65.582031 144.519531 97.1875 104.320312 140.550781 91.378906 C 130.824219 88.464844 120.882812 87.003906 110.726562 87 C 52.65625 86.945312 5.570312 134.03125 5.625 192.101562 C 5.679688 249.960938 53.148438 297.207031 111.007812 297 C 121.117188 296.96875 131.011719 295.507812 140.695312 292.617188 C 97.453125 279.664062 65.667969 239.4375 65.625 192.101562 Z M 65.625 192.101562 " fill-opacity="1" fill-rule="nonzero"/><path fill="#f5fafc" d="M 152.804688 147.578125 C 129.496094 137.21875 110.625 158.308594 110.625 158.308594 C 110.625 158.308594 91.753906 137.21875 68.445312 147.578125 C 45.136719 157.9375 45.136719 192.347656 65.855469 215.289062 C 80.195312 231.164062 96.125 240.835938 104.582031 245.289062 C 105.511719 245.78125 106.488281 246.152344 107.511719 246.40625 C 108.535156 246.65625 109.574219 246.785156 110.625 246.785156 C 111.679688 246.785156 112.714844 246.65625 113.738281 246.40625 C 114.761719 246.152344 115.738281 245.78125 116.671875 245.289062 C 125.125 240.835938 141.058594 231.164062 155.394531 215.289062 C 176.113281 192.347656 176.113281 157.9375 152.804688 147.578125 Z M 152.804688 147.578125 " fill-opacity="1" fill-rule="nonzero"/><path fill="#e1f1fa" d="M 103.539062 195.75 C 103.539062 182.53125 106.054688 169.898438 110.625 158.308594 C 110.625 158.308594 91.753906 137.21875 68.445312 147.578125 C 45.136719 157.9375 45.136719 192.347656 65.855469 215.289062 C 80.195312 231.164062 96.125 240.835938 104.582031 245.289062 C 105.492188 245.769531 106.445312 246.132812 107.445312 246.386719 C 108.445312 246.640625 109.457031 246.769531 110.488281 246.78125 C 111.515625 246.792969 112.535156 246.679688 113.535156 246.449219 C 114.539062 246.21875 115.5 245.871094 116.421875 245.410156 C 108.21875 230.710938 103.539062 213.777344 103.539062 195.75 Z M 103.539062 195.75 " fill-opacity="1" fill-rule="nonzero"/><path fill="#69a8ff" d="M 144.929688 216.105469 L 153.195312 197.808594 C 155.410156 192.910156 155.253906 187.25 152.699219 182.519531 C 143.628906 165.707031 138.449219 146.488281 138.375 126.066406 C 138.136719 59.9375 192.128906 5.6875 258.257812 5.625 C 324.625 5.5625 378.4375 59.375 378.375 125.738281 C 378.3125 191.867188 324.066406 245.859375 257.9375 245.625 C 237.511719 245.550781 218.292969 240.371094 201.480469 231.300781 C 196.75 228.746094 191.089844 228.589844 186.1875 230.804688 L 167.894531 239.070312 C 167.097656 239.429688 166.273438 239.730469 165.429688 239.964844 C 164.585938 240.203125 163.730469 240.375 162.859375 240.480469 C 161.988281 240.585938 161.117188 240.628906 160.238281 240.601562 C 159.363281 240.578125 158.492188 240.484375 157.632812 240.328125 C 156.769531 240.171875 155.921875 239.949219 155.09375 239.664062 C 154.265625 239.378906 153.464844 239.03125 152.6875 238.625 C 151.910156 238.21875 151.167969 237.753906 150.464844 237.234375 C 149.757812 236.714844 149.09375 236.144531 148.472656 235.527344 C 147.855469 234.90625 147.285156 234.242188 146.765625 233.535156 C 146.246094 232.832031 145.78125 232.089844 145.375 231.3125 C 144.96875 230.535156 144.621094 229.734375 144.335938 228.90625 C 144.050781 228.074219 143.828125 227.230469 143.671875 226.367188 C 143.515625 225.503906 143.421875 224.636719 143.398438 223.757812 C 143.371094 222.882812 143.414062 222.011719 143.519531 221.140625 C 143.625 220.269531 143.796875 219.414062 144.035156 218.570312 C 144.269531 217.726562 144.570312 216.902344 144.929688 216.105469 Z M 144.929688 216.105469 " fill-opacity="1" fill-rule="nonzero"/><path fill="#549cff" d="M 205.875 125.738281 C 205.824219 71.132812 242.25 25.035156 292.125 10.445312 C 281.066406 7.214844 269.777344 5.605469 258.257812 5.625 C 192.128906 5.6875 138.140625 59.9375 138.375 126.0625 C 138.449219 146.488281 143.628906 165.707031 152.699219 182.519531 C 155.253906 187.25 155.410156 192.910156 153.195312 197.808594 L 144.929688 216.105469 C 144.570312 216.902344 144.269531 217.722656 144.035156 218.566406 C 143.796875 219.414062 143.625 220.269531 143.519531 221.140625 C 143.414062 222.007812 143.375 222.882812 143.398438 223.757812 C 143.425781 224.636719 143.515625 225.503906 143.675781 226.367188 C 143.832031 227.230469 144.054688 228.074219 144.339844 228.902344 C 144.625 229.730469 144.96875 230.535156 145.378906 231.3125 C 145.785156 232.085938 146.246094 232.828125 146.765625 233.535156 C 147.285156 234.242188 147.855469 234.902344 148.476562 235.523438 C 149.097656 236.144531 149.757812 236.710938 150.464844 237.230469 C 151.171875 237.75 151.914062 238.214844 152.6875 238.621094 C 153.464844 239.027344 154.265625 239.375 155.097656 239.660156 C 155.925781 239.945312 156.769531 240.167969 157.632812 240.324219 C 158.496094 240.484375 159.363281 240.574219 160.242188 240.601562 C 161.117188 240.625 161.988281 240.585938 162.859375 240.480469 C 163.730469 240.371094 164.585938 240.203125 165.429688 239.964844 C 166.273438 239.730469 167.097656 239.429688 167.894531 239.070312 L 186.191406 230.804688 C 191.089844 228.589844 196.75 228.746094 201.480469 231.296875 C 218.292969 240.371094 237.511719 245.550781 257.9375 245.625 C 269.570312 245.671875 280.96875 244.046875 292.125 240.75 C 242.472656 226.09375 205.925781 180.007812 205.875 125.738281 Z M 205.875 125.738281 " fill-opacity="1" fill-rule="nonzero"/><path fill="#f5fafc" d="M 337.765625 113.351562 C 337.765625 99.371094 326.433594 88.039062 312.453125 88.039062 L 287.484375 88.039062 L 301.324219 68.066406 C 304.570312 63.382812 304.386719 56.984375 300.558594 52.757812 C 296.007812 47.730469 288.351562 47.425781 283.421875 51.875 L 238.445312 92.464844 C 237.128906 93.648438 235.953125 94.960938 234.910156 96.394531 C 233.871094 97.828125 232.992188 99.355469 232.273438 100.972656 C 231.550781 102.589844 231.007812 104.265625 230.640625 106 C 230.273438 107.730469 230.089844 109.484375 230.089844 111.253906 L 230.089844 158.4375 C 230.089844 172.417969 241.421875 183.75 255.402344 183.75 L 312.453125 183.75 C 326.433594 183.75 337.765625 172.417969 337.765625 158.4375 Z M 337.765625 113.351562 " fill-opacity="1" fill-rule="nonzero"/><path fill="#e1f1fa" d="M 287.484375 88.039062 L 301.324219 68.066406 C 304.570312 63.382812 304.386719 56.984375 300.558594 52.757812 C 296.007812 47.734375 288.351562 47.425781 283.421875 51.875 L 238.441406 92.464844 C 237.128906 93.652344 235.949219 94.960938 234.910156 96.394531 C 233.871094 97.828125 232.992188 99.355469 232.269531 100.972656 C 231.550781 102.589844 231.007812 104.265625 230.640625 106 C 230.273438 107.734375 230.089844 109.484375 230.089844 111.253906 L 230.089844 158.4375 C 230.089844 172.417969 241.421875 183.75 255.402344 183.75 L 287.484375 183.75 C 273.503906 183.75 262.171875 172.417969 262.171875 158.4375 L 262.171875 113.351562 C 262.171875 99.371094 273.503906 88.039062 287.484375 88.039062 Z M 287.484375 88.039062 " fill-opacity="1" fill-rule="nonzero"/><path fill="#f5fafc" d="M 202.902344 183.75 L 223.527344 183.75 C 231.8125 183.75 238.527344 177.035156 238.527344 168.75 L 238.527344 97.5 C 238.527344 89.214844 231.8125 82.5 223.527344 82.5 L 202.902344 82.5 C 194.617188 82.5 187.902344 89.214844 187.902344 97.5 L 187.902344 168.75 C 187.902344 177.035156 194.617188 183.75 202.902344 183.75 Z M 202.902344 183.75 " fill-opacity="1" fill-rule="nonzero"/><path stroke-linecap="round" transform="matrix(0.75, 0, 0, 0.75, 0.0000072, 0.0000585937)" fill="none" stroke-linejoin="round" d="M 445.817734 291.89057 C 472.520861 313.92703 489.536487 347.286408 489.500029 384.614536 C 489.437529 450.744749 435.187525 504.734337 369.06252 504.499962 C 348.635435 504.427045 329.416683 499.244753 312.604182 490.171836 C 307.875015 487.619752 302.213556 487.463502 297.312514 489.677044 L 279.020846 497.94267 C 278.218762 498.307253 277.401054 498.604128 276.557304 498.838503 C 275.713554 499.078086 274.854179 499.249961 273.984387 499.354128 C 273.114595 499.463503 272.239595 499.499961 271.364595 499.47392 C 270.489595 499.453086 269.619803 499.359336 268.75522 499.203086 C 267.895845 499.046836 267.046887 498.822878 266.218761 498.53642 C 265.390636 498.249961 264.588553 497.906211 263.812511 497.499961 C 263.03647 497.093711 262.296886 496.63017 261.588553 496.109336 C 260.880219 495.588503 260.218761 495.020794 259.598969 494.401003 C 258.979178 493.781211 258.411469 493.114544 257.890636 492.411419 C 257.369802 491.703086 256.906261 490.963502 256.500011 490.187461 C 256.093761 489.411419 255.744802 488.609336 255.463552 487.78121 C 255.177094 486.947877 254.953136 486.104127 254.796886 485.244752 C 254.640636 484.380169 254.546886 483.510377 254.520844 482.635377 C 254.494802 481.760377 254.536469 480.885377 254.645844 480.015585 C 254.750011 479.145793 254.921886 478.286418 255.156261 477.442668 C 255.395844 476.598918 255.692719 475.776001 256.057302 474.979126 L 264.31772 456.687458 C 266.531262 451.786416 266.38022 446.124957 263.822928 441.39579 C 255.218761 425.447872 250.114594 407.333287 249.552093 388.078078 " stroke="#000000" stroke-width="15" stroke-opacity="1" stroke-miterlimit="10"/><path stroke-linecap="round" transform="matrix(0.75, 0, 0, 0.75, 0.0000072, 0.0000585937)" fill="none" stroke-linejoin="round" d="M 326.067725 327.499948 C 320.343766 335.906198 317.000015 346.062449 317.000015 356.99995 L 317.000015 403.249954 C 307.333348 403.249954 299.500014 411.083288 299.500014 420.749955 C 299.500014 430.416623 307.333348 438.249957 317.000015 438.249957 L 343.250018 438.249957 C 343.250018 452.749958 355.005227 464.499959 369.50002 464.499959 C 383.994812 464.499959 395.750022 452.749958 395.750022 438.249957 L 422.000024 438.249957 C 431.666691 438.249957 439.500025 430.416623 439.500025 420.749955 C 439.500025 411.083288 431.666691 403.249954 422.000024 403.249954 L 422.000024 356.99995 C 422.000024 341.598907 415.369815 327.749948 404.807314 318.14578 M 343.250018 438.249957 L 365.750019 438.249957 M 190.869797 122.916598 C 176.828129 118.307223 162.41667 116.005139 147.635419 115.999931 C 70.208329 115.927014 7.427074 178.708269 7.499991 256.135359 C 7.572908 333.281198 70.864579 396.275995 148.010419 395.999953 C 171.838546 395.911412 194.265631 389.869744 213.880216 379.28641 C 219.395841 376.307243 226.000008 376.124952 231.718759 378.708285 L 253.06251 388.354119 C 253.989594 388.770786 254.947927 389.119744 255.937511 389.395786 C 256.921886 389.671828 257.921886 389.874953 258.937511 389.999953 C 259.947928 390.124953 260.968761 390.171828 261.989594 390.140578 C 263.015636 390.109328 264.026053 390.005161 265.03647 389.817661 C 266.041678 389.635369 267.026053 389.374953 267.994803 389.046828 C 268.958345 388.713494 269.895845 388.307244 270.802095 387.833286 C 271.708345 387.359328 272.572929 386.817661 273.395845 386.208286 C 274.218762 385.604119 274.994804 384.942661 275.718762 384.218702 C 276.442721 383.494744 277.104179 382.718702 277.713554 381.895785 C 278.317721 381.072869 278.859387 380.208285 279.333346 379.302035 C 279.807304 378.395785 280.213554 377.458285 280.546888 376.494743 C 280.880221 375.525993 281.135429 374.541618 281.317721 373.531201 C 281.505221 372.525993 281.609388 371.510368 281.640638 370.489535 C 281.671888 369.468701 281.625013 368.447868 281.500013 367.432243 C 281.375013 366.416618 281.171888 365.416617 280.901054 364.432242 C 280.625013 363.447867 280.276054 362.489534 279.854179 361.557242 L 270.208345 340.21349 C 267.63022 334.499948 267.807303 327.895781 270.78647 322.374947 C 272.609387 318.999947 274.28647 315.557239 275.828137 312.041613 " stroke="#000000" stroke-width="15" stroke-opacity="1" stroke-miterlimit="10"/><path stroke-linecap="round" transform="matrix(0.75, 0, 0, 0.75, 0.0000072, 0.0000585937)" fill="none" stroke-linejoin="round" d="M 184.500005 192.98952 C 162.906253 193.859312 147.500002 211.078064 147.500002 211.078064 C 147.500002 211.078064 122.338542 182.95827 91.260414 196.770771 C 60.182287 210.583272 60.182287 256.463484 87.807289 287.052028 C 106.927082 308.218696 128.166667 321.114531 139.44271 327.052031 C 140.682293 327.708281 141.984377 328.203073 143.34896 328.541615 C 144.713544 328.874948 146.09896 329.046823 147.500002 329.046823 C 148.906252 329.046823 150.286461 328.874948 151.651044 328.541615 C 153.015628 328.203073 154.317711 327.708281 155.562503 327.052031 C 163.505212 322.864531 176.406254 315.218697 190.026047 303.661404 M 199.312506 234.807232 C 189.885422 214.515564 184.588547 191.916604 184.500005 168.088477 C 184.182297 79.916595 256.171886 7.583256 344.343768 7.499922 C 432.833358 7.416589 504.583364 79.166595 504.50003 167.650977 C 504.416697 255.822859 432.088566 327.812448 343.916684 327.499948 C 316.682307 327.400989 291.057305 320.494739 268.640637 308.400988 C 262.333345 304.994738 254.786469 304.786404 248.25001 307.73953 L 223.859383 318.760364 C 222.796883 319.23953 221.697925 319.640572 220.572925 319.953072 C 219.447924 320.270781 218.307299 320.499947 217.145841 320.640572 C 215.984382 320.781197 214.822924 320.838489 213.651049 320.802031 C 212.484382 320.770781 211.322924 320.645781 210.17709 320.437447 C 209.026049 320.229114 207.89584 319.932239 206.791673 319.552031 C 205.687507 319.171822 204.619798 318.70828 203.58334 318.166614 C 202.546881 317.624947 201.557298 317.005155 200.619798 316.312447 C 199.67709 315.619739 198.791673 314.859322 197.963548 314.036405 C 197.140631 313.20828 196.380214 312.322863 195.687506 311.380155 C 194.994798 310.442655 194.375006 309.453071 193.833339 308.416613 C 193.291672 307.380155 192.828131 306.312446 192.447922 305.208279 C 192.067714 304.098904 191.770839 302.973904 191.562506 301.822862 C 191.354172 300.671821 191.229172 299.515571 191.197922 298.348904 C 191.161464 297.177029 191.213547 296.01557 191.359381 294.854112 C 191.500006 293.692653 191.729172 292.552028 192.041672 291.427028 C 192.359381 290.302028 192.755214 289.20307 193.239589 288.14057 L 204.260423 263.749943 " stroke="#000000" stroke-width="15" stroke-opacity="1" stroke-miterlimit="10"/><path stroke-linecap="round" transform="matrix(0.75, 0, 0, 0.75, 0.0000072, 0.0000585937)" fill="none" stroke-linejoin="round" d="M 316.67189 235.114524 C 322.776058 241.223899 331.213558 244.999941 340.536476 244.999941 L 416.60419 244.999941 C 435.244817 244.999941 450.354193 229.890565 450.354193 211.249939 L 450.354193 151.135351 C 450.354193 132.494724 435.244817 117.385348 416.60419 117.385348 L 383.312521 117.385348 L 401.765647 90.755137 C 406.093773 84.510345 405.848981 75.979095 400.744814 70.343677 C 394.677105 63.64576 384.468771 63.23951 377.895854 69.166594 L 317.927099 123.28639 " stroke="#000000" stroke-width="15" stroke-opacity="1" stroke-miterlimit="10"/><path stroke-linecap="round" transform="matrix(0.75, 0, 0, 0.75, 0.0000072, 0.0000585937)" fill="none" stroke-linejoin="round" d="M 270.53647 244.999941 L 298.036472 244.999941 C 309.083348 244.999941 318.036474 236.046816 318.036474 224.99994 L 318.036474 129.999932 C 318.036474 118.953056 309.083348 109.999931 298.036472 109.999931 L 270.53647 109.999931 C 259.489594 109.999931 250.536469 118.953056 250.536469 129.999932 L 250.536469 224.99994 C 250.536469 236.046816 259.489594 244.999941 270.53647 244.999941 Z M 270.53647 244.999941 " stroke="#000000" stroke-width="15" stroke-opacity="1" stroke-miterlimit="10"/></svg>