<svg xmlns="http://www.w3.org/2000/svg" xmlns:xlink="http://www.w3.org/1999/xlink" width="512" zoomAndPan="magnify" viewBox="0 0 384 383.999986" height="512" preserveAspectRatio="xMidYMid meet" version="1.0"><path fill="#fcb44d" d="M 191.421875 232.902344 L 191.421875 379.425781 C 191.421875 382.757812 194.875 384.96875 197.90625 383.574219 L 356.597656 310.3125 C 360.136719 308.679688 360.136719 303.648438 356.597656 302.015625 L 197.90625 228.753906 C 194.875 227.355469 191.421875 229.570312 191.421875 232.902344 " fill-opacity="1" fill-rule="nonzero"/><path fill="#fb9927" d="M 277.4375 265.464844 L 191.417969 305.179688 L 191.417969 232.902344 C 191.417969 229.566406 194.882812 227.355469 197.90625 228.75 Z M 277.4375 265.464844 " fill-opacity="1" fill-rule="nonzero"/><path fill="#fb9927" d="M 356.601562 310.3125 L 197.90625 383.574219 C 194.878906 384.972656 191.417969 382.761719 191.417969 379.425781 L 191.417969 363.105469 L 338.136719 293.492188 L 356.601562 302.015625 C 360.136719 303.648438 360.136719 308.675781 356.601562 310.3125 " fill-opacity="1" fill-rule="nonzero"/><path fill="#68dbf9" d="M 36.203125 44.992188 L 36.203125 331.953125 C 36.203125 338.484375 42.972656 342.816406 48.902344 340.078125 L 359.703125 196.597656 C 366.632812 193.398438 366.632812 183.546875 359.703125 180.347656 L 48.902344 36.867188 C 42.972656 34.132812 36.203125 38.460938 36.203125 44.992188 " fill-opacity="1" fill-rule="nonzero"/><path fill="#21c1f8" d="M 284.765625 145.753906 C 274.925781 190.691406 234.878906 224.320312 186.988281 224.320312 C 131.703125 224.320312 86.882812 179.507812 86.882812 124.222656 C 86.882812 101.511719 94.441406 80.574219 107.195312 63.777344 Z M 284.765625 145.753906 " fill-opacity="1" fill-rule="nonzero"/><path fill="#21c1f8" d="M 359.703125 196.597656 L 48.90625 340.078125 C 42.972656 342.816406 36.195312 338.488281 36.195312 331.953125 L 36.195312 305.25 L 331.863281 168.761719 C 332.3125 168.554688 332.722656 168.324219 333.105469 168.070312 L 359.703125 180.347656 C 366.628906 183.542969 366.628906 193.394531 359.703125 196.597656 " fill-opacity="1" fill-rule="nonzero"/><path fill="#eef4f5" d="M 287.097656 100.101562 C 287.097656 123.480469 279.082031 144.984375 265.65625 162.019531 L 233.859375 162.019531 L 223.707031 193.257812 C 212.335938 197.746094 199.949219 200.210938 186.984375 200.210938 C 173.734375 200.210938 161.078125 197.640625 149.503906 192.949219 L 149.496094 192.949219 L 139.613281 162.515625 L 108.714844 162.515625 C 95.046875 145.398438 86.882812 123.703125 86.882812 100.101562 C 86.882812 97.84375 86.957031 95.597656 87.105469 93.378906 L 112.363281 75.027344 L 102.867188 45.804688 C 116.390625 24.914062 137.464844 9.375 162.238281 3.078125 L 186.992188 21.066406 L 211.738281 3.085938 C 236.316406 9.332031 257.257812 24.675781 270.785156 45.3125 L 261.128906 75.027344 L 286.902344 93.75 L 286.902344 93.757812 C 287.027344 95.859375 287.097656 97.96875 287.097656 100.101562 " fill-opacity="1" fill-rule="nonzero"/><path fill="#cbe5e7" d="M 287.097656 100.101562 C 287.097656 123.480469 279.082031 144.984375 265.648438 162.019531 L 233.859375 162.019531 L 223.707031 193.25 C 212.34375 197.738281 199.957031 200.203125 186.992188 200.203125 C 173.734375 200.203125 161.085938 197.628906 149.503906 192.949219 L 149.496094 192.949219 L 148.128906 188.738281 C 151.34375 189.0625 154.605469 189.230469 157.902344 189.230469 C 211.238281 189.230469 254.476562 145.996094 254.476562 92.660156 C 254.476562 56.316406 234.402344 24.652344 204.726562 8.1875 L 211.738281 3.085938 C 236.3125 9.335938 257.257812 24.675781 270.785156 45.3125 L 261.128906 75.027344 L 286.902344 93.75 L 286.902344 93.757812 C 287.027344 95.859375 287.097656 97.96875 287.097656 100.101562 " fill-opacity="1" fill-rule="nonzero"/><path fill="#9bc6c9" d="M 142.078125 167.058594 C 141.542969 167.058594 141.019531 166.984375 140.507812 166.839844 C 139.996094 166.695312 139.511719 166.484375 139.054688 166.207031 C 138.601562 165.925781 138.191406 165.59375 137.828125 165.199219 C 137.46875 164.808594 137.164062 164.375 136.921875 163.902344 C 136.679688 163.425781 136.503906 162.925781 136.402344 162.402344 C 136.296875 161.878906 136.261719 161.351562 136.304688 160.820312 C 136.34375 160.289062 136.457031 159.773438 136.640625 159.269531 C 136.824219 158.769531 137.070312 158.304688 137.382812 157.871094 L 164.089844 120.894531 C 164.3125 120.585938 164.5625 120.300781 164.84375 120.042969 C 165.121094 119.78125 165.421875 119.554688 165.746094 119.355469 C 166.070312 119.152344 166.410156 118.988281 166.765625 118.855469 C 167.125 118.722656 167.488281 118.625 167.867188 118.566406 C 168.242188 118.503906 168.617188 118.480469 169 118.496094 C 169.378906 118.507812 169.753906 118.558594 170.125 118.648438 C 170.496094 118.734375 170.851562 118.859375 171.199219 119.015625 C 171.546875 119.175781 171.871094 119.367188 172.179688 119.589844 C 172.488281 119.8125 172.773438 120.0625 173.03125 120.339844 C 173.292969 120.617188 173.519531 120.921875 173.71875 121.246094 C 173.921875 121.566406 174.085938 121.90625 174.21875 122.265625 C 174.351562 122.621094 174.449219 122.988281 174.507812 123.363281 C 174.570312 123.738281 174.59375 124.117188 174.578125 124.496094 C 174.566406 124.878906 174.515625 125.253906 174.425781 125.621094 C 174.339844 125.992188 174.214844 126.351562 174.058594 126.695312 C 173.898438 127.042969 173.707031 127.371094 173.484375 127.679688 L 146.78125 164.65625 C 146.234375 165.414062 145.546875 166 144.71875 166.425781 C 143.890625 166.847656 143.007812 167.058594 142.078125 167.058594 " fill-opacity="1" fill-rule="nonzero"/><path fill="#9bc6c9" d="M 231.894531 167.058594 C 230.960938 167.058594 230.082031 166.847656 229.253906 166.425781 C 228.421875 166 227.738281 165.410156 227.191406 164.65625 L 200.492188 127.679688 C 200.273438 127.371094 200.089844 127.042969 199.9375 126.699219 C 199.785156 126.351562 199.667969 125.996094 199.585938 125.628906 C 199.503906 125.261719 199.457031 124.890625 199.445312 124.511719 C 199.433594 124.136719 199.460938 123.761719 199.523438 123.390625 C 199.585938 123.019531 199.683594 122.65625 199.820312 122.304688 C 199.953125 121.953125 200.117188 121.613281 200.316406 121.296875 C 200.515625 120.976562 200.746094 120.675781 201 120.402344 C 201.257812 120.125 201.539062 119.878906 201.84375 119.65625 C 202.152344 119.4375 202.476562 119.246094 202.816406 119.089844 C 203.160156 118.933594 203.515625 118.808594 203.882812 118.722656 C 204.246094 118.632812 204.617188 118.582031 204.996094 118.566406 C 205.371094 118.550781 205.746094 118.570312 206.121094 118.628906 C 206.492188 118.683594 206.855469 118.777344 207.210938 118.90625 C 207.5625 119.035156 207.902344 119.195312 208.226562 119.390625 C 208.550781 119.582031 208.851562 119.808594 209.128906 120.058594 C 209.410156 120.3125 209.660156 120.589844 209.886719 120.894531 L 236.585938 157.871094 C 236.898438 158.304688 237.148438 158.769531 237.332031 159.269531 C 237.515625 159.773438 237.628906 160.289062 237.667969 160.820312 C 237.710938 161.351562 237.675781 161.878906 237.574219 162.402344 C 237.46875 162.925781 237.292969 163.425781 237.050781 163.902344 C 236.808594 164.375 236.503906 164.808594 236.144531 165.199219 C 235.78125 165.59375 235.371094 165.925781 234.917969 166.207031 C 234.460938 166.484375 233.976562 166.695312 233.464844 166.839844 C 232.949219 166.988281 232.425781 167.058594 231.894531 167.058594 " fill-opacity="1" fill-rule="nonzero"/><path fill="#9bc6c9" d="M 216.058594 95.609375 C 215.367188 95.609375 214.699219 95.488281 214.050781 95.25 C 213.40625 95.011719 212.820312 94.667969 212.292969 94.21875 C 211.769531 93.773438 211.339844 93.246094 211 92.644531 C 210.664062 92.042969 210.441406 91.402344 210.332031 90.71875 C 210.226562 90.035156 210.238281 89.359375 210.375 88.679688 C 210.507812 88.003906 210.757812 87.371094 211.117188 86.78125 C 211.480469 86.195312 211.929688 85.6875 212.472656 85.261719 C 213.015625 84.832031 213.617188 84.511719 214.273438 84.300781 L 257.878906 70.152344 C 258.242188 70.035156 258.613281 69.953125 258.988281 69.910156 C 259.367188 69.863281 259.746094 69.855469 260.125 69.886719 C 260.503906 69.917969 260.878906 69.984375 261.242188 70.085938 C 261.609375 70.191406 261.960938 70.328125 262.300781 70.5 C 262.640625 70.675781 262.957031 70.878906 263.257812 71.113281 C 263.554688 71.351562 263.828125 71.613281 264.074219 71.902344 C 264.324219 72.191406 264.539062 72.503906 264.726562 72.835938 C 264.910156 73.167969 265.0625 73.511719 265.179688 73.875 C 265.296875 74.238281 265.378906 74.605469 265.421875 74.984375 C 265.46875 75.363281 265.476562 75.742188 265.445312 76.121094 C 265.414062 76.5 265.347656 76.871094 265.246094 77.238281 C 265.140625 77.605469 265.003906 77.957031 264.832031 78.296875 C 264.65625 78.636719 264.453125 78.953125 264.21875 79.253906 C 263.980469 79.550781 263.71875 79.824219 263.429688 80.070312 C 263.140625 80.320312 262.828125 80.535156 262.496094 80.722656 C 262.164062 80.90625 261.816406 81.058594 261.457031 81.175781 L 217.847656 95.324219 C 217.265625 95.515625 216.671875 95.609375 216.058594 95.609375 " fill-opacity="1" fill-rule="nonzero"/><path fill="#9bc6c9" d="M 157.902344 95.601562 C 157.308594 95.601562 156.707031 95.511719 156.109375 95.320312 L 112.515625 81.175781 C 112.152344 81.058594 111.808594 80.90625 111.476562 80.722656 C 111.144531 80.535156 110.832031 80.320312 110.542969 80.070312 C 110.253906 79.824219 109.992188 79.550781 109.753906 79.253906 C 109.519531 78.953125 109.316406 78.636719 109.140625 78.296875 C 108.96875 77.957031 108.832031 77.605469 108.726562 77.238281 C 108.625 76.875 108.558594 76.5 108.527344 76.121094 C 108.496094 75.742188 108.503906 75.363281 108.550781 74.984375 C 108.59375 74.609375 108.675781 74.238281 108.792969 73.875 C 109.78125 70.832031 113.046875 69.160156 116.09375 70.152344 L 159.6875 84.296875 C 160.34375 84.507812 160.945312 84.828125 161.488281 85.253906 C 162.03125 85.679688 162.480469 86.1875 162.84375 86.777344 C 163.203125 87.367188 163.453125 88 163.585938 88.675781 C 163.722656 89.351562 163.734375 90.03125 163.628906 90.714844 C 163.519531 91.394531 163.296875 92.039062 162.960938 92.640625 C 162.625 93.242188 162.191406 93.765625 161.667969 94.214844 C 161.140625 94.664062 160.554688 95.007812 159.90625 95.246094 C 159.261719 95.484375 158.589844 95.605469 157.902344 95.601562 " fill-opacity="1" fill-rule="nonzero"/><path fill="#9bc6c9" d="M 186.988281 74.5 L 186.984375 74.5 C 186.605469 74.5 186.226562 74.464844 185.855469 74.390625 C 185.480469 74.316406 185.121094 74.207031 184.769531 74.058594 C 184.417969 73.914062 184.082031 73.734375 183.765625 73.523438 C 183.449219 73.3125 183.15625 73.074219 182.886719 72.804688 C 182.621094 72.535156 182.378906 72.242188 182.167969 71.925781 C 181.957031 71.609375 181.777344 71.273438 181.632812 70.921875 C 181.488281 70.570312 181.378906 70.210938 181.304688 69.835938 C 181.230469 69.460938 181.191406 69.085938 181.191406 68.707031 L 181.199219 23.671875 C 181.199219 23.292969 181.234375 22.914062 181.308594 22.542969 C 181.382812 22.167969 181.496094 21.804688 181.640625 21.453125 C 181.785156 21.101562 181.964844 20.769531 182.175781 20.453125 C 182.386719 20.136719 182.628906 19.84375 182.894531 19.574219 C 183.164062 19.304688 183.457031 19.066406 183.773438 18.855469 C 184.089844 18.640625 184.425781 18.464844 184.777344 18.320312 C 185.128906 18.171875 185.492188 18.0625 185.863281 17.988281 C 186.238281 17.914062 186.613281 17.878906 186.992188 17.878906 L 186.996094 17.878906 C 187.375 17.878906 187.753906 17.914062 188.125 17.988281 C 188.5 18.0625 188.859375 18.171875 189.210938 18.320312 C 189.5625 18.464844 189.898438 18.644531 190.214844 18.855469 C 190.53125 19.066406 190.824219 19.304688 191.09375 19.574219 C 191.359375 19.84375 191.601562 20.136719 191.8125 20.453125 C 192.023438 20.769531 192.203125 21.105469 192.347656 21.457031 C 192.492188 21.808594 192.601562 22.167969 192.675781 22.542969 C 192.75 22.914062 192.789062 23.292969 192.789062 23.671875 L 192.78125 68.707031 C 192.78125 69.085938 192.746094 69.464844 192.671875 69.835938 C 192.597656 70.210938 192.484375 70.574219 192.339844 70.925781 C 192.195312 71.277344 192.015625 71.609375 191.804688 71.925781 C 191.59375 72.242188 191.351562 72.535156 191.085938 72.804688 C 190.816406 73.074219 190.523438 73.3125 190.207031 73.523438 C 189.890625 73.734375 189.554688 73.914062 189.203125 74.058594 C 188.851562 74.207031 188.488281 74.316406 188.117188 74.390625 C 187.742188 74.464844 187.367188 74.5 186.988281 74.5 " fill-opacity="1" fill-rule="nonzero"/><path fill="#fb3a82" d="M 184.71875 64.679688 L 154.800781 86.414062 C 154.46875 86.652344 154.183594 86.9375 153.945312 87.269531 C 153.707031 87.597656 153.523438 87.957031 153.398438 88.347656 C 153.269531 88.734375 153.207031 89.132812 153.207031 89.539062 C 153.207031 89.949219 153.269531 90.34375 153.394531 90.734375 L 164.824219 125.90625 C 164.949219 126.292969 165.132812 126.652344 165.371094 126.980469 C 165.613281 127.3125 165.898438 127.597656 166.226562 127.835938 C 166.558594 128.074219 166.917969 128.257812 167.304688 128.382812 C 167.691406 128.511719 168.089844 128.574219 168.5 128.574219 L 205.476562 128.574219 C 205.886719 128.574219 206.285156 128.511719 206.671875 128.382812 C 207.058594 128.257812 207.417969 128.074219 207.75 127.835938 C 208.078125 127.597656 208.363281 127.3125 208.605469 126.980469 C 208.84375 126.652344 209.027344 126.292969 209.152344 125.90625 L 220.578125 90.734375 C 220.707031 90.34375 220.769531 89.949219 220.769531 89.539062 C 220.769531 89.132812 220.707031 88.734375 220.578125 88.347656 C 220.453125 87.957031 220.269531 87.597656 220.03125 87.269531 C 219.792969 86.9375 219.507812 86.652344 219.175781 86.414062 L 189.257812 64.679688 C 188.929688 64.4375 188.570312 64.257812 188.183594 64.128906 C 187.792969 64.003906 187.394531 63.941406 186.988281 63.941406 C 186.582031 63.941406 186.183594 64.003906 185.792969 64.128906 C 185.40625 64.257812 185.046875 64.4375 184.71875 64.679688 " fill-opacity="1" fill-rule="nonzero"/><path fill="#fb1466" d="M 220.585938 90.738281 L 209.148438 125.902344 C 209.023438 126.292969 208.839844 126.652344 208.601562 126.980469 C 208.359375 127.308594 208.074219 127.59375 207.746094 127.835938 C 207.414062 128.074219 207.058594 128.257812 206.667969 128.382812 C 206.28125 128.507812 205.882812 128.570312 205.476562 128.570312 L 189.429688 128.570312 L 199.636719 97.140625 C 199.761719 96.753906 199.824219 96.355469 199.824219 95.949219 C 199.824219 95.542969 199.761719 95.144531 199.636719 94.757812 C 199.507812 94.367188 199.328125 94.007812 199.085938 93.679688 C 198.847656 93.351562 198.5625 93.066406 198.234375 92.824219 L 172.121094 73.835938 L 184.722656 64.675781 C 185.050781 64.433594 185.410156 64.25 185.796875 64.125 C 186.1875 64 186.585938 63.933594 186.992188 63.933594 C 187.402344 63.933594 187.800781 64 188.1875 64.125 C 188.574219 64.25 188.933594 64.433594 189.265625 64.671875 L 219.183594 86.417969 C 219.511719 86.660156 219.796875 86.945312 220.035156 87.273438 C 220.277344 87.605469 220.460938 87.964844 220.585938 88.351562 C 220.710938 88.738281 220.773438 89.136719 220.773438 89.546875 C 220.773438 89.953125 220.710938 90.351562 220.585938 90.738281 " fill-opacity="1" fill-rule="nonzero"/><path fill="#3351c5" d="M 219.289062 5.328125 L 189.265625 27.144531 C 188.933594 27.386719 188.574219 27.566406 188.1875 27.695312 C 187.800781 27.820312 187.402344 27.882812 186.992188 27.882812 C 186.585938 27.882812 186.1875 27.820312 185.800781 27.695312 C 185.410156 27.566406 185.050781 27.386719 184.722656 27.144531 L 154.699219 5.328125 C 164.835938 1.867188 175.703125 0 186.992188 0 C 198.296875 0 209.164062 1.867188 219.289062 5.328125 " fill-opacity="1" fill-rule="nonzero"/><path fill="#2944ae" d="M 269.421875 156.902344 C 256.703125 175.324219 237.96875 189.273438 216.058594 195.910156 L 227.871094 159.570312 C 227.996094 159.183594 228.179688 158.824219 228.421875 158.492188 C 228.660156 158.164062 228.945312 157.878906 229.273438 157.636719 C 229.605469 157.398438 229.964844 157.214844 230.351562 157.089844 C 230.738281 156.964844 231.136719 156.902344 231.546875 156.902344 Z M 269.421875 156.902344 " fill-opacity="1" fill-rule="nonzero"/><path fill="#3351c5" d="M 157.898438 195.910156 C 135.988281 189.261719 117.269531 175.324219 104.5625 156.902344 L 142.425781 156.902344 C 142.835938 156.902344 143.230469 156.964844 143.621094 157.089844 C 144.007812 157.214844 144.367188 157.398438 144.695312 157.636719 C 145.027344 157.878906 145.3125 158.164062 145.550781 158.492188 C 145.792969 158.824219 145.972656 159.183594 146.101562 159.570312 Z M 157.898438 195.910156 " fill-opacity="1" fill-rule="nonzero"/><path fill="#2944ae" d="M 287.09375 100.101562 C 287.09375 100.414062 287.09375 100.722656 287.082031 101.035156 L 256.746094 79 C 256.414062 78.757812 256.128906 78.472656 255.890625 78.144531 C 255.652344 77.8125 255.46875 77.457031 255.339844 77.066406 C 255.214844 76.679688 255.152344 76.28125 255.152344 75.875 C 255.152344 75.464844 255.214844 75.066406 255.339844 74.679688 L 266.738281 39.597656 C 279.511719 56.398438 287.09375 77.363281 287.09375 100.101562 " fill-opacity="1" fill-rule="nonzero"/><path fill="#3351c5" d="M 118.632812 74.679688 C 118.757812 75.066406 118.820312 75.464844 118.820312 75.871094 C 118.820312 76.28125 118.757812 76.679688 118.632812 77.066406 C 118.503906 77.453125 118.320312 77.8125 118.082031 78.144531 C 117.84375 78.472656 117.558594 78.757812 117.226562 79 L 86.890625 101.035156 C 86.878906 100.722656 86.878906 100.414062 86.878906 100.101562 C 86.878906 77.375 94.449219 56.410156 107.234375 39.609375 Z M 118.632812 74.679688 " fill-opacity="1" fill-rule="nonzero"/><path fill="#fb3a82" d="M 205.300781 346.28125 L 28.324219 346.28125 C 23.230469 346.28125 19.097656 342.148438 19.097656 337.054688 L 19.097656 272.128906 C 19.097656 267.03125 23.230469 262.898438 28.324219 262.898438 L 205.300781 262.898438 C 210.398438 262.898438 214.527344 267.03125 214.527344 272.128906 L 214.527344 337.054688 C 214.527344 342.148438 210.398438 346.28125 205.300781 346.28125 " fill-opacity="1" fill-rule="nonzero"/><path fill="#fb1466" d="M 214.527344 272.125 L 214.527344 337.050781 C 214.527344 342.152344 210.394531 346.277344 205.300781 346.277344 L 182.054688 346.277344 C 187.148438 346.277344 191.28125 342.152344 191.28125 337.050781 L 191.28125 272.125 C 191.28125 267.035156 187.148438 262.898438 182.054688 262.898438 L 205.300781 262.898438 C 210.394531 262.898438 214.527344 267.035156 214.527344 272.125 " fill-opacity="1" fill-rule="nonzero"/><path fill="#eef4f5" d="M 72.40625 316.996094 L 60.753906 316.996094 L 60.753906 286.390625 C 60.753906 286.007812 60.714844 285.632812 60.640625 285.257812 C 60.566406 284.886719 60.457031 284.523438 60.3125 284.171875 C 60.167969 283.820312 59.988281 283.484375 59.777344 283.167969 C 59.566406 282.851562 59.324219 282.5625 59.054688 282.292969 C 58.785156 282.023438 58.492188 281.78125 58.175781 281.570312 C 57.859375 281.359375 57.527344 281.179688 57.175781 281.035156 C 56.824219 280.890625 56.460938 280.78125 56.089844 280.707031 C 55.714844 280.632812 55.339844 280.59375 54.957031 280.59375 C 54.578125 280.59375 54.199219 280.632812 53.828125 280.707031 C 53.453125 280.78125 53.089844 280.890625 52.738281 281.035156 C 52.386719 281.179688 52.054688 281.359375 51.738281 281.570312 C 51.421875 281.78125 51.128906 282.023438 50.859375 282.292969 C 50.589844 282.5625 50.351562 282.855469 50.140625 283.171875 C 49.929688 283.488281 49.75 283.820312 49.605469 284.171875 C 49.457031 284.523438 49.347656 284.886719 49.273438 285.257812 C 49.199219 285.632812 49.164062 286.007812 49.164062 286.390625 L 49.164062 322.792969 C 49.164062 323.171875 49.199219 323.550781 49.273438 323.921875 C 49.347656 324.296875 49.457031 324.65625 49.605469 325.007812 C 49.75 325.359375 49.929688 325.695312 50.140625 326.011719 C 50.351562 326.328125 50.589844 326.621094 50.859375 326.890625 C 51.128906 327.160156 51.421875 327.398438 51.738281 327.609375 C 52.054688 327.820312 52.386719 328 52.738281 328.144531 C 53.089844 328.289062 53.453125 328.402344 53.828125 328.476562 C 54.199219 328.550781 54.578125 328.585938 54.957031 328.585938 L 72.40625 328.585938 C 72.785156 328.585938 73.164062 328.550781 73.535156 328.476562 C 73.910156 328.402344 74.273438 328.289062 74.625 328.144531 C 74.976562 328 75.308594 327.820312 75.625 327.609375 C 75.941406 327.398438 76.234375 327.15625 76.503906 326.890625 C 76.773438 326.621094 77.011719 326.328125 77.222656 326.011719 C 77.4375 325.695312 77.613281 325.359375 77.761719 325.007812 C 77.90625 324.65625 78.015625 324.296875 78.089844 323.921875 C 78.164062 323.550781 78.199219 323.171875 78.199219 322.792969 C 78.199219 322.410156 78.164062 322.035156 78.089844 321.660156 C 78.015625 321.289062 77.90625 320.925781 77.761719 320.574219 C 77.613281 320.222656 77.4375 319.886719 77.222656 319.570312 C 77.011719 319.253906 76.773438 318.964844 76.503906 318.695312 C 76.234375 318.425781 75.941406 318.183594 75.625 317.972656 C 75.308594 317.761719 74.976562 317.582031 74.625 317.4375 C 74.273438 317.292969 73.910156 317.183594 73.535156 317.109375 C 73.164062 317.035156 72.785156 316.996094 72.40625 316.996094 " fill-opacity="1" fill-rule="nonzero"/><path fill="#eef4f5" d="M 92.65625 280.59375 C 92.273438 280.59375 91.898438 280.632812 91.523438 280.707031 C 91.152344 280.78125 90.789062 280.890625 90.4375 281.035156 C 90.085938 281.179688 89.753906 281.359375 89.4375 281.570312 C 89.121094 281.78125 88.828125 282.023438 88.558594 282.292969 C 88.289062 282.5625 88.046875 282.855469 87.835938 283.171875 C 87.625 283.488281 87.445312 283.820312 87.300781 284.171875 C 87.15625 284.523438 87.046875 284.886719 86.972656 285.257812 C 86.898438 285.632812 86.859375 286.007812 86.859375 286.390625 L 86.859375 322.792969 C 86.859375 323.171875 86.898438 323.550781 86.972656 323.921875 C 87.046875 324.296875 87.15625 324.65625 87.300781 325.007812 C 87.445312 325.359375 87.625 325.695312 87.835938 326.011719 C 88.046875 326.328125 88.289062 326.621094 88.558594 326.890625 C 88.828125 327.160156 89.121094 327.398438 89.4375 327.609375 C 89.753906 327.820312 90.085938 328 90.4375 328.144531 C 90.789062 328.292969 91.152344 328.402344 91.523438 328.476562 C 91.898438 328.550781 92.273438 328.585938 92.65625 328.585938 C 93.035156 328.585938 93.414062 328.550781 93.785156 328.476562 C 94.160156 328.402344 94.523438 328.292969 94.875 328.144531 C 95.222656 328 95.558594 327.820312 95.875 327.609375 C 96.191406 327.398438 96.484375 327.160156 96.753906 326.890625 C 97.023438 326.621094 97.261719 326.328125 97.472656 326.011719 C 97.683594 325.695312 97.863281 325.359375 98.007812 325.007812 C 98.15625 324.65625 98.265625 324.296875 98.339844 323.921875 C 98.414062 323.550781 98.449219 323.171875 98.449219 322.792969 L 98.449219 286.390625 C 98.449219 286.007812 98.414062 285.632812 98.339844 285.257812 C 98.265625 284.886719 98.15625 284.523438 98.007812 284.171875 C 97.863281 283.820312 97.683594 283.488281 97.472656 283.171875 C 97.261719 282.855469 97.023438 282.5625 96.753906 282.292969 C 96.484375 282.023438 96.191406 281.78125 95.875 281.570312 C 95.558594 281.359375 95.226562 281.179688 94.875 281.035156 C 94.523438 280.890625 94.160156 280.78125 93.785156 280.707031 C 93.414062 280.632812 93.035156 280.59375 92.65625 280.59375 " fill-opacity="1" fill-rule="nonzero"/><path fill="#eef4f5" d="M 143.003906 280.957031 C 142.644531 280.824219 142.277344 280.730469 141.902344 280.667969 C 141.527344 280.609375 141.148438 280.585938 140.769531 280.601562 C 140.390625 280.613281 140.015625 280.664062 139.644531 280.753906 C 139.273438 280.839844 138.914062 280.964844 138.570312 281.121094 C 138.222656 281.28125 137.898438 281.472656 137.589844 281.695312 C 137.28125 281.917969 136.996094 282.167969 136.738281 282.449219 C 136.480469 282.726562 136.25 283.027344 136.050781 283.351562 C 135.851562 283.675781 135.683594 284.015625 135.550781 284.371094 L 127.464844 306.148438 L 119.378906 284.371094 C 118.261719 281.371094 114.929688 279.839844 111.929688 280.957031 C 111.570312 281.089844 111.230469 281.257812 110.90625 281.457031 C 110.582031 281.65625 110.28125 281.886719 110.003906 282.144531 C 109.722656 282.402344 109.472656 282.6875 109.25 282.996094 C 109.027344 283.304688 108.835938 283.628906 108.679688 283.976562 C 108.519531 284.320312 108.394531 284.679688 108.308594 285.050781 C 108.21875 285.421875 108.167969 285.796875 108.15625 286.175781 C 108.140625 286.554688 108.164062 286.933594 108.226562 287.308594 C 108.285156 287.683594 108.382812 288.050781 108.515625 288.410156 L 122.035156 324.808594 C 122.238281 325.363281 122.523438 325.875 122.886719 326.34375 C 123.25 326.808594 123.671875 327.210938 124.15625 327.550781 C 124.644531 327.886719 125.167969 328.144531 125.730469 328.320312 C 126.296875 328.5 126.875 328.585938 127.464844 328.585938 C 129.886719 328.585938 132.054688 327.078125 132.898438 324.808594 L 146.417969 288.410156 C 146.550781 288.050781 146.644531 287.683594 146.707031 287.308594 C 146.765625 286.933594 146.789062 286.554688 146.777344 286.175781 C 146.761719 285.796875 146.710938 285.421875 146.621094 285.050781 C 146.535156 284.679688 146.410156 284.320312 146.253906 283.976562 C 146.09375 283.628906 145.902344 283.304688 145.679688 282.996094 C 145.457031 282.6875 145.207031 282.402344 144.925781 282.144531 C 144.648438 281.882812 144.347656 281.65625 144.023438 281.457031 C 143.699219 281.257812 143.359375 281.089844 143.003906 280.957031 " fill-opacity="1" fill-rule="nonzero"/><path fill="#eef4f5" d="M 178.667969 316.996094 L 167.015625 316.996094 L 167.015625 310.386719 L 174.742188 310.386719 C 175.121094 310.386719 175.496094 310.347656 175.871094 310.273438 C 176.246094 310.199219 176.605469 310.089844 176.957031 309.945312 C 177.308594 309.796875 177.644531 309.621094 177.960938 309.410156 C 178.277344 309.199219 178.570312 308.957031 178.839844 308.6875 C 179.105469 308.417969 179.347656 308.125 179.558594 307.808594 C 179.769531 307.492188 179.949219 307.160156 180.09375 306.808594 C 180.238281 306.457031 180.347656 306.09375 180.421875 305.722656 C 180.496094 305.347656 180.535156 304.972656 180.535156 304.589844 C 180.535156 304.210938 180.496094 303.832031 180.421875 303.460938 C 180.347656 303.085938 180.238281 302.722656 180.09375 302.371094 C 179.949219 302.019531 179.769531 301.6875 179.558594 301.371094 C 179.347656 301.054688 179.105469 300.761719 178.839844 300.492188 C 178.570312 300.222656 178.277344 299.984375 177.960938 299.773438 C 177.644531 299.558594 177.308594 299.382812 176.957031 299.234375 C 176.605469 299.089844 176.246094 298.980469 175.871094 298.90625 C 175.496094 298.832031 175.121094 298.796875 174.742188 298.796875 L 167.015625 298.796875 L 167.015625 292.183594 L 178.667969 292.183594 C 179.050781 292.183594 179.425781 292.148438 179.800781 292.074219 C 180.171875 292 180.535156 291.890625 180.886719 291.742188 C 181.238281 291.597656 181.574219 291.417969 181.890625 291.207031 C 182.207031 290.996094 182.5 290.757812 182.765625 290.488281 C 183.035156 290.21875 183.277344 289.925781 183.488281 289.609375 C 183.699219 289.292969 183.878906 288.957031 184.023438 288.605469 C 184.167969 288.253906 184.277344 287.894531 184.351562 287.519531 C 184.425781 287.148438 184.464844 286.769531 184.464844 286.390625 C 184.464844 286.007812 184.425781 285.632812 184.351562 285.257812 C 184.277344 284.886719 184.167969 284.523438 184.023438 284.171875 C 183.878906 283.820312 183.699219 283.484375 183.488281 283.167969 C 183.277344 282.851562 183.035156 282.5625 182.765625 282.292969 C 182.5 282.023438 182.207031 281.78125 181.890625 281.570312 C 181.574219 281.359375 181.238281 281.179688 180.886719 281.035156 C 180.535156 280.890625 180.171875 280.78125 179.800781 280.707031 C 179.425781 280.632812 179.050781 280.59375 178.667969 280.59375 L 161.21875 280.59375 C 160.839844 280.59375 160.464844 280.632812 160.089844 280.707031 C 159.714844 280.78125 159.355469 280.890625 159.003906 281.035156 C 158.652344 281.179688 158.316406 281.359375 158 281.570312 C 157.683594 281.78125 157.390625 282.023438 157.121094 282.292969 C 156.855469 282.5625 156.613281 282.855469 156.402344 283.171875 C 156.191406 283.488281 156.011719 283.820312 155.867188 284.171875 C 155.722656 284.523438 155.613281 284.886719 155.539062 285.257812 C 155.464844 285.632812 155.425781 286.007812 155.425781 286.390625 L 155.425781 322.792969 C 155.425781 323.171875 155.464844 323.550781 155.539062 323.921875 C 155.613281 324.296875 155.722656 324.65625 155.867188 325.007812 C 156.011719 325.359375 156.191406 325.695312 156.402344 326.011719 C 156.613281 326.328125 156.855469 326.621094 157.121094 326.890625 C 157.390625 327.160156 157.683594 327.398438 158 327.609375 C 158.316406 327.820312 158.652344 328 159.003906 328.144531 C 159.355469 328.289062 159.714844 328.402344 160.089844 328.476562 C 160.464844 328.550781 160.839844 328.585938 161.21875 328.585938 L 178.667969 328.585938 C 179.050781 328.585938 179.425781 328.550781 179.800781 328.476562 C 180.171875 328.402344 180.535156 328.292969 180.886719 328.144531 C 181.238281 328 181.574219 327.820312 181.890625 327.609375 C 182.207031 327.398438 182.5 327.160156 182.765625 326.890625 C 183.035156 326.621094 183.277344 326.328125 183.488281 326.011719 C 183.699219 325.695312 183.878906 325.359375 184.023438 325.007812 C 184.167969 324.65625 184.277344 324.296875 184.351562 323.921875 C 184.425781 323.550781 184.464844 323.171875 184.464844 322.792969 C 184.464844 322.410156 184.425781 322.035156 184.351562 321.660156 C 184.277344 321.289062 184.167969 320.925781 184.023438 320.574219 C 183.878906 320.222656 183.699219 319.890625 183.488281 319.574219 C 183.277344 319.257812 183.035156 318.964844 182.765625 318.695312 C 182.5 318.425781 182.207031 318.183594 181.890625 317.972656 C 181.574219 317.761719 181.238281 317.582031 180.886719 317.4375 C 180.535156 317.292969 180.171875 317.183594 179.800781 317.109375 C 179.425781 317.035156 179.050781 316.996094 178.667969 316.996094 " fill-opacity="1" fill-rule="nonzero"/></svg>