<svg xmlns="http://www.w3.org/2000/svg" xmlns:xlink="http://www.w3.org/1999/xlink" width="512" zoomAndPan="magnify" viewBox="0 0 384 383.999986" height="512" preserveAspectRatio="xMidYMid meet" version="1.0"><path fill="#0076e5" d="M 172.292969 39.167969 L 172.292969 305.75 C 172.292969 310.855469 169.957031 315.679688 165.957031 318.851562 L 125.261719 351.066406 L 123.042969 352.828125 C 120.398438 354.570312 117.25 355.582031 113.855469 355.582031 C 104.632812 355.582031 97.160156 348.109375 97.160156 338.886719 L 97.160156 55.863281 C 97.160156 51.285156 99.003906 47.132812 102 44.113281 C 105.007812 41.058594 109.210938 39.160156 113.855469 39.160156 L 172.292969 39.160156 Z M 172.292969 39.167969 " fill-opacity="1" fill-rule="nonzero"/><path fill="#0080f9" d="M 97.097656 39.167969 L 97.160156 39.167969 L 97.160156 39.277344 L 97.074219 39.191406 Z M 97.097656 39.167969 " fill-opacity="1" fill-rule="nonzero"/><path fill="#0080f9" d="M 328.203125 190.410156 L 295.273438 216.492188 C 288.621094 221.753906 279.082031 221.199219 273.101562 215.207031 L 172.300781 114.417969 L 102.003906 44.121094 C 105.015625 41.066406 109.21875 39.167969 113.863281 39.167969 L 196.402344 39.167969 C 200.832031 39.167969 205.085938 40.925781 208.210938 44.058594 L 329.664062 165.511719 C 336.730469 172.578125 336.054688 184.21875 328.21875 190.417969 Z M 328.203125 190.410156 " fill-opacity="1" fill-rule="nonzero"/></svg>