<svg xmlns="http://www.w3.org/2000/svg" xmlns:xlink="http://www.w3.org/1999/xlink" width="512" zoomAndPan="magnify" viewBox="0 0 384 383.999986" height="512" preserveAspectRatio="xMidYMid meet" version="1.0"><path fill="#395763" d="M 357.976562 137.902344 L 357.976562 64.695312 C 357.976562 64.371094 357.941406 64.046875 357.871094 63.730469 C 357.800781 63.410156 357.695312 63.101562 357.558594 62.808594 C 357.421875 62.511719 357.253906 62.234375 357.058594 61.972656 C 356.859375 61.714844 356.636719 61.476562 356.386719 61.265625 C 356.140625 61.054688 355.871094 60.875 355.582031 60.722656 C 355.292969 60.566406 354.992188 60.449219 354.679688 60.359375 C 354.363281 60.273438 354.042969 60.222656 353.71875 60.203125 C 353.394531 60.183594 353.070312 60.203125 352.746094 60.253906 C 316.917969 66.144531 284.542969 55.199219 250.269531 43.613281 C 200.695312 26.851562 149.492188 9.546875 85.40625 44.132812 L 85.40625 28.3125 C 85.40625 16.007812 75.386719 6 63.074219 6 C 50.757812 6 40.761719 16.007812 40.761719 28.3125 L 40.761719 47.335938 L 36.628906 47.335938 C 30.78125 47.335938 26.023438 52.089844 26.023438 57.9375 L 26.023438 75.921875 C 26.023438 81.769531 30.78125 86.527344 36.628906 86.527344 L 40.761719 86.527344 L 40.761719 241.554688 L 36.628906 241.554688 C 30.78125 241.554688 26.023438 246.300781 26.023438 252.136719 L 26.023438 270.144531 C 26.023438 275.992188 30.78125 280.75 36.628906 280.75 L 40.761719 280.75 L 40.761719 373.5 C 40.761719 373.796875 40.789062 374.089844 40.847656 374.378906 C 40.90625 374.667969 40.992188 374.949219 41.105469 375.222656 C 41.21875 375.496094 41.355469 375.753906 41.519531 376 C 41.683594 376.246094 41.871094 376.472656 42.078125 376.683594 C 42.289062 376.890625 42.515625 377.078125 42.761719 377.242188 C 43.007812 377.40625 43.265625 377.546875 43.539062 377.65625 C 43.8125 377.769531 44.09375 377.855469 44.382812 377.914062 C 44.671875 377.972656 44.964844 378 45.261719 378 L 80.90625 378 C 81.199219 378 81.492188 377.972656 81.785156 377.914062 C 82.074219 377.855469 82.355469 377.769531 82.628906 377.65625 C 82.902344 377.546875 83.160156 377.40625 83.40625 377.242188 C 83.652344 377.078125 83.878906 376.890625 84.085938 376.683594 C 84.296875 376.472656 84.484375 376.246094 84.648438 376 C 84.8125 375.753906 84.949219 375.496094 85.0625 375.222656 C 85.175781 374.949219 85.261719 374.667969 85.320312 374.378906 C 85.375 374.089844 85.40625 373.796875 85.40625 373.5 L 85.40625 278.847656 C 148.113281 242.992188 198.578125 260.042969 247.402344 276.550781 C 274.730469 285.789062 302.8125 295.28125 332.667969 295.28125 C 339.742188 295.28125 346.917969 294.75 354.207031 293.550781 C 354.734375 293.464844 355.226562 293.292969 355.691406 293.027344 C 356.15625 292.765625 356.5625 292.429688 356.90625 292.023438 C 357.253906 291.617188 357.515625 291.164062 357.703125 290.664062 C 357.886719 290.164062 357.976562 289.644531 357.976562 289.113281 L 357.976562 215.90625 C 357.976562 215.609375 357.949219 215.316406 357.890625 215.027344 C 357.832031 214.738281 357.746094 214.457031 357.632812 214.183594 C 357.523438 213.910156 357.382812 213.652344 357.21875 213.40625 C 357.054688 213.160156 356.867188 212.933594 356.660156 212.722656 C 356.449219 212.515625 356.222656 212.328125 355.976562 212.164062 C 355.730469 212 355.472656 211.859375 355.199219 211.75 C 354.925781 211.636719 354.644531 211.550781 354.355469 211.492188 C 354.066406 211.433594 353.773438 211.40625 353.476562 211.40625 L 341.570312 211.40625 L 356.519531 197.707031 C 356.984375 197.28125 357.34375 196.777344 357.597656 196.199219 C 357.851562 195.625 357.976562 195.019531 357.976562 194.390625 L 357.976562 159.421875 C 357.976562 159.125 357.949219 158.832031 357.890625 158.542969 C 357.832031 158.253906 357.746094 157.972656 357.632812 157.699219 C 357.523438 157.425781 357.382812 157.167969 357.21875 156.921875 C 357.054688 156.675781 356.867188 156.449219 356.660156 156.238281 C 356.449219 156.03125 356.222656 155.84375 355.976562 155.679688 C 355.730469 155.515625 355.472656 155.375 355.199219 155.261719 C 354.925781 155.148438 354.644531 155.066406 354.355469 155.007812 C 354.066406 154.949219 353.773438 154.921875 353.476562 154.921875 L 341.570312 154.921875 L 356.519531 141.222656 C 356.984375 140.796875 357.34375 140.292969 357.597656 139.714844 C 357.851562 139.140625 357.976562 138.535156 357.976562 137.902344 Z M 100.859375 188.160156 C 98.253906 211.152344 92.390625 229.394531 85.40625 237.507812 L 85.40625 91.800781 C 91.375 98.949219 96.085938 110.488281 98.996094 125.390625 C 102.605469 143.871094 103.285156 166.75 100.859375 188.160156 Z M 100.859375 188.160156 " fill-opacity="1" fill-rule="nonzero"/><path fill="#4b6977" d="M 36.628906 47.335938 C 30.78125 47.335938 26.023438 52.089844 26.023438 57.9375 L 26.023438 75.921875 C 26.023438 81.769531 30.78125 86.527344 36.628906 86.527344 L 85.40625 86.527344 L 85.40625 47.335938 Z M 36.628906 241.554688 C 30.78125 241.554688 26.023438 246.300781 26.023438 252.136719 L 26.023438 270.144531 C 26.023438 275.992188 30.78125 280.75 36.628906 280.75 L 85.40625 280.75 L 85.40625 241.554688 Z M 36.628906 241.554688 " fill-opacity="1" fill-rule="nonzero"/><path fill="#c1c1e5" d="M 215.914062 95.570312 C 186.621094 95.570312 162.792969 120.886719 162.792969 152.007812 L 162.792969 167.355469 C 162.792969 179.039062 170.378906 188.90625 180.667969 191.839844 L 180.667969 194.148438 C 180.667969 203.628906 188.128906 211.34375 197.296875 211.34375 L 234.511719 211.34375 C 243.683594 211.34375 251.140625 203.628906 251.140625 194.148438 L 251.140625 191.839844 C 261.429688 188.90625 269.019531 179.039062 269.019531 167.355469 L 269.019531 152.007812 C 269.019531 120.886719 245.195312 95.570312 215.914062 95.570312 Z M 215.914062 95.570312 " fill-opacity="1" fill-rule="nonzero"/><path fill="#aaaace" d="M 196.003906 162.722656 C 189.183594 162.722656 183.652344 157.191406 183.652344 150.371094 L 183.652344 150.21875 C 183.652344 143.398438 189.183594 137.867188 196.003906 137.867188 C 202.824219 137.867188 208.355469 143.398438 208.355469 150.21875 L 208.355469 150.371094 C 208.355469 157.191406 202.824219 162.722656 196.003906 162.722656 Z M 237.679688 162.722656 C 230.859375 162.722656 225.328125 157.191406 225.328125 150.371094 L 225.328125 150.21875 C 225.328125 143.398438 230.859375 137.867188 237.679688 137.867188 C 244.5 137.867188 250.03125 143.398438 250.03125 150.21875 L 250.03125 150.371094 C 250.03125 157.191406 244.5 162.722656 237.679688 162.722656 Z M 237.679688 162.722656 " fill-opacity="1" fill-rule="nonzero"/><path fill="#6d4732" d="M 40.761719 86.527344 L 85.40625 86.527344 L 85.40625 241.554688 L 40.761719 241.554688 Z M 85.40625 47.335938 L 85.40625 28.3125 C 85.40625 16.007812 75.386719 6 63.070312 6 C 50.757812 6 40.761719 16.007812 40.761719 28.3125 L 40.761719 47.335938 Z M 40.761719 280.75 L 40.761719 373.5 C 40.761719 373.796875 40.789062 374.089844 40.847656 374.378906 C 40.90625 374.667969 40.992188 374.949219 41.105469 375.222656 C 41.214844 375.496094 41.355469 375.753906 41.519531 376 C 41.683594 376.246094 41.871094 376.472656 42.078125 376.683594 C 42.289062 376.890625 42.515625 377.078125 42.761719 377.242188 C 43.007812 377.40625 43.265625 377.542969 43.539062 377.65625 C 43.8125 377.769531 44.09375 377.855469 44.382812 377.914062 C 44.671875 377.972656 44.964844 378 45.261719 378 L 80.90625 378 C 81.199219 378 81.492188 377.972656 81.78125 377.914062 C 82.074219 377.855469 82.355469 377.769531 82.625 377.65625 C 82.898438 377.542969 83.160156 377.40625 83.40625 377.242188 C 83.652344 377.078125 83.878906 376.890625 84.085938 376.683594 C 84.296875 376.472656 84.480469 376.246094 84.644531 376 C 84.808594 375.753906 84.949219 375.496094 85.0625 375.222656 C 85.175781 374.949219 85.261719 374.667969 85.316406 374.378906 C 85.375 374.089844 85.40625 373.796875 85.40625 373.5 L 85.40625 280.75 Z M 40.761719 280.75 " fill-opacity="1" fill-rule="nonzero"/><path fill="#d9d9ed" d="M 248.847656 107.785156 C 253.425781 111.644531 257.394531 116.285156 260.570312 121.519531 L 272.558594 109.53125 C 273.683594 110.007812 274.882812 110.253906 276.085938 110.253906 C 278.386719 110.253906 280.691406 109.378906 282.449219 107.617188 C 285.964844 104.105469 285.964844 98.40625 282.449219 94.890625 L 274.46875 86.910156 C 270.953125 83.394531 265.253906 83.394531 261.742188 86.910156 C 259.066406 89.585938 258.433594 93.523438 259.828125 96.800781 L 248.847656 107.78125 Z M 155.726562 110.253906 C 156.925781 110.253906 158.128906 110.011719 159.25 109.53125 L 171.242188 121.523438 C 174.417969 116.289062 178.382812 111.648438 182.964844 107.789062 L 171.980469 96.804688 C 173.375 93.523438 172.742188 89.585938 170.066406 86.914062 C 166.550781 83.398438 160.851562 83.398438 157.339844 86.914062 L 153.355469 90.894531 L 153.347656 90.902344 L 153.34375 90.910156 L 149.359375 94.890625 C 145.847656 98.40625 145.847656 104.105469 149.359375 107.621094 C 150.203125 108.464844 151.175781 109.117188 152.28125 109.574219 C 153.382812 110.027344 154.53125 110.257812 155.726562 110.253906 Z M 272.558594 197.382812 L 261.1875 186.011719 C 258.371094 188.726562 254.941406 190.757812 251.140625 191.839844 L 251.140625 194.148438 C 251.140625 196.320312 250.746094 198.398438 250.03125 200.3125 L 259.828125 210.109375 C 258.433594 213.390625 259.066406 217.328125 261.742188 220 C 263.5 221.757812 265.800781 222.636719 268.105469 222.636719 C 270.410156 222.636719 272.710938 221.757812 274.46875 220 L 282.449219 212.023438 C 285.964844 208.507812 285.964844 202.808594 282.449219 199.292969 C 279.773438 196.621094 275.835938 195.984375 272.558594 197.382812 Z M 181.777344 200.3125 C 181.035156 198.324219 180.664062 196.269531 180.667969 194.148438 L 180.667969 191.839844 C 176.867188 190.757812 173.4375 188.726562 170.621094 186.011719 L 159.25 197.378906 C 155.972656 195.984375 152.035156 196.617188 149.359375 199.292969 C 145.84375 202.808594 145.84375 208.503906 149.359375 212.019531 L 153.34375 216.003906 L 153.347656 216.011719 L 153.355469 216.015625 L 157.339844 220 C 159.09375 221.757812 161.398438 222.636719 163.703125 222.636719 C 166.003906 222.636719 168.308594 221.757812 170.066406 220 C 172.738281 217.324219 173.375 213.386719 171.976562 210.109375 L 181.773438 200.3125 Z M 181.777344 200.3125 " fill-opacity="1" fill-rule="nonzero"/></svg>