<svg xmlns="http://www.w3.org/2000/svg" xmlns:xlink="http://www.w3.org/1999/xlink" width="512" zoomAndPan="magnify" viewBox="0 0 384 383.999986" height="512" preserveAspectRatio="xMidYMid meet" version="1.0"><path fill="#ffffff" d="M 192 112.453125 L 192 192 L 165.484375 192 L 165.484375 218.515625 L 112.453125 218.515625 L 112.453125 192 L 85.945312 192 L 85.945312 112.453125 L 112.453125 112.453125 L 112.453125 85.945312 L 165.484375 85.945312 L 165.484375 112.453125 Z M 192 112.453125 " fill-opacity="1" fill-rule="nonzero"/><path fill="#ffffff" d="M 165.503906 112.449219 L 165.503906 85.953125 L 112.449219 85.953125 L 112.449219 112.449219 L 85.953125 112.449219 L 85.953125 192 L 112.449219 192 L 112.449219 218.496094 L 165.503906 218.496094 L 165.503906 192 L 192 192 L 192 112.449219 Z M 351.105469 112.449219 L 351.105469 192 L 324.542969 192 L 324.542969 218.496094 L 271.550781 218.496094 L 271.550781 192 L 245.054688 192 L 245.054688 112.449219 L 271.550781 112.449219 L 271.550781 85.953125 L 324.542969 85.953125 L 324.542969 112.449219 Z M 351.105469 112.449219 " fill-opacity="1" fill-rule="nonzero"/><path fill="#336a93" d="M 112.453125 165.484375 L 165.484375 165.484375 L 165.484375 218.515625 L 112.453125 218.515625 Z M 271.550781 165.484375 L 324.582031 165.484375 L 324.582031 218.515625 L 271.550781 218.515625 Z M 271.550781 165.484375 " fill-opacity="1" fill-rule="nonzero"/><path fill="#ffffff" d="M 192 112.453125 L 192 192 L 165.484375 192 L 165.484375 218.515625 L 112.453125 218.515625 L 112.453125 192 L 85.945312 192 L 85.945312 112.453125 L 112.453125 112.453125 L 112.453125 85.945312 L 165.484375 85.945312 L 165.484375 112.453125 Z M 192 112.453125 " fill-opacity="1" fill-rule="nonzero"/><path fill="#ffffff" d="M 165.503906 112.449219 L 165.503906 85.953125 L 112.449219 85.953125 L 112.449219 112.449219 L 85.953125 112.449219 L 85.953125 192 L 112.449219 192 L 112.449219 218.496094 L 165.503906 218.496094 L 165.503906 192 L 192 192 L 192 112.449219 Z M 165.503906 112.449219 " fill-opacity="1" fill-rule="nonzero"/><path fill="#008f9b" d="M 324.542969 85.953125 L 351.101562 85.953125 L 351.101562 112.449219 L 324.542969 112.449219 Z M 324.542969 85.953125 " fill-opacity="1" fill-rule="nonzero"/><path fill="#ffffff" d="M 351.105469 112.449219 L 351.105469 192 L 324.542969 192 L 324.542969 218.496094 L 271.550781 218.496094 L 271.550781 192 L 245.054688 192 L 245.054688 112.449219 L 271.550781 112.449219 L 271.550781 85.953125 L 324.542969 85.953125 L 324.542969 112.449219 Z M 351.105469 112.449219 " fill-opacity="1" fill-rule="nonzero"/><path fill="#008f9b" d="M 351.105469 138.945312 L 351.105469 192 L 324.542969 192 L 324.542969 165.503906 L 271.550781 165.503906 L 271.550781 192 L 245.054688 192 L 245.054688 112.449219 L 271.550781 112.449219 L 271.550781 85.953125 L 324.542969 85.953125 L 324.542969 59.457031 L 298.046875 59.457031 L 298.046875 32.894531 L 271.550781 32.894531 L 271.550781 6.398438 L 112.449219 6.398438 L 112.449219 32.894531 L 85.953125 32.894531 L 85.953125 59.457031 L 59.457031 59.457031 L 59.457031 85.953125 L 32.894531 85.953125 L 32.894531 138.945312 L 6.398438 138.945312 L 6.398438 351.105469 L 32.894531 351.105469 L 32.894531 377.597656 L 85.953125 377.597656 L 85.953125 351.105469 L 112.449219 351.105469 L 112.449219 324.542969 L 138.945312 324.542969 L 138.945312 351.105469 L 165.503906 351.105469 L 165.503906 377.597656 L 218.496094 377.597656 L 218.496094 351.105469 L 245.054688 351.105469 L 245.054688 324.542969 L 271.550781 324.542969 L 271.550781 351.105469 L 298.046875 351.105469 L 298.046875 377.597656 L 351.101562 377.597656 L 351.101562 351.105469 L 377.597656 351.105469 L 377.597656 138.945312 Z M 192 192 L 165.503906 192 L 165.503906 165.503906 L 112.449219 165.503906 L 112.449219 192 L 85.953125 192 L 85.953125 112.449219 L 112.449219 112.449219 L 112.449219 85.953125 L 165.503906 85.953125 L 165.503906 112.449219 L 192 112.449219 Z M 192 192 " fill-opacity="1" fill-rule="nonzero"/><path fill="#00c2d7" d="M 351.105469 138.945312 L 351.105469 192 L 298.945312 192 L 298.945312 165.503906 L 271.550781 165.503906 L 271.550781 192 L 219.457031 192 L 219.457031 112.449219 L 245.953125 112.449219 L 245.953125 85.953125 L 298.945312 85.953125 L 298.945312 59.457031 L 272.449219 59.457031 L 272.449219 32.894531 L 245.953125 32.894531 L 245.953125 6.398438 L 112.449219 6.398438 L 112.449219 32.894531 L 85.953125 32.894531 L 85.953125 59.457031 L 59.457031 59.457031 L 59.457031 85.953125 L 32.894531 85.953125 L 32.894531 138.945312 L 6.398438 138.945312 L 6.398438 351.105469 L 32.894531 351.105469 L 32.894531 377.597656 L 60.351562 377.597656 L 60.351562 351.105469 L 86.847656 351.105469 L 86.847656 324.542969 L 138.945312 324.542969 L 138.945312 351.105469 L 165.503906 351.105469 L 165.503906 377.597656 L 192.894531 377.597656 L 192.894531 351.105469 L 219.457031 351.105469 L 219.457031 324.542969 L 271.550781 324.542969 L 271.550781 351.105469 L 298.046875 351.105469 L 298.046875 377.597656 L 325.503906 377.597656 L 325.503906 351.105469 L 352 351.105469 L 352 138.945312 Z M 192 192 L 139.902344 192 L 139.902344 165.503906 L 112.449219 165.503906 L 112.449219 192 L 60.351562 192 L 60.351562 112.449219 L 86.847656 112.449219 L 86.847656 85.953125 L 165.503906 85.953125 L 165.503906 112.449219 L 192 112.449219 Z M 192 192 " fill-opacity="1" fill-rule="nonzero"/><path fill="#000000" d="M 112.453125 165.484375 L 165.484375 165.484375 L 165.484375 218.515625 L 112.453125 218.515625 Z M 271.550781 165.484375 L 324.582031 165.484375 L 324.582031 218.515625 L 271.550781 218.515625 Z M 271.550781 165.484375 " fill-opacity="1" fill-rule="nonzero"/><path fill="#000000" d="M 192 106.054688 L 171.886719 106.054688 L 171.886719 85.945312 C 171.886719 85.523438 171.847656 85.105469 171.765625 84.695312 C 171.683594 84.28125 171.5625 83.882812 171.402344 83.492188 C 171.242188 83.105469 171.042969 82.734375 170.8125 82.386719 C 170.578125 82.035156 170.3125 81.714844 170.015625 81.417969 C 169.71875 81.117188 169.394531 80.855469 169.042969 80.621094 C 168.695312 80.386719 168.324219 80.191406 167.9375 80.027344 C 167.550781 79.867188 167.148438 79.746094 166.738281 79.664062 C 166.324219 79.582031 165.90625 79.542969 165.488281 79.542969 L 112.457031 79.542969 C 112.035156 79.542969 111.621094 79.582031 111.207031 79.664062 C 110.796875 79.746094 110.394531 79.867188 110.007812 80.027344 C 109.617188 80.191406 109.25 80.386719 108.898438 80.621094 C 108.550781 80.855469 108.226562 81.117188 107.929688 81.417969 C 107.632812 81.714844 107.367188 82.035156 107.132812 82.386719 C 106.898438 82.734375 106.703125 83.105469 106.542969 83.492188 C 106.382812 83.882812 106.261719 84.28125 106.179688 84.695312 C 106.097656 85.105469 106.054688 85.523438 106.058594 85.945312 L 106.058594 106.054688 L 85.945312 106.054688 C 85.523438 106.054688 85.105469 106.097656 84.695312 106.179688 C 84.28125 106.261719 83.882812 106.382812 83.492188 106.542969 C 83.105469 106.703125 82.738281 106.898438 82.386719 107.132812 C 82.039062 107.367188 81.714844 107.632812 81.417969 107.929688 C 81.121094 108.226562 80.855469 108.550781 80.621094 108.898438 C 80.386719 109.25 80.191406 109.617188 80.03125 110.003906 C 79.867188 110.394531 79.746094 110.792969 79.667969 111.207031 C 79.585938 111.621094 79.542969 112.035156 79.542969 112.457031 L 79.542969 192 C 79.542969 192.421875 79.585938 192.835938 79.667969 193.25 C 79.746094 193.660156 79.867188 194.0625 80.03125 194.449219 C 80.191406 194.839844 80.386719 195.207031 80.621094 195.558594 C 80.855469 195.90625 81.121094 196.230469 81.417969 196.527344 C 81.714844 196.824219 82.039062 197.089844 82.386719 197.324219 C 82.738281 197.554688 83.105469 197.753906 83.492188 197.914062 C 83.882812 198.074219 84.28125 198.195312 84.695312 198.277344 C 85.105469 198.359375 85.523438 198.398438 85.945312 198.398438 L 106.058594 198.398438 L 106.058594 218.511719 C 106.054688 218.933594 106.097656 219.347656 106.179688 219.761719 C 106.261719 220.175781 106.382812 220.574219 106.542969 220.960938 C 106.703125 221.351562 106.898438 221.71875 107.132812 222.070312 C 107.367188 222.417969 107.632812 222.742188 107.929688 223.039062 C 108.226562 223.335938 108.550781 223.601562 108.898438 223.835938 C 109.25 224.070312 109.617188 224.265625 110.007812 224.425781 C 110.394531 224.585938 110.796875 224.707031 111.207031 224.789062 C 111.621094 224.871094 112.035156 224.914062 112.457031 224.914062 L 165.488281 224.914062 C 165.90625 224.914062 166.324219 224.871094 166.738281 224.789062 C 167.148438 224.707031 167.550781 224.585938 167.9375 224.425781 C 168.324219 224.265625 168.695312 224.070312 169.042969 223.835938 C 169.394531 223.601562 169.71875 223.335938 170.015625 223.039062 C 170.3125 222.742188 170.578125 222.417969 170.8125 222.070312 C 171.042969 221.71875 171.242188 221.351562 171.402344 220.960938 C 171.5625 220.574219 171.683594 220.171875 171.765625 219.761719 C 171.847656 219.347656 171.886719 218.933594 171.886719 218.511719 L 171.886719 198.398438 L 192 198.398438 C 192.421875 198.398438 192.835938 198.359375 193.25 198.277344 C 193.660156 198.195312 194.0625 198.074219 194.449219 197.914062 C 194.839844 197.753906 195.207031 197.554688 195.558594 197.324219 C 195.90625 197.089844 196.230469 196.824219 196.527344 196.527344 C 196.824219 196.230469 197.089844 195.90625 197.324219 195.558594 C 197.554688 195.207031 197.753906 194.839844 197.914062 194.449219 C 198.074219 194.0625 198.195312 193.660156 198.277344 193.25 C 198.359375 192.835938 198.398438 192.421875 198.398438 192 L 198.398438 112.457031 C 198.398438 112.035156 198.359375 111.621094 198.277344 111.207031 C 198.195312 110.796875 198.074219 110.394531 197.914062 110.007812 C 197.753906 109.617188 197.554688 109.25 197.324219 108.898438 C 197.089844 108.550781 196.824219 108.226562 196.527344 107.929688 C 196.230469 107.632812 195.90625 107.367188 195.558594 107.132812 C 195.207031 106.898438 194.839844 106.703125 194.449219 106.542969 C 194.0625 106.382812 193.660156 106.261719 193.25 106.179688 C 192.835938 106.097656 192.421875 106.054688 192 106.054688 Z M 159.085938 212.113281 L 118.855469 212.113281 L 118.855469 171.886719 L 159.085938 171.886719 Z M 185.601562 185.601562 L 171.886719 185.601562 L 171.886719 165.488281 C 171.886719 165.066406 171.847656 164.652344 171.765625 164.238281 C 171.683594 163.828125 171.5625 163.425781 171.402344 163.039062 C 171.242188 162.648438 171.042969 162.28125 170.8125 161.929688 C 170.578125 161.582031 170.3125 161.257812 170.015625 160.960938 C 169.71875 160.664062 169.394531 160.398438 169.046875 160.164062 C 168.695312 159.929688 168.328125 159.734375 167.9375 159.574219 C 167.550781 159.414062 167.148438 159.292969 166.738281 159.210938 C 166.324219 159.128906 165.910156 159.085938 165.488281 159.085938 L 112.457031 159.085938 C 112.035156 159.085938 111.621094 159.128906 111.207031 159.210938 C 110.796875 159.292969 110.394531 159.414062 110.007812 159.574219 C 109.617188 159.734375 109.25 159.929688 108.898438 160.164062 C 108.550781 160.398438 108.226562 160.664062 107.929688 160.960938 C 107.632812 161.257812 107.367188 161.582031 107.132812 161.929688 C 106.902344 162.28125 106.703125 162.648438 106.542969 163.039062 C 106.382812 163.425781 106.261719 163.828125 106.179688 164.238281 C 106.097656 164.652344 106.058594 165.066406 106.058594 165.488281 L 106.058594 185.601562 L 92.34375 185.601562 L 92.34375 118.855469 L 112.457031 118.855469 C 112.878906 118.855469 113.292969 118.816406 113.707031 118.734375 C 114.121094 118.652344 114.519531 118.53125 114.90625 118.371094 C 115.296875 118.210938 115.664062 118.011719 116.015625 117.78125 C 116.363281 117.546875 116.6875 117.28125 116.984375 116.984375 C 117.28125 116.6875 117.546875 116.363281 117.78125 116.011719 C 118.015625 115.664062 118.210938 115.296875 118.371094 114.90625 C 118.53125 114.519531 118.652344 114.117188 118.734375 113.707031 C 118.816406 113.292969 118.859375 112.875 118.859375 112.457031 L 118.859375 92.34375 L 159.089844 92.34375 L 159.089844 112.457031 C 159.089844 112.875 159.128906 113.292969 159.210938 113.707031 C 159.292969 114.117188 159.414062 114.519531 159.574219 114.90625 C 159.734375 115.296875 159.933594 115.664062 160.164062 116.011719 C 160.398438 116.363281 160.664062 116.6875 160.960938 116.984375 C 161.257812 117.28125 161.582031 117.546875 161.933594 117.78125 C 162.28125 118.011719 162.652344 118.210938 163.039062 118.371094 C 163.425781 118.53125 163.828125 118.652344 164.238281 118.734375 C 164.652344 118.816406 165.070312 118.855469 165.488281 118.855469 L 185.601562 118.855469 Z M 185.601562 185.601562 " fill-opacity="1" fill-rule="nonzero"/><path fill="#000000" d="M 377.601562 132.570312 L 357.488281 132.570312 L 357.488281 85.941406 C 357.488281 85.523438 357.445312 85.105469 357.367188 84.695312 C 357.285156 84.28125 357.164062 83.882812 357 83.492188 C 356.839844 83.105469 356.644531 82.734375 356.410156 82.386719 C 356.175781 82.035156 355.910156 81.714844 355.613281 81.417969 C 355.316406 81.117188 354.996094 80.855469 354.644531 80.621094 C 354.296875 80.386719 353.925781 80.191406 353.539062 80.027344 C 353.148438 79.867188 352.75 79.746094 352.335938 79.664062 C 351.925781 79.582031 351.507812 79.542969 351.085938 79.542969 L 330.96875 79.542969 L 330.96875 59.429688 C 330.96875 59.011719 330.929688 58.59375 330.847656 58.183594 C 330.765625 57.769531 330.644531 57.371094 330.484375 56.980469 C 330.324219 56.59375 330.125 56.222656 329.890625 55.875 C 329.660156 55.523438 329.394531 55.203125 329.097656 54.90625 C 328.800781 54.605469 328.476562 54.34375 328.125 54.109375 C 327.777344 53.875 327.40625 53.679688 327.019531 53.515625 C 326.628906 53.355469 326.230469 53.234375 325.816406 53.152344 C 325.40625 53.070312 324.988281 53.03125 324.570312 53.03125 L 304.457031 53.03125 L 304.457031 32.914062 C 304.457031 32.492188 304.417969 32.074219 304.335938 31.664062 C 304.253906 31.25 304.132812 30.851562 303.972656 30.460938 C 303.808594 30.074219 303.613281 29.703125 303.378906 29.355469 C 303.144531 29.007812 302.882812 28.683594 302.582031 28.386719 C 302.285156 28.089844 301.964844 27.824219 301.613281 27.589844 C 301.265625 27.355469 300.894531 27.160156 300.507812 27 C 300.117188 26.835938 299.71875 26.714844 299.304688 26.632812 C 298.894531 26.554688 298.476562 26.511719 298.058594 26.511719 L 277.945312 26.511719 L 277.945312 6.398438 C 277.945312 5.980469 277.902344 5.5625 277.820312 5.152344 C 277.742188 4.738281 277.617188 4.339844 277.457031 3.949219 C 277.296875 3.5625 277.101562 3.191406 276.867188 2.84375 C 276.632812 2.492188 276.367188 2.167969 276.070312 1.871094 C 275.773438 1.574219 275.449219 1.308594 275.101562 1.078125 C 274.75 0.84375 274.382812 0.644531 273.992188 0.484375 C 273.605469 0.324219 273.203125 0.203125 272.792969 0.121094 C 272.378906 0.0390625 271.964844 0 271.542969 0 L 112.457031 0 C 112.035156 0 111.621094 0.0390625 111.207031 0.121094 C 110.796875 0.203125 110.394531 0.324219 110.007812 0.484375 C 109.617188 0.644531 109.25 0.84375 108.898438 1.078125 C 108.550781 1.308594 108.226562 1.574219 107.929688 1.871094 C 107.632812 2.171875 107.367188 2.492188 107.132812 2.84375 C 106.898438 3.191406 106.703125 3.5625 106.542969 3.949219 C 106.382812 4.339844 106.261719 4.738281 106.179688 5.152344 C 106.097656 5.5625 106.054688 5.980469 106.058594 6.398438 L 106.058594 26.511719 L 85.945312 26.511719 C 85.523438 26.511719 85.105469 26.554688 84.695312 26.632812 C 84.28125 26.714844 83.882812 26.835938 83.492188 27 C 83.105469 27.160156 82.738281 27.355469 82.386719 27.589844 C 82.039062 27.824219 81.714844 28.089844 81.417969 28.386719 C 81.121094 28.683594 80.855469 29.007812 80.621094 29.355469 C 80.386719 29.703125 80.191406 30.074219 80.03125 30.460938 C 79.867188 30.851562 79.746094 31.25 79.667969 31.664062 C 79.585938 32.074219 79.542969 32.492188 79.542969 32.914062 L 79.542969 53.03125 L 59.429688 53.03125 C 59.011719 53.03125 58.59375 53.070312 58.183594 53.152344 C 57.769531 53.234375 57.371094 53.355469 56.980469 53.515625 C 56.59375 53.675781 56.222656 53.875 55.875 54.109375 C 55.523438 54.339844 55.203125 54.605469 54.90625 54.902344 C 54.605469 55.199219 54.34375 55.523438 54.109375 55.875 C 53.875 56.222656 53.679688 56.59375 53.515625 56.980469 C 53.355469 57.371094 53.234375 57.769531 53.152344 58.183594 C 53.070312 58.59375 53.03125 59.011719 53.03125 59.429688 L 53.03125 79.542969 L 32.914062 79.542969 C 32.492188 79.542969 32.074219 79.582031 31.664062 79.664062 C 31.25 79.746094 30.851562 79.867188 30.460938 80.027344 C 30.074219 80.191406 29.703125 80.386719 29.355469 80.621094 C 29.003906 80.855469 28.683594 81.117188 28.386719 81.417969 C 28.089844 81.714844 27.824219 82.035156 27.589844 82.386719 C 27.355469 82.734375 27.160156 83.105469 26.996094 83.492188 C 26.835938 83.882812 26.714844 84.28125 26.632812 84.695312 C 26.554688 85.105469 26.511719 85.523438 26.511719 85.941406 L 26.511719 132.570312 L 6.398438 132.570312 C 5.980469 132.566406 5.5625 132.609375 5.152344 132.691406 C 4.738281 132.773438 4.339844 132.894531 3.949219 133.054688 C 3.5625 133.214844 3.191406 133.410156 2.84375 133.644531 C 2.492188 133.878906 2.167969 134.144531 1.871094 134.441406 C 1.574219 134.738281 1.308594 135.0625 1.078125 135.410156 C 0.84375 135.761719 0.644531 136.128906 0.484375 136.519531 C 0.324219 136.90625 0.203125 137.308594 0.121094 137.71875 C 0.0390625 138.132812 0 138.546875 0 138.96875 L 0 351.085938 C 0 351.507812 0.0390625 351.921875 0.121094 352.335938 C 0.203125 352.75 0.324219 353.148438 0.484375 353.535156 C 0.644531 353.925781 0.84375 354.292969 1.078125 354.644531 C 1.308594 354.992188 1.574219 355.316406 1.871094 355.613281 C 2.167969 355.910156 2.492188 356.175781 2.84375 356.410156 C 3.191406 356.644531 3.5625 356.839844 3.949219 357 C 4.339844 357.160156 4.738281 357.28125 5.152344 357.363281 C 5.5625 357.445312 5.980469 357.488281 6.398438 357.488281 L 26.511719 357.488281 L 26.511719 377.597656 C 26.511719 378.019531 26.554688 378.4375 26.632812 378.847656 C 26.714844 379.261719 26.835938 379.660156 26.996094 380.050781 C 27.160156 380.4375 27.355469 380.808594 27.589844 381.15625 C 27.824219 381.507812 28.089844 381.828125 28.386719 382.125 C 28.683594 382.425781 29.003906 382.6875 29.355469 382.921875 C 29.703125 383.15625 30.074219 383.351562 30.460938 383.515625 C 30.851562 383.675781 31.25 383.796875 31.664062 383.878906 C 32.074219 383.960938 32.492188 384 32.914062 384 L 85.941406 384 C 86.363281 384 86.78125 383.960938 87.191406 383.878906 C 87.605469 383.796875 88.003906 383.675781 88.394531 383.515625 C 88.78125 383.351562 89.152344 383.15625 89.5 382.921875 C 89.851562 382.6875 90.171875 382.425781 90.46875 382.125 C 90.765625 381.828125 91.03125 381.507812 91.265625 381.15625 C 91.5 380.808594 91.695312 380.4375 91.859375 380.050781 C 92.019531 379.660156 92.140625 379.261719 92.222656 378.847656 C 92.304688 378.4375 92.34375 378.019531 92.34375 377.597656 L 92.34375 357.488281 L 112.457031 357.488281 C 112.875 357.488281 113.292969 357.449219 113.703125 357.367188 C 114.117188 357.285156 114.515625 357.164062 114.90625 357.003906 C 115.292969 356.839844 115.664062 356.644531 116.011719 356.410156 C 116.363281 356.175781 116.6875 355.914062 116.984375 355.613281 C 117.28125 355.316406 117.546875 354.996094 117.777344 354.644531 C 118.011719 354.296875 118.210938 353.925781 118.371094 353.539062 C 118.53125 353.148438 118.652344 352.75 118.734375 352.335938 C 118.816406 351.925781 118.855469 351.507812 118.855469 351.085938 L 118.855469 330.96875 L 132.566406 330.96875 L 132.566406 351.085938 C 132.566406 351.507812 132.609375 351.925781 132.691406 352.335938 C 132.769531 352.75 132.894531 353.148438 133.054688 353.539062 C 133.214844 353.925781 133.410156 354.296875 133.644531 354.644531 C 133.878906 354.996094 134.144531 355.316406 134.441406 355.613281 C 134.738281 355.910156 135.0625 356.175781 135.410156 356.410156 C 135.761719 356.644531 136.128906 356.839844 136.515625 357.003906 C 136.90625 357.164062 137.304688 357.285156 137.71875 357.367188 C 138.128906 357.449219 138.546875 357.488281 138.96875 357.488281 L 159.085938 357.488281 L 159.085938 377.601562 C 159.085938 378.019531 159.125 378.4375 159.207031 378.847656 C 159.289062 379.261719 159.410156 379.660156 159.570312 380.050781 C 159.734375 380.4375 159.929688 380.808594 160.164062 381.15625 C 160.394531 381.507812 160.660156 381.832031 160.957031 382.128906 C 161.257812 382.425781 161.578125 382.691406 161.929688 382.921875 C 162.277344 383.15625 162.648438 383.355469 163.035156 383.515625 C 163.425781 383.675781 163.824219 383.796875 164.238281 383.878906 C 164.648438 383.960938 165.066406 384 165.484375 384 L 218.511719 384 C 218.929688 384 219.347656 383.960938 219.761719 383.878906 C 220.171875 383.796875 220.574219 383.675781 220.960938 383.515625 C 221.347656 383.355469 221.71875 383.15625 222.066406 382.921875 C 222.417969 382.691406 222.742188 382.425781 223.039062 382.128906 C 223.335938 381.832031 223.601562 381.507812 223.835938 381.15625 C 224.066406 380.808594 224.265625 380.4375 224.425781 380.050781 C 224.585938 379.660156 224.707031 379.261719 224.789062 378.847656 C 224.871094 378.4375 224.910156 378.019531 224.910156 377.601562 L 224.910156 357.488281 L 245.03125 357.488281 C 245.449219 357.488281 245.867188 357.449219 246.277344 357.367188 C 246.691406 357.285156 247.089844 357.164062 247.480469 357.003906 C 247.867188 356.839844 248.238281 356.644531 248.585938 356.410156 C 248.9375 356.175781 249.257812 355.914062 249.554688 355.613281 C 249.855469 355.316406 250.117188 354.996094 250.351562 354.644531 C 250.585938 354.296875 250.78125 353.925781 250.945312 353.539062 C 251.105469 353.148438 251.226562 352.75 251.308594 352.335938 C 251.390625 351.925781 251.429688 351.507812 251.429688 351.085938 L 251.429688 330.96875 L 265.140625 330.96875 L 265.140625 351.085938 C 265.140625 351.507812 265.183594 351.925781 265.261719 352.335938 C 265.34375 352.75 265.464844 353.148438 265.628906 353.539062 C 265.789062 353.925781 265.984375 354.296875 266.21875 354.644531 C 266.453125 354.996094 266.71875 355.316406 267.015625 355.613281 C 267.3125 355.910156 267.632812 356.175781 267.984375 356.410156 C 268.332031 356.644531 268.703125 356.839844 269.089844 357.003906 C 269.480469 357.164062 269.878906 357.285156 270.292969 357.367188 C 270.703125 357.449219 271.121094 357.488281 271.542969 357.488281 L 291.652344 357.488281 L 291.652344 377.601562 C 291.652344 378.019531 291.695312 378.4375 291.777344 378.847656 C 291.859375 379.261719 291.980469 379.660156 292.140625 380.050781 C 292.300781 380.4375 292.496094 380.808594 292.730469 381.15625 C 292.964844 381.507812 293.230469 381.832031 293.527344 382.128906 C 293.824219 382.425781 294.148438 382.691406 294.496094 382.921875 C 294.847656 383.15625 295.214844 383.355469 295.605469 383.515625 C 295.992188 383.675781 296.390625 383.796875 296.804688 383.878906 C 297.21875 383.960938 297.632812 384 298.054688 384 L 351.085938 384 C 351.503906 384 351.921875 383.960938 352.332031 383.878906 C 352.746094 383.796875 353.144531 383.675781 353.535156 383.515625 C 353.921875 383.355469 354.292969 383.15625 354.640625 382.921875 C 354.992188 382.691406 355.316406 382.425781 355.613281 382.128906 C 355.910156 381.832031 356.175781 381.507812 356.40625 381.15625 C 356.640625 380.808594 356.839844 380.4375 357 380.050781 C 357.160156 379.660156 357.28125 379.261719 357.363281 378.847656 C 357.445312 378.4375 357.484375 378.019531 357.484375 377.601562 L 357.484375 357.488281 L 377.597656 357.488281 C 378.015625 357.488281 378.433594 357.449219 378.847656 357.367188 C 379.257812 357.285156 379.660156 357.164062 380.046875 357.003906 C 380.4375 356.839844 380.804688 356.644531 381.152344 356.410156 C 381.503906 356.175781 381.828125 355.914062 382.125 355.613281 C 382.421875 355.316406 382.6875 354.996094 382.921875 354.644531 C 383.152344 354.296875 383.351562 353.925781 383.511719 353.539062 C 383.671875 353.148438 383.792969 352.75 383.875 352.335938 C 383.957031 351.925781 383.996094 351.507812 383.996094 351.085938 L 383.996094 138.96875 C 383.996094 138.121094 383.835938 137.304688 383.511719 136.519531 C 383.1875 135.734375 382.722656 135.042969 382.125 134.441406 C 381.523438 133.84375 380.832031 133.378906 380.046875 133.054688 C 379.265625 132.730469 378.449219 132.566406 377.601562 132.570312 Z M 330.96875 185.601562 L 330.96875 165.488281 C 330.96875 165.066406 330.929688 164.652344 330.847656 164.238281 C 330.765625 163.828125 330.644531 163.425781 330.484375 163.039062 C 330.324219 162.648438 330.125 162.28125 329.890625 161.929688 C 329.660156 161.582031 329.394531 161.257812 329.097656 160.960938 C 328.800781 160.664062 328.476562 160.398438 328.125 160.164062 C 327.777344 159.929688 327.40625 159.734375 327.019531 159.574219 C 326.632812 159.414062 326.230469 159.292969 325.816406 159.210938 C 325.40625 159.128906 324.988281 159.085938 324.570312 159.085938 L 271.542969 159.085938 C 271.125 159.085938 270.707031 159.128906 270.296875 159.210938 C 269.882812 159.292969 269.484375 159.414062 269.09375 159.574219 C 268.707031 159.734375 268.335938 159.929688 267.988281 160.164062 C 267.636719 160.398438 267.3125 160.664062 267.015625 160.960938 C 266.71875 161.257812 266.453125 161.582031 266.222656 161.929688 C 265.988281 162.28125 265.789062 162.648438 265.628906 163.039062 C 265.46875 163.425781 265.347656 163.828125 265.265625 164.238281 C 265.183594 164.652344 265.144531 165.066406 265.144531 165.488281 L 265.144531 185.601562 L 251.433594 185.601562 L 251.433594 118.855469 L 271.546875 118.855469 C 271.964844 118.855469 272.382812 118.816406 272.792969 118.734375 C 273.207031 118.652344 273.605469 118.53125 273.996094 118.371094 C 274.382812 118.210938 274.753906 118.011719 275.101562 117.78125 C 275.453125 117.546875 275.773438 117.28125 276.070312 116.984375 C 276.371094 116.6875 276.632812 116.363281 276.867188 116.011719 C 277.101562 115.664062 277.296875 115.296875 277.460938 114.90625 C 277.621094 114.519531 277.742188 114.117188 277.824219 113.707031 C 277.90625 113.292969 277.945312 112.875 277.945312 112.457031 L 277.945312 92.34375 L 318.167969 92.34375 L 318.167969 112.457031 C 318.167969 112.875 318.210938 113.292969 318.292969 113.707031 C 318.375 114.117188 318.496094 114.519531 318.65625 114.90625 C 318.816406 115.296875 319.011719 115.664062 319.246094 116.011719 C 319.480469 116.363281 319.746094 116.6875 320.042969 116.984375 C 320.339844 117.28125 320.664062 117.546875 321.011719 117.78125 C 321.363281 118.011719 321.730469 118.210938 322.121094 118.371094 C 322.507812 118.53125 322.90625 118.652344 323.320312 118.734375 C 323.734375 118.816406 324.148438 118.855469 324.570312 118.855469 L 344.6875 118.855469 L 344.6875 185.601562 Z M 277.945312 192 L 277.945312 171.886719 L 318.167969 171.886719 L 318.167969 212.113281 L 277.945312 212.113281 Z M 344.6875 106.054688 L 330.96875 106.054688 L 330.96875 92.34375 L 344.6875 92.34375 Z M 371.199219 344.6875 L 351.085938 344.6875 C 350.667969 344.6875 350.25 344.726562 349.839844 344.808594 C 349.425781 344.890625 349.023438 345.011719 348.636719 345.171875 C 348.25 345.332031 347.878906 345.53125 347.53125 345.765625 C 347.179688 345.996094 346.855469 346.261719 346.558594 346.558594 C 346.261719 346.855469 345.996094 347.179688 345.765625 347.53125 C 345.53125 347.878906 345.332031 348.25 345.171875 348.636719 C 345.011719 349.027344 344.890625 349.425781 344.808594 349.839844 C 344.726562 350.25 344.6875 350.667969 344.6875 351.085938 L 344.6875 371.199219 L 304.457031 371.199219 L 304.457031 351.085938 C 304.457031 350.667969 304.414062 350.25 304.332031 349.839844 C 304.253906 349.425781 304.132812 349.027344 303.96875 348.636719 C 303.808594 348.25 303.613281 347.878906 303.378906 347.53125 C 303.144531 347.179688 302.878906 346.855469 302.582031 346.558594 C 302.285156 346.261719 301.960938 345.996094 301.613281 345.765625 C 301.261719 345.53125 300.894531 345.332031 300.507812 345.171875 C 300.117188 345.011719 299.71875 344.890625 299.304688 344.808594 C 298.894531 344.726562 298.476562 344.6875 298.054688 344.6875 L 277.941406 344.6875 L 277.941406 324.570312 C 277.945312 324.148438 277.902344 323.730469 277.820312 323.320312 C 277.738281 322.90625 277.617188 322.507812 277.457031 322.117188 C 277.296875 321.730469 277.101562 321.359375 276.867188 321.011719 C 276.632812 320.660156 276.367188 320.339844 276.070312 320.042969 C 275.773438 319.746094 275.449219 319.480469 275.101562 319.246094 C 274.75 319.011719 274.382812 318.816406 273.992188 318.65625 C 273.605469 318.492188 273.203125 318.371094 272.792969 318.289062 C 272.378906 318.210938 271.964844 318.167969 271.542969 318.167969 L 245.03125 318.167969 C 244.609375 318.167969 244.195312 318.210938 243.78125 318.289062 C 243.371094 318.371094 242.96875 318.492188 242.582031 318.65625 C 242.191406 318.816406 241.824219 319.011719 241.472656 319.246094 C 241.125 319.480469 240.800781 319.746094 240.503906 320.042969 C 240.207031 320.339844 239.941406 320.664062 239.707031 321.011719 C 239.472656 321.359375 239.277344 321.730469 239.117188 322.117188 C 238.957031 322.507812 238.835938 322.90625 238.753906 323.320312 C 238.671875 323.730469 238.632812 324.148438 238.632812 324.570312 L 238.632812 344.6875 L 218.511719 344.6875 C 218.09375 344.6875 217.675781 344.726562 217.261719 344.808594 C 216.851562 344.890625 216.449219 345.011719 216.0625 345.171875 C 215.675781 345.332031 215.304688 345.53125 214.957031 345.765625 C 214.605469 345.996094 214.28125 346.261719 213.984375 346.558594 C 213.6875 346.855469 213.421875 347.179688 213.1875 347.53125 C 212.957031 347.878906 212.757812 348.25 212.597656 348.636719 C 212.4375 349.027344 212.316406 349.425781 212.234375 349.839844 C 212.152344 350.25 212.113281 350.667969 212.113281 351.085938 L 212.113281 371.199219 L 171.886719 371.199219 L 171.886719 351.085938 C 171.886719 350.667969 171.847656 350.25 171.765625 349.839844 C 171.683594 349.425781 171.5625 349.027344 171.402344 348.636719 C 171.242188 348.25 171.042969 347.878906 170.8125 347.53125 C 170.578125 347.179688 170.3125 346.855469 170.015625 346.558594 C 169.71875 346.261719 169.394531 345.996094 169.046875 345.765625 C 168.695312 345.53125 168.328125 345.332031 167.9375 345.171875 C 167.550781 345.011719 167.148438 344.890625 166.738281 344.808594 C 166.324219 344.726562 165.910156 344.6875 165.488281 344.6875 L 145.371094 344.6875 L 145.371094 324.570312 C 145.371094 324.148438 145.328125 323.730469 145.246094 323.320312 C 145.164062 322.90625 145.042969 322.507812 144.882812 322.117188 C 144.722656 321.730469 144.527344 321.359375 144.292969 321.011719 C 144.058594 320.660156 143.792969 320.339844 143.496094 320.042969 C 143.199219 319.746094 142.875 319.480469 142.527344 319.246094 C 142.175781 319.011719 141.808594 318.816406 141.417969 318.65625 C 141.03125 318.492188 140.632812 318.371094 140.21875 318.289062 C 139.804688 318.210938 139.390625 318.167969 138.96875 318.167969 L 112.457031 318.167969 C 112.035156 318.167969 111.621094 318.210938 111.207031 318.289062 C 110.796875 318.371094 110.394531 318.492188 110.007812 318.65625 C 109.617188 318.816406 109.25 319.011719 108.898438 319.246094 C 108.550781 319.480469 108.226562 319.746094 107.929688 320.042969 C 107.632812 320.339844 107.367188 320.660156 107.132812 321.011719 C 106.902344 321.359375 106.703125 321.730469 106.542969 322.117188 C 106.382812 322.507812 106.261719 322.90625 106.179688 323.320312 C 106.097656 323.730469 106.058594 324.148438 106.058594 324.570312 L 106.058594 344.6875 L 85.945312 344.6875 C 85.523438 344.6875 85.109375 344.726562 84.695312 344.808594 C 84.285156 344.890625 83.882812 345.011719 83.496094 345.171875 C 83.105469 345.332031 82.738281 345.53125 82.386719 345.765625 C 82.039062 345.996094 81.714844 346.261719 81.417969 346.558594 C 81.121094 346.855469 80.855469 347.179688 80.621094 347.53125 C 80.386719 347.878906 80.191406 348.25 80.03125 348.636719 C 79.871094 349.027344 79.75 349.425781 79.667969 349.839844 C 79.585938 350.25 79.542969 350.667969 79.546875 351.085938 L 79.546875 371.199219 L 39.3125 371.199219 L 39.3125 351.085938 C 39.3125 350.667969 39.273438 350.25 39.191406 349.839844 C 39.109375 349.425781 38.988281 349.027344 38.828125 348.636719 C 38.667969 348.25 38.46875 347.878906 38.234375 347.53125 C 38.003906 347.179688 37.738281 346.855469 37.441406 346.558594 C 37.144531 346.261719 36.820312 345.996094 36.46875 345.765625 C 36.121094 345.53125 35.75 345.332031 35.363281 345.171875 C 34.972656 345.011719 34.574219 344.890625 34.160156 344.808594 C 33.75 344.726562 33.332031 344.6875 32.914062 344.6875 L 12.800781 344.6875 L 12.800781 145.367188 L 32.914062 145.367188 C 33.332031 145.371094 33.75 145.328125 34.160156 145.246094 C 34.574219 145.164062 34.972656 145.042969 35.363281 144.882812 C 35.75 144.722656 36.121094 144.527344 36.46875 144.292969 C 36.820312 144.058594 37.144531 143.792969 37.441406 143.496094 C 37.738281 143.199219 38.003906 142.875 38.234375 142.527344 C 38.46875 142.175781 38.667969 141.808594 38.828125 141.417969 C 38.988281 141.03125 39.109375 140.628906 39.191406 140.21875 C 39.273438 139.804688 39.3125 139.390625 39.3125 138.96875 L 39.3125 92.34375 L 59.429688 92.34375 C 59.851562 92.34375 60.269531 92.304688 60.679688 92.222656 C 61.09375 92.140625 61.492188 92.019531 61.882812 91.859375 C 62.269531 91.699219 62.640625 91.5 62.988281 91.265625 C 63.339844 91.035156 63.660156 90.769531 63.957031 90.472656 C 64.253906 90.175781 64.519531 89.851562 64.753906 89.5 C 64.988281 89.152344 65.183594 88.78125 65.347656 88.394531 C 65.507812 88.003906 65.628906 87.605469 65.710938 87.191406 C 65.789062 86.78125 65.832031 86.363281 65.832031 85.945312 L 65.832031 65.832031 L 85.945312 65.832031 C 86.363281 65.832031 86.78125 65.792969 87.191406 65.710938 C 87.605469 65.628906 88.003906 65.507812 88.394531 65.347656 C 88.78125 65.183594 89.152344 64.988281 89.5 64.753906 C 89.851562 64.519531 90.175781 64.257812 90.472656 63.957031 C 90.769531 63.660156 91.035156 63.339844 91.265625 62.988281 C 91.5 62.640625 91.699219 62.269531 91.859375 61.882812 C 92.019531 61.492188 92.140625 61.09375 92.222656 60.679688 C 92.304688 60.269531 92.34375 59.851562 92.34375 59.429688 L 92.34375 39.3125 L 112.457031 39.3125 C 112.875 39.3125 113.292969 39.273438 113.707031 39.191406 C 114.117188 39.109375 114.519531 38.988281 114.90625 38.828125 C 115.292969 38.667969 115.664062 38.46875 116.011719 38.234375 C 116.363281 38.003906 116.6875 37.738281 116.984375 37.441406 C 117.28125 37.144531 117.546875 36.820312 117.78125 36.46875 C 118.011719 36.121094 118.210938 35.75 118.371094 35.363281 C 118.53125 34.976562 118.652344 34.574219 118.734375 34.160156 C 118.816406 33.75 118.855469 33.332031 118.855469 32.914062 L 118.855469 12.800781 L 265.144531 12.800781 L 265.144531 32.914062 C 265.144531 33.332031 265.183594 33.75 265.265625 34.160156 C 265.347656 34.574219 265.46875 34.976562 265.628906 35.363281 C 265.789062 35.75 265.988281 36.121094 266.21875 36.46875 C 266.453125 36.820312 266.71875 37.144531 267.015625 37.441406 C 267.3125 37.738281 267.636719 38.003906 267.988281 38.234375 C 268.335938 38.46875 268.703125 38.667969 269.09375 38.828125 C 269.480469 38.988281 269.882812 39.109375 270.292969 39.191406 C 270.707031 39.273438 271.125 39.3125 271.542969 39.3125 L 291.65625 39.3125 L 291.65625 59.429688 C 291.65625 59.851562 291.695312 60.269531 291.777344 60.679688 C 291.859375 61.09375 291.980469 61.492188 292.140625 61.882812 C 292.300781 62.269531 292.5 62.640625 292.734375 62.988281 C 292.964844 63.339844 293.230469 63.660156 293.527344 63.957031 C 293.824219 64.257812 294.148438 64.519531 294.5 64.753906 C 294.847656 64.988281 295.21875 65.183594 295.605469 65.347656 C 295.996094 65.507812 296.394531 65.628906 296.808594 65.710938 C 297.21875 65.792969 297.636719 65.832031 298.054688 65.832031 L 318.167969 65.832031 L 318.167969 79.542969 L 271.542969 79.542969 C 271.125 79.542969 270.707031 79.582031 270.292969 79.664062 C 269.882812 79.746094 269.480469 79.867188 269.09375 80.027344 C 268.703125 80.191406 268.335938 80.386719 267.988281 80.621094 C 267.636719 80.855469 267.3125 81.117188 267.015625 81.417969 C 266.71875 81.714844 266.453125 82.035156 266.21875 82.386719 C 265.988281 82.734375 265.789062 83.105469 265.628906 83.492188 C 265.46875 83.882812 265.347656 84.28125 265.265625 84.695312 C 265.183594 85.105469 265.144531 85.523438 265.144531 85.941406 L 265.144531 106.054688 L 245.03125 106.054688 C 244.609375 106.054688 244.195312 106.097656 243.78125 106.179688 C 243.371094 106.261719 242.96875 106.382812 242.582031 106.542969 C 242.191406 106.703125 241.824219 106.898438 241.472656 107.132812 C 241.125 107.367188 240.800781 107.632812 240.503906 107.929688 C 240.207031 108.226562 239.941406 108.550781 239.707031 108.898438 C 239.472656 109.25 239.277344 109.617188 239.117188 110.003906 C 238.957031 110.394531 238.835938 110.792969 238.753906 111.207031 C 238.671875 111.621094 238.632812 112.035156 238.632812 112.457031 L 238.632812 192 C 238.628906 192.421875 238.671875 192.835938 238.753906 193.25 C 238.835938 193.660156 238.957031 194.0625 239.117188 194.449219 C 239.277344 194.839844 239.472656 195.207031 239.707031 195.558594 C 239.941406 195.90625 240.207031 196.230469 240.503906 196.527344 C 240.800781 196.824219 241.125 197.089844 241.472656 197.324219 C 241.824219 197.554688 242.191406 197.753906 242.582031 197.914062 C 242.96875 198.074219 243.371094 198.195312 243.78125 198.277344 C 244.195312 198.359375 244.609375 198.398438 245.03125 198.398438 L 265.144531 198.398438 L 265.144531 218.511719 C 265.144531 218.933594 265.183594 219.347656 265.265625 219.761719 C 265.347656 220.171875 265.46875 220.574219 265.628906 220.960938 C 265.789062 221.351562 265.988281 221.71875 266.21875 222.070312 C 266.453125 222.417969 266.71875 222.742188 267.015625 223.039062 C 267.3125 223.335938 267.636719 223.601562 267.988281 223.835938 C 268.335938 224.070312 268.707031 224.265625 269.09375 224.425781 C 269.480469 224.585938 269.882812 224.707031 270.292969 224.789062 C 270.707031 224.871094 271.125 224.914062 271.542969 224.914062 L 324.570312 224.914062 C 324.988281 224.914062 325.40625 224.871094 325.816406 224.789062 C 326.230469 224.707031 326.628906 224.585938 327.019531 224.425781 C 327.40625 224.265625 327.777344 224.070312 328.125 223.835938 C 328.476562 223.601562 328.796875 223.335938 329.09375 223.039062 C 329.394531 222.742188 329.65625 222.417969 329.890625 222.070312 C 330.125 221.71875 330.320312 221.351562 330.484375 220.960938 C 330.644531 220.574219 330.765625 220.171875 330.847656 219.761719 C 330.929688 219.347656 330.96875 218.933594 330.96875 218.511719 L 330.96875 198.398438 L 351.085938 198.398438 C 351.507812 198.398438 351.921875 198.359375 352.335938 198.277344 C 352.75 198.195312 353.148438 198.074219 353.535156 197.914062 C 353.925781 197.753906 354.292969 197.554688 354.644531 197.324219 C 354.992188 197.089844 355.316406 196.824219 355.613281 196.527344 C 355.910156 196.230469 356.175781 195.90625 356.410156 195.558594 C 356.644531 195.207031 356.839844 194.839844 357 194.449219 C 357.160156 194.0625 357.28125 193.660156 357.363281 193.25 C 357.445312 192.835938 357.488281 192.421875 357.488281 192 L 357.488281 145.367188 L 371.199219 145.367188 Z M 371.199219 344.6875 " fill-opacity="1" fill-rule="nonzero"/></svg>