<svg xmlns="http://www.w3.org/2000/svg" xmlns:xlink="http://www.w3.org/1999/xlink" width="512" zoomAndPan="magnify" viewBox="0 0 384 383.999986" height="512" preserveAspectRatio="xMidYMid meet" version="1.0"><path fill="#453d81" d="M 178.9375 289.191406 C 176.617188 283.417969 153.71875 224.386719 153.375 146.199219 C 153.347656 140.007812 148.320312 135 142.125 135 L 82.125 135 C 81.382812 135 80.652344 135.074219 79.925781 135.21875 C 79.199219 135.363281 78.492188 135.578125 77.808594 135.863281 C 77.125 136.144531 76.472656 136.492188 75.859375 136.90625 C 75.242188 137.320312 74.675781 137.789062 74.152344 138.3125 C 73.628906 138.839844 73.164062 139.410156 72.753906 140.027344 C 72.34375 140.644531 72 141.292969 71.71875 141.980469 C 71.4375 142.664062 71.222656 143.371094 71.082031 144.097656 C 70.941406 144.824219 70.871094 145.558594 70.875 146.300781 C 71.234375 225.910156 46.074219 289.152344 45.824219 289.773438 C 45.476562 290.625 45.238281 291.507812 45.109375 292.421875 C 44.980469 293.335938 44.964844 294.25 45.058594 295.164062 C 45.15625 296.082031 45.359375 296.972656 45.675781 297.839844 C 45.988281 298.703125 46.40625 299.519531 46.921875 300.285156 C 47.433594 301.046875 48.035156 301.738281 48.71875 302.355469 C 49.402344 302.972656 50.152344 303.5 50.964844 303.929688 C 51.777344 304.363281 52.632812 304.691406 53.527344 304.914062 C 54.421875 305.136719 55.328125 305.25 56.25 305.25 L 168.765625 305.25 C 174.976562 305.25 180.015625 300.214844 180.015625 294 C 180.015625 292.28125 179.628906 290.648438 178.9375 289.191406 Z M 178.9375 289.191406 " fill-opacity="1" fill-rule="nonzero"/><path fill="#2e2654" d="M 178.9375 289.191406 C 176.617188 283.417969 153.71875 224.386719 153.375 146.199219 C 153.347656 140.007812 148.320312 135 142.125 135 L 112.5 135 L 112.5 305.25 L 168.765625 305.25 C 174.976562 305.25 180.015625 300.214844 180.015625 294 C 180.015625 292.28125 179.628906 290.648438 178.9375 289.191406 Z M 178.9375 289.191406 " fill-opacity="1" fill-rule="nonzero"/><path fill="#453d81" d="M 172.5 56.25 C 171.246094 56.25 164.675781 56.492188 158.25 61.3125 C 154.214844 64.339844 149.613281 69.652344 147.46875 78.75 L 123.75 78.75 L 123.75 56.25 C 123.75 50.035156 118.714844 45 112.5 45 C 106.285156 45 101.25 50.035156 101.25 56.25 L 101.25 78.75 L 77.53125 78.75 C 75.386719 69.652344 70.785156 64.339844 66.75 61.3125 C 60.324219 56.492188 53.753906 56.25 52.5 56.25 C 46.285156 56.25 41.25 61.285156 41.25 67.5 C 41.25 73.546875 46.023438 78.484375 52.007812 78.738281 C 54.589844 79.152344 56.25 83.554688 56.25 90 L 56.25 127.5 C 56.25 133.714844 61.285156 138.75 67.5 138.75 L 157.5 138.75 C 163.714844 138.75 168.75 133.714844 168.75 127.5 L 168.75 90 C 168.75 83.554688 170.410156 79.152344 172.992188 78.738281 C 178.976562 78.484375 183.75 73.546875 183.75 67.5 C 183.75 61.285156 178.714844 56.25 172.5 56.25 Z M 172.5 56.25 " fill-opacity="1" fill-rule="nonzero"/><path fill="#2e2654" d="M 172.5 56.25 C 171.246094 56.25 164.675781 56.492188 158.25 61.3125 C 154.214844 64.339844 149.613281 69.652344 147.46875 78.75 L 123.75 78.75 L 123.75 56.25 C 123.75 50.035156 118.714844 45 112.5 45 L 112.5 138.75 L 157.5 138.75 C 163.714844 138.75 168.75 133.714844 168.75 127.5 L 168.75 90 C 168.75 83.554688 170.410156 79.152344 172.992188 78.738281 C 178.976562 78.484375 183.75 73.546875 183.75 67.5 C 183.75 61.285156 178.714844 56.25 172.5 56.25 Z M 172.5 56.25 " fill-opacity="1" fill-rule="nonzero"/><path fill="#5e54ac" d="M 45 327.75 C 32.59375 327.75 22.5 317.65625 22.5 305.25 C 22.5 292.84375 32.59375 282.75 45 282.75 L 180 282.75 C 192.40625 282.75 202.5 292.84375 202.5 305.25 C 202.5 317.65625 192.40625 327.75 180 327.75 L 180 335.25 L 45 335.25 Z M 45 327.75 " fill-opacity="1" fill-rule="nonzero"/><path fill="#453d81" d="M 180 282.75 L 112.5 282.75 L 112.5 335.25 L 180 335.25 L 180 327.75 C 192.40625 327.75 202.5 317.65625 202.5 305.25 C 202.5 292.84375 192.40625 282.75 180 282.75 Z M 180 282.75 " fill-opacity="1" fill-rule="nonzero"/><path fill="#453d81" d="M 191.25 327.75 L 33.75 327.75 C 15.140625 327.75 0 342.890625 0 361.5 L 0 372.75 C 0 378.964844 5.035156 384 11.25 384 L 197.5 384 L 225 361.5 C 225 342.890625 209.859375 327.75 191.25 327.75 Z M 191.25 327.75 " fill-opacity="1" fill-rule="nonzero"/><path fill="#2e2654" d="M 191.25 327.75 L 112.5 327.75 L 112.5 384 L 197.5 384 L 225 361.5 C 225 342.890625 209.859375 327.75 191.25 327.75 Z M 191.25 327.75 " fill-opacity="1" fill-rule="nonzero"/><path fill="#5e54ac" d="M 172.5 146.25 L 52.5 146.25 C 46.285156 146.25 41.25 141.214844 41.25 135 C 41.25 128.785156 46.285156 123.75 52.5 123.75 L 172.5 123.75 C 178.714844 123.75 183.75 128.785156 183.75 135 C 183.75 141.214844 178.714844 146.25 172.5 146.25 Z M 172.5 146.25 " fill-opacity="1" fill-rule="nonzero"/><path fill="#453d81" d="M 172.5 123.75 L 112.5 123.75 L 112.5 146.25 L 172.5 146.25 C 178.714844 146.25 183.75 141.214844 183.75 135 C 183.75 128.785156 178.714844 123.75 172.5 123.75 Z M 172.5 123.75 " fill-opacity="1" fill-rule="nonzero"/><path fill="#5e54ac" d="M 146.25 33.75 C 146.25 34.855469 146.195312 35.957031 146.085938 37.058594 C 145.980469 38.15625 145.816406 39.25 145.601562 40.335938 C 145.386719 41.417969 145.117188 42.488281 144.796875 43.546875 C 144.476562 44.605469 144.105469 45.644531 143.679688 46.664062 C 143.257812 47.6875 142.785156 48.683594 142.265625 49.660156 C 141.742188 50.632812 141.175781 51.582031 140.5625 52.5 C 139.949219 53.417969 139.289062 54.304688 138.589844 55.160156 C 137.886719 56.015625 137.144531 56.832031 136.363281 57.613281 C 135.582031 58.398438 134.765625 59.136719 133.910156 59.839844 C 133.054688 60.539062 132.167969 61.199219 131.25 61.8125 C 130.332031 62.425781 129.382812 62.992188 128.410156 63.515625 C 127.433594 64.035156 126.4375 64.507812 125.414062 64.929688 C 124.394531 65.355469 123.355469 65.726562 122.296875 66.046875 C 121.238281 66.367188 120.167969 66.636719 119.085938 66.851562 C 118 67.066406 116.90625 67.230469 115.808594 67.335938 C 114.707031 67.445312 113.605469 67.5 112.5 67.5 C 111.394531 67.5 110.292969 67.445312 109.191406 67.335938 C 108.09375 67.230469 107 67.066406 105.914062 66.851562 C 104.832031 66.636719 103.761719 66.367188 102.703125 66.046875 C 101.644531 65.726562 100.605469 65.355469 99.585938 64.929688 C 98.5625 64.507812 97.566406 64.035156 96.589844 63.515625 C 95.617188 62.992188 94.667969 62.425781 93.75 61.8125 C 92.832031 61.199219 91.945312 60.539062 91.089844 59.839844 C 90.234375 59.136719 89.417969 58.398438 88.636719 57.613281 C 87.855469 56.832031 87.113281 56.015625 86.410156 55.160156 C 85.710938 54.304688 85.050781 53.417969 84.4375 52.5 C 83.824219 51.582031 83.257812 50.632812 82.734375 49.660156 C 82.214844 48.683594 81.742188 47.6875 81.320312 46.664062 C 80.894531 45.644531 80.523438 44.605469 80.203125 43.546875 C 79.882812 42.488281 79.613281 41.417969 79.398438 40.335938 C 79.183594 39.25 79.019531 38.15625 78.914062 37.058594 C 78.804688 35.957031 78.75 34.855469 78.75 33.75 C 78.75 32.644531 78.804688 31.542969 78.914062 30.441406 C 79.019531 29.34375 79.183594 28.25 79.398438 27.164062 C 79.613281 26.082031 79.882812 25.011719 80.203125 23.953125 C 80.523438 22.894531 80.894531 21.855469 81.320312 20.835938 C 81.742188 19.8125 82.214844 18.816406 82.734375 17.839844 C 83.257812 16.867188 83.824219 15.917969 84.4375 15 C 85.050781 14.082031 85.710938 13.195312 86.410156 12.339844 C 87.113281 11.484375 87.855469 10.667969 88.636719 9.886719 C 89.417969 9.105469 90.234375 8.363281 91.089844 7.660156 C 91.945312 6.960938 92.832031 6.300781 93.75 5.6875 C 94.667969 5.074219 95.617188 4.507812 96.589844 3.984375 C 97.566406 3.464844 98.5625 2.992188 99.585938 2.570312 C 100.605469 2.144531 101.644531 1.773438 102.703125 1.453125 C 103.761719 1.132812 104.832031 0.863281 105.914062 0.648438 C 107 0.433594 108.09375 0.269531 109.191406 0.164062 C 110.292969 0.0546875 111.394531 0 112.5 0 C 113.605469 0 114.707031 0.0546875 115.808594 0.164062 C 116.90625 0.269531 118 0.433594 119.085938 0.648438 C 120.167969 0.863281 121.238281 1.132812 122.296875 1.453125 C 123.355469 1.773438 124.394531 2.144531 125.414062 2.570312 C 126.4375 2.992188 127.433594 3.464844 128.410156 3.984375 C 129.382812 4.507812 130.332031 5.074219 131.25 5.6875 C 132.167969 6.300781 133.054688 6.960938 133.910156 7.660156 C 134.765625 8.363281 135.582031 9.105469 136.363281 9.886719 C 137.144531 10.667969 137.886719 11.484375 138.589844 12.339844 C 139.289062 13.195312 139.949219 14.082031 140.5625 15 C 141.175781 15.917969 141.742188 16.867188 142.265625 17.839844 C 142.785156 18.816406 143.257812 19.8125 143.679688 20.835938 C 144.105469 21.855469 144.476562 22.894531 144.796875 23.953125 C 145.117188 25.011719 145.386719 26.082031 145.601562 27.164062 C 145.816406 28.25 145.980469 29.34375 146.085938 30.441406 C 146.195312 31.542969 146.25 32.644531 146.25 33.75 Z M 146.25 33.75 " fill-opacity="1" fill-rule="nonzero"/><path fill="#453d81" d="M 112.5 0 L 112.5 67.5 C 131.109375 67.5 146.25 52.359375 146.25 33.75 C 146.25 15.140625 131.109375 0 112.5 0 Z M 112.5 0 " fill-opacity="1" fill-rule="nonzero"/><path fill="#ffb454" d="M 347.039062 328.929688 L 347.015625 328.921875 C 344.980469 327.660156 319.5 310.394531 319.5 240.5 C 319.5 234.285156 314.464844 229.25 308.25 229.25 L 263.25 229.25 C 257.035156 229.25 252 234.285156 252 240.5 C 252 310.539062 226.5 327.683594 224.503906 328.910156 C 219.636719 331 217.152344 336.097656 218.1875 341.3125 C 219.234375 346.578125 224.128906 350.25 229.5 350.25 L 342.015625 350.25 C 342.335938 350.25 342.65625 350.238281 342.972656 350.210938 C 347.941406 349.796875 352.316406 346.269531 353.304688 341.332031 C 354.347656 336.132812 351.882812 331.039062 347.039062 328.929688 Z M 347.039062 328.929688 " fill-opacity="1" fill-rule="nonzero"/><path fill="#ff8659" d="M 347.039062 328.929688 L 347.015625 328.921875 C 344.980469 327.660156 319.5 310.394531 319.5 240.5 C 319.5 234.285156 314.464844 229.25 308.25 229.25 L 285.75 229.25 L 285.75 350.25 L 342.015625 350.25 C 342.335938 350.25 342.65625 350.238281 342.972656 350.210938 C 347.941406 349.796875 352.316406 346.269531 353.304688 341.332031 C 354.347656 336.132812 351.882812 331.039062 347.039062 328.929688 Z M 347.039062 328.929688 " fill-opacity="1" fill-rule="nonzero"/><path fill="#ffb454" d="M 321.898438 103.375 C 312.695312 89.949219 299.519531 82.25 285.75 82.25 C 271.980469 82.25 258.804688 89.949219 249.601562 103.375 C 241.152344 115.699219 236.5 131.882812 236.5 148.9375 C 236.5 168.027344 241.261719 175.050781 245.996094 184.25 L 247.476562 189.363281 C 247.945312 190.285156 248.535156 191.128906 249.238281 191.890625 C 249.941406 192.652344 250.738281 193.300781 251.621094 193.84375 C 252.507812 194.386719 253.445312 194.796875 254.445312 195.078125 C 255.441406 195.359375 256.460938 195.5 257.496094 195.5 L 314.003906 195.5 C 315.039062 195.5 316.058594 195.359375 317.054688 195.078125 C 318.054688 194.796875 318.992188 194.386719 319.878906 193.84375 C 320.761719 193.300781 321.558594 192.652344 322.261719 191.890625 C 322.964844 191.128906 323.550781 190.285156 324.023438 189.363281 C 324.332031 188.757812 324.691406 184.769531 325.003906 184.167969 C 329.710938 175.027344 335 168.050781 335 148.9375 C 335 131.882812 330.347656 115.703125 321.898438 103.375 Z M 321.898438 103.375 " fill-opacity="1" fill-rule="nonzero"/><path fill="#ff8659" d="M 321.898438 103.375 C 312.695312 89.949219 299.519531 82.25 285.75 82.25 L 285.75 195.5 L 314.003906 195.5 C 315.039062 195.5 316.058594 195.359375 317.054688 195.078125 C 318.054688 194.796875 318.992188 194.386719 319.878906 193.84375 C 320.761719 193.300781 321.558594 192.652344 322.261719 191.890625 C 322.964844 191.128906 323.550781 190.285156 324.023438 189.363281 C 324.332031 188.757812 324.691406 184.769531 325.003906 184.167969 C 329.710938 175.027344 335 168.050781 335 148.9375 C 335 131.882812 330.347656 115.703125 321.898438 103.375 Z M 321.898438 103.375 " fill-opacity="1" fill-rule="nonzero"/><path fill="#ffed6a" d="M 350.25 327.75 L 221.25 327.75 C 202.640625 327.75 187.5 342.890625 187.5 361.5 L 187.5 372.75 C 187.5 378.964844 192.535156 384 198.75 384 L 372.75 384 C 378.964844 384 384 378.964844 384 372.75 L 384 361.5 C 384 342.890625 368.859375 327.75 350.25 327.75 Z M 350.25 327.75 " fill-opacity="1" fill-rule="nonzero"/><path fill="#ffb454" d="M 350.25 327.75 L 285.75 327.75 L 285.75 384 L 372.75 384 C 378.964844 384 384 378.964844 384 372.75 L 384 361.5 C 384 342.890625 368.859375 327.75 350.25 327.75 Z M 350.25 327.75 " fill-opacity="1" fill-rule="nonzero"/><path fill="#ffed6a" d="M 349.5 218 L 341.367188 218 C 336.863281 215.140625 325.160156 205.648438 325.003906 184.167969 L 245.996094 184.25 C 245.996094 206.234375 234.601562 215.328125 230.242188 218 L 222 218 C 215.785156 218 210.75 223.039062 210.75 229.25 C 210.75 235.464844 215.785156 240.5 222 240.5 L 349.5 240.5 C 355.714844 240.5 360.75 235.464844 360.75 229.25 C 360.75 223.039062 355.714844 218 349.5 218 Z M 349.5 218 " fill-opacity="1" fill-rule="nonzero"/><path fill="#ffb454" d="M 349.5 218 L 341.367188 218 C 336.863281 215.140625 325.160156 205.648438 325.003906 184.167969 L 285.75 184.210938 L 285.75 240.5 L 349.5 240.5 C 355.714844 240.5 360.75 235.464844 360.75 229.25 C 360.75 223.039062 355.714844 218 349.5 218 Z M 349.5 218 " fill-opacity="1" fill-rule="nonzero"/><path fill="#ffed6a" d="M 319.5 71 C 319.5 72.105469 319.445312 73.207031 319.335938 74.308594 C 319.230469 75.410156 319.066406 76.5 318.851562 77.585938 C 318.636719 78.667969 318.367188 79.738281 318.046875 80.796875 C 317.726562 81.855469 317.355469 82.894531 316.929688 83.914062 C 316.507812 84.9375 316.035156 85.933594 315.515625 86.910156 C 314.992188 87.882812 314.425781 88.832031 313.8125 89.75 C 313.199219 90.667969 312.539062 91.554688 311.839844 92.410156 C 311.136719 93.265625 310.394531 94.082031 309.613281 94.863281 C 308.832031 95.648438 308.015625 96.386719 307.160156 97.089844 C 306.304688 97.789062 305.417969 98.449219 304.5 99.0625 C 303.582031 99.675781 302.632812 100.242188 301.660156 100.765625 C 300.683594 101.285156 299.6875 101.757812 298.664062 102.179688 C 297.644531 102.605469 296.605469 102.976562 295.546875 103.296875 C 294.488281 103.617188 293.417969 103.886719 292.335938 104.101562 C 291.25 104.316406 290.15625 104.480469 289.058594 104.585938 C 287.957031 104.695312 286.855469 104.75 285.75 104.75 C 284.644531 104.75 283.542969 104.695312 282.441406 104.585938 C 281.34375 104.480469 280.25 104.316406 279.164062 104.101562 C 278.082031 103.886719 277.011719 103.617188 275.953125 103.296875 C 274.894531 102.976562 273.855469 102.605469 272.835938 102.179688 C 271.8125 101.757812 270.816406 101.285156 269.839844 100.765625 C 268.867188 100.242188 267.917969 99.675781 267 99.0625 C 266.082031 98.449219 265.195312 97.789062 264.339844 97.089844 C 263.484375 96.386719 262.667969 95.648438 261.886719 94.863281 C 261.101562 94.082031 260.363281 93.265625 259.660156 92.410156 C 258.960938 91.554688 258.300781 90.667969 257.6875 89.75 C 257.074219 88.832031 256.507812 87.886719 255.984375 86.910156 C 255.464844 85.933594 254.992188 84.9375 254.570312 83.914062 C 254.144531 82.894531 253.773438 81.855469 253.453125 80.796875 C 253.132812 79.738281 252.863281 78.667969 252.648438 77.585938 C 252.433594 76.5 252.269531 75.410156 252.164062 74.308594 C 252.054688 73.207031 252 72.105469 252 71 C 252 69.894531 252.054688 68.792969 252.164062 67.691406 C 252.269531 66.59375 252.433594 65.5 252.648438 64.414062 C 252.863281 63.332031 253.132812 62.261719 253.453125 61.203125 C 253.773438 60.144531 254.144531 59.105469 254.570312 58.085938 C 254.992188 57.0625 255.464844 56.066406 255.984375 55.089844 C 256.507812 54.117188 257.074219 53.167969 257.6875 52.25 C 258.300781 51.332031 258.960938 50.445312 259.660156 49.589844 C 260.363281 48.734375 261.101562 47.917969 261.886719 47.136719 C 262.667969 46.355469 263.484375 45.613281 264.339844 44.910156 C 265.195312 44.210938 266.082031 43.550781 267 42.9375 C 267.917969 42.324219 268.867188 41.757812 269.839844 41.234375 C 270.816406 40.714844 271.8125 40.242188 272.835938 39.820312 C 273.855469 39.394531 274.894531 39.023438 275.953125 38.703125 C 277.011719 38.382812 278.082031 38.113281 279.164062 37.898438 C 280.25 37.683594 281.34375 37.519531 282.441406 37.414062 C 283.542969 37.304688 284.644531 37.25 285.75 37.25 C 286.855469 37.25 287.957031 37.304688 289.058594 37.414062 C 290.15625 37.519531 291.25 37.683594 292.335938 37.898438 C 293.417969 38.113281 294.488281 38.382812 295.546875 38.703125 C 296.605469 39.023438 297.644531 39.394531 298.664062 39.820312 C 299.6875 40.242188 300.683594 40.714844 301.660156 41.234375 C 302.632812 41.757812 303.582031 42.324219 304.5 42.9375 C 305.417969 43.550781 306.304688 44.210938 307.160156 44.910156 C 308.015625 45.613281 308.832031 46.355469 309.613281 47.136719 C 310.394531 47.917969 311.136719 48.734375 311.839844 49.589844 C 312.539062 50.445312 313.199219 51.332031 313.8125 52.25 C 314.425781 53.167969 314.992188 54.117188 315.515625 55.089844 C 316.035156 56.066406 316.507812 57.0625 316.929688 58.085938 C 317.355469 59.105469 317.726562 60.144531 318.046875 61.203125 C 318.367188 62.261719 318.636719 63.332031 318.851562 64.414062 C 319.066406 65.5 319.230469 66.59375 319.335938 67.691406 C 319.445312 68.792969 319.5 69.894531 319.5 71 Z M 319.5 71 " fill-opacity="1" fill-rule="nonzero"/><path fill="#ffb454" d="M 285.75 37.25 L 285.75 104.75 C 304.359375 104.75 319.5 89.609375 319.5 71 C 319.5 52.390625 304.359375 37.25 285.75 37.25 Z M 285.75 37.25 " fill-opacity="1" fill-rule="nonzero"/></svg>