<svg xmlns="http://www.w3.org/2000/svg" xmlns:xlink="http://www.w3.org/1999/xlink" width="512" zoomAndPan="magnify" viewBox="0 0 384 383.999986" height="512" preserveAspectRatio="xMidYMid meet" version="1.0"><path fill="#d9e1e2" d="M 137.390625 295.597656 L 169.679688 65.855469 C 169.824219 64.816406 170.023438 63.789062 170.269531 62.769531 C 170.515625 61.75 170.8125 60.746094 171.15625 59.757812 C 171.503906 58.769531 171.894531 57.796875 172.335938 56.847656 C 172.777344 55.894531 173.265625 54.96875 173.796875 54.066406 C 174.328125 53.164062 174.902344 52.289062 175.519531 51.441406 C 176.136719 50.59375 176.796875 49.78125 177.492188 49 C 178.191406 48.21875 178.925781 47.472656 179.699219 46.761719 C 180.46875 46.050781 181.273438 45.382812 182.109375 44.75 C 182.945312 44.121094 183.8125 43.53125 184.707031 42.984375 C 185.601562 42.441406 186.523438 41.941406 187.464844 41.484375 C 188.410156 41.03125 189.375 40.621094 190.359375 40.261719 C 191.339844 39.898438 192.339844 39.589844 193.355469 39.328125 C 194.371094 39.0625 195.394531 38.851562 196.429688 38.691406 C 197.464844 38.527344 198.507812 38.417969 199.554688 38.359375 C 200.601562 38.300781 201.648438 38.292969 202.695312 38.335938 C 203.742188 38.378906 204.785156 38.472656 205.820312 38.617188 L 348.421875 58.660156 C 349.457031 58.804688 350.484375 59 351.503906 59.25 C 352.523438 59.496094 353.527344 59.792969 354.515625 60.136719 C 355.507812 60.484375 356.476562 60.875 357.425781 61.316406 C 358.378906 61.757812 359.304688 62.242188 360.207031 62.777344 C 361.109375 63.308594 361.984375 63.882812 362.832031 64.5 C 363.679688 65.117188 364.492188 65.777344 365.273438 66.472656 C 366.054688 67.171875 366.800781 67.90625 367.511719 68.679688 C 368.222656 69.449219 368.890625 70.253906 369.523438 71.089844 C 370.152344 71.925781 370.742188 72.792969 371.289062 73.6875 C 371.832031 74.582031 372.332031 75.5 372.789062 76.445312 C 373.242188 77.390625 373.652344 78.355469 374.011719 79.335938 C 374.375 80.320312 374.683594 81.320312 374.945312 82.335938 C 375.210938 83.351562 375.421875 84.375 375.582031 85.410156 C 375.746094 86.445312 375.855469 87.488281 375.914062 88.535156 C 375.972656 89.582031 375.980469 90.628906 375.9375 91.675781 C 375.894531 92.722656 375.800781 93.765625 375.65625 94.800781 L 343.367188 324.542969 C 343.222656 325.582031 343.023438 326.609375 342.777344 327.628906 C 342.53125 328.648438 342.234375 329.652344 341.890625 330.640625 C 341.542969 331.628906 341.152344 332.601562 340.710938 333.550781 C 340.269531 334.5 339.78125 335.429688 339.25 336.332031 C 338.71875 337.234375 338.144531 338.109375 337.527344 338.957031 C 336.90625 339.800781 336.25 340.617188 335.550781 341.398438 C 334.855469 342.179688 334.121094 342.925781 333.347656 343.636719 C 332.578125 344.34375 331.773438 345.015625 330.9375 345.648438 C 330.097656 346.277344 329.234375 346.867188 328.339844 347.410156 C 327.445312 347.957031 326.523438 348.457031 325.582031 348.914062 C 324.636719 349.367188 323.671875 349.777344 322.6875 350.136719 C 321.703125 350.496094 320.707031 350.808594 319.691406 351.070312 C 318.675781 351.332031 317.652344 351.546875 316.613281 351.707031 C 315.578125 351.867188 314.539062 351.980469 313.492188 352.039062 C 312.445312 352.097656 311.398438 352.105469 310.351562 352.0625 C 309.304688 352.019531 308.261719 351.925781 307.226562 351.777344 L 164.625 331.738281 C 163.589844 331.59375 162.558594 331.394531 161.542969 331.148438 C 160.523438 330.902344 159.519531 330.605469 158.53125 330.261719 C 157.539062 329.914062 156.570312 329.519531 155.621094 329.082031 C 154.667969 328.640625 153.742188 328.152344 152.839844 327.621094 C 151.933594 327.089844 151.0625 326.515625 150.214844 325.898438 C 149.367188 325.277344 148.554688 324.621094 147.769531 323.921875 C 146.988281 323.226562 146.242188 322.492188 145.535156 321.71875 C 144.824219 320.949219 144.152344 320.144531 143.523438 319.308594 C 142.894531 318.46875 142.304688 317.605469 141.757812 316.710938 C 141.214844 315.816406 140.710938 314.894531 140.257812 313.953125 C 139.800781 313.007812 139.394531 312.042969 139.035156 311.058594 C 138.671875 310.074219 138.363281 309.074219 138.097656 308.0625 C 137.835938 307.046875 137.625 306.023438 137.460938 304.984375 C 137.300781 303.949219 137.191406 302.910156 137.132812 301.863281 C 137.070312 300.816406 137.0625 299.769531 137.105469 298.722656 C 137.152344 297.675781 137.246094 296.632812 137.390625 295.597656 Z M 137.390625 295.597656 " fill-opacity="1" fill-rule="nonzero"/><path fill="#c9d0d1" d="M 178.488281 48 C 176.109375 50.414062 174.167969 53.136719 172.664062 56.175781 C 171.160156 59.210938 170.167969 62.40625 169.6875 65.761719 L 137.425781 295.503906 C 137.277344 296.542969 137.183594 297.582031 137.140625 298.628906 C 137.097656 299.675781 137.105469 300.722656 137.164062 301.765625 C 137.222656 302.8125 137.332031 303.851562 137.496094 304.886719 C 137.65625 305.921875 137.867188 306.945312 138.128906 307.960938 C 138.390625 308.976562 138.703125 309.972656 139.0625 310.957031 C 139.421875 311.941406 139.832031 312.902344 140.285156 313.847656 C 140.738281 314.789062 141.238281 315.710938 141.785156 316.605469 C 142.328125 317.5 142.917969 318.363281 143.546875 319.199219 C 144.175781 320.039062 144.84375 320.839844 145.554688 321.613281 C 146.261719 322.382812 147.007812 323.117188 147.789062 323.816406 C 148.570312 324.511719 149.382812 325.171875 150.226562 325.789062 C 151.074219 326.40625 151.945312 326.984375 152.847656 327.515625 C 153.75 328.046875 154.675781 328.535156 155.625 328.976562 C 156.574219 329.417969 157.546875 329.8125 158.535156 330.15625 C 159.523438 330.503906 160.523438 330.800781 161.542969 331.046875 C 162.558594 331.296875 163.585938 331.492188 164.625 331.640625 L 253.734375 344.160156 C 253.847656 344.105469 253.984375 344.0625 254.097656 344 L 280 344 C 281.046875 344 282.09375 343.949219 283.136719 343.847656 C 284.179688 343.742188 285.214844 343.589844 286.242188 343.386719 C 287.269531 343.179688 288.285156 342.925781 289.289062 342.621094 C 290.292969 342.316406 291.277344 341.964844 292.246094 341.5625 C 293.214844 341.164062 294.160156 340.714844 295.085938 340.222656 C 296.007812 339.726562 296.90625 339.1875 297.777344 338.605469 C 298.648438 338.023438 299.492188 337.402344 300.300781 336.738281 C 301.109375 336.070312 301.886719 335.367188 302.628906 334.628906 C 303.367188 333.886719 304.070312 333.109375 304.738281 332.300781 C 305.402344 331.492188 306.023438 330.648438 306.605469 329.777344 C 307.1875 328.90625 307.726562 328.007812 308.222656 327.085938 C 308.714844 326.160156 309.164062 325.214844 309.5625 324.246094 C 309.964844 323.277344 310.316406 322.292969 310.621094 321.289062 C 310.925781 320.285156 311.179688 319.269531 311.386719 318.242188 C 311.589844 317.214844 311.742188 316.179688 311.847656 315.136719 C 311.949219 314.09375 312 313.046875 312 312 L 312 80 C 311.996094 78.457031 311.886719 76.925781 311.660156 75.398438 C 311.4375 73.875 311.105469 72.371094 310.664062 70.894531 C 310.222656 69.417969 309.679688 67.980469 309.03125 66.578125 C 308.382812 65.179688 307.636719 63.835938 306.792969 62.546875 C 305.949219 61.253906 305.019531 60.03125 303.996094 58.875 C 302.976562 57.71875 301.878906 56.640625 300.703125 55.644531 C 299.527344 54.644531 298.289062 53.738281 296.980469 52.917969 C 295.675781 52.101562 294.316406 51.382812 292.902344 50.761719 L 273.28125 48 Z M 178.488281 48 " fill-opacity="1" fill-rule="nonzero"/><path fill="#d9e1e2" d="M 120 32 L 264 32 C 265.046875 32 266.09375 32.050781 267.136719 32.152344 C 268.179688 32.257812 269.214844 32.410156 270.242188 32.613281 C 271.269531 32.820312 272.285156 33.074219 273.289062 33.378906 C 274.292969 33.683594 275.277344 34.035156 276.246094 34.4375 C 277.214844 34.835938 278.160156 35.285156 279.085938 35.777344 C 280.007812 36.273438 280.90625 36.8125 281.777344 37.394531 C 282.648438 37.976562 283.492188 38.597656 284.300781 39.261719 C 285.109375 39.929688 285.886719 40.632812 286.628906 41.371094 C 287.367188 42.113281 288.070312 42.890625 288.734375 43.699219 C 289.402344 44.507812 290.023438 45.351562 290.605469 46.222656 C 291.1875 47.09375 291.726562 47.992188 292.222656 48.914062 C 292.714844 49.839844 293.164062 50.785156 293.5625 51.753906 C 293.964844 52.722656 294.316406 53.707031 294.621094 54.710938 C 294.925781 55.714844 295.179688 56.730469 295.386719 57.757812 C 295.589844 58.785156 295.742188 59.820312 295.847656 60.863281 C 295.949219 61.90625 296 62.953125 296 64 L 296 296 C 296 297.046875 295.949219 298.09375 295.847656 299.136719 C 295.742188 300.179688 295.589844 301.214844 295.386719 302.242188 C 295.179688 303.269531 294.925781 304.285156 294.621094 305.289062 C 294.316406 306.292969 293.964844 307.277344 293.5625 308.246094 C 293.164062 309.214844 292.714844 310.160156 292.222656 311.085938 C 291.726562 312.007812 291.1875 312.90625 290.605469 313.777344 C 290.023438 314.648438 289.402344 315.492188 288.738281 316.300781 C 288.070312 317.109375 287.367188 317.886719 286.628906 318.628906 C 285.886719 319.367188 285.109375 320.070312 284.300781 320.738281 C 283.492188 321.402344 282.648438 322.023438 281.777344 322.605469 C 280.90625 323.1875 280.007812 323.726562 279.085938 324.222656 C 278.160156 324.714844 277.214844 325.164062 276.246094 325.5625 C 275.277344 325.964844 274.292969 326.316406 273.289062 326.621094 C 272.285156 326.925781 271.269531 327.179688 270.242188 327.386719 C 269.214844 327.589844 268.179688 327.742188 267.136719 327.847656 C 266.09375 327.949219 265.046875 328 264 328 L 120 328 C 118.953125 328 117.90625 327.949219 116.863281 327.847656 C 115.820312 327.742188 114.785156 327.589844 113.757812 327.386719 C 112.730469 327.179688 111.714844 326.925781 110.710938 326.621094 C 109.707031 326.316406 108.722656 325.964844 107.753906 325.5625 C 106.785156 325.164062 105.839844 324.714844 104.914062 324.222656 C 103.992188 323.726562 103.09375 323.1875 102.222656 322.605469 C 101.351562 322.023438 100.507812 321.402344 99.699219 320.738281 C 98.890625 320.070312 98.113281 319.367188 97.371094 318.628906 C 96.632812 317.886719 95.929688 317.109375 95.265625 316.300781 C 94.597656 315.492188 93.976562 314.648438 93.394531 313.777344 C 92.8125 312.90625 92.273438 312.007812 91.777344 311.085938 C 91.285156 310.160156 90.835938 309.214844 90.4375 308.246094 C 90.035156 307.277344 89.683594 306.292969 89.378906 305.289062 C 89.074219 304.285156 88.820312 303.269531 88.613281 302.242188 C 88.410156 301.214844 88.257812 300.179688 88.152344 299.136719 C 88.050781 298.09375 88 297.046875 88 296 L 88 64 C 88 62.953125 88.050781 61.90625 88.152344 60.863281 C 88.257812 59.820312 88.410156 58.785156 88.613281 57.757812 C 88.820312 56.730469 89.074219 55.714844 89.378906 54.710938 C 89.683594 53.707031 90.035156 52.722656 90.4375 51.753906 C 90.835938 50.785156 91.285156 49.839844 91.777344 48.914062 C 92.273438 47.992188 92.8125 47.09375 93.394531 46.222656 C 93.976562 45.351562 94.597656 44.507812 95.265625 43.699219 C 95.929688 42.890625 96.632812 42.113281 97.371094 41.371094 C 98.113281 40.632812 98.890625 39.929688 99.699219 39.261719 C 100.507812 38.597656 101.351562 37.976562 102.222656 37.394531 C 103.09375 36.8125 103.992188 36.273438 104.914062 35.777344 C 105.839844 35.285156 106.785156 34.835938 107.753906 34.4375 C 108.722656 34.035156 109.707031 33.683594 110.710938 33.378906 C 111.714844 33.074219 112.730469 32.820312 113.757812 32.613281 C 114.785156 32.410156 115.820312 32.257812 116.863281 32.152344 C 117.90625 32.050781 118.953125 32 120 32 Z M 120 32 " fill-opacity="1" fill-rule="nonzero"/><path fill="#c9d0d1" d="M 270.574219 311.503906 L 238.289062 81.761719 C 238.140625 80.722656 237.945312 79.695312 237.695312 78.679688 C 237.449219 77.660156 237.152344 76.65625 236.804688 75.667969 C 236.457031 74.679688 236.066406 73.710938 235.625 72.761719 C 235.183594 71.8125 234.695312 70.886719 234.164062 69.984375 C 233.628906 69.082031 233.054688 68.210938 232.4375 67.363281 C 231.820312 66.519531 231.160156 65.707031 230.464844 64.925781 C 229.765625 64.144531 229.03125 63.398438 228.261719 62.691406 C 227.488281 61.980469 226.683594 61.3125 225.847656 60.683594 C 225.011719 60.050781 224.144531 59.464844 223.253906 58.921875 C 222.359375 58.375 221.4375 57.875 220.496094 57.421875 C 219.550781 56.964844 218.589844 56.558594 217.605469 56.199219 C 216.621094 55.839844 215.621094 55.527344 214.609375 55.265625 C 213.59375 55.003906 212.570312 54.792969 211.535156 54.632812 C 210.5 54.46875 209.460938 54.359375 208.414062 54.300781 C 207.371094 54.242188 206.324219 54.234375 205.277344 54.277344 C 204.230469 54.320312 203.1875 54.414062 202.152344 54.558594 L 88 70.566406 L 88 296 C 88 297.046875 88.050781 298.09375 88.152344 299.136719 C 88.257812 300.179688 88.410156 301.214844 88.613281 302.242188 C 88.820312 303.269531 89.074219 304.285156 89.378906 305.289062 C 89.683594 306.292969 90.035156 307.277344 90.4375 308.246094 C 90.835938 309.214844 91.285156 310.160156 91.777344 311.085938 C 92.273438 312.007812 92.8125 312.90625 93.394531 313.777344 C 93.976562 314.648438 94.597656 315.492188 95.265625 316.300781 C 95.929688 317.109375 96.632812 317.886719 97.371094 318.628906 C 98.113281 319.367188 98.890625 320.070312 99.699219 320.738281 C 100.507812 321.402344 101.351562 322.023438 102.222656 322.605469 C 103.09375 323.1875 103.992188 323.726562 104.914062 324.222656 C 105.839844 324.714844 106.785156 325.164062 107.753906 325.5625 C 108.722656 325.964844 109.707031 326.316406 110.710938 326.621094 C 111.714844 326.925781 112.730469 327.179688 113.757812 327.386719 C 114.785156 327.589844 115.820312 327.742188 116.863281 327.847656 C 117.90625 327.949219 118.953125 328 120 328 L 264 328 C 265.535156 327.960938 267.058594 327.804688 268.566406 327.535156 C 269.59375 324.996094 270.277344 322.367188 270.617188 319.652344 C 270.957031 316.933594 270.945312 314.21875 270.574219 311.503906 Z M 270.574219 311.503906 " fill-opacity="1" fill-rule="nonzero"/><path fill="#ecf0f1" d="M 35.519531 58.59375 L 178.121094 38.554688 C 179.15625 38.40625 180.199219 38.3125 181.246094 38.269531 C 182.292969 38.226562 183.339844 38.234375 184.386719 38.292969 C 185.433594 38.351562 186.472656 38.464844 187.511719 38.625 C 188.546875 38.789062 189.570312 39 190.585938 39.261719 C 191.601562 39.523438 192.597656 39.835938 193.582031 40.195312 C 194.566406 40.558594 195.53125 40.964844 196.476562 41.421875 C 197.417969 41.875 198.339844 42.375 199.234375 42.921875 C 200.128906 43.46875 200.992188 44.054688 201.832031 44.6875 C 202.667969 45.316406 203.472656 45.988281 204.242188 46.695312 C 205.015625 47.40625 205.75 48.152344 206.445312 48.933594 C 207.144531 49.714844 207.800781 50.53125 208.421875 51.378906 C 209.039062 52.222656 209.613281 53.097656 210.144531 54 C 210.675781 54.90625 211.164062 55.832031 211.605469 56.78125 C 212.046875 57.734375 212.4375 58.703125 212.785156 59.691406 C 213.128906 60.683594 213.425781 61.6875 213.671875 62.703125 C 213.917969 63.722656 214.117188 64.75 214.261719 65.789062 L 246.550781 295.53125 C 246.695312 296.570312 246.789062 297.613281 246.832031 298.660156 C 246.878906 299.707031 246.867188 300.753906 246.808594 301.800781 C 246.75 302.84375 246.640625 303.886719 246.476562 304.921875 C 246.316406 305.957031 246.105469 306.980469 245.839844 307.996094 C 245.578125 309.011719 245.269531 310.011719 244.90625 310.996094 C 244.546875 311.980469 244.136719 312.941406 243.683594 313.886719 C 243.226562 314.832031 242.726562 315.75 242.183594 316.644531 C 241.636719 317.539062 241.046875 318.40625 240.417969 319.242188 C 239.785156 320.078125 239.117188 320.882812 238.40625 321.65625 C 237.695312 322.425781 236.949219 323.160156 236.167969 323.859375 C 235.386719 324.554688 234.574219 325.214844 233.726562 325.832031 C 232.878906 326.449219 232.003906 327.023438 231.101562 327.558594 C 230.199219 328.089844 229.273438 328.574219 228.320312 329.015625 C 227.371094 329.457031 226.402344 329.851562 225.410156 330.195312 C 224.421875 330.542969 223.417969 330.835938 222.398438 331.085938 C 221.378906 331.332031 220.351562 331.527344 219.316406 331.671875 L 76.714844 351.714844 C 75.679688 351.859375 74.636719 351.953125 73.589844 352 C 72.542969 352.042969 71.496094 352.035156 70.449219 351.972656 C 69.402344 351.914062 68.359375 351.804688 67.324219 351.640625 C 66.289062 351.480469 65.265625 351.269531 64.25 351.007812 C 63.234375 350.742188 62.234375 350.433594 61.253906 350.070312 C 60.269531 349.710938 59.304688 349.304688 58.359375 348.847656 C 57.417969 348.394531 56.496094 347.890625 55.601562 347.347656 C 54.707031 346.800781 53.839844 346.210938 53.003906 345.582031 C 52.167969 344.953125 51.363281 344.28125 50.59375 343.570312 C 49.820312 342.863281 49.085938 342.117188 48.386719 341.332031 C 47.691406 340.550781 47.03125 339.738281 46.414062 338.890625 C 45.796875 338.042969 45.222656 337.167969 44.691406 336.265625 C 44.160156 335.363281 43.671875 334.4375 43.230469 333.484375 C 42.789062 332.535156 42.398438 331.566406 42.050781 330.574219 C 41.707031 329.585938 41.410156 328.582031 41.164062 327.5625 C 40.917969 326.546875 40.71875 325.515625 40.574219 324.480469 L 8.285156 94.738281 C 8.140625 93.699219 8.046875 92.65625 8 91.609375 C 7.957031 90.5625 7.964844 89.515625 8.027344 88.46875 C 8.085938 87.421875 8.195312 86.382812 8.355469 85.347656 C 8.519531 84.3125 8.730469 83.285156 8.992188 82.269531 C 9.257812 81.257812 9.566406 80.257812 9.929688 79.273438 C 10.289062 78.289062 10.695312 77.324219 11.152344 76.382812 C 11.605469 75.4375 12.109375 74.519531 12.652344 73.625 C 13.199219 72.726562 13.789062 71.863281 14.417969 71.023438 C 15.046875 70.1875 15.71875 69.382812 16.429688 68.613281 C 17.136719 67.84375 17.882812 67.109375 18.667969 66.410156 C 19.449219 65.710938 20.261719 65.054688 21.109375 64.4375 C 21.957031 63.816406 22.828125 63.242188 23.734375 62.710938 C 24.636719 62.179688 25.5625 61.691406 26.515625 61.253906 C 27.464844 60.8125 28.433594 60.417969 29.425781 60.074219 C 30.414062 59.726562 31.417969 59.429688 32.4375 59.183594 C 33.453125 58.9375 34.484375 58.742188 35.519531 58.59375 Z M 35.519531 58.59375 " fill-opacity="1" fill-rule="nonzero"/><path fill="#d9e1e2" d="M 13.207031 73.007812 C 12.167969 74.597656 11.277344 76.265625 10.535156 78.011719 C 9.792969 79.761719 9.214844 81.5625 8.796875 83.414062 C 8.378906 85.265625 8.128906 87.140625 8.046875 89.035156 C 7.964844 90.933594 8.054688 92.824219 8.3125 94.703125 L 40.601562 324.449219 C 40.746094 325.484375 40.941406 326.515625 41.1875 327.53125 C 41.433594 328.550781 41.730469 329.554688 42.078125 330.546875 C 42.421875 331.535156 42.816406 332.503906 43.257812 333.457031 C 43.695312 334.40625 44.183594 335.335938 44.714844 336.238281 C 45.246094 337.140625 45.820312 338.015625 46.441406 338.863281 C 47.058594 339.710938 47.714844 340.523438 48.414062 341.304688 C 49.113281 342.085938 49.847656 342.832031 50.617188 343.542969 C 51.386719 344.253906 52.191406 344.925781 53.03125 345.554688 C 53.867188 346.183594 54.734375 346.773438 55.628906 347.320312 C 56.523438 347.867188 57.441406 348.367188 58.386719 348.820312 C 59.328125 349.277344 60.292969 349.683594 61.277344 350.046875 C 62.261719 350.40625 63.261719 350.71875 64.277344 350.980469 C 65.292969 351.242188 66.316406 351.453125 67.351562 351.617188 C 68.386719 351.777344 69.429688 351.890625 70.476562 351.949219 C 71.523438 352.007812 72.570312 352.015625 73.617188 351.972656 C 74.664062 351.929688 75.707031 351.832031 76.742188 351.6875 L 219.34375 331.640625 C 221.613281 331.316406 223.824219 330.757812 225.976562 329.953125 C 228.125 329.152344 230.164062 328.132812 232.089844 326.886719 C 234.019531 325.644531 235.789062 324.210938 237.40625 322.582031 C 239.023438 320.957031 240.449219 319.175781 241.679688 317.238281 Z M 13.207031 73.007812 " fill-opacity="1" fill-rule="nonzero"/><path fill="#e74c3c" d="M 89.105469 208 L 121.238281 232.207031 C 121.660156 232.523438 122.089844 232.816406 122.539062 233.089844 C 122.984375 233.363281 123.445312 233.613281 123.917969 233.839844 C 124.390625 234.066406 124.871094 234.269531 125.363281 234.453125 C 125.855469 234.632812 126.355469 234.789062 126.859375 234.917969 C 127.367188 235.050781 127.878906 235.15625 128.398438 235.238281 C 128.914062 235.316406 129.433594 235.371094 129.957031 235.402344 C 130.480469 235.433594 131.003906 235.4375 131.527344 235.414062 C 132.050781 235.394531 132.570312 235.347656 133.089844 235.273438 C 133.609375 235.199219 134.125 235.101562 134.632812 234.980469 C 135.140625 234.855469 135.644531 234.707031 136.136719 234.535156 C 136.632812 234.363281 137.117188 234.167969 137.59375 233.945312 C 138.066406 233.726562 138.53125 233.484375 138.984375 233.21875 C 139.433594 232.953125 139.871094 232.664062 140.292969 232.355469 C 140.71875 232.046875 141.125 231.71875 141.515625 231.371094 C 141.90625 231.019531 142.28125 230.65625 142.632812 230.269531 C 142.988281 229.882812 143.324219 229.480469 143.640625 229.0625 L 167.855469 196.929688 C 168.410156 196.191406 168.925781 195.429688 169.40625 194.644531 C 169.886719 193.859375 170.324219 193.050781 170.726562 192.222656 C 171.125 191.390625 171.484375 190.546875 171.800781 189.679688 C 172.117188 188.816406 172.390625 187.9375 172.621094 187.046875 C 172.851562 186.15625 173.039062 185.253906 173.179688 184.34375 C 173.320312 183.433594 173.417969 182.519531 173.46875 181.601562 C 173.523438 180.679688 173.53125 179.761719 173.492188 178.839844 C 173.453125 177.921875 173.371094 177.003906 173.242188 176.09375 C 173.113281 175.183594 172.941406 174.277344 172.722656 173.382812 C 172.507812 172.488281 172.246094 171.605469 171.941406 170.738281 C 171.640625 169.867188 171.292969 169.015625 170.90625 168.179688 C 170.519531 167.34375 170.09375 166.53125 169.625 165.738281 C 169.15625 164.941406 168.652344 164.175781 168.109375 163.429688 C 167.566406 162.6875 166.988281 161.972656 166.375 161.285156 C 165.761719 160.597656 165.117188 159.941406 164.4375 159.320312 C 163.761719 158.695312 163.054688 158.105469 162.320312 157.550781 C 161.585938 156.996094 160.824219 156.480469 160.039062 156 C 159.25 155.523438 158.445312 155.082031 157.613281 154.683594 C 156.785156 154.28125 155.9375 153.921875 155.074219 153.605469 C 154.207031 153.289062 153.332031 153.015625 152.4375 152.785156 C 151.546875 152.554688 150.644531 152.367188 149.738281 152.226562 C 148.828125 152.082031 147.910156 151.988281 146.992188 151.933594 C 146.074219 151.882812 145.152344 151.875 144.234375 151.914062 C 143.3125 151.953125 142.398438 152.035156 141.484375 152.164062 C 140.574219 152.292969 139.667969 152.464844 138.773438 152.679688 C 137.878906 152.898438 136.996094 153.15625 136.128906 153.460938 C 135.257812 153.765625 134.40625 154.109375 133.570312 154.5 C 132.734375 154.886719 131.921875 155.3125 131.128906 155.78125 C 130.335938 156.25 129.566406 156.753906 128.820312 157.296875 C 128.078125 157.839844 127.363281 158.417969 126.675781 159.03125 C 125.988281 159.644531 125.332031 160.289062 124.710938 160.96875 C 124.085938 161.644531 123.5 162.351562 122.945312 163.089844 C 122.207031 162.535156 121.449219 162.015625 120.660156 161.539062 C 119.875 161.058594 119.066406 160.617188 118.238281 160.21875 C 117.40625 159.816406 116.5625 159.460938 115.695312 159.140625 C 114.832031 158.824219 113.953125 158.550781 113.0625 158.320312 C 112.171875 158.089844 111.269531 157.902344 110.359375 157.761719 C 109.449219 157.621094 108.535156 157.523438 107.617188 157.46875 C 106.695312 157.417969 105.777344 157.410156 104.855469 157.449219 C 103.9375 157.488281 103.019531 157.570312 102.109375 157.699219 C 101.195312 157.824219 100.292969 158 99.398438 158.214844 C 98.5 158.433594 97.621094 158.691406 96.75 158.996094 C 95.878906 159.296875 95.027344 159.644531 94.191406 160.03125 C 93.355469 160.417969 92.542969 160.84375 91.75 161.3125 C 90.953125 161.78125 90.1875 162.285156 89.441406 162.828125 C 88.699219 163.371094 87.980469 163.949219 87.292969 164.5625 C 86.605469 165.175781 85.953125 165.820312 85.328125 166.496094 C 84.703125 167.175781 84.113281 167.878906 83.558594 168.617188 C 83.003906 169.351562 82.488281 170.113281 82.007812 170.898438 C 81.53125 171.6875 81.089844 172.492188 80.691406 173.324219 C 80.289062 174.152344 79.933594 175 79.613281 175.867188 C 79.296875 176.730469 79.023438 177.609375 78.792969 178.5 C 78.5625 179.390625 78.378906 180.292969 78.234375 181.203125 C 78.09375 182.113281 77.996094 183.027344 77.945312 183.949219 C 77.890625 184.867188 77.886719 185.789062 77.925781 186.707031 C 77.960938 187.628906 78.046875 188.542969 78.175781 189.457031 C 78.300781 190.367188 78.476562 191.273438 78.691406 192.167969 C 78.910156 193.0625 79.171875 193.945312 79.472656 194.8125 C 79.777344 195.683594 80.125 196.535156 80.511719 197.371094 C 80.898438 198.207031 81.328125 199.023438 81.792969 199.816406 C 82.261719 200.609375 82.769531 201.378906 83.3125 202.121094 C 83.855469 202.867188 84.433594 203.582031 85.046875 204.269531 C 85.660156 204.953125 86.304688 205.609375 86.984375 206.234375 C 87.660156 206.855469 88.367188 207.445312 89.105469 208 Z M 89.105469 208 " fill-opacity="1" fill-rule="nonzero"/><path fill="#c0392b" d="M 150.632812 219.800781 L 143.617188 229.105469 C 143.300781 229.523438 142.96875 229.921875 142.613281 230.308594 C 142.261719 230.691406 141.890625 231.058594 141.5 231.40625 C 141.109375 231.753906 140.707031 232.082031 140.285156 232.390625 C 139.863281 232.699219 139.425781 232.988281 138.976562 233.253906 C 138.527344 233.519531 138.0625 233.761719 137.589844 233.980469 C 137.117188 234.199219 136.632812 234.398438 136.140625 234.570312 C 135.644531 234.742188 135.144531 234.890625 134.636719 235.011719 C 134.128906 235.136719 133.617188 235.234375 133.101562 235.308594 C 132.582031 235.378906 132.0625 235.425781 131.539062 235.449219 C 131.019531 235.472656 130.496094 235.46875 129.976562 235.4375 C 129.453125 235.40625 128.933594 235.351562 128.417969 235.273438 C 127.902344 235.191406 127.390625 235.085938 126.886719 234.953125 C 126.378906 234.824219 125.882812 234.667969 125.390625 234.488281 C 124.898438 234.308594 124.417969 234.105469 123.949219 233.878906 C 123.480469 233.652344 123.019531 233.402344 122.574219 233.128906 C 122.128906 232.855469 121.695312 232.5625 121.28125 232.246094 L 89.113281 208 C 87.632812 206.886719 86.277344 205.644531 85.042969 204.261719 C 83.808594 202.882812 82.726562 201.394531 81.785156 199.800781 C 80.847656 198.207031 80.074219 196.535156 79.46875 194.789062 C 78.859375 193.039062 78.429688 191.25 78.175781 189.414062 C 77.964844 187.921875 77.875 186.417969 77.910156 184.910156 C 77.941406 183.402344 78.097656 181.902344 78.371094 180.417969 C 78.648438 178.933594 79.042969 177.484375 79.554688 176.0625 C 80.066406 174.644531 80.691406 173.273438 81.425781 171.953125 C 82.160156 170.636719 82.996094 169.382812 83.933594 168.203125 C 84.871094 167.019531 85.898438 165.917969 87.015625 164.902344 C 88.132812 163.886719 89.320312 162.96875 90.589844 162.144531 C 91.855469 161.324219 93.179688 160.605469 94.558594 160 Z M 150.632812 219.800781 " fill-opacity="1" fill-rule="nonzero"/><path fill="#e74c3c" d="M 68.230469 118.601562 C 67.496094 118.703125 66.757812 118.707031 66.023438 118.605469 C 65.285156 118.503906 64.574219 118.304688 63.894531 118.003906 C 63.214844 117.707031 62.585938 117.320312 62.011719 116.847656 C 61.441406 116.371094 60.941406 115.828125 60.519531 115.214844 L 54.398438 106.296875 L 50.953125 116.566406 C 50.785156 117.066406 50.570312 117.542969 50.308594 118 C 50.046875 118.457031 49.742188 118.886719 49.398438 119.28125 C 49.054688 119.679688 48.671875 120.039062 48.253906 120.359375 C 47.839844 120.683594 47.394531 120.960938 46.925781 121.195312 C 46.453125 121.429688 45.964844 121.617188 45.457031 121.753906 C 44.949219 121.894531 44.429688 121.980469 43.90625 122.015625 C 43.382812 122.054688 42.859375 122.039062 42.335938 121.972656 C 41.8125 121.90625 41.304688 121.789062 40.804688 121.621094 C 40.304688 121.453125 39.828125 121.238281 39.371094 120.976562 C 38.914062 120.714844 38.488281 120.410156 38.089844 120.066406 C 37.691406 119.722656 37.332031 119.339844 37.011719 118.921875 C 36.6875 118.507812 36.410156 118.0625 36.175781 117.59375 C 35.941406 117.121094 35.753906 116.632812 35.617188 116.125 C 35.480469 115.617188 35.390625 115.097656 35.355469 114.574219 C 35.320312 114.050781 35.335938 113.527344 35.402344 113.003906 C 35.46875 112.480469 35.585938 111.972656 35.753906 111.472656 L 44.296875 86.039062 C 44.433594 85.707031 44.59375 85.386719 44.773438 85.078125 C 44.953125 84.765625 45.152344 84.46875 45.371094 84.183594 C 45.59375 83.898438 45.828125 83.628906 46.082031 83.375 C 46.335938 83.121094 46.605469 82.882812 46.890625 82.664062 C 47.171875 82.445312 47.472656 82.242188 47.78125 82.0625 C 48.09375 81.882812 48.414062 81.722656 48.742188 81.582031 C 49.074219 81.441406 49.414062 81.324219 49.761719 81.230469 C 50.105469 81.132812 50.457031 81.0625 50.8125 81.011719 C 51.167969 80.960938 51.527344 80.933594 51.886719 80.929688 C 52.246094 80.925781 52.601562 80.945312 52.960938 80.988281 C 53.316406 81.03125 53.667969 81.097656 54.015625 81.1875 C 54.367188 81.273438 54.707031 81.386719 55.039062 81.515625 C 55.375 81.648438 55.699219 81.804688 56.011719 81.976562 C 56.328125 82.152344 56.628906 82.347656 56.917969 82.558594 C 57.207031 82.773438 57.480469 83.003906 57.738281 83.253906 C 57.996094 83.503906 58.238281 83.769531 58.464844 84.046875 L 73.664062 106.144531 C 73.855469 106.421875 74.03125 106.714844 74.183594 107.015625 C 74.339844 107.316406 74.476562 107.628906 74.59375 107.945312 C 74.707031 108.265625 74.804688 108.589844 74.878906 108.921875 C 74.953125 109.25 75.007812 109.585938 75.039062 109.921875 C 75.070312 110.261719 75.082031 110.597656 75.070312 110.9375 C 75.058594 111.277344 75.027344 111.613281 74.972656 111.949219 C 74.917969 112.285156 74.84375 112.613281 74.75 112.9375 C 74.652344 113.265625 74.535156 113.582031 74.398438 113.894531 C 74.265625 114.203125 74.109375 114.503906 73.933594 114.796875 C 73.757812 115.085938 73.566406 115.363281 73.355469 115.632812 C 73.148438 115.898438 72.921875 116.148438 72.679688 116.386719 C 72.4375 116.625 72.179688 116.847656 71.910156 117.050781 C 71.640625 117.257812 71.359375 117.445312 71.066406 117.613281 C 70.769531 117.78125 70.46875 117.933594 70.15625 118.0625 C 69.839844 118.195312 69.519531 118.304688 69.195312 118.394531 C 68.867188 118.484375 68.535156 118.550781 68.199219 118.601562 Z M 68.230469 118.601562 " fill-opacity="1" fill-rule="nonzero"/><path fill="#c0392b" d="M 51.695312 114.222656 L 50.894531 116.625 C 50.757812 117.15625 50.566406 117.667969 50.324219 118.164062 C 50.078125 118.65625 49.785156 119.117188 49.445312 119.550781 C 49.105469 119.984375 48.726562 120.378906 48.304688 120.734375 C 47.886719 121.085938 47.433594 121.394531 46.949219 121.65625 C 46.464844 121.917969 45.957031 122.125 45.429688 122.28125 C 44.902344 122.4375 44.363281 122.539062 43.816406 122.585938 C 43.269531 122.632812 42.71875 122.621094 42.175781 122.554688 C 41.628906 122.488281 41.09375 122.363281 40.574219 122.1875 C 40.050781 122.007812 39.554688 121.78125 39.082031 121.5 C 38.609375 121.21875 38.167969 120.894531 37.761719 120.523438 C 37.355469 120.152344 36.992188 119.746094 36.667969 119.296875 C 36.347656 118.851562 36.074219 118.378906 35.847656 117.875 C 35.625 117.375 35.453125 116.851562 35.335938 116.316406 C 35.21875 115.777344 35.15625 115.234375 35.152344 114.683594 C 35.148438 114.132812 35.199219 113.589844 35.308594 113.050781 C 35.414062 112.507812 35.578125 111.984375 35.792969 111.480469 L 39.320312 100.96875 Z M 51.695312 114.222656 " fill-opacity="1" fill-rule="nonzero"/><path fill="#e74c3c" d="M 204.121094 309.542969 C 203.382812 309.648438 202.648438 309.648438 201.914062 309.546875 C 201.175781 309.449219 200.46875 309.25 199.789062 308.949219 C 199.109375 308.652344 198.480469 308.265625 197.910156 307.792969 C 197.335938 307.320312 196.839844 306.777344 196.414062 306.167969 L 181.214844 284.070312 C 180.917969 283.640625 180.664062 283.179688 180.457031 282.699219 C 180.25 282.214844 180.089844 281.71875 179.980469 281.203125 C 179.871094 280.691406 179.8125 280.171875 179.804688 279.644531 C 179.796875 279.117188 179.839844 278.597656 179.9375 278.082031 C 180.03125 277.5625 180.175781 277.0625 180.371094 276.574219 C 180.566406 276.085938 180.804688 275.621094 181.089844 275.179688 C 181.375 274.738281 181.703125 274.328125 182.070312 273.953125 C 182.4375 273.574219 182.835938 273.238281 183.269531 272.941406 C 183.699219 272.640625 184.160156 272.390625 184.640625 272.179688 C 185.125 271.972656 185.621094 271.8125 186.136719 271.703125 C 186.648438 271.59375 187.171875 271.535156 187.695312 271.527344 C 188.222656 271.519531 188.742188 271.566406 189.257812 271.660156 C 189.777344 271.753906 190.277344 271.902344 190.765625 272.09375 C 191.253906 272.289062 191.71875 272.527344 192.160156 272.816406 C 192.601562 273.101562 193.011719 273.425781 193.386719 273.792969 C 193.765625 274.160156 194.101562 274.558594 194.398438 274.992188 L 200.542969 283.910156 L 203.992188 273.640625 C 204.160156 273.140625 204.375 272.664062 204.632812 272.207031 C 204.894531 271.75 205.199219 271.320312 205.546875 270.925781 C 205.890625 270.527344 206.269531 270.167969 206.6875 269.84375 C 207.105469 269.523438 207.546875 269.246094 208.019531 269.007812 C 208.492188 268.773438 208.980469 268.589844 209.488281 268.449219 C 209.996094 268.3125 210.511719 268.222656 211.039062 268.1875 C 211.5625 268.152344 212.085938 268.167969 212.609375 268.234375 C 213.132812 268.300781 213.640625 268.417969 214.140625 268.585938 C 214.640625 268.75 215.117188 268.964844 215.574219 269.226562 C 216.03125 269.488281 216.460938 269.792969 216.855469 270.136719 C 217.253906 270.484375 217.613281 270.867188 217.933594 271.28125 C 218.257812 271.699219 218.535156 272.140625 218.769531 272.613281 C 219.003906 273.085938 219.191406 273.574219 219.328125 274.082031 C 219.464844 274.589844 219.554688 275.109375 219.589844 275.632812 C 219.625 276.15625 219.609375 276.683594 219.542969 277.203125 C 219.476562 277.726562 219.359375 278.238281 219.191406 278.734375 L 210.648438 304.175781 C 210.410156 304.882812 210.078125 305.542969 209.652344 306.160156 C 209.226562 306.773438 208.726562 307.316406 208.152344 307.792969 C 207.574219 308.265625 206.941406 308.652344 206.257812 308.949219 C 205.574219 309.25 204.859375 309.445312 204.121094 309.542969 Z M 204.121094 309.542969 " fill-opacity="1" fill-rule="nonzero"/><path fill="#c0392b" d="M 215.566406 289.28125 L 210.558594 304.199219 C 210.320312 304.894531 209.988281 305.546875 209.566406 306.152344 C 209.148438 306.753906 208.652344 307.292969 208.085938 307.757812 C 207.515625 308.226562 206.894531 308.609375 206.21875 308.90625 C 205.546875 309.203125 204.84375 309.402344 204.113281 309.503906 C 203.386719 309.605469 202.65625 309.609375 201.925781 309.511719 C 201.195312 309.410156 200.492188 309.214844 199.816406 308.921875 C 199.140625 308.628906 198.519531 308.25 197.949219 307.785156 C 197.375 307.320312 196.878906 306.785156 196.457031 306.183594 L 181.257812 284.089844 C 180.910156 283.660156 180.613281 283.203125 180.363281 282.714844 C 180.113281 282.226562 179.917969 281.714844 179.773438 281.1875 C 179.628906 280.65625 179.539062 280.117188 179.503906 279.570312 C 179.46875 279.023438 179.492188 278.476562 179.570312 277.933594 C 179.648438 277.390625 179.78125 276.859375 179.96875 276.34375 C 180.152344 275.828125 180.390625 275.335938 180.679688 274.871094 C 180.96875 274.402344 181.300781 273.96875 181.679688 273.570312 C 182.054688 273.171875 182.46875 272.816406 182.921875 272.503906 C 183.371094 272.191406 183.847656 271.925781 184.355469 271.710938 C 184.859375 271.496094 185.382812 271.335938 185.917969 271.226562 C 186.457031 271.121094 187 271.066406 187.550781 271.070312 C 188.097656 271.078125 188.640625 271.136719 189.179688 271.253906 C 189.714844 271.367188 190.234375 271.539062 190.734375 271.761719 C 191.238281 271.984375 191.710938 272.253906 192.15625 272.574219 C 192.601562 272.894531 193.011719 273.257812 193.382812 273.664062 C 193.753906 274.066406 194.078125 274.503906 194.359375 274.976562 L 200.535156 283.878906 L 203.199219 276 Z M 215.566406 289.28125 " fill-opacity="1" fill-rule="nonzero"/></svg>