<svg xmlns="http://www.w3.org/2000/svg" xmlns:xlink="http://www.w3.org/1999/xlink" width="512" zoomAndPan="magnify" viewBox="0 0 384 383.999986" height="512" preserveAspectRatio="xMidYMid meet" version="1.0"><path fill="#ffb48d" d="M 314.714844 260.070312 C 314.714844 260.070312 292.195312 297.152344 236.105469 285.34375 L 155.921875 281.097656 C 114.4375 306.125 83.585938 292.980469 83.585938 292.980469 C 57.621094 307.457031 26 304.441406 44.214844 273.535156 C 57.765625 250.539062 68.96875 211.257812 75.917969 182.726562 C 80.714844 163.015625 81.191406 142.539062 77.636719 122.566406 C 65.585938 54.8125 95.101562 27.628906 127.695312 24.695312 C 213.441406 -28.921875 259.40625 26.679688 266.710938 36.695312 C 323.679688 56.535156 335.46875 108.640625 335.46875 108.640625 C 335.46875 108.640625 367.628906 238.382812 314.714844 260.070312 Z M 314.714844 260.070312 " fill-opacity="1" fill-rule="nonzero"/><path fill="#c5c5ff" d="M 285.867188 337.332031 L 107.820312 337.75 C 107.820312 337.75 69.199219 350.5625 39.65625 381.34375 L 326.683594 382.359375 C 308.359375 353.488281 285.867188 337.332031 285.867188 337.332031 Z M 285.867188 337.332031 " fill-opacity="1" fill-rule="nonzero"/><path fill="#a4a4f7" d="M 139.347656 307.96875 C 139.347656 307.96875 74.386719 334.984375 130.871094 358.21875 C 187.355469 381.449219 284.867188 358.8125 285.847656 337.964844 C 286.824219 317.113281 256.53125 307.96875 256.53125 307.96875 Z M 139.347656 307.96875 " fill-opacity="1" fill-rule="nonzero"/><path fill="#ffebd3" d="M 247.496094 253.804688 C 247.351562 253.804688 251.5 299.707031 262.714844 327.136719 C 234.757812 339.664062 204.828125 339.886719 180.242188 336.277344 C 158.242188 333.046875 140.503906 326.746094 132.285156 323.457031 C 136.902344 314.964844 152.6875 282.328125 154.566406 229.800781 L 150.40625 121.789062 C 195.296875 123.464844 250.324219 114.617188 273.183594 76.09375 C 353.015625 158.542969 288.320312 245.289062 247.496094 253.804688 Z M 247.496094 253.804688 " fill-opacity="1" fill-rule="nonzero"/><path fill="#ffd5b7" d="M 196.832031 241.359375 C 196.832031 241.359375 175.601562 285.792969 180.242188 336.277344 C 158.242188 333.046875 140.503906 326.746094 132.285156 323.457031 C 136.902344 314.964844 152.6875 282.328125 154.566406 229.800781 L 150.40625 121.789062 C 166.902344 122.40625 192.328125 121.804688 216.585938 115.03125 C 201.226562 135.785156 179.09375 179.027344 196.832031 241.359375 Z M 196.832031 241.359375 " fill-opacity="1" fill-rule="nonzero"/><path fill="#51518e" d="M 163.839844 114.886719 L 157.207031 131.679688 L 211.664062 148.476562 L 228.953125 125.304688 Z M 163.839844 114.886719 " fill-opacity="1" fill-rule="nonzero"/><path fill="#ffd5b7" d="M 249.878906 273.984375 C 228.121094 265.265625 211.515625 250.628906 211.515625 250.628906 C 219.425781 253.097656 228.546875 254.75 238.792969 254.75 C 244.070312 254.75 247.304688 253.707031 247.496094 253.804688 C 247.414062 253.804688 248.425781 263.917969 249.875 273.984375 Z M 249.878906 273.984375 " fill-opacity="1" fill-rule="nonzero"/><path fill="#ffebd3" d="M 151.898438 133.882812 L 148.632812 132.457031 C 139.902344 129.226562 130.070312 129.628906 121.042969 131.554688 C 115.867188 132.648438 111.921875 135.332031 108.5 139.164062 L 108.5 139.171875 C 85.269531 166.046875 105.472656 247.363281 164.570312 191.652344 L 168.882812 154.730469 C 168.882812 154.730469 165.796875 140.808594 151.898438 133.882812 Z M 151.898438 133.882812 " fill-opacity="1" fill-rule="nonzero"/><path fill="#ffd5b7" d="M 125.691406 148.019531 L 136.863281 185.164062 L 145.257812 190.832031 C 157.410156 165.300781 125.691406 148.019531 125.691406 148.019531 Z M 125.691406 148.019531 " fill-opacity="1" fill-rule="nonzero"/><path fill="#ffb48d" d="M 160.414062 266.480469 C 115.246094 242.148438 141.667969 105.972656 141.667969 105.972656 L 179.585938 105.972656 C 179.585938 105.972656 157.601562 202.949219 194.664062 230.816406 C 196.207031 231.976562 197.855469 233.015625 199.613281 233.925781 C 243.503906 256.660156 205.578125 290.8125 160.414062 266.480469 Z M 160.414062 266.480469 " fill-opacity="1" fill-rule="nonzero"/><path fill="#51518e" d="M 274.832031 159.453125 C 277.253906 157.484375 281.113281 156.285156 286.53125 160.125 L 300.1875 158.867188 L 290.503906 150.429688 C 277.472656 136.9375 271.632812 150.429688 271.632812 150.429688 L 258.269531 162.574219 Z M 274.832031 159.453125 " fill-opacity="1" fill-rule="nonzero"/><path fill="#6fe1ff" d="M 275.019531 160.59375 C 275.019531 184.386719 260.511719 206.296875 240.261719 206.296875 C 230.53125 206.296875 222.035156 201.066406 216.003906 193.316406 C 208.910156 184.25 205.5 172.292969 205.5 160.59375 C 205.5 138.582031 217.332031 120.207031 233.089844 115.867188 C 238.988281 114.234375 245.253906 114.628906 251.105469 117.164062 C 263.644531 122.574219 275.019531 138.566406 275.019531 160.59375 Z M 336.902344 157.371094 C 336.902344 175.433594 326.023438 190.144531 312.414062 190.808594 C 306.804688 191.097656 301.519531 188.9375 297.277344 185.164062 C 289.742188 178.527344 286 167.730469 286 157.371094 C 286 140.527344 295.890625 125.011719 310.019531 123.945312 C 313.664062 123.695312 317.351562 124.402344 320.914062 126.285156 C 329.519531 130.820312 336.902344 142.269531 336.902344 157.371094 Z M 336.902344 157.371094 " fill-opacity="1" fill-rule="nonzero"/><path fill="#a1edff" d="M 267.261719 131.816406 L 241.230469 206.28125 C 234.449219 206.453125 228.273438 204.332031 222.722656 200.0625 L 251.105469 117.164062 C 257.515625 119.925781 263.109375 125.070312 267.261719 131.816406 Z M 244.847656 115.285156 L 216.003906 193.316406 C 212.945312 189.40625 210.433594 184.746094 208.628906 179.570312 L 233.09375 115.867188 C 236.96875 114.792969 240.886719 114.597656 244.847656 115.285156 Z M 332.5625 138.671875 C 327.878906 150.921875 318.089844 176.171875 312.414062 190.808594 C 308.84375 190.992188 305.101562 190.183594 301.542969 188.207031 L 320.914062 126.285156 C 325.679688 128.796875 329.734375 133.152344 332.5625 138.671875 Z M 310.019531 123.945312 L 297.277344 185.164062 C 295.144531 183.285156 293.234375 180.988281 291.632812 178.355469 L 302.5625 125.996094 C 304.898438 124.847656 307.410156 124.144531 310.019531 123.945312 Z M 310.019531 123.945312 " fill-opacity="1" fill-rule="nonzero"/><path fill="#f5a27e" d="M 160.414062 266.480469 C 115.246094 242.148438 141.667969 105.972656 141.667969 105.972656 C 141.667969 105.972656 127.691406 264.996094 194.664062 230.816406 C 196.207031 231.976562 197.855469 233.015625 199.613281 233.925781 C 243.503906 256.660156 205.578125 290.8125 160.414062 266.480469 Z M 160.414062 266.480469 " fill-opacity="1" fill-rule="nonzero"/><path fill="#000000" d="M 301.007812 276.078125 C 309.949219 269.726562 314.632812 263.179688 315.816406 261.390625 C 344.34375 249.238281 347.832031 207.257812 346.570312 176.15625 C 345.15625 141.246094 337.140625 108.570312 337.066406 108.277344 C 336.945312 107.734375 333.941406 94.785156 323.832031 79.214844 C 314.554688 64.929688 297.308594 45.757812 267.730469 35.320312 C 263.699219 29.894531 250.175781 13.695312 227.183594 5.292969 C 197.308594 -5.625 163.65625 0.363281 127.15625 23.097656 C 115.488281 24.214844 99.246094 28.847656 87.339844 44.429688 C 73.929688 61.976562 70.015625 89.09375 76.023438 122.855469 C 79.601562 142.980469 79.03125 162.996094 74.320312 182.339844 C 67.339844 211 56.207031 249.945312 42.800781 272.703125 C 24.4375 303.855469 54.765625 310.542969 83.703125 294.792969 C 88.234375 296.472656 111.671875 303.777344 143.84375 289.296875 C 141.925781 296.046875 139.917969 301.878906 138.039062 306.742188 C 133.3125 308.800781 106.539062 321.152344 106.167969 336.589844 C 99.539062 339 65.128906 352.425781 38.46875 380.203125 C 38.320312 380.363281 38.203125 380.542969 38.125 380.746094 C 38.046875 380.949219 38.007812 381.15625 38.011719 381.375 C 38.019531 381.59375 38.0625 381.800781 38.152344 382 C 38.238281 382.199219 38.359375 382.375 38.519531 382.523438 C 38.675781 382.675781 38.855469 382.789062 39.058594 382.871094 C 39.261719 382.949219 39.46875 382.988281 39.6875 382.980469 C 39.90625 382.976562 40.113281 382.929688 40.3125 382.84375 C 40.511719 382.757812 40.6875 382.632812 40.839844 382.476562 C 66.125 356.128906 98.535156 342.9375 106.503906 339.960938 C 108.21875 347.308594 116.183594 353.945312 130.246094 359.730469 C 154.628906 369.761719 185.472656 371.066406 211.664062 368.582031 C 238.875 366 264.128906 359.082031 277.574219 350.527344 C 282.796875 347.203125 285.976562 343.785156 287.070312 340.332031 C 293.09375 345.121094 310.636719 360.136719 325.296875 383.238281 C 325.609375 383.730469 326.136719 384 326.683594 384 C 327.953125 384 328.765625 382.582031 328.066406 381.480469 C 311.546875 355.445312 291.386719 339.460938 287.492188 336.503906 C 287.113281 317.492188 262.960938 308.386719 257.898438 306.6875 C 256.417969 300.875 255.15625 294.945312 254.085938 289.25 C 276.382812 290.023438 291.863281 282.578125 301.007812 276.078125 Z M 284.210938 337.882812 C 284.066406 340.941406 281.164062 344.355469 275.8125 347.757812 C 250.167969 364.078125 176.640625 375.265625 131.496094 356.699219 C 116.871094 350.683594 109.449219 344.03125 109.433594 336.929688 C 109.410156 325.492188 128.105469 315.15625 136.253906 311.195312 C 134.34375 315.769531 132.671875 319.191406 131.527344 321.382812 C 129.269531 320.460938 128.011719 319.878906 127.996094 319.871094 C 127.800781 319.777344 127.59375 319.730469 127.375 319.71875 C 127.15625 319.710938 126.945312 319.742188 126.742188 319.816406 C 126.539062 319.890625 126.355469 320.003906 126.195312 320.148438 C 126.035156 320.296875 125.910156 320.46875 125.816406 320.667969 C 125.726562 320.863281 125.675781 321.070312 125.664062 321.289062 C 125.65625 321.507812 125.6875 321.71875 125.761719 321.921875 C 125.835938 322.125 125.949219 322.308594 126.097656 322.46875 C 126.242188 322.628906 126.414062 322.753906 126.613281 322.847656 C 145.566406 331.703125 178.21875 339.914062 207.097656 339.914062 C 229.085938 339.914062 250.734375 335.625 270.324219 325.265625 C 270.519531 325.167969 270.691406 325.03125 270.832031 324.867188 C 270.972656 324.699219 271.078125 324.507812 271.144531 324.300781 C 271.210938 324.089844 271.234375 323.875 271.214844 323.65625 C 271.195312 323.4375 271.132812 323.230469 271.03125 323.039062 C 270.925781 322.84375 270.792969 322.675781 270.621094 322.539062 C 270.453125 322.398438 270.261719 322.296875 270.050781 322.234375 C 269.839844 322.171875 269.625 322.148438 269.410156 322.171875 C 269.191406 322.195312 268.984375 322.261719 268.792969 322.367188 C 267.085938 323.261719 265.355469 324.113281 263.605469 324.921875 C 261.867188 320.457031 260.3125 315.59375 258.929688 310.566406 C 266.238281 313.410156 284.945312 322.246094 284.210938 337.882812 Z M 260.601562 326.273438 C 210.152344 348.035156 153.445312 329.890625 134.59375 322.605469 C 139.082031 313.96875 148.027344 293.875 152.972656 263.167969 C 155.039062 265.058594 157.261719 266.644531 159.636719 267.925781 C 171.1875 274.148438 181.882812 276.492188 190.882812 276.492188 C 199.566406 276.492188 206.667969 274.3125 211.4375 271.332031 C 217.46875 267.5625 221.425781 261.625 220.582031 254.617188 C 228.101562 256.105469 238.230469 257.078125 246.011719 255.730469 C 248.058594 276.863281 252.902344 306.574219 260.601562 326.273438 Z M 286.171875 144.769531 C 280.914062 141.632812 276.960938 142.832031 274.496094 144.507812 C 266.367188 115.324219 238.886719 103.691406 219.136719 122.074219 L 204.050781 119.664062 C 236.976562 113.289062 260.292969 99.5625 273.46875 78.765625 C 287.066406 93.136719 296.921875 108.371094 302.832031 124.089844 C 295.1875 127.425781 289.0625 135.058594 286.171875 144.769531 Z M 305.433594 126.570312 C 307.472656 125.921875 309.136719 125.539062 311.453125 125.539062 C 324.582031 125.539062 335.265625 139.816406 335.265625 157.367188 C 335.265625 173.574219 325.289062 189.476562 311.25 189.195312 C 296.917969 188.910156 287.640625 173.128906 287.640625 157.367188 C 287.640625 142.597656 295.210938 130.144531 305.433594 126.570312 Z M 285.320312 148.113281 C 284.707031 151.046875 284.386719 154.011719 284.367188 157.011719 C 281.125 155.59375 278.480469 155.851562 276.523438 156.597656 C 276.339844 153.710938 275.949219 150.847656 275.347656 148.015625 C 278.066406 145.410156 281.414062 145.445312 285.320312 148.113281 Z M 273.382812 160.589844 C 273.382812 184.890625 258.527344 204.65625 240.265625 204.65625 C 222.003906 204.65625 207.144531 184.890625 207.144531 160.589844 C 207.144531 136.292969 222.003906 116.527344 240.265625 116.527344 C 258.523438 116.527344 273.382812 136.296875 273.382812 160.589844 Z M 216.34375 124.953125 C 211.644531 130.292969 208.007812 137.171875 205.90625 144.988281 L 176.519531 135.917969 C 177.148438 130.246094 177.917969 124.589844 178.835938 118.953125 Z M 205.140625 148.183594 C 198.953125 177.769531 215.980469 207.9375 240.265625 207.9375 C 259.082031 207.9375 276.816406 188.234375 276.65625 160.171875 C 278.898438 158.789062 281.527344 158.980469 284.488281 160.75 C 285.574219 175.40625 293.640625 187.449219 304.316406 191.230469 C 293.390625 224.179688 266.972656 247.984375 247.277344 252.167969 C 246.390625 252.277344 236.949219 254.789062 219.773438 251.09375 C 217.429688 244.316406 210.726562 237.835938 200.367188 232.472656 C 173.492188 218.550781 172.949219 171.75 176.175781 139.246094 Z M 253.484375 285.921875 C 250.925781 271.511719 249.632812 259.15625 249.246094 255.085938 C 269.46875 250.070312 296.085938 226.765625 307.492188 192.097656 C 308.785156 192.34375 310.109375 192.476562 311.453125 192.476562 C 326.394531 192.476562 338.546875 176.726562 338.546875 157.367188 C 338.546875 135.824219 323.230469 118.328125 305.925781 122.996094 C 299.773438 106.597656 289.449219 90.746094 275.207031 75.84375 C 276.167969 74.167969 277.058594 72.457031 277.890625 70.714844 C 277.984375 70.519531 278.035156 70.3125 278.046875 70.09375 C 278.058594 69.875 278.027344 69.664062 277.953125 69.457031 C 277.878906 69.253906 277.769531 69.070312 277.625 68.910156 C 277.476562 68.746094 277.304688 68.621094 277.109375 68.527344 C 276.914062 68.433594 276.703125 68.382812 276.488281 68.371094 C 276.269531 68.359375 276.058594 68.390625 275.851562 68.464844 C 275.648438 68.539062 275.464844 68.648438 275.304688 68.796875 C 275.144531 68.945312 275.015625 69.117188 274.921875 69.3125 C 260.363281 100.144531 227.65625 113.214844 193.898438 118.039062 L 179.382812 115.71875 C 180.375 110.011719 181.144531 106.519531 181.1875 106.332031 C 181.238281 106.121094 181.242188 105.90625 181.207031 105.695312 C 181.167969 105.480469 181.09375 105.28125 180.976562 105.09375 C 180.859375 104.910156 180.714844 104.757812 180.535156 104.632812 C 180.359375 104.503906 180.164062 104.417969 179.953125 104.371094 C 179.738281 104.320312 179.527344 104.316406 179.3125 104.351562 C 179.097656 104.390625 178.898438 104.464844 178.714844 104.582031 C 178.53125 104.699219 178.375 104.84375 178.25 105.023438 C 178.125 105.199219 178.035156 105.394531 177.988281 105.609375 C 177.25 108.871094 175.890625 116.355469 175.835938 116.898438 C 169.492188 154.351562 165.078125 217.886719 198.859375 235.386719 C 241.097656 257.265625 203.839844 288.011719 161.191406 265.035156 C 156.179688 262.335938 153.203125 258.699219 152.929688 258.464844 C 121.078125 223.230469 143.03125 107.539062 143.277344 106.285156 C 143.316406 106.070312 143.316406 105.855469 143.273438 105.644531 C 143.230469 105.429688 143.148438 105.234375 143.027344 105.050781 C 142.902344 104.871094 142.753906 104.722656 142.570312 104.601562 C 142.390625 104.480469 142.191406 104.402344 141.976562 104.359375 C 141.765625 104.320312 141.550781 104.320312 141.335938 104.363281 C 141.125 104.40625 140.925781 104.488281 140.746094 104.609375 C 140.566406 104.734375 140.417969 104.886719 140.296875 105.066406 C 140.175781 105.246094 140.097656 105.445312 140.054688 105.660156 C 140.019531 105.832031 138.292969 114.832031 136.484375 128.480469 C 129.058594 128.171875 120.625 129.742188 118.507812 130.527344 C 85.496094 140.941406 91.96875 219.34375 133.558594 211.890625 C 135.847656 234.164062 141.378906 250.332031 150.105469 260.238281 C 148.707031 269.46875 146.917969 277.789062 144.980469 285.140625 C 117.230469 298.441406 95.515625 294.730469 87.542969 292.542969 C 93.777344 288.660156 99.234375 283.96875 103.453125 278.832031 C 103.585938 278.660156 103.683594 278.472656 103.742188 278.269531 C 103.804688 278.0625 103.820312 277.851562 103.800781 277.636719 C 103.777344 277.421875 103.714844 277.222656 103.613281 277.03125 C 103.507812 276.84375 103.375 276.679688 103.207031 276.542969 C 103.042969 276.40625 102.855469 276.304688 102.652344 276.242188 C 102.445312 276.179688 102.234375 276.15625 102.019531 276.175781 C 101.804688 276.195312 101.601562 276.253906 101.414062 276.355469 C 101.222656 276.453125 101.054688 276.585938 100.917969 276.75 C 84.273438 297.027344 52.050781 305.226562 42.933594 295.886719 C 38.859375 291.710938 39.792969 284.269531 45.628906 274.371094 C 59.238281 251.265625 70.476562 211.992188 77.507812 183.117188 C 82.328125 163.328125 82.914062 142.859375 79.253906 122.285156 C 73.414062 89.453125 77.113281 63.21875 89.949219 46.425781 C 101.261719 31.621094 116.796875 27.328125 127.835938 26.335938 L 127.84375 26.335938 C 153.109375 24.058594 177.652344 30.980469 177.898438 31.050781 C 178.109375 31.109375 178.320312 31.128906 178.535156 31.101562 C 178.753906 31.078125 178.957031 31.011719 179.144531 30.90625 C 179.335938 30.800781 179.5 30.664062 179.632812 30.492188 C 179.769531 30.324219 179.867188 30.132812 179.925781 29.925781 C 179.988281 29.714844 180.003906 29.503906 179.980469 29.285156 C 179.957031 29.070312 179.890625 28.867188 179.785156 28.675781 C 179.679688 28.488281 179.542969 28.324219 179.371094 28.1875 C 179.203125 28.054688 179.011719 27.957031 178.804688 27.894531 C 178.574219 27.828125 157.617188 21.914062 134.257812 22.664062 C 167.777344 3.171875 198.636719 -1.644531 226.058594 8.378906 C 244.15625 14.992188 256.144531 26.601562 262.042969 33.476562 C 251.96875 30.453125 241.085938 28.554688 229.601562 27.835938 C 229.382812 27.820312 229.167969 27.847656 228.960938 27.917969 C 228.753906 27.984375 228.566406 28.09375 228.402344 28.238281 C 228.238281 28.378906 228.105469 28.550781 228.011719 28.746094 C 227.914062 28.945312 227.859375 29.152344 227.84375 29.371094 C 227.832031 29.589844 227.859375 29.800781 227.929688 30.007812 C 228.003906 30.214844 228.113281 30.398438 228.257812 30.5625 C 228.402344 30.726562 228.574219 30.855469 228.769531 30.949219 C 228.96875 31.046875 229.175781 31.097656 229.394531 31.109375 C 271.996094 33.773438 302.636719 52.675781 321.003906 80.890625 C 330.832031 95.988281 333.839844 108.875 333.875 109.035156 C 334.195312 110.320312 365.078125 237.597656 314.121094 258.542969 C 308.367188 260.734375 302.515625 261.886719 294.164062 261.507812 C 293.273438 261.472656 292.492188 262.167969 292.449219 263.074219 C 292.441406 263.289062 292.472656 263.5 292.546875 263.707031 C 292.621094 263.910156 292.730469 264.09375 292.878906 264.253906 C 293.023438 264.414062 293.195312 264.542969 293.394531 264.632812 C 293.589844 264.726562 293.796875 264.777344 294.015625 264.789062 C 299.40625 265.03125 304.898438 264.660156 310.207031 263.277344 C 303.5 271.074219 285.585938 287.285156 253.484375 285.921875 Z M 124.910156 149.457031 C 124.953125 149.480469 129.039062 151.738281 133.597656 155.707031 C 132.246094 172.972656 131.777344 191.558594 133.25 208.609375 C 94.992188 215.878906 89.695312 139.964844 121.382812 133.15625 C 126.289062 132.125 131.113281 131.566406 136.0625 131.742188 C 135.222656 138.382812 134.511719 145.039062 133.929688 151.707031 C 129.894531 148.457031 126.644531 146.664062 126.484375 146.578125 C 126.292969 146.480469 126.089844 146.421875 125.878906 146.402344 C 125.664062 146.382812 125.453125 146.40625 125.25 146.46875 C 125.046875 146.53125 124.859375 146.628906 124.695312 146.765625 C 124.527344 146.902344 124.394531 147.0625 124.292969 147.25 C 124.1875 147.4375 124.125 147.636719 124.101562 147.851562 C 124.078125 148.0625 124.09375 148.273438 124.152344 148.480469 C 124.210938 148.6875 124.304688 148.875 124.433594 149.042969 C 124.566406 149.210938 124.722656 149.351562 124.910156 149.457031 Z M 124.910156 149.457031 " fill-opacity="1" fill-rule="nonzero"/></svg>