<svg xmlns="http://www.w3.org/2000/svg" xmlns:xlink="http://www.w3.org/1999/xlink" width="512" zoomAndPan="magnify" viewBox="0 0 384 383.999986" height="512" preserveAspectRatio="xMidYMid meet" version="1.0"><path fill="#ced5de" d="M 372 103.199219 L 372 307.199219 C 372 319.980469 361.980469 330.480469 349.199219 331.140625 L 256.140625 335.820312 C 253.378906 335.941406 250.679688 335.582031 248.039062 334.800781 L 132 300 L 42.898438 326.761719 C 27.480469 331.378906 12 319.800781 12 303.71875 L 12 101.878906 C 12 91.261719 18.960938 81.898438 29.101562 78.839844 L 123.359375 50.582031 C 129 48.898438 135 48.898438 140.640625 50.582031 L 212.160156 72.058594 L 235.621094 79.082031 L 252 84 L 340.800781 79.558594 L 346.800781 79.261719 C 358.621094 78.71875 368.820312 86.761719 371.339844 97.738281 C 371.761719 99.480469 372 101.339844 372 103.199219 Z M 372 103.199219 " fill-opacity="1" fill-rule="nonzero"/><path fill="#ced5de" d="M 235.621094 79.082031 C 228.960938 92.398438 226.800781 103.378906 227.699219 113.039062 L 204.058594 106.261719 C 204.179688 94.5 206.820312 82.738281 212.160156 72.058594 Z M 337.378906 177 C 336.898438 177.71875 336.421875 178.5 336 179.28125 L 336 177 Z M 337.378906 177 " fill-opacity="1" fill-rule="nonzero"/><path fill="#e6e9ed" d="M 132 49.320312 L 132 300 L 42.898438 326.761719 C 27.480469 331.378906 12 319.800781 12 303.71875 L 12 101.878906 C 12 91.261719 18.960938 81.898438 29.101562 78.839844 L 123.359375 50.582031 C 126.179688 49.738281 129.121094 49.320312 132 49.320312 Z M 372 103.199219 L 372 307.199219 C 372 319.980469 361.980469 330.480469 349.199219 331.140625 L 256.140625 335.820312 C 253.378906 335.941406 250.679688 335.582031 248.039062 334.800781 L 246 334.199219 L 246 82.199219 L 252 84 L 346.800781 79.261719 C 360.480469 78.601562 372 89.519531 372 103.199219 Z M 372 103.199219 " fill-opacity="1" fill-rule="nonzero"/><path fill="#e6e9ed" d="M 372 103.199219 L 372 108 C 372 104.519531 371.761719 101.101562 371.339844 97.738281 C 371.761719 99.480469 372 101.339844 372 103.199219 Z M 372 103.199219 " fill-opacity="1" fill-rule="nonzero"/><path fill="#88cf59" d="M 131.992188 262.410156 L 63.449219 282.996094 C 63.003906 283.128906 62.550781 283.238281 62.09375 283.320312 C 61.632812 283.398438 61.171875 283.453125 60.707031 283.480469 C 60.242188 283.507812 59.773438 283.507812 59.308594 283.484375 C 58.84375 283.457031 58.382812 283.402344 57.921875 283.320312 C 57.464844 283.242188 57.011719 283.132812 56.566406 283 C 56.117188 282.867188 55.679688 282.707031 55.253906 282.523438 C 54.824219 282.339844 54.410156 282.132812 54.003906 281.898438 C 53.601562 281.664062 53.214844 281.410156 52.839844 281.132812 C 52.464844 280.855469 52.109375 280.554688 51.769531 280.234375 C 51.429688 279.914062 51.109375 279.578125 50.8125 279.21875 C 50.511719 278.863281 50.234375 278.492188 49.976562 278.101562 C 49.71875 277.710938 49.488281 277.308594 49.277344 276.890625 C 49.070312 276.476562 48.882812 276.050781 48.726562 275.609375 C 48.566406 275.171875 48.433594 274.726562 48.324219 274.273438 C 48.214844 273.820312 48.136719 273.363281 48.082031 272.898438 C 48.027344 272.4375 48 271.972656 48 271.507812 L 48 119.6875 C 48 119.046875 48.050781 118.410156 48.152344 117.777344 C 48.257812 117.144531 48.410156 116.523438 48.609375 115.914062 C 48.8125 115.308594 49.0625 114.71875 49.355469 114.148438 C 49.652344 113.582031 49.992188 113.039062 50.375 112.527344 C 50.757812 112.011719 51.179688 111.53125 51.640625 111.085938 C 52.097656 110.636719 52.589844 110.230469 53.117188 109.863281 C 53.640625 109.496094 54.191406 109.171875 54.769531 108.894531 C 55.347656 108.613281 55.941406 108.382812 56.554688 108.199219 L 132 85.585938 L 252 120 L 323.398438 116.476562 C 324.210938 116.4375 325.019531 116.480469 325.824219 116.601562 C 326.628906 116.726562 327.410156 116.929688 328.171875 117.210938 C 328.933594 117.496094 329.660156 117.851562 330.351562 118.28125 C 331.039062 118.710938 331.679688 119.207031 332.269531 119.765625 C 332.859375 120.328125 333.386719 120.941406 333.851562 121.609375 C 334.3125 122.277344 334.707031 122.984375 335.027344 123.730469 C 335.347656 124.476562 335.589844 125.25 335.753906 126.046875 C 335.917969 126.84375 336 127.648438 336 128.460938 L 336 284.339844 C 336 285.101562 335.929688 285.859375 335.785156 286.609375 C 335.640625 287.355469 335.425781 288.085938 335.144531 288.792969 C 334.859375 289.503906 334.511719 290.179688 334.101562 290.820312 C 333.691406 291.460938 333.222656 292.058594 332.695312 292.613281 C 332.171875 293.164062 331.597656 293.664062 330.976562 294.105469 C 330.355469 294.550781 329.699219 294.929688 329.003906 295.25 C 328.3125 295.566406 327.59375 295.816406 326.855469 296 C 326.113281 296.179688 325.363281 296.289062 324.601562 296.328125 L 252 300 Z M 131.992188 262.410156 " fill-opacity="1" fill-rule="nonzero"/><path fill="#99b87d" d="M 336 177 L 336 179.28125 C 328.378906 193.019531 331.5 212.160156 317.519531 222.359375 C 292.441406 247.441406 245.761719 228.78125 244.738281 193.019531 C 244.140625 184.921875 240.539062 177.660156 234.898438 172.980469 C 214.621094 157.082031 203.640625 131.582031 204.058594 106.261719 L 227.699219 113.039062 C 229.621094 134.820312 247.140625 149.941406 263.160156 170.878906 C 270.660156 183.71875 265.199219 206.039062 284.039062 209.582031 C 301.320312 213 308.101562 197.101562 308.578125 183 C 309.058594 180.960938 309.660156 178.980469 310.378906 177 Z M 336 177 " fill-opacity="1" fill-rule="nonzero"/><path fill="#89de64" d="M 132 85.558594 L 132 262.441406 L 63.480469 283.019531 C 55.738281 285.300781 48 279.539062 48 271.5 L 48 119.699219 C 48 114.421875 51.480469 109.738281 56.578125 108.179688 Z M 336 128.460938 L 336 284.339844 C 336 290.761719 330.960938 295.980469 324.601562 296.339844 L 252 300 L 252 120 L 323.398438 116.460938 C 330.238281 116.160156 336 121.621094 336 128.460938 Z M 336 128.460938 " fill-opacity="1" fill-rule="nonzero"/><path fill="#7cc24e" d="M 309.265625 186.019531 C 317.929688 224.160156 262.878906 243.304688 247.777344 207.222656 C 245.878906 202.675781 244.867188 197.941406 244.738281 193.019531 C 244.140625 184.921875 240.539062 177.660156 234.898438 172.980469 C 214.621094 157.082031 203.640625 131.582031 204.058594 106.261719 L 227.699219 113.039062 C 229.621094 134.820312 258 150 263.160156 170.878906 C 270.660156 183.71875 264.851562 195.425781 282 204 C 294 210 307.183594 194.039062 307.660156 179.941406 Z M 309.265625 186.019531 " fill-opacity="1" fill-rule="nonzero"/><path fill="#bdc4cc" d="M 212.160156 72.058594 C 206.820312 82.738281 204.179688 94.5 204.058594 106.261719 L 227.699219 113.039062 C 226.800781 103.378906 228.960938 92.398438 235.621094 79.082031 Z M 212.160156 72.058594 " fill-opacity="1" fill-rule="nonzero"/><path fill="#e17f85" d="M 348 108 C 348 74.261719 320.160156 47.035156 286.199219 48.023438 C 255.179688 48.9375 229.261719 74.585938 228.046875 105.601562 C 227.953125 107.914062 227.992188 110.226562 228.167969 112.535156 C 228.339844 114.84375 228.648438 117.132812 229.089844 119.40625 C 229.527344 121.679688 230.097656 123.921875 230.800781 126.128906 C 231.5 128.332031 232.328125 130.492188 233.277344 132.605469 C 234.230469 134.714844 235.300781 136.761719 236.492188 138.75 C 237.679688 140.734375 238.980469 142.648438 240.394531 144.480469 C 241.804688 146.316406 243.316406 148.0625 244.933594 149.722656 C 246.546875 151.382812 248.253906 152.941406 250.050781 154.402344 C 261.148438 163.476562 267.640625 177.023438 268.667969 191.320312 C 269.292969 200.113281 275.429688 207.894531 284.070312 209.609375 C 284.742188 209.75 285.421875 209.851562 286.105469 209.917969 C 286.789062 209.984375 287.472656 210.015625 288.160156 210.007812 C 288.847656 210.003906 289.53125 209.960938 290.214844 209.882812 C 290.898438 209.800781 291.574219 209.6875 292.246094 209.535156 C 292.914062 209.382812 293.574219 209.199219 294.226562 208.976562 C 294.875 208.753906 295.511719 208.5 296.136719 208.210938 C 296.757812 207.917969 297.363281 207.597656 297.953125 207.246094 C 298.542969 206.890625 299.109375 206.507812 299.65625 206.089844 C 300.207031 205.675781 300.730469 205.234375 301.230469 204.765625 C 301.730469 204.292969 302.207031 203.796875 302.65625 203.277344 C 303.101562 202.757812 303.519531 202.214844 303.910156 201.648438 C 304.300781 201.082031 304.660156 200.496094 304.988281 199.894531 C 305.316406 199.289062 305.609375 198.671875 305.875 198.035156 C 306.136719 197.398438 306.363281 196.753906 306.554688 196.09375 C 306.75 195.433594 306.90625 194.765625 307.027344 194.089844 C 307.148438 193.414062 307.234375 192.734375 307.285156 192.046875 L 307.332031 191.316406 C 307.582031 187.730469 308.191406 184.203125 309.152344 180.738281 C 310.117188 177.273438 311.417969 173.941406 313.054688 170.738281 C 314.691406 167.539062 316.632812 164.53125 318.875 161.722656 C 321.117188 158.910156 323.621094 156.355469 326.382812 154.050781 C 328.070312 152.652344 329.675781 151.164062 331.199219 149.589844 C 332.722656 148.015625 334.15625 146.359375 335.496094 144.625 C 336.839844 142.894531 338.082031 141.09375 339.226562 139.222656 C 340.371094 137.351562 341.40625 135.425781 342.339844 133.441406 C 343.269531 131.457031 344.089844 129.429688 344.796875 127.355469 C 345.503906 125.28125 346.097656 123.171875 346.574219 121.035156 C 347.050781 118.894531 347.40625 116.734375 347.644531 114.554688 C 347.882812 112.378906 348.003906 110.191406 348 108 Z M 348 108 " fill-opacity="1" fill-rule="nonzero"/><path fill="#de646e" d="M 286.667969 191.328125 C 285.648438 177.023438 279.15625 163.476562 268.050781 154.402344 C 266.253906 152.941406 264.546875 151.382812 262.933594 149.722656 C 261.316406 148.0625 259.804688 146.316406 258.394531 144.480469 C 256.980469 142.648438 255.679688 140.734375 254.492188 138.75 C 253.300781 136.761719 252.230469 134.714844 251.277344 132.605469 C 250.328125 130.492188 249.5 128.332031 248.800781 126.128906 C 248.097656 123.921875 247.527344 121.679688 247.089844 119.40625 C 246.648438 117.132812 246.339844 114.84375 246.167969 112.535156 C 245.992188 110.226562 245.953125 107.914062 246.046875 105.601562 C 247.164062 77.015625 269.285156 53.039062 297.03125 48.738281 C 293.441406 48.175781 289.832031 47.9375 286.199219 48.023438 C 255.179688 48.9375 229.261719 74.585938 228.046875 105.601562 C 227.953125 107.914062 227.992188 110.226562 228.167969 112.535156 C 228.339844 114.84375 228.648438 117.132812 229.089844 119.40625 C 229.527344 121.679688 230.097656 123.921875 230.800781 126.128906 C 231.5 128.332031 232.328125 130.492188 233.277344 132.605469 C 234.230469 134.714844 235.300781 136.761719 236.492188 138.75 C 237.679688 140.734375 238.980469 142.648438 240.394531 144.480469 C 241.804688 146.316406 243.316406 148.0625 244.933594 149.722656 C 246.546875 151.382812 248.253906 152.941406 250.050781 154.402344 C 261.148438 163.476562 267.640625 177.023438 268.667969 191.320312 C 269.292969 200.113281 275.429688 207.894531 284.070312 209.609375 C 286.269531 210.054688 288.480469 210.113281 290.699219 209.785156 C 292.921875 209.460938 295.019531 208.769531 297 207.714844 C 291.121094 204.515625 287.160156 198.257812 286.667969 191.328125 Z M 286.667969 191.328125 " fill-opacity="1" fill-rule="nonzero"/><path fill="#e6e9ed" d="M 318 108 C 318 108.984375 317.953125 109.960938 317.855469 110.941406 C 317.757812 111.917969 317.613281 112.890625 317.421875 113.851562 C 317.230469 114.816406 316.992188 115.769531 316.707031 116.707031 C 316.421875 117.648438 316.09375 118.574219 315.714844 119.480469 C 315.339844 120.386719 314.921875 121.277344 314.457031 122.140625 C 313.996094 123.007812 313.488281 123.851562 312.945312 124.667969 C 312.398438 125.484375 311.8125 126.273438 311.191406 127.03125 C 310.566406 127.792969 309.90625 128.519531 309.214844 129.214844 C 308.519531 129.90625 307.792969 130.566406 307.03125 131.191406 C 306.273438 131.8125 305.484375 132.398438 304.667969 132.945312 C 303.851562 133.488281 303.007812 133.996094 302.140625 134.457031 C 301.273438 134.921875 300.386719 135.339844 299.480469 135.714844 C 298.574219 136.09375 297.648438 136.421875 296.707031 136.707031 C 295.769531 136.992188 294.816406 137.230469 293.851562 137.421875 C 292.890625 137.617188 291.917969 137.757812 290.941406 137.855469 C 289.960938 137.953125 288.984375 138 288 138 C 287.015625 138 286.039062 137.953125 285.058594 137.855469 C 284.082031 137.757812 283.109375 137.617188 282.148438 137.421875 C 281.183594 137.230469 280.230469 136.992188 279.292969 136.707031 C 278.351562 136.421875 277.425781 136.09375 276.519531 135.714844 C 275.613281 135.339844 274.722656 134.921875 273.859375 134.457031 C 272.992188 133.996094 272.148438 133.488281 271.332031 132.945312 C 270.515625 132.398438 269.726562 131.8125 268.96875 131.191406 C 268.207031 130.566406 267.480469 129.90625 266.785156 129.214844 C 266.09375 128.519531 265.433594 127.792969 264.808594 127.03125 C 264.1875 126.273438 263.601562 125.484375 263.054688 124.667969 C 262.511719 123.851562 262.003906 123.007812 261.542969 122.140625 C 261.078125 121.277344 260.660156 120.386719 260.285156 119.480469 C 259.90625 118.574219 259.578125 117.648438 259.292969 116.707031 C 259.007812 115.769531 258.769531 114.816406 258.578125 113.851562 C 258.382812 112.890625 258.242188 111.917969 258.144531 110.941406 C 258.046875 109.960938 258 108.984375 258 108 C 258 107.019531 258.046875 106.039062 258.144531 105.058594 C 258.242188 104.082031 258.382812 103.109375 258.578125 102.148438 C 258.769531 101.183594 259.007812 100.230469 259.292969 99.292969 C 259.578125 98.351562 259.90625 97.425781 260.285156 96.519531 C 260.660156 95.613281 261.078125 94.726562 261.542969 93.859375 C 262.003906 92.992188 262.511719 92.148438 263.054688 91.332031 C 263.601562 90.515625 264.1875 89.726562 264.808594 88.96875 C 265.433594 88.207031 266.09375 87.480469 266.785156 86.785156 C 267.480469 86.09375 268.207031 85.433594 268.96875 84.808594 C 269.726562 84.1875 270.515625 83.601562 271.332031 83.054688 C 272.148438 82.511719 272.992188 82.003906 273.859375 81.542969 C 274.722656 81.078125 275.613281 80.660156 276.519531 80.285156 C 277.425781 79.90625 278.351562 79.578125 279.292969 79.292969 C 280.230469 79.007812 281.183594 78.769531 282.148438 78.578125 C 283.109375 78.386719 284.082031 78.242188 285.058594 78.144531 C 286.039062 78.046875 287.015625 78 288 78 C 288.984375 78 289.960938 78.046875 290.941406 78.144531 C 291.917969 78.242188 292.890625 78.386719 293.851562 78.578125 C 294.816406 78.769531 295.769531 79.007812 296.707031 79.292969 C 297.648438 79.578125 298.574219 79.90625 299.480469 80.285156 C 300.386719 80.660156 301.273438 81.078125 302.140625 81.542969 C 303.007812 82.003906 303.851562 82.511719 304.667969 83.054688 C 305.484375 83.601562 306.273438 84.1875 307.03125 84.808594 C 307.792969 85.433594 308.519531 86.09375 309.214844 86.785156 C 309.90625 87.480469 310.566406 88.207031 311.191406 88.96875 C 311.8125 89.726562 312.398438 90.515625 312.945312 91.332031 C 313.488281 92.148438 313.996094 92.992188 314.457031 93.859375 C 314.921875 94.726562 315.339844 95.613281 315.714844 96.519531 C 316.09375 97.425781 316.421875 98.351562 316.707031 99.292969 C 316.992188 100.230469 317.230469 101.183594 317.421875 102.148438 C 317.613281 103.109375 317.757812 104.082031 317.855469 105.058594 C 317.953125 106.039062 318 107.019531 318 108 Z M 318 108 " fill-opacity="1" fill-rule="nonzero"/></svg>