<svg xmlns="http://www.w3.org/2000/svg" xmlns:xlink="http://www.w3.org/1999/xlink" width="512" zoomAndPan="magnify" viewBox="0 0 384 383.999986" height="512" preserveAspectRatio="xMidYMid meet" version="1.0"><defs><clipPath id="127d05a4f9"><path d="M 219 220 L 301 220 L 301 279 L 219 279 Z M 219 220 " clip-rule="nonzero"/></clipPath><clipPath id="8a9855ab72"><path d="M 224.78125 260.699219 C 230.167969 263.6875 235.710938 266.359375 241.402344 268.71875 C 243.777344 268.84375 245.890625 269.65625 247.734375 271.164062 C 254.015625 273.441406 260.441406 275.199219 267.007812 276.441406 C 269.386719 276.070312 271.652344 276.414062 273.8125 277.476562 C 278.53125 278.046875 283.265625 278.246094 288.015625 278.078125 C 288.46875 278.0625 288.914062 278.003906 289.351562 277.910156 C 289.792969 277.816406 290.222656 277.6875 290.644531 277.519531 C 291.0625 277.355469 291.464844 277.15625 291.847656 276.921875 C 292.234375 276.6875 292.597656 276.421875 292.9375 276.128906 C 293.277344 275.832031 293.59375 275.511719 293.878906 275.164062 C 294.164062 274.816406 294.421875 274.445312 294.644531 274.054688 C 294.871094 273.664062 295.058594 273.257812 295.214844 272.835938 C 295.371094 272.414062 295.492188 271.980469 295.574219 271.535156 L 300.804688 243.941406 L 219.949219 220.230469 Z M 224.78125 260.699219 " clip-rule="nonzero"/></clipPath><linearGradient x1="268.639011" gradientTransform="matrix(1.129412, 0, 0, 1.129412, 0.0000072, 0.00003)" y1="225.990961" x2="192.21897" gradientUnits="userSpaceOnUse" y2="217.359608" id="9d024a76c1"><stop stop-opacity="1" stop-color="rgb(60.398865%, 61.599731%, 65.098572%)" offset="0"/><stop stop-opacity="1" stop-color="rgb(60.398865%, 61.599731%, 65.098572%)" offset="0.0625"/><stop stop-opacity="1" stop-color="rgb(60.319519%, 61.51886%, 65.003967%)" offset="0.0749652"/><stop stop-opacity="1" stop-color="rgb(60.241699%, 61.437988%, 64.910889%)" offset="0.078125"/><stop stop-opacity="1" stop-color="rgb(60.122681%, 61.314392%, 64.767456%)" offset="0.09375"/><stop stop-opacity="1" stop-color="rgb(59.884644%, 61.070251%, 64.483643%)" offset="0.109375"/><stop stop-opacity="1" stop-color="rgb(59.646606%, 60.826111%, 64.199829%)" offset="0.125"/><stop stop-opacity="1" stop-color="rgb(59.408569%, 60.58197%, 63.91449%)" offset="0.140625"/><stop stop-opacity="1" stop-color="rgb(59.170532%, 60.33783%, 63.630676%)" offset="0.15625"/><stop stop-opacity="1" stop-color="rgb(58.932495%, 60.092163%, 63.345337%)" offset="0.171875"/><stop stop-opacity="1" stop-color="rgb(58.694458%, 59.848022%, 63.061523%)" offset="0.1875"/><stop stop-opacity="1" stop-color="rgb(58.456421%, 59.603882%, 62.776184%)" offset="0.203125"/><stop stop-opacity="1" stop-color="rgb(58.218384%, 59.359741%, 62.492371%)" offset="0.21875"/><stop stop-opacity="1" stop-color="rgb(57.980347%, 59.115601%, 62.207031%)" offset="0.234375"/><stop stop-opacity="1" stop-color="rgb(57.743835%, 58.87146%, 61.923218%)" offset="0.25"/><stop stop-opacity="1" stop-color="rgb(57.505798%, 58.625793%, 61.637878%)" offset="0.265625"/><stop stop-opacity="1" stop-color="rgb(57.267761%, 58.381653%, 61.354065%)" offset="0.28125"/><stop stop-opacity="1" stop-color="rgb(57.029724%, 58.137512%, 61.070251%)" offset="0.296875"/><stop stop-opacity="1" stop-color="rgb(56.791687%, 57.893372%, 60.784912%)" offset="0.3125"/><stop stop-opacity="1" stop-color="rgb(56.55365%, 57.649231%, 60.501099%)" offset="0.328125"/><stop stop-opacity="1" stop-color="rgb(56.315613%, 57.40509%, 60.215759%)" offset="0.34375"/><stop stop-opacity="1" stop-color="rgb(56.077576%, 57.159424%, 59.931946%)" offset="0.359375"/><stop stop-opacity="1" stop-color="rgb(55.839539%, 56.915283%, 59.646606%)" offset="0.375"/><stop stop-opacity="1" stop-color="rgb(55.601501%, 56.671143%, 59.362793%)" offset="0.390625"/><stop stop-opacity="1" stop-color="rgb(55.363464%, 56.427002%, 59.077454%)" offset="0.40625"/><stop stop-opacity="1" stop-color="rgb(55.125427%, 56.182861%, 58.79364%)" offset="0.421875"/><stop stop-opacity="1" stop-color="rgb(54.88739%, 55.937195%, 58.509827%)" offset="0.4375"/><stop stop-opacity="1" stop-color="rgb(54.649353%, 55.693054%, 58.224487%)" offset="0.453125"/><stop stop-opacity="1" stop-color="rgb(54.411316%, 55.448914%, 57.940674%)" offset="0.46875"/><stop stop-opacity="1" stop-color="rgb(54.173279%, 55.204773%, 57.655334%)" offset="0.484375"/><stop stop-opacity="1" stop-color="rgb(53.935242%, 54.960632%, 57.371521%)" offset="0.5"/><stop stop-opacity="1" stop-color="rgb(53.69873%, 54.716492%, 57.086182%)" offset="0.515625"/><stop stop-opacity="1" stop-color="rgb(53.460693%, 54.470825%, 56.802368%)" offset="0.53125"/><stop stop-opacity="1" stop-color="rgb(53.222656%, 54.226685%, 56.517029%)" offset="0.546875"/><stop stop-opacity="1" stop-color="rgb(52.984619%, 53.982544%, 56.233215%)" offset="0.5625"/><stop stop-opacity="1" stop-color="rgb(52.746582%, 53.738403%, 55.949402%)" offset="0.578125"/><stop stop-opacity="1" stop-color="rgb(52.508545%, 53.494263%, 55.664062%)" offset="0.59375"/><stop stop-opacity="1" stop-color="rgb(52.270508%, 53.250122%, 55.380249%)" offset="0.609375"/><stop stop-opacity="1" stop-color="rgb(52.032471%, 53.004456%, 55.09491%)" offset="0.625"/><stop stop-opacity="1" stop-color="rgb(51.794434%, 52.760315%, 54.811096%)" offset="0.640625"/><stop stop-opacity="1" stop-color="rgb(51.556396%, 52.516174%, 54.525757%)" offset="0.65625"/><stop stop-opacity="1" stop-color="rgb(51.318359%, 52.272034%, 54.241943%)" offset="0.671875"/><stop stop-opacity="1" stop-color="rgb(51.080322%, 52.027893%, 53.956604%)" offset="0.6875"/><stop stop-opacity="1" stop-color="rgb(50.842285%, 51.782227%, 53.672791%)" offset="0.703125"/><stop stop-opacity="1" stop-color="rgb(50.604248%, 51.538086%, 53.387451%)" offset="0.71875"/><stop stop-opacity="1" stop-color="rgb(50.366211%, 51.293945%, 53.103638%)" offset="0.734375"/><stop stop-opacity="1" stop-color="rgb(50.128174%, 51.049805%, 52.819824%)" offset="0.75"/><stop stop-opacity="1" stop-color="rgb(49.891663%, 50.805664%, 52.534485%)" offset="0.765625"/><stop stop-opacity="1" stop-color="rgb(49.653625%, 50.561523%, 52.250671%)" offset="0.78125"/><stop stop-opacity="1" stop-color="rgb(49.415588%, 50.315857%, 51.965332%)" offset="0.796875"/><stop stop-opacity="1" stop-color="rgb(49.177551%, 50.071716%, 51.681519%)" offset="0.8125"/><stop stop-opacity="1" stop-color="rgb(48.939514%, 49.827576%, 51.396179%)" offset="0.828125"/><stop stop-opacity="1" stop-color="rgb(48.701477%, 49.583435%, 51.112366%)" offset="0.84375"/><stop stop-opacity="1" stop-color="rgb(48.46344%, 49.339294%, 50.827026%)" offset="0.859375"/><stop stop-opacity="1" stop-color="rgb(48.225403%, 49.095154%, 50.543213%)" offset="0.875"/><stop stop-opacity="1" stop-color="rgb(47.987366%, 48.849487%, 50.259399%)" offset="0.890625"/><stop stop-opacity="1" stop-color="rgb(47.749329%, 48.605347%, 49.97406%)" offset="0.90625"/><stop stop-opacity="1" stop-color="rgb(47.511292%, 48.361206%, 49.690247%)" offset="0.921875"/><stop stop-opacity="1" stop-color="rgb(47.273254%, 48.117065%, 49.404907%)" offset="0.925035"/><stop stop-opacity="1" stop-color="rgb(47.154236%, 47.994995%, 49.263%)" offset="0.9375"/><stop stop-opacity="1" stop-color="rgb(47.035217%, 47.872925%, 49.121094%)" offset="0.953125"/><stop stop-opacity="1" stop-color="rgb(46.79718%, 47.627258%, 48.835754%)" offset="0.96875"/><stop stop-opacity="1" stop-color="rgb(46.559143%, 47.383118%, 48.551941%)" offset="0.984375"/><stop stop-opacity="1" stop-color="rgb(46.321106%, 47.138977%, 48.266602%)" offset="1"/></linearGradient><clipPath id="5152728ee0"><path d="M 198 39 L 335 39 L 335 169 L 198 169 Z M 198 39 " clip-rule="nonzero"/></clipPath><clipPath id="460962d81e"><path d="M 223.945312 168.914062 L 330.589844 78.273438 L 334.53125 57.980469 L 320.449219 41.410156 C 320.199219 41.117188 319.921875 40.851562 319.621094 40.613281 C 319.316406 40.375 318.996094 40.167969 318.652344 39.992188 C 318.308594 39.816406 317.953125 39.675781 317.582031 39.570312 C 317.210938 39.464844 316.835938 39.394531 316.453125 39.363281 C 316.066406 39.332031 315.683594 39.339844 315.300781 39.382812 C 314.917969 39.429688 314.542969 39.511719 314.179688 39.628906 C 313.8125 39.746094 313.460938 39.898438 313.121094 40.085938 C 312.785156 40.273438 312.472656 40.492188 312.175781 40.738281 L 228.015625 112.273438 L 198.925781 153.121094 Z M 223.945312 168.914062 " clip-rule="nonzero"/></clipPath><linearGradient x1="291.793778" gradientTransform="matrix(1.129412, 0, 0, 1.129412, 0.0000072, 0.00003)" y1="31.142651" x2="185.930873" gradientUnits="userSpaceOnUse" y2="157.754081" id="617d68817a"><stop stop-opacity="1" stop-color="rgb(60.398865%, 61.599731%, 65.098572%)" offset="0"/><stop stop-opacity="1" stop-color="rgb(60.398865%, 61.599731%, 65.098572%)" offset="0.125"/><stop stop-opacity="1" stop-color="rgb(60.398865%, 61.599731%, 65.098572%)" offset="0.15625"/><stop stop-opacity="1" stop-color="rgb(60.334778%, 61.534119%, 65.022278%)" offset="0.171875"/><stop stop-opacity="1" stop-color="rgb(60.115051%, 61.306763%, 64.759827%)" offset="0.1875"/><stop stop-opacity="1" stop-color="rgb(59.80072%, 60.984802%, 64.38446%)" offset="0.203125"/><stop stop-opacity="1" stop-color="rgb(59.487915%, 60.662842%, 64.009094%)" offset="0.21875"/><stop stop-opacity="1" stop-color="rgb(59.173584%, 60.340881%, 63.635254%)" offset="0.234375"/><stop stop-opacity="1" stop-color="rgb(58.860779%, 60.018921%, 63.259888%)" offset="0.25"/><stop stop-opacity="1" stop-color="rgb(58.546448%, 59.69696%, 62.884521%)" offset="0.265625"/><stop stop-opacity="1" stop-color="rgb(58.233643%, 59.373474%, 62.509155%)" offset="0.28125"/><stop stop-opacity="1" stop-color="rgb(57.919312%, 59.051514%, 62.135315%)" offset="0.296875"/><stop stop-opacity="1" stop-color="rgb(57.606506%, 58.729553%, 61.759949%)" offset="0.3125"/><stop stop-opacity="1" stop-color="rgb(57.292175%, 58.407593%, 61.384583%)" offset="0.328125"/><stop stop-opacity="1" stop-color="rgb(56.97937%, 58.085632%, 61.010742%)" offset="0.34375"/><stop stop-opacity="1" stop-color="rgb(56.665039%, 57.763672%, 60.635376%)" offset="0.359375"/><stop stop-opacity="1" stop-color="rgb(56.352234%, 57.441711%, 60.26001%)" offset="0.375"/><stop stop-opacity="1" stop-color="rgb(56.037903%, 57.119751%, 59.884644%)" offset="0.390625"/><stop stop-opacity="1" stop-color="rgb(55.725098%, 56.797791%, 59.510803%)" offset="0.40625"/><stop stop-opacity="1" stop-color="rgb(55.410767%, 56.47583%, 59.135437%)" offset="0.421875"/><stop stop-opacity="1" stop-color="rgb(55.097961%, 56.15387%, 58.760071%)" offset="0.4375"/><stop stop-opacity="1" stop-color="rgb(54.78363%, 55.830383%, 58.38623%)" offset="0.453125"/><stop stop-opacity="1" stop-color="rgb(54.470825%, 55.508423%, 58.010864%)" offset="0.466665"/><stop stop-opacity="1" stop-color="rgb(54.31366%, 55.348206%, 57.823181%)" offset="0.46875"/><stop stop-opacity="1" stop-color="rgb(54.156494%, 55.186462%, 57.635498%)" offset="0.484375"/><stop stop-opacity="1" stop-color="rgb(53.843689%, 54.864502%, 57.260132%)" offset="0.5"/><stop stop-opacity="1" stop-color="rgb(53.529358%, 54.542542%, 56.886292%)" offset="0.515625"/><stop stop-opacity="1" stop-color="rgb(53.216553%, 54.220581%, 56.510925%)" offset="0.53125"/><stop stop-opacity="1" stop-color="rgb(52.902222%, 53.898621%, 56.135559%)" offset="0.533335"/><stop stop-opacity="1" stop-color="rgb(52.746582%, 53.738403%, 55.949402%)" offset="0.546875"/><stop stop-opacity="1" stop-color="rgb(52.589417%, 53.57666%, 55.761719%)" offset="0.5625"/><stop stop-opacity="1" stop-color="rgb(52.275085%, 53.2547%, 55.386353%)" offset="0.578125"/><stop stop-opacity="1" stop-color="rgb(51.96228%, 52.932739%, 55.010986%)" offset="0.59375"/><stop stop-opacity="1" stop-color="rgb(51.647949%, 52.610779%, 54.63562%)" offset="0.609375"/><stop stop-opacity="1" stop-color="rgb(51.335144%, 52.287292%, 54.26178%)" offset="0.625"/><stop stop-opacity="1" stop-color="rgb(51.020813%, 51.965332%, 53.886414%)" offset="0.640625"/><stop stop-opacity="1" stop-color="rgb(50.708008%, 51.643372%, 53.511047%)" offset="0.65625"/><stop stop-opacity="1" stop-color="rgb(50.393677%, 51.321411%, 53.137207%)" offset="0.671875"/><stop stop-opacity="1" stop-color="rgb(50.080872%, 50.999451%, 52.761841%)" offset="0.6875"/><stop stop-opacity="1" stop-color="rgb(49.766541%, 50.67749%, 52.386475%)" offset="0.703125"/><stop stop-opacity="1" stop-color="rgb(49.453735%, 50.35553%, 52.011108%)" offset="0.71875"/><stop stop-opacity="1" stop-color="rgb(49.139404%, 50.033569%, 51.637268%)" offset="0.734375"/><stop stop-opacity="1" stop-color="rgb(48.826599%, 49.711609%, 51.261902%)" offset="0.75"/><stop stop-opacity="1" stop-color="rgb(48.512268%, 49.389648%, 50.886536%)" offset="0.765625"/><stop stop-opacity="1" stop-color="rgb(48.199463%, 49.067688%, 50.512695%)" offset="0.78125"/><stop stop-opacity="1" stop-color="rgb(47.885132%, 48.744202%, 50.137329%)" offset="0.796875"/><stop stop-opacity="1" stop-color="rgb(47.572327%, 48.422241%, 49.761963%)" offset="0.8125"/><stop stop-opacity="1" stop-color="rgb(47.257996%, 48.100281%, 49.386597%)" offset="0.828125"/><stop stop-opacity="1" stop-color="rgb(46.94519%, 47.77832%, 49.012756%)" offset="0.84375"/><stop stop-opacity="1" stop-color="rgb(46.630859%, 47.45636%, 48.63739%)" offset="0.859375"/><stop stop-opacity="1" stop-color="rgb(46.318054%, 47.134399%, 48.262024%)" offset="0.875"/><stop stop-opacity="1" stop-color="rgb(46.003723%, 46.812439%, 47.888184%)" offset="0.890625"/><stop stop-opacity="1" stop-color="rgb(45.690918%, 46.490479%, 47.512817%)" offset="0.90625"/><stop stop-opacity="1" stop-color="rgb(45.376587%, 46.168518%, 47.137451%)" offset="0.921875"/><stop stop-opacity="1" stop-color="rgb(45.063782%, 45.846558%, 46.762085%)" offset="0.9375"/><stop stop-opacity="1" stop-color="rgb(44.749451%, 45.524597%, 46.388245%)" offset="0.953125"/><stop stop-opacity="1" stop-color="rgb(44.43512%, 45.201111%, 46.012878%)" offset="0.96875"/><stop stop-opacity="1" stop-color="rgb(44.122314%, 44.87915%, 45.637512%)" offset="0.984375"/><stop stop-opacity="1" stop-color="rgb(43.807983%, 44.55719%, 45.263672%)" offset="1"/></linearGradient><clipPath id="a208f16b47"><path d="M 112 105 L 240 105 L 240 243 L 112 243 Z M 112 105 " clip-rule="nonzero"/></clipPath><clipPath id="977b1bb200"><path d="M 239.714844 114.417969 L 236.195312 105.453125 C 236.167969 105.390625 236.132812 105.382812 236.082031 105.425781 L 112.777344 210.21875 L 129.625 241.25 L 152.316406 242.578125 L 207.160156 183.179688 L 217.4375 174.445312 L 212.121094 168.191406 C 211.691406 167.683594 211.285156 167.15625 210.90625 166.605469 C 210.527344 166.058594 210.175781 165.496094 209.851562 164.910156 C 209.527344 164.328125 209.230469 163.734375 208.964844 163.121094 C 208.699219 162.511719 208.464844 161.886719 208.261719 161.253906 C 208.054688 160.621094 207.882812 159.976562 207.742188 159.324219 C 207.601562 158.675781 207.492188 158.019531 207.414062 157.355469 C 207.339844 156.695312 207.292969 156.03125 207.28125 155.363281 C 207.269531 154.695312 207.292969 154.03125 207.347656 153.367188 C 207.398438 152.703125 207.484375 152.042969 207.605469 151.386719 C 207.722656 150.730469 207.875 150.082031 208.058594 149.441406 C 208.238281 148.800781 208.453125 148.171875 208.695312 147.550781 C 208.941406 146.929688 209.214844 146.324219 209.519531 145.730469 C 209.824219 145.140625 210.15625 144.5625 210.515625 144.003906 C 210.875 143.441406 211.265625 142.898438 211.679688 142.378906 C 212.089844 141.855469 212.53125 141.355469 212.992188 140.875 C 213.457031 140.394531 213.941406 139.941406 214.449219 139.507812 L 238.566406 119.011719 C 238.886719 118.738281 239.164062 118.421875 239.386719 118.058594 C 239.609375 117.699219 239.773438 117.3125 239.878906 116.902344 C 239.980469 116.488281 240.019531 116.070312 239.992188 115.648438 C 239.964844 115.222656 239.871094 114.816406 239.714844 114.417969 Z M 239.714844 114.417969 " clip-rule="nonzero"/></clipPath><linearGradient x1="210.965116" gradientTransform="matrix(1.129412, 0, 0, 1.129412, 0.0000072, 0.00003)" y1="92.022419" x2="105.502308" gradientUnits="userSpaceOnUse" y2="219.456463" id="209a5d1177"><stop stop-opacity="1" stop-color="rgb(60.398865%, 61.599731%, 65.098572%)" offset="0"/><stop stop-opacity="1" stop-color="rgb(60.314941%, 61.512756%, 64.997864%)" offset="0.125"/><stop stop-opacity="1" stop-color="rgb(60.105896%, 61.297607%, 64.749146%)" offset="0.140625"/><stop stop-opacity="1" stop-color="rgb(59.855652%, 61.04126%, 64.450073%)" offset="0.15625"/><stop stop-opacity="1" stop-color="rgb(59.605408%, 60.783386%, 64.151001%)" offset="0.171875"/><stop stop-opacity="1" stop-color="rgb(59.355164%, 60.527039%, 63.850403%)" offset="0.1875"/><stop stop-opacity="1" stop-color="rgb(59.104919%, 60.269165%, 63.551331%)" offset="0.203125"/><stop stop-opacity="1" stop-color="rgb(58.854675%, 60.012817%, 63.252258%)" offset="0.21875"/><stop stop-opacity="1" stop-color="rgb(58.604431%, 59.754944%, 62.953186%)" offset="0.234375"/><stop stop-opacity="1" stop-color="rgb(58.354187%, 59.498596%, 62.654114%)" offset="0.25"/><stop stop-opacity="1" stop-color="rgb(58.103943%, 59.240723%, 62.355042%)" offset="0.265625"/><stop stop-opacity="1" stop-color="rgb(57.853699%, 58.984375%, 62.055969%)" offset="0.28125"/><stop stop-opacity="1" stop-color="rgb(57.603455%, 58.726501%, 61.755371%)" offset="0.296875"/><stop stop-opacity="1" stop-color="rgb(57.35321%, 58.470154%, 61.456299%)" offset="0.3125"/><stop stop-opacity="1" stop-color="rgb(57.102966%, 58.21228%, 61.157227%)" offset="0.328125"/><stop stop-opacity="1" stop-color="rgb(56.852722%, 57.955933%, 60.858154%)" offset="0.34375"/><stop stop-opacity="1" stop-color="rgb(56.602478%, 57.698059%, 60.559082%)" offset="0.359375"/><stop stop-opacity="1" stop-color="rgb(56.352234%, 57.441711%, 60.26001%)" offset="0.375"/><stop stop-opacity="1" stop-color="rgb(56.10199%, 57.183838%, 59.960938%)" offset="0.390625"/><stop stop-opacity="1" stop-color="rgb(55.851746%, 56.92749%, 59.660339%)" offset="0.40625"/><stop stop-opacity="1" stop-color="rgb(55.599976%, 56.669617%, 59.361267%)" offset="0.421875"/><stop stop-opacity="1" stop-color="rgb(55.349731%, 56.413269%, 59.062195%)" offset="0.434246"/><stop stop-opacity="1" stop-color="rgb(55.224609%, 56.285095%, 58.912659%)" offset="0.4375"/><stop stop-opacity="1" stop-color="rgb(55.099487%, 56.155396%, 58.763123%)" offset="0.453125"/><stop stop-opacity="1" stop-color="rgb(54.849243%, 55.899048%, 58.46405%)" offset="0.46875"/><stop stop-opacity="1" stop-color="rgb(54.598999%, 55.641174%, 58.164978%)" offset="0.484375"/><stop stop-opacity="1" stop-color="rgb(54.348755%, 55.384827%, 57.865906%)" offset="0.5"/><stop stop-opacity="1" stop-color="rgb(54.098511%, 55.126953%, 57.565308%)" offset="0.515625"/><stop stop-opacity="1" stop-color="rgb(53.848267%, 54.870605%, 57.266235%)" offset="0.53125"/><stop stop-opacity="1" stop-color="rgb(53.598022%, 54.612732%, 56.967163%)" offset="0.546875"/><stop stop-opacity="1" stop-color="rgb(53.347778%, 54.356384%, 56.668091%)" offset="0.5625"/><stop stop-opacity="1" stop-color="rgb(53.097534%, 54.098511%, 56.369019%)" offset="0.565754"/><stop stop-opacity="1" stop-color="rgb(52.972412%, 53.970337%, 56.219482%)" offset="0.578125"/><stop stop-opacity="1" stop-color="rgb(52.84729%, 53.842163%, 56.069946%)" offset="0.59375"/><stop stop-opacity="1" stop-color="rgb(52.597046%, 53.58429%, 55.770874%)" offset="0.609375"/><stop stop-opacity="1" stop-color="rgb(52.346802%, 53.327942%, 55.470276%)" offset="0.625"/><stop stop-opacity="1" stop-color="rgb(52.096558%, 53.070068%, 55.171204%)" offset="0.640625"/><stop stop-opacity="1" stop-color="rgb(51.846313%, 52.813721%, 54.872131%)" offset="0.65625"/><stop stop-opacity="1" stop-color="rgb(51.596069%, 52.555847%, 54.573059%)" offset="0.671875"/><stop stop-opacity="1" stop-color="rgb(51.345825%, 52.2995%, 54.273987%)" offset="0.6875"/><stop stop-opacity="1" stop-color="rgb(51.095581%, 52.041626%, 53.974915%)" offset="0.703125"/><stop stop-opacity="1" stop-color="rgb(50.845337%, 51.785278%, 53.675842%)" offset="0.71875"/><stop stop-opacity="1" stop-color="rgb(50.595093%, 51.527405%, 53.375244%)" offset="0.734375"/><stop stop-opacity="1" stop-color="rgb(50.343323%, 51.271057%, 53.076172%)" offset="0.75"/><stop stop-opacity="1" stop-color="rgb(50.093079%, 51.013184%, 52.7771%)" offset="0.765625"/><stop stop-opacity="1" stop-color="rgb(49.842834%, 50.756836%, 52.478027%)" offset="0.78125"/><stop stop-opacity="1" stop-color="rgb(49.59259%, 50.498962%, 52.178955%)" offset="0.796875"/><stop stop-opacity="1" stop-color="rgb(49.342346%, 50.242615%, 51.879883%)" offset="0.8125"/><stop stop-opacity="1" stop-color="rgb(49.092102%, 49.984741%, 51.580811%)" offset="0.828125"/><stop stop-opacity="1" stop-color="rgb(48.841858%, 49.728394%, 51.280212%)" offset="0.84375"/><stop stop-opacity="1" stop-color="rgb(48.591614%, 49.47052%, 50.98114%)" offset="0.859375"/><stop stop-opacity="1" stop-color="rgb(48.34137%, 49.214172%, 50.682068%)" offset="0.875"/><stop stop-opacity="1" stop-color="rgb(48.091125%, 48.956299%, 50.382996%)" offset="0.890625"/><stop stop-opacity="1" stop-color="rgb(47.840881%, 48.699951%, 50.083923%)" offset="0.90625"/><stop stop-opacity="1" stop-color="rgb(47.590637%, 48.442078%, 49.784851%)" offset="0.921875"/><stop stop-opacity="1" stop-color="rgb(47.340393%, 48.18573%, 49.485779%)" offset="0.9375"/><stop stop-opacity="1" stop-color="rgb(47.090149%, 47.927856%, 49.185181%)" offset="0.953125"/><stop stop-opacity="1" stop-color="rgb(46.839905%, 47.671509%, 48.886108%)" offset="0.96875"/><stop stop-opacity="1" stop-color="rgb(46.589661%, 47.413635%, 48.587036%)" offset="0.984375"/><stop stop-opacity="1" stop-color="rgb(46.339417%, 47.157288%, 48.287964%)" offset="1"/></linearGradient><clipPath id="a7c0ccd006"><path d="M 90 183 L 233 183 L 233 264 L 90 264 Z M 90 183 " clip-rule="nonzero"/></clipPath><clipPath id="252f79c9a0"><path d="M 226.699219 196.089844 C 225.820312 196.09375 224.953125 196.195312 224.09375 196.382812 C 222.875 196.640625 221.660156 196.632812 220.449219 196.359375 C 219.234375 196.082031 218.132812 195.570312 217.144531 194.816406 C 212.945312 191.683594 209.617188 187.804688 207.160156 183.179688 L 151.6875 230.328125 C 151.273438 230.679688 150.84375 231.011719 150.394531 231.324219 C 149.949219 231.632812 149.484375 231.921875 149.011719 232.1875 C 148.535156 232.449219 148.046875 232.691406 147.546875 232.910156 C 147.046875 233.125 146.539062 233.316406 146.019531 233.484375 C 145.503906 233.652344 144.976562 233.792969 144.445312 233.910156 C 143.914062 234.023438 143.375 234.113281 142.835938 234.175781 C 142.292969 234.238281 141.75 234.273438 141.207031 234.285156 C 140.664062 234.292969 140.121094 234.277344 139.578125 234.230469 C 139.035156 234.1875 138.496094 234.117188 137.957031 234.019531 C 137.421875 233.921875 136.894531 233.800781 136.367188 233.652344 C 135.84375 233.503906 135.328125 233.328125 134.824219 233.128906 C 134.316406 232.929688 133.820312 232.703125 133.335938 232.457031 C 132.851562 232.207031 132.378906 231.9375 131.921875 231.640625 C 131.464844 231.347656 131.023438 231.03125 130.59375 230.691406 C 130.167969 230.355469 129.757812 229.996094 129.367188 229.617188 C 128.976562 229.238281 128.605469 228.84375 128.25 228.425781 L 112.777344 210.21875 L 92.691406 227.289062 C 92.347656 227.582031 92.03125 227.90625 91.75 228.261719 C 91.46875 228.617188 91.226562 228.996094 91.019531 229.398438 C 90.8125 229.800781 90.648438 230.222656 90.523438 230.65625 C 90.398438 231.09375 90.320312 231.535156 90.28125 231.988281 C 90.246094 232.4375 90.253906 232.886719 90.304688 233.339844 C 90.355469 233.789062 90.453125 234.230469 90.589844 234.660156 C 90.730469 235.089844 90.910156 235.503906 91.128906 235.898438 C 91.351562 236.296875 91.605469 236.664062 91.898438 237.011719 L 104.582031 251.929688 C 105.796875 253.351562 107.242188 254.476562 108.917969 255.304688 C 110.59375 256.128906 112.367188 256.589844 114.234375 256.6875 C 128.75 257.5625 143.070312 259.734375 157.191406 263.207031 L 169.195312 253.007812 L 183.554688 240.835938 C 183.902344 240.539062 184.265625 240.257812 184.644531 240 C 185.019531 239.738281 185.414062 239.5 185.816406 239.285156 C 186.21875 239.066406 186.632812 238.871094 187.058594 238.695312 C 187.480469 238.523438 187.914062 238.371094 188.355469 238.242188 C 188.796875 238.117188 189.242188 238.011719 189.695312 237.933594 C 190.144531 237.851562 190.597656 237.796875 191.058594 237.765625 C 191.515625 237.730469 191.972656 237.726562 192.429688 237.742188 C 192.890625 237.757812 193.34375 237.800781 193.800781 237.867188 C 194.253906 237.929688 194.703125 238.019531 195.148438 238.132812 C 195.589844 238.246094 196.027344 238.382812 196.457031 238.542969 C 196.886719 238.703125 197.308594 238.886719 197.71875 239.089844 C 198.128906 239.296875 198.527344 239.523438 198.914062 239.769531 C 199.300781 240.015625 199.671875 240.285156 200.03125 240.570312 C 200.386719 240.855469 200.730469 241.160156 201.054688 241.484375 C 201.378906 241.808594 201.6875 242.148438 201.976562 242.503906 C 202.265625 242.859375 202.535156 243.230469 202.785156 243.613281 C 204.085938 245.640625 204.96875 247.835938 205.441406 250.199219 C 205.476562 250.390625 205.539062 250.574219 205.621094 250.75 C 205.707031 250.921875 205.8125 251.085938 205.941406 251.230469 C 206.066406 251.378906 206.210938 251.507812 206.371094 251.617188 C 206.53125 251.726562 206.703125 251.8125 206.886719 251.878906 C 207.070312 251.941406 207.261719 251.980469 207.453125 251.996094 C 207.648438 252.011719 207.839844 252 208.03125 251.964844 C 208.222656 251.929688 208.40625 251.871094 208.582031 251.785156 C 208.757812 251.703125 208.917969 251.597656 209.066406 251.472656 C 210.675781 250.105469 211.914062 248.464844 212.785156 246.542969 L 231.921875 204.4375 C 232.023438 204.214844 232.113281 203.988281 232.1875 203.757812 C 232.265625 203.527344 232.324219 203.289062 232.371094 203.050781 C 232.417969 202.8125 232.445312 202.570312 232.460938 202.328125 C 232.476562 202.082031 232.480469 201.839844 232.464844 201.597656 C 232.449219 201.351562 232.417969 201.109375 232.375 200.871094 C 232.328125 200.632812 232.269531 200.394531 232.195312 200.164062 C 232.121094 199.929688 232.03125 199.703125 231.929688 199.484375 C 231.828125 199.261719 231.710938 199.046875 231.582031 198.839844 C 231.453125 198.632812 231.3125 198.4375 231.15625 198.246094 C 231.003906 198.058594 230.839844 197.878906 230.660156 197.710938 C 230.484375 197.542969 230.300781 197.386719 230.101562 197.242188 C 229.90625 197.09375 229.703125 196.964844 229.492188 196.84375 C 229.277344 196.722656 229.058594 196.617188 228.832031 196.523438 C 228.609375 196.433594 228.378906 196.355469 228.140625 196.292969 C 227.90625 196.226562 227.667969 196.179688 227.425781 196.144531 C 227.183594 196.109375 226.941406 196.09375 226.699219 196.089844 Z M 226.699219 196.089844 " clip-rule="nonzero"/></clipPath><linearGradient x1="193.276172" gradientTransform="matrix(1.129412, 0, 0, 1.129412, 0.0000072, 0.00003)" y1="150.076397" x2="97.193596" gradientUnits="userSpaceOnUse" y2="249.718073" id="95167fcd2b"><stop stop-opacity="1" stop-color="rgb(60.398865%, 61.599731%, 65.098572%)" offset="0"/><stop stop-opacity="1" stop-color="rgb(60.398865%, 61.599731%, 65.098572%)" offset="0.125"/><stop stop-opacity="1" stop-color="rgb(60.319519%, 61.51886%, 65.003967%)" offset="0.132812"/><stop stop-opacity="1" stop-color="rgb(60.147095%, 61.340332%, 64.797974%)" offset="0.140625"/><stop stop-opacity="1" stop-color="rgb(59.959412%, 61.146545%, 64.573669%)" offset="0.148437"/><stop stop-opacity="1" stop-color="rgb(59.770203%, 60.954285%, 64.347839%)" offset="0.15625"/><stop stop-opacity="1" stop-color="rgb(59.58252%, 60.760498%, 64.123535%)" offset="0.164062"/><stop stop-opacity="1" stop-color="rgb(59.394836%, 60.566711%, 63.897705%)" offset="0.171875"/><stop stop-opacity="1" stop-color="rgb(59.205627%, 60.372925%, 63.673401%)" offset="0.179687"/><stop stop-opacity="1" stop-color="rgb(59.017944%, 60.180664%, 63.447571%)" offset="0.1875"/><stop stop-opacity="1" stop-color="rgb(58.830261%, 59.986877%, 63.223267%)" offset="0.195312"/><stop stop-opacity="1" stop-color="rgb(58.641052%, 59.793091%, 62.997437%)" offset="0.203125"/><stop stop-opacity="1" stop-color="rgb(58.453369%, 59.60083%, 62.773132%)" offset="0.210938"/><stop stop-opacity="1" stop-color="rgb(58.26416%, 59.407043%, 62.547302%)" offset="0.21875"/><stop stop-opacity="1" stop-color="rgb(58.076477%, 59.213257%, 62.322998%)" offset="0.226562"/><stop stop-opacity="1" stop-color="rgb(57.888794%, 59.01947%, 62.097168%)" offset="0.234375"/><stop stop-opacity="1" stop-color="rgb(57.699585%, 58.827209%, 61.872864%)" offset="0.242187"/><stop stop-opacity="1" stop-color="rgb(57.511902%, 58.633423%, 61.647034%)" offset="0.25"/><stop stop-opacity="1" stop-color="rgb(57.324219%, 58.439636%, 61.422729%)" offset="0.257812"/><stop stop-opacity="1" stop-color="rgb(57.13501%, 58.247375%, 61.196899%)" offset="0.265625"/><stop stop-opacity="1" stop-color="rgb(56.947327%, 58.053589%, 60.972595%)" offset="0.273437"/><stop stop-opacity="1" stop-color="rgb(56.759644%, 57.859802%, 60.746765%)" offset="0.28125"/><stop stop-opacity="1" stop-color="rgb(56.570435%, 57.666016%, 60.522461%)" offset="0.289062"/><stop stop-opacity="1" stop-color="rgb(56.382751%, 57.473755%, 60.296631%)" offset="0.296875"/><stop stop-opacity="1" stop-color="rgb(56.193542%, 57.279968%, 60.072327%)" offset="0.304687"/><stop stop-opacity="1" stop-color="rgb(56.005859%, 57.086182%, 59.846497%)" offset="0.3125"/><stop stop-opacity="1" stop-color="rgb(55.818176%, 56.893921%, 59.622192%)" offset="0.320312"/><stop stop-opacity="1" stop-color="rgb(55.628967%, 56.700134%, 59.396362%)" offset="0.328125"/><stop stop-opacity="1" stop-color="rgb(55.441284%, 56.506348%, 59.172058%)" offset="0.335937"/><stop stop-opacity="1" stop-color="rgb(55.253601%, 56.312561%, 58.946228%)" offset="0.34375"/><stop stop-opacity="1" stop-color="rgb(55.064392%, 56.1203%, 58.721924%)" offset="0.351562"/><stop stop-opacity="1" stop-color="rgb(54.876709%, 55.926514%, 58.496094%)" offset="0.359375"/><stop stop-opacity="1" stop-color="rgb(54.689026%, 55.732727%, 58.27179%)" offset="0.367188"/><stop stop-opacity="1" stop-color="rgb(54.499817%, 55.540466%, 58.045959%)" offset="0.368475"/><stop stop-opacity="1" stop-color="rgb(54.406738%, 55.444336%, 57.93457%)" offset="0.375"/><stop stop-opacity="1" stop-color="rgb(54.312134%, 55.34668%, 57.821655%)" offset="0.382812"/><stop stop-opacity="1" stop-color="rgb(54.124451%, 55.152893%, 57.595825%)" offset="0.390625"/><stop stop-opacity="1" stop-color="rgb(53.935242%, 54.959106%, 57.371521%)" offset="0.398437"/><stop stop-opacity="1" stop-color="rgb(53.747559%, 54.766846%, 57.145691%)" offset="0.40625"/><stop stop-opacity="1" stop-color="rgb(53.55835%, 54.573059%, 56.921387%)" offset="0.414062"/><stop stop-opacity="1" stop-color="rgb(53.370667%, 54.379272%, 56.695557%)" offset="0.421875"/><stop stop-opacity="1" stop-color="rgb(53.182983%, 54.187012%, 56.471252%)" offset="0.429687"/><stop stop-opacity="1" stop-color="rgb(52.993774%, 53.993225%, 56.245422%)" offset="0.4375"/><stop stop-opacity="1" stop-color="rgb(52.806091%, 53.799438%, 56.021118%)" offset="0.445312"/><stop stop-opacity="1" stop-color="rgb(52.618408%, 53.605652%, 55.795288%)" offset="0.453125"/><stop stop-opacity="1" stop-color="rgb(52.429199%, 53.413391%, 55.570984%)" offset="0.460937"/><stop stop-opacity="1" stop-color="rgb(52.241516%, 53.219604%, 55.345154%)" offset="0.46875"/><stop stop-opacity="1" stop-color="rgb(52.053833%, 53.025818%, 55.12085%)" offset="0.476562"/><stop stop-opacity="1" stop-color="rgb(51.864624%, 52.833557%, 54.89502%)" offset="0.484375"/><stop stop-opacity="1" stop-color="rgb(51.676941%, 52.639771%, 54.670715%)" offset="0.492188"/><stop stop-opacity="1" stop-color="rgb(51.487732%, 52.445984%, 54.444885%)" offset="0.5"/><stop stop-opacity="1" stop-color="rgb(51.300049%, 52.252197%, 54.220581%)" offset="0.507812"/><stop stop-opacity="1" stop-color="rgb(51.112366%, 52.059937%, 53.994751%)" offset="0.515625"/><stop stop-opacity="1" stop-color="rgb(50.923157%, 51.86615%, 53.770447%)" offset="0.523438"/><stop stop-opacity="1" stop-color="rgb(50.735474%, 51.672363%, 53.544617%)" offset="0.53125"/><stop stop-opacity="1" stop-color="rgb(50.547791%, 51.480103%, 53.320312%)" offset="0.539062"/><stop stop-opacity="1" stop-color="rgb(50.358582%, 51.286316%, 53.094482%)" offset="0.546875"/><stop stop-opacity="1" stop-color="rgb(50.170898%, 51.092529%, 52.870178%)" offset="0.554687"/><stop stop-opacity="1" stop-color="rgb(49.983215%, 50.898743%, 52.644348%)" offset="0.5625"/><stop stop-opacity="1" stop-color="rgb(49.794006%, 50.706482%, 52.420044%)" offset="0.570312"/><stop stop-opacity="1" stop-color="rgb(49.606323%, 50.512695%, 52.194214%)" offset="0.578125"/><stop stop-opacity="1" stop-color="rgb(49.417114%, 50.318909%, 51.96991%)" offset="0.585937"/><stop stop-opacity="1" stop-color="rgb(49.229431%, 50.126648%, 51.74408%)" offset="0.59375"/><stop stop-opacity="1" stop-color="rgb(49.041748%, 49.932861%, 51.519775%)" offset="0.601562"/><stop stop-opacity="1" stop-color="rgb(48.852539%, 49.739075%, 51.293945%)" offset="0.609375"/><stop stop-opacity="1" stop-color="rgb(48.664856%, 49.545288%, 51.069641%)" offset="0.617187"/><stop stop-opacity="1" stop-color="rgb(48.477173%, 49.353027%, 50.843811%)" offset="0.625"/><stop stop-opacity="1" stop-color="rgb(48.287964%, 49.159241%, 50.619507%)" offset="0.631525"/><stop stop-opacity="1" stop-color="rgb(48.194885%, 49.06311%, 50.506592%)" offset="0.632812"/><stop stop-opacity="1" stop-color="rgb(48.100281%, 48.965454%, 50.393677%)" offset="0.640625"/><stop stop-opacity="1" stop-color="rgb(47.912598%, 48.773193%, 50.169373%)" offset="0.648437"/><stop stop-opacity="1" stop-color="rgb(47.723389%, 48.579407%, 49.943542%)" offset="0.65625"/><stop stop-opacity="1" stop-color="rgb(47.535706%, 48.38562%, 49.719238%)" offset="0.664062"/><stop stop-opacity="1" stop-color="rgb(47.348022%, 48.191833%, 49.493408%)" offset="0.671875"/><stop stop-opacity="1" stop-color="rgb(47.158813%, 47.999573%, 49.269104%)" offset="0.679687"/><stop stop-opacity="1" stop-color="rgb(46.97113%, 47.805786%, 49.043274%)" offset="0.6875"/><stop stop-opacity="1" stop-color="rgb(46.781921%, 47.612%, 48.81897%)" offset="0.695312"/><stop stop-opacity="1" stop-color="rgb(46.594238%, 47.419739%, 48.59314%)" offset="0.703125"/><stop stop-opacity="1" stop-color="rgb(46.406555%, 47.225952%, 48.368835%)" offset="0.710937"/><stop stop-opacity="1" stop-color="rgb(46.217346%, 47.032166%, 48.143005%)" offset="0.71875"/><stop stop-opacity="1" stop-color="rgb(46.029663%, 46.838379%, 47.918701%)" offset="0.726562"/><stop stop-opacity="1" stop-color="rgb(45.84198%, 46.646118%, 47.692871%)" offset="0.734375"/><stop stop-opacity="1" stop-color="rgb(45.652771%, 46.452332%, 47.468567%)" offset="0.742187"/><stop stop-opacity="1" stop-color="rgb(45.465088%, 46.258545%, 47.242737%)" offset="0.75"/><stop stop-opacity="1" stop-color="rgb(45.277405%, 46.066284%, 47.018433%)" offset="0.757812"/><stop stop-opacity="1" stop-color="rgb(45.088196%, 45.872498%, 46.792603%)" offset="0.765625"/><stop stop-opacity="1" stop-color="rgb(44.900513%, 45.678711%, 46.568298%)" offset="0.773437"/><stop stop-opacity="1" stop-color="rgb(44.711304%, 45.484924%, 46.342468%)" offset="0.78125"/><stop stop-opacity="1" stop-color="rgb(44.523621%, 45.292664%, 46.118164%)" offset="0.789062"/><stop stop-opacity="1" stop-color="rgb(44.335938%, 45.098877%, 45.892334%)" offset="0.796875"/><stop stop-opacity="1" stop-color="rgb(44.146729%, 44.90509%, 45.66803%)" offset="0.804687"/><stop stop-opacity="1" stop-color="rgb(43.959045%, 44.71283%, 45.4422%)" offset="0.8125"/><stop stop-opacity="1" stop-color="rgb(43.771362%, 44.519043%, 45.217896%)" offset="0.820312"/><stop stop-opacity="1" stop-color="rgb(43.582153%, 44.325256%, 44.992065%)" offset="0.828125"/><stop stop-opacity="1" stop-color="rgb(43.39447%, 44.13147%, 44.767761%)" offset="0.835937"/><stop stop-opacity="1" stop-color="rgb(43.206787%, 43.939209%, 44.541931%)" offset="0.84375"/><stop stop-opacity="1" stop-color="rgb(43.017578%, 43.745422%, 44.317627%)" offset="0.851562"/><stop stop-opacity="1" stop-color="rgb(42.829895%, 43.551636%, 44.091797%)" offset="0.859375"/><stop stop-opacity="1" stop-color="rgb(42.640686%, 43.359375%, 43.867493%)" offset="0.867188"/><stop stop-opacity="1" stop-color="rgb(42.453003%, 43.165588%, 43.641663%)" offset="0.875"/><stop stop-opacity="1" stop-color="rgb(42.26532%, 42.971802%, 43.417358%)" offset="0.882812"/><stop stop-opacity="1" stop-color="rgb(42.085266%, 42.78717%, 43.202209%)" offset="0.890625"/><stop stop-opacity="1" stop-color="rgb(41.999817%, 42.698669%, 43.099976%)" offset="0.90625"/><stop stop-opacity="1" stop-color="rgb(41.999817%, 42.698669%, 43.099976%)" offset="0.9375"/><stop stop-opacity="1" stop-color="rgb(41.999817%, 42.698669%, 43.099976%)" offset="1"/></linearGradient><clipPath id="59f3dff3d3"><path d="M 9 254 L 83 254 L 83 371 L 9 371 Z M 9 254 " clip-rule="nonzero"/></clipPath><clipPath id="13b2217206"><path d="M 58.882812 256.03125 L 14.011719 294.160156 C 13.300781 294.765625 12.664062 295.441406 12.101562 296.1875 C 11.539062 296.933594 11.066406 297.734375 10.679688 298.585938 C 10.296875 299.433594 10.007812 300.320312 9.820312 301.234375 C 9.628906 302.148438 9.542969 303.074219 9.558594 304.007812 L 9.722656 313.664062 C 9.75 315.296875 10.082031 316.871094 10.71875 318.378906 C 11.355469 319.882812 12.253906 321.21875 13.410156 322.375 L 59.144531 368.246094 C 59.53125 368.636719 59.949219 368.984375 60.402344 369.292969 C 60.855469 369.605469 61.335938 369.871094 61.835938 370.09375 C 62.339844 370.3125 62.859375 370.484375 63.394531 370.609375 C 63.929688 370.734375 64.472656 370.808594 65.019531 370.828125 C 65.570312 370.851562 66.113281 370.824219 66.65625 370.742188 C 67.203125 370.664062 67.734375 370.535156 68.253906 370.355469 C 68.769531 370.175781 69.269531 369.953125 69.746094 369.679688 C 70.222656 369.40625 70.671875 369.09375 71.089844 368.738281 L 77.070312 363.65625 C 78.160156 362.730469 78.996094 361.609375 79.578125 360.304688 C 80.164062 358.996094 80.433594 357.625 80.394531 356.195312 L 80.238281 350.726562 C 80.226562 350.3125 80.179688 349.902344 80.089844 349.496094 C 80.003906 349.089844 79.882812 348.695312 79.722656 348.3125 C 79.566406 347.925781 79.371094 347.5625 79.148438 347.210938 C 78.921875 346.863281 78.667969 346.539062 78.382812 346.238281 C 78.097656 345.933594 77.789062 345.660156 77.453125 345.414062 C 77.117188 345.167969 76.761719 344.957031 76.390625 344.777344 C 76.015625 344.59375 75.628906 344.449219 75.230469 344.339844 C 74.828125 344.226562 74.421875 344.15625 74.007812 344.121094 L 65.945312 343.414062 C 64.554688 343.292969 63.226562 342.941406 61.957031 342.355469 C 60.691406 341.765625 59.5625 340.980469 58.570312 340 L 53.859375 335.328125 C 52.640625 333.894531 51.773438 332.273438 51.257812 330.460938 C 50.742188 328.652344 50.625 326.816406 50.902344 324.953125 L 53.460938 307.964844 C 53.695312 306.410156 54.195312 304.945312 54.960938 303.570312 C 55.726562 302.195312 56.707031 301 57.90625 299.980469 L 80.15625 281.066406 C 80.492188 280.78125 80.800781 280.460938 81.074219 280.113281 C 81.351562 279.765625 81.589844 279.394531 81.792969 279 C 81.992188 278.605469 82.15625 278.195312 82.277344 277.769531 C 82.398438 277.34375 82.476562 276.910156 82.511719 276.46875 C 82.546875 276.027344 82.539062 275.585938 82.488281 275.144531 C 82.4375 274.703125 82.34375 274.273438 82.210938 273.851562 C 82.074219 273.429688 81.898438 273.023438 81.683594 272.636719 C 81.464844 272.25 81.214844 271.886719 80.929688 271.550781 L 68.390625 256.800781 C 68.105469 256.464844 67.789062 256.15625 67.441406 255.882812 C 67.09375 255.609375 66.722656 255.371094 66.328125 255.167969 C 65.933594 254.964844 65.523438 254.804688 65.097656 254.683594 C 64.671875 254.5625 64.238281 254.484375 63.796875 254.449219 C 63.355469 254.414062 62.914062 254.421875 62.476562 254.472656 C 62.035156 254.523438 61.605469 254.617188 61.183594 254.75 C 60.761719 254.886719 60.355469 255.0625 59.96875 255.277344 C 59.582031 255.492188 59.21875 255.742188 58.882812 256.03125 Z M 36.621094 323.296875 L 26.730469 312.4375 C 26.449219 312.125 26.203125 311.792969 25.992188 311.429688 C 25.78125 311.070312 25.609375 310.691406 25.476562 310.296875 C 25.34375 309.898438 25.253906 309.492188 25.203125 309.078125 C 25.15625 308.660156 25.152344 308.246094 25.191406 307.828125 C 25.226562 307.414062 25.308594 307.003906 25.433594 306.605469 C 25.554688 306.207031 25.71875 305.824219 25.921875 305.457031 C 26.125 305.09375 26.363281 304.75 26.640625 304.4375 C 26.914062 304.121094 27.21875 303.835938 27.550781 303.582031 L 40.660156 293.667969 C 41.984375 303.492188 40.238281 313.375 36.621094 323.296875 Z M 36.621094 323.296875 " clip-rule="nonzero"/></clipPath><linearGradient x1="76.885974" gradientTransform="matrix(1.129412, 0, 0, 1.129412, 0.0000072, 0.00003)" y1="227.443379" x2="16.289351" gradientUnits="userSpaceOnUse" y2="332.865047" id="60a0325ede"><stop stop-opacity="1" stop-color="rgb(60.398865%, 61.599731%, 65.098572%)" offset="0"/><stop stop-opacity="1" stop-color="rgb(60.398865%, 61.599731%, 65.098572%)" offset="0.125"/><stop stop-opacity="1" stop-color="rgb(60.316467%, 61.514282%, 64.99939%)" offset="0.132813"/><stop stop-opacity="1" stop-color="rgb(60.10437%, 61.296082%, 64.746094%)" offset="0.140625"/><stop stop-opacity="1" stop-color="rgb(59.844971%, 61.030579%, 64.43634%)" offset="0.148438"/><stop stop-opacity="1" stop-color="rgb(59.585571%, 60.76355%, 64.126587%)" offset="0.15625"/><stop stop-opacity="1" stop-color="rgb(59.326172%, 60.496521%, 63.816833%)" offset="0.164062"/><stop stop-opacity="1" stop-color="rgb(59.066772%, 60.231018%, 63.505554%)" offset="0.171875"/><stop stop-opacity="1" stop-color="rgb(58.807373%, 59.963989%, 63.195801%)" offset="0.179688"/><stop stop-opacity="1" stop-color="rgb(58.547974%, 59.698486%, 62.886047%)" offset="0.1875"/><stop stop-opacity="1" stop-color="rgb(58.288574%, 59.431458%, 62.576294%)" offset="0.195313"/><stop stop-opacity="1" stop-color="rgb(58.029175%, 59.164429%, 62.265015%)" offset="0.203125"/><stop stop-opacity="1" stop-color="rgb(57.771301%, 58.898926%, 61.955261%)" offset="0.210938"/><stop stop-opacity="1" stop-color="rgb(57.511902%, 58.631897%, 61.645508%)" offset="0.21875"/><stop stop-opacity="1" stop-color="rgb(57.252502%, 58.366394%, 61.335754%)" offset="0.226563"/><stop stop-opacity="1" stop-color="rgb(56.993103%, 58.099365%, 61.026001%)" offset="0.234375"/><stop stop-opacity="1" stop-color="rgb(56.733704%, 57.833862%, 60.714722%)" offset="0.242188"/><stop stop-opacity="1" stop-color="rgb(56.474304%, 57.566833%, 60.404968%)" offset="0.25"/><stop stop-opacity="1" stop-color="rgb(56.214905%, 57.299805%, 60.095215%)" offset="0.257813"/><stop stop-opacity="1" stop-color="rgb(55.955505%, 57.034302%, 59.785461%)" offset="0.264919"/><stop stop-opacity="1" stop-color="rgb(55.825806%, 56.90155%, 59.631348%)" offset="0.265625"/><stop stop-opacity="1" stop-color="rgb(55.696106%, 56.767273%, 59.475708%)" offset="0.273438"/><stop stop-opacity="1" stop-color="rgb(55.436707%, 56.50177%, 59.164429%)" offset="0.28125"/><stop stop-opacity="1" stop-color="rgb(55.177307%, 56.234741%, 58.854675%)" offset="0.289063"/><stop stop-opacity="1" stop-color="rgb(54.917908%, 55.967712%, 58.544922%)" offset="0.296875"/><stop stop-opacity="1" stop-color="rgb(54.658508%, 55.702209%, 58.235168%)" offset="0.304688"/><stop stop-opacity="1" stop-color="rgb(54.399109%, 55.435181%, 57.923889%)" offset="0.3125"/><stop stop-opacity="1" stop-color="rgb(54.139709%, 55.169678%, 57.614136%)" offset="0.320313"/><stop stop-opacity="1" stop-color="rgb(53.88031%, 54.902649%, 57.304382%)" offset="0.328125"/><stop stop-opacity="1" stop-color="rgb(53.620911%, 54.637146%, 56.994629%)" offset="0.335938"/><stop stop-opacity="1" stop-color="rgb(53.361511%, 54.370117%, 56.684875%)" offset="0.34375"/><stop stop-opacity="1" stop-color="rgb(53.102112%, 54.103088%, 56.373596%)" offset="0.351563"/><stop stop-opacity="1" stop-color="rgb(52.842712%, 53.837585%, 56.063843%)" offset="0.359375"/><stop stop-opacity="1" stop-color="rgb(52.583313%, 53.570557%, 55.754089%)" offset="0.367188"/><stop stop-opacity="1" stop-color="rgb(52.323914%, 53.305054%, 55.444336%)" offset="0.375"/><stop stop-opacity="1" stop-color="rgb(52.064514%, 53.038025%, 55.134583%)" offset="0.382813"/><stop stop-opacity="1" stop-color="rgb(51.805115%, 52.772522%, 54.823303%)" offset="0.390625"/><stop stop-opacity="1" stop-color="rgb(51.545715%, 52.505493%, 54.51355%)" offset="0.398438"/><stop stop-opacity="1" stop-color="rgb(51.286316%, 52.238464%, 54.203796%)" offset="0.40625"/><stop stop-opacity="1" stop-color="rgb(51.028442%, 51.972961%, 53.894043%)" offset="0.414062"/><stop stop-opacity="1" stop-color="rgb(50.769043%, 51.705933%, 53.582764%)" offset="0.421875"/><stop stop-opacity="1" stop-color="rgb(50.509644%, 51.44043%, 53.27301%)" offset="0.429688"/><stop stop-opacity="1" stop-color="rgb(50.250244%, 51.173401%, 52.963257%)" offset="0.4375"/><stop stop-opacity="1" stop-color="rgb(49.990845%, 50.906372%, 52.653503%)" offset="0.445312"/><stop stop-opacity="1" stop-color="rgb(49.731445%, 50.640869%, 52.34375%)" offset="0.453125"/><stop stop-opacity="1" stop-color="rgb(49.472046%, 50.37384%, 52.032471%)" offset="0.460938"/><stop stop-opacity="1" stop-color="rgb(49.212646%, 50.108337%, 51.722717%)" offset="0.46875"/><stop stop-opacity="1" stop-color="rgb(48.953247%, 49.841309%, 51.412964%)" offset="0.476562"/><stop stop-opacity="1" stop-color="rgb(48.693848%, 49.575806%, 51.10321%)" offset="0.484375"/><stop stop-opacity="1" stop-color="rgb(48.434448%, 49.308777%, 50.793457%)" offset="0.492188"/><stop stop-opacity="1" stop-color="rgb(48.175049%, 49.041748%, 50.482178%)" offset="0.5"/><stop stop-opacity="1" stop-color="rgb(47.915649%, 48.776245%, 50.172424%)" offset="0.507812"/><stop stop-opacity="1" stop-color="rgb(47.65625%, 48.509216%, 49.862671%)" offset="0.515625"/><stop stop-opacity="1" stop-color="rgb(47.396851%, 48.243713%, 49.552917%)" offset="0.523438"/><stop stop-opacity="1" stop-color="rgb(47.137451%, 47.976685%, 49.241638%)" offset="0.53125"/><stop stop-opacity="1" stop-color="rgb(46.878052%, 47.709656%, 48.931885%)" offset="0.539062"/><stop stop-opacity="1" stop-color="rgb(46.618652%, 47.444153%, 48.622131%)" offset="0.546875"/><stop stop-opacity="1" stop-color="rgb(46.359253%, 47.177124%, 48.312378%)" offset="0.554688"/><stop stop-opacity="1" stop-color="rgb(46.099854%, 46.911621%, 48.002625%)" offset="0.5625"/><stop stop-opacity="1" stop-color="rgb(45.840454%, 46.644592%, 47.691345%)" offset="0.570313"/><stop stop-opacity="1" stop-color="rgb(45.581055%, 46.379089%, 47.381592%)" offset="0.578125"/><stop stop-opacity="1" stop-color="rgb(45.321655%, 46.112061%, 47.071838%)" offset="0.585938"/><stop stop-opacity="1" stop-color="rgb(45.062256%, 45.845032%, 46.762085%)" offset="0.59375"/><stop stop-opacity="1" stop-color="rgb(44.802856%, 45.579529%, 46.452332%)" offset="0.601563"/><stop stop-opacity="1" stop-color="rgb(44.543457%, 45.3125%, 46.141052%)" offset="0.609375"/><stop stop-opacity="1" stop-color="rgb(44.284058%, 45.046997%, 45.831299%)" offset="0.617188"/><stop stop-opacity="1" stop-color="rgb(44.026184%, 44.779968%, 45.521545%)" offset="0.625"/><stop stop-opacity="1" stop-color="rgb(43.766785%, 44.514465%, 45.211792%)" offset="0.632813"/><stop stop-opacity="1" stop-color="rgb(43.507385%, 44.247437%, 44.900513%)" offset="0.640625"/><stop stop-opacity="1" stop-color="rgb(43.247986%, 43.980408%, 44.590759%)" offset="0.648438"/><stop stop-opacity="1" stop-color="rgb(42.988586%, 43.714905%, 44.281006%)" offset="0.65625"/><stop stop-opacity="1" stop-color="rgb(42.729187%, 43.447876%, 43.971252%)" offset="0.664063"/><stop stop-opacity="1" stop-color="rgb(42.469788%, 43.182373%, 43.661499%)" offset="0.671875"/><stop stop-opacity="1" stop-color="rgb(42.210388%, 42.915344%, 43.35022%)" offset="0.679688"/><stop stop-opacity="1" stop-color="rgb(42.03949%, 42.739868%, 43.147278%)" offset="0.6875"/><stop stop-opacity="1" stop-color="rgb(41.999817%, 42.698669%, 43.099976%)" offset="0.735081"/><stop stop-opacity="1" stop-color="rgb(41.999817%, 42.698669%, 43.099976%)" offset="0.75"/><stop stop-opacity="1" stop-color="rgb(41.999817%, 42.698669%, 43.099976%)" offset="1"/></linearGradient></defs><g clip-path="url(#127d05a4f9)"><g clip-path="url(#8a9855ab72)"><path fill="url(#9d024a76c1)" d="M 219.949219 220.230469 L 219.949219 278.246094 L 300.804688 278.246094 L 300.804688 220.230469 Z M 219.949219 220.230469 " fill-rule="nonzero"/></g></g><path fill="#34363a" d="M 241.402344 268.710938 C 243.453125 269.554688 245.5625 270.371094 247.738281 271.15625 L 260.042969 231.980469 L 253.539062 230.074219 Z M 267.011719 276.425781 C 269.21875 276.832031 271.453125 277.175781 273.71875 277.449219 L 281.746094 238.347656 L 275.21875 236.4375 Z M 168.832031 247.777344 C 168.832031 247.777344 179.691406 259.4375 192.203125 258.484375 C 192.589844 258.445312 192.917969 258.289062 193.191406 258.015625 C 193.464844 257.742188 193.625 257.414062 193.664062 257.027344 C 193.703125 256.644531 193.617188 256.289062 193.40625 255.96875 C 193.195312 255.644531 192.90625 255.421875 192.539062 255.304688 C 186.976562 253.449219 179.566406 249.214844 178.238281 239.707031 Z M 168.832031 247.777344 " fill-opacity="1" fill-rule="nonzero"/><path fill="#34363a" d="M 177.863281 263.207031 C 177.863281 263.207031 179.324219 264.628906 184.179688 265.050781 C 194.332031 265.933594 201.113281 254.90625 201.113281 254.90625 C 201.113281 254.90625 205.648438 247.941406 201.355469 241.761719 L 207.488281 239.296875 L 209.480469 251.097656 L 206.507812 257.199219 C 205.578125 259.105469 204.285156 260.726562 202.636719 262.0625 L 194.234375 268.863281 C 192.503906 270.347656 190.59375 271.550781 188.507812 272.472656 C 186.421875 273.390625 184.246094 273.992188 181.980469 274.269531 Z M 177.863281 263.207031 " fill-opacity="1" fill-rule="nonzero"/><g clip-path="url(#5152728ee0)"><g clip-path="url(#460962d81e)"><path fill="url(#617d68817a)" d="M 198.925781 39.332031 L 198.925781 168.914062 L 334.53125 168.914062 L 334.53125 39.332031 Z M 198.925781 39.332031 " fill-rule="nonzero"/></g></g><path fill="#34363a" d="M 197.242188 151.507812 C 196.832031 153.476562 196.207031 156.476562 195.550781 159.695312 L 217.441406 174.445312 L 223.949219 168.910156 C 221.246094 166.996094 216.078125 162.414062 215.75 155.160156 C 215.722656 154.117188 215.804688 153.082031 216.003906 152.054688 C 216.199219 151.03125 216.507812 150.039062 216.921875 149.082031 C 217.339844 148.121094 217.855469 147.222656 218.472656 146.375 C 219.085938 145.53125 219.789062 144.765625 220.570312 144.074219 L 241.546875 125.148438 C 241.800781 124.917969 242.015625 124.65625 242.191406 124.359375 C 242.367188 124.0625 242.496094 123.746094 242.574219 123.414062 C 242.652344 123.078125 242.683594 122.738281 242.660156 122.394531 C 242.632812 122.054688 242.5625 121.722656 242.4375 121.402344 L 239.726562 114.414062 L 201.589844 145.976562 Z M 197.242188 151.507812 " fill-opacity="1" fill-rule="nonzero"/><g clip-path="url(#a208f16b47)"><g clip-path="url(#977b1bb200)"><path fill="url(#209a5d1177)" d="M 112.777344 105.382812 L 112.777344 242.578125 L 240.019531 242.578125 L 240.019531 105.382812 Z M 112.777344 105.382812 " fill-rule="nonzero"/></g></g><path fill="#34363a" d="M 135.09375 220.269531 L 131.089844 215.527344 C 131.089844 215.527344 124.921875 220.628906 120.4375 224.324219 L 129.625 241.25 L 145.234375 242.160156 L 179.894531 211.410156 L 170.023438 201.363281 L 146.667969 221.226562 C 146.257812 221.578125 145.816406 221.882812 145.34375 222.144531 C 144.871094 222.410156 144.378906 222.621094 143.867188 222.789062 C 143.351562 222.953125 142.828125 223.066406 142.292969 223.128906 C 141.757812 223.1875 141.21875 223.199219 140.679688 223.152344 C 140.144531 223.109375 139.617188 223.011719 139.097656 222.863281 C 138.578125 222.714844 138.078125 222.515625 137.597656 222.269531 C 137.121094 222.023438 136.667969 221.730469 136.246094 221.394531 C 135.824219 221.058594 135.441406 220.683594 135.09375 220.269531 Z M 295.585938 229.460938 C 281.457031 228.09375 251.003906 223.023438 226.707031 204.277344 L 207.488281 249.621094 C 212.988281 253.722656 218.753906 257.410156 224.785156 260.6875 L 232.320312 238.382812 C 232.511719 237.828125 232.757812 237.296875 233.054688 236.789062 C 233.355469 236.285156 233.707031 235.816406 234.105469 235.382812 C 234.5 234.949219 234.941406 234.5625 235.417969 234.222656 C 235.898438 233.882812 236.40625 233.59375 236.945312 233.359375 C 237.488281 233.125 238.042969 232.949219 238.621094 232.832031 C 239.195312 232.714844 239.777344 232.65625 240.367188 232.660156 C 240.953125 232.664062 241.535156 232.730469 242.109375 232.855469 C 242.683594 232.980469 243.238281 233.164062 243.777344 233.40625 C 259.496094 240.425781 279.253906 245.957031 300.8125 243.933594 L 301.941406 237.945312 C 302.035156 237.457031 302.074219 236.960938 302.066406 236.464844 C 302.054688 235.964844 301.992188 235.472656 301.882812 234.988281 C 301.769531 234.5 301.609375 234.03125 301.398438 233.578125 C 301.1875 233.128906 300.933594 232.703125 300.632812 232.300781 C 300.335938 231.902344 299.996094 231.539062 299.621094 231.210938 C 299.246094 230.882812 298.84375 230.59375 298.40625 230.351562 C 297.972656 230.105469 297.519531 229.910156 297.042969 229.757812 C 296.566406 229.609375 296.082031 229.511719 295.585938 229.460938 Z M 61.007812 347.179688 L 70.839844 282.824219 L 50.105469 300.441406 L 44.671875 334.175781 C 44.671875 334.175781 49.320312 346.828125 61.007812 347.179688 Z M 64.425781 262.753906 L 94.953125 236.792969 L 104.488281 248 L 73.957031 273.964844 Z M 319.296875 51.53125 L 363.183594 14.210938 C 363.433594 13.996094 363.699219 13.8125 363.988281 13.652344 C 364.273438 13.492188 364.574219 13.363281 364.886719 13.261719 C 365.199219 13.160156 365.515625 13.089844 365.84375 13.054688 C 366.167969 13.015625 366.496094 13.007812 366.824219 13.035156 C 367.148438 13.0625 367.472656 13.121094 367.789062 13.210938 C 368.101562 13.300781 368.40625 13.417969 368.699219 13.570312 C 368.992188 13.71875 369.265625 13.894531 369.523438 14.097656 C 369.78125 14.300781 370.015625 14.53125 370.226562 14.78125 L 373.28125 18.371094 C 373.496094 18.621094 373.679688 18.890625 373.839844 19.175781 C 374 19.460938 374.128906 19.761719 374.230469 20.074219 C 374.332031 20.386719 374.402344 20.707031 374.4375 21.03125 C 374.476562 21.359375 374.484375 21.683594 374.457031 22.011719 C 374.429688 22.339844 374.371094 22.660156 374.28125 22.976562 C 374.191406 23.292969 374.074219 23.59375 373.921875 23.886719 C 373.773438 24.179688 373.597656 24.453125 373.394531 24.710938 C 373.191406 24.96875 372.960938 25.203125 372.710938 25.417969 L 328.824219 62.738281 Z M 319.296875 51.53125 " fill-opacity="1" fill-rule="nonzero"/><path fill="#34363a" d="M 112.777344 210.21875 L 122.464844 228.0625 L 144.191406 209.597656 C 144.726562 209.140625 145.214844 208.640625 145.648438 208.089844 C 146.085938 207.539062 146.464844 206.953125 146.785156 206.328125 C 147.105469 205.703125 147.363281 205.050781 147.554688 204.375 C 147.746094 203.699219 147.871094 203.011719 147.925781 202.3125 C 147.984375 201.613281 147.972656 200.914062 147.890625 200.214844 C 147.808594 199.519531 147.664062 198.835938 147.445312 198.167969 C 147.230469 197.5 146.953125 196.859375 146.609375 196.242188 C 146.269531 195.628906 145.871094 195.054688 145.417969 194.519531 L 139.472656 187.527344 Z M 112.777344 210.21875 " fill-opacity="1" fill-rule="nonzero"/><g clip-path="url(#a7c0ccd006)"><g clip-path="url(#252f79c9a0)"><path fill="url(#95167fcd2b)" d="M 90.246094 183.179688 L 90.246094 263.207031 L 232.480469 263.207031 L 232.480469 183.179688 Z M 90.246094 183.179688 " fill-rule="nonzero"/></g></g><path fill="#34363a" d="M 121.96875 259.449219 L 123.316406 253.542969 C 123.378906 253.253906 123.492188 252.980469 123.644531 252.726562 C 123.800781 252.476562 123.992188 252.253906 124.21875 252.0625 C 124.445312 251.875 124.699219 251.726562 124.976562 251.621094 C 125.253906 251.511719 125.539062 251.453125 125.835938 251.441406 C 128.109375 251.40625 130.367188 251.5625 132.613281 251.90625 C 134.859375 252.25 137.0625 252.777344 139.21875 253.492188 C 141.378906 254.207031 143.460938 255.09375 145.46875 256.160156 C 147.476562 257.222656 149.382812 258.445312 151.183594 259.828125 C 151.558594 260.109375 151.949219 260.355469 152.363281 260.570312 C 152.777344 260.78125 153.203125 260.960938 153.648438 261.101562 C 154.089844 261.242188 154.542969 261.347656 155.003906 261.410156 C 155.460938 261.476562 155.925781 261.503906 156.390625 261.492188 C 156.855469 261.476562 157.316406 261.425781 157.773438 261.335938 C 158.226562 261.246094 158.671875 261.117188 159.109375 260.953125 C 159.542969 260.789062 159.960938 260.585938 160.363281 260.351562 C 160.761719 260.117188 161.140625 259.847656 161.496094 259.550781 L 169.195312 253.007812 L 182.441406 268.59375 C 182.613281 268.792969 182.761719 269.011719 182.890625 269.242188 C 183.019531 269.472656 183.125 269.714844 183.207031 269.964844 C 183.285156 270.21875 183.34375 270.472656 183.371094 270.738281 C 183.402344 271 183.40625 271.261719 183.386719 271.523438 C 183.363281 271.789062 183.316406 272.046875 183.246094 272.300781 C 183.171875 272.554688 183.078125 272.800781 182.957031 273.035156 C 182.835938 273.269531 182.695312 273.492188 182.53125 273.699219 C 182.363281 273.90625 182.183594 274.09375 181.980469 274.265625 L 179.941406 276 C 178.273438 277.414062 176.929688 279.085938 175.902344 281.015625 C 174.875 282.945312 174.242188 285 174.003906 287.171875 C 173.59375 291.382812 173.746094 295.570312 174.460938 299.742188 C 175.171875 303.914062 176.421875 307.914062 178.203125 311.75 C 178.722656 312.925781 179.457031 313.945312 180.410156 314.804688 C 181.363281 315.664062 182.449219 316.292969 183.671875 316.6875 C 184.960938 317.085938 186.175781 317.648438 187.320312 318.371094 C 187.777344 318.671875 188.191406 319.027344 188.554688 319.441406 C 188.917969 319.855469 189.222656 320.308594 189.464844 320.800781 C 189.707031 321.296875 189.878906 321.8125 189.980469 322.355469 C 190.082031 322.894531 190.109375 323.441406 190.066406 323.988281 C 190.019531 324.535156 189.902344 325.070312 189.714844 325.585938 C 189.527344 326.101562 189.273438 326.585938 188.953125 327.035156 C 188.632812 327.480469 188.261719 327.878906 187.832031 328.226562 C 187.40625 328.574219 186.941406 328.859375 186.4375 329.082031 L 163.058594 339.472656 C 162.605469 339.671875 162.140625 339.832031 161.65625 339.953125 C 161.175781 340.074219 160.6875 340.152344 160.195312 340.191406 C 159.699219 340.226562 159.203125 340.222656 158.710938 340.175781 C 158.214844 340.125 157.730469 340.035156 157.253906 339.90625 C 156.773438 339.773438 156.308594 339.601562 155.859375 339.390625 C 155.410156 339.179688 154.984375 338.929688 154.578125 338.644531 C 154.171875 338.359375 153.792969 338.042969 153.441406 337.695312 C 153.089844 337.34375 152.769531 336.964844 152.484375 336.5625 C 146.125 327.625 135.71875 308.175781 139 279.691406 C 139.074219 279.039062 139.09375 278.382812 139.054688 277.726562 C 139.015625 277.070312 138.921875 276.421875 138.773438 275.785156 C 138.625 275.144531 138.421875 274.519531 138.164062 273.914062 C 137.910156 273.308594 137.601562 272.730469 137.246094 272.179688 C 136.890625 271.625 136.488281 271.109375 136.042969 270.625 C 135.597656 270.140625 135.117188 269.699219 134.59375 269.296875 C 134.074219 268.898438 133.523438 268.542969 132.941406 268.238281 C 132.359375 267.933594 131.753906 267.679688 131.128906 267.480469 C 129.738281 267.039062 128.316406 266.722656 126.871094 266.535156 C 126.46875 266.480469 126.078125 266.386719 125.695312 266.25 C 125.3125 266.113281 124.949219 265.941406 124.605469 265.726562 C 124.257812 265.515625 123.9375 265.269531 123.644531 264.992188 C 123.347656 264.714844 123.085938 264.40625 122.855469 264.074219 C 122.625 263.742188 122.429688 263.386719 122.273438 263.011719 C 122.117188 262.640625 122 262.253906 121.925781 261.855469 C 121.847656 261.457031 121.8125 261.054688 121.820312 260.648438 C 121.828125 260.242188 121.878906 259.84375 121.96875 259.449219 Z M 170.105469 201.304688 C 170.558594 200.917969 171.046875 200.578125 171.566406 200.289062 C 172.089844 200 172.632812 199.761719 173.199219 199.578125 C 173.769531 199.394531 174.347656 199.269531 174.941406 199.203125 C 175.53125 199.132812 176.125 199.121094 176.71875 199.171875 C 177.316406 199.21875 177.898438 199.324219 178.472656 199.488281 C 179.046875 199.648438 179.597656 199.867188 180.128906 200.140625 C 180.660156 200.410156 181.160156 200.730469 181.625 201.101562 C 182.09375 201.472656 182.519531 201.882812 182.90625 202.339844 L 192.628906 213.769531 C 192.824219 214 192.96875 214.257812 193.0625 214.546875 C 193.15625 214.835938 193.1875 215.132812 193.164062 215.433594 C 193.140625 215.734375 193.058594 216.019531 192.921875 216.289062 C 192.78125 216.558594 192.597656 216.792969 192.367188 216.988281 L 184.378906 223.78125 C 184.109375 224.011719 183.820312 224.210938 183.511719 224.382812 C 183.203125 224.558594 182.878906 224.699219 182.542969 224.804688 C 182.203125 224.914062 181.859375 224.988281 181.507812 225.03125 C 181.15625 225.070312 180.804688 225.078125 180.449219 225.050781 C 180.097656 225.019531 179.75 224.957031 179.410156 224.863281 C 179.070312 224.765625 178.742188 224.636719 178.425781 224.472656 C 178.109375 224.3125 177.8125 224.121094 177.535156 223.902344 C 177.257812 223.683594 177.003906 223.4375 176.777344 223.167969 L 169.070312 214.105469 C 168.683594 213.652344 168.34375 213.164062 168.054688 212.644531 C 167.765625 212.121094 167.527344 211.578125 167.34375 211.011719 C 167.160156 210.441406 167.035156 209.863281 166.96875 209.269531 C 166.898438 208.679688 166.886719 208.085938 166.9375 207.492188 C 166.984375 206.894531 167.089844 206.3125 167.253906 205.738281 C 167.414062 205.164062 167.632812 204.613281 167.90625 204.082031 C 168.175781 203.550781 168.5 203.050781 168.867188 202.585938 C 169.238281 202.117188 169.652344 201.691406 170.105469 201.304688 Z M 121.511719 183.96875 L 297.636719 34.191406 C 298.050781 33.84375 298.492188 33.539062 298.960938 33.273438 C 299.433594 33.011719 299.925781 32.796875 300.4375 32.632812 C 300.953125 32.46875 301.476562 32.351562 302.011719 32.292969 C 302.546875 32.230469 303.085938 32.21875 303.621094 32.261719 C 304.160156 32.304688 304.6875 32.402344 305.207031 32.550781 C 305.726562 32.695312 306.226562 32.894531 306.707031 33.140625 C 307.1875 33.386719 307.636719 33.675781 308.0625 34.011719 C 308.484375 34.34375 308.871094 34.71875 309.21875 35.128906 L 313.195312 39.804688 L 130.8125 194.902344 Z M 121.511719 183.96875 " fill-opacity="1" fill-rule="nonzero"/><path fill="#34363a" d="M 188.855469 211.410156 L 211.820312 189.875 C 209.976562 187.84375 208.421875 185.613281 207.160156 183.179688 L 183.539062 203.257812 Z M 101.40625 196.851562 L 119.082031 181.824219 C 119.402344 181.546875 119.75 181.308594 120.121094 181.101562 C 120.492188 180.894531 120.878906 180.726562 121.28125 180.597656 C 121.683594 180.464844 122.097656 180.375 122.519531 180.328125 C 122.941406 180.277344 123.363281 180.273438 123.785156 180.304688 C 124.207031 180.339844 124.621094 180.414062 125.03125 180.53125 C 125.4375 180.648438 125.832031 180.800781 126.207031 180.996094 C 126.585938 181.1875 126.941406 181.417969 127.273438 181.679688 C 127.605469 181.941406 127.910156 182.234375 128.183594 182.558594 L 135.390625 191.03125 L 107.875 214.425781 L 100.671875 205.953125 C 100.398438 205.632812 100.15625 205.285156 99.949219 204.914062 C 99.742188 204.542969 99.574219 204.15625 99.445312 203.753906 C 99.316406 203.351562 99.226562 202.9375 99.175781 202.515625 C 99.128906 202.09375 99.121094 201.671875 99.15625 201.25 C 99.191406 200.828125 99.265625 200.414062 99.378906 200.003906 C 99.496094 199.597656 99.652344 199.207031 99.84375 198.828125 C 100.039062 198.449219 100.265625 198.097656 100.527344 197.761719 C 100.792969 197.429688 101.085938 197.128906 101.40625 196.851562 Z M 342.382812 42.394531 L 337.167969 36.253906 C 336.96875 36.019531 336.792969 35.769531 336.644531 35.5 C 336.492188 35.230469 336.371094 34.949219 336.277344 34.65625 C 336.183594 34.363281 336.117188 34.066406 336.082031 33.761719 C 336.046875 33.453125 336.042969 33.148438 336.066406 32.84375 C 336.09375 32.535156 336.148438 32.234375 336.230469 31.9375 C 336.316406 31.644531 336.425781 31.359375 336.566406 31.085938 C 336.707031 30.8125 336.875 30.554688 337.0625 30.3125 C 337.253906 30.070312 337.46875 29.851562 337.703125 29.652344 L 340.234375 27.5 C 340.46875 27.300781 340.71875 27.125 340.988281 26.976562 C 341.257812 26.828125 341.539062 26.707031 341.832031 26.609375 C 342.125 26.515625 342.421875 26.453125 342.726562 26.417969 C 343.035156 26.382812 343.339844 26.375 343.644531 26.402344 C 343.953125 26.425781 344.253906 26.480469 344.550781 26.5625 C 344.84375 26.648438 345.128906 26.761719 345.402344 26.902344 C 345.675781 27.042969 345.933594 27.207031 346.175781 27.398438 C 346.417969 27.589844 346.636719 27.800781 346.835938 28.035156 L 352.078125 34.203125 C 351.015625 36.113281 349.652344 37.777344 347.980469 39.1875 C 346.3125 40.597656 344.445312 41.664062 342.382812 42.394531 Z M 253.984375 131.238281 L 262.398438 136.238281 L 247.1875 149.160156 L 239.402344 144.53125 C 239.226562 144.425781 239.066406 144.304688 238.921875 144.160156 C 238.773438 144.019531 238.648438 143.859375 238.539062 143.6875 C 238.429688 143.515625 238.34375 143.332031 238.28125 143.136719 C 238.214844 142.945312 238.175781 142.746094 238.15625 142.542969 C 238.140625 142.339844 238.148438 142.136719 238.179688 141.933594 C 238.210938 141.734375 238.265625 141.539062 238.34375 141.347656 C 238.421875 141.160156 238.519531 140.984375 238.640625 140.820312 C 238.757812 140.652344 238.898438 140.503906 239.050781 140.375 L 249.351562 131.621094 C 249.667969 131.351562 250.019531 131.136719 250.40625 130.976562 C 250.789062 130.816406 251.191406 130.722656 251.605469 130.6875 C 252.023438 130.652344 252.433594 130.683594 252.839844 130.777344 C 253.246094 130.871094 253.628906 131.023438 253.984375 131.238281 Z M 281.789062 107.605469 L 290.203125 112.605469 L 274.992188 125.53125 L 267.207031 120.902344 C 267.03125 120.796875 266.871094 120.671875 266.722656 120.53125 C 266.578125 120.386719 266.453125 120.230469 266.34375 120.058594 C 266.234375 119.882812 266.148438 119.703125 266.085938 119.507812 C 266.019531 119.3125 265.980469 119.117188 265.960938 118.914062 C 265.945312 118.710938 265.953125 118.507812 265.984375 118.304688 C 266.015625 118.105469 266.070312 117.910156 266.144531 117.71875 C 266.222656 117.53125 266.324219 117.355469 266.441406 117.191406 C 266.5625 117.023438 266.699219 116.875 266.855469 116.742188 L 277.152344 107.992188 C 277.472656 107.722656 277.824219 107.507812 278.207031 107.347656 C 278.59375 107.1875 278.992188 107.089844 279.410156 107.054688 C 279.824219 107.019531 280.234375 107.050781 280.640625 107.144531 C 281.046875 107.238281 281.429688 107.390625 281.789062 107.605469 Z M 309.585938 83.976562 L 318 88.976562 L 302.796875 101.902344 L 295.011719 97.273438 C 294.835938 97.167969 294.675781 97.046875 294.53125 96.902344 C 294.382812 96.761719 294.257812 96.601562 294.148438 96.429688 C 294.039062 96.257812 293.953125 96.074219 293.890625 95.878906 C 293.824219 95.6875 293.785156 95.488281 293.765625 95.285156 C 293.75 95.082031 293.757812 94.878906 293.785156 94.675781 C 293.816406 94.476562 293.871094 94.28125 293.949219 94.089844 C 294.027344 93.902344 294.128906 93.726562 294.246094 93.5625 C 294.367188 93.394531 294.503906 93.246094 294.660156 93.117188 L 304.957031 84.363281 C 305.277344 84.09375 305.628906 83.878906 306.011719 83.71875 C 306.394531 83.558594 306.796875 83.464844 307.210938 83.429688 C 307.625 83.394531 308.035156 83.421875 308.441406 83.515625 C 308.847656 83.609375 309.230469 83.761719 309.585938 83.976562 Z M 339.09375 63.347656 L 334.53125 57.980469 L 321.59375 68.980469 C 321.4375 69.109375 321.300781 69.257812 321.179688 69.425781 C 321.058594 69.589844 320.960938 69.765625 320.882812 69.953125 C 320.804688 70.144531 320.75 70.339844 320.71875 70.539062 C 320.6875 70.742188 320.679688 70.945312 320.699219 71.148438 C 320.714844 71.351562 320.757812 71.550781 320.820312 71.742188 C 320.886719 71.9375 320.972656 72.121094 321.078125 72.292969 C 321.1875 72.464844 321.316406 72.625 321.460938 72.765625 C 321.605469 72.910156 321.765625 73.03125 321.941406 73.136719 L 330.585938 78.273438 L 338.421875 71.617188 C 338.714844 71.367188 338.980469 71.09375 339.21875 70.789062 C 339.460938 70.488281 339.667969 70.167969 339.84375 69.824219 C 340.019531 69.480469 340.160156 69.125 340.265625 68.753906 C 340.371094 68.382812 340.441406 68.003906 340.472656 67.621094 C 340.503906 67.238281 340.496094 66.855469 340.453125 66.472656 C 340.40625 66.089844 340.328125 65.714844 340.207031 65.347656 C 340.089844 64.980469 339.9375 64.628906 339.75 64.292969 C 339.5625 63.957031 339.34375 63.640625 339.09375 63.347656 Z M 267.539062 90.839844 L 263.957031 81.730469 L 248.75 94.660156 L 252.058594 103.085938 C 252.132812 103.277344 252.230469 103.457031 252.347656 103.621094 C 252.464844 103.789062 252.601562 103.941406 252.753906 104.074219 C 252.90625 104.210938 253.074219 104.324219 253.253906 104.417969 C 253.433594 104.515625 253.625 104.585938 253.820312 104.636719 C 254.019531 104.6875 254.21875 104.710938 254.425781 104.714844 C 254.628906 104.714844 254.828125 104.691406 255.027344 104.648438 C 255.226562 104.601562 255.417969 104.53125 255.601562 104.441406 C 255.78125 104.347656 255.949219 104.234375 256.105469 104.105469 L 266.40625 95.351562 C 266.722656 95.082031 266.992188 94.769531 267.210938 94.414062 C 267.429688 94.0625 267.59375 93.683594 267.695312 93.277344 C 267.796875 92.871094 267.832031 92.460938 267.804688 92.046875 C 267.777344 91.628906 267.691406 91.226562 267.539062 90.839844 Z M 295.339844 67.210938 L 291.761719 58.101562 L 276.550781 71.03125 L 279.863281 79.457031 C 279.9375 79.648438 280.03125 79.824219 280.148438 79.992188 C 280.265625 80.160156 280.402344 80.3125 280.554688 80.445312 C 280.707031 80.582031 280.875 80.695312 281.054688 80.789062 C 281.234375 80.886719 281.425781 80.957031 281.621094 81.007812 C 281.820312 81.058594 282.019531 81.082031 282.226562 81.085938 C 282.429688 81.085938 282.628906 81.0625 282.828125 81.015625 C 283.027344 80.972656 283.21875 80.902344 283.402344 80.808594 C 283.582031 80.71875 283.75 80.605469 283.90625 80.472656 L 294.210938 71.71875 C 294.527344 71.449219 294.796875 71.136719 295.015625 70.78125 C 295.238281 70.429688 295.398438 70.050781 295.5 69.644531 C 295.597656 69.242188 295.636719 68.832031 295.609375 68.414062 C 295.582031 68 295.492188 67.597656 295.339844 67.210938 Z M 320.453125 41.414062 L 325.015625 46.777344 L 312.074219 57.777344 C 311.917969 57.910156 311.75 58.019531 311.566406 58.113281 C 311.386719 58.203125 311.195312 58.273438 310.996094 58.320312 C 310.796875 58.367188 310.597656 58.386719 310.390625 58.386719 C 310.1875 58.382812 309.988281 58.359375 309.789062 58.308594 C 309.589844 58.257812 309.402344 58.1875 309.222656 58.09375 C 309.042969 57.996094 308.875 57.882812 308.722656 57.746094 C 308.566406 57.613281 308.433594 57.460938 308.316406 57.296875 C 308.199219 57.128906 308.101562 56.949219 308.027344 56.757812 L 304.351562 47.398438 L 312.183594 40.742188 C 312.476562 40.492188 312.792969 40.273438 313.128906 40.085938 C 313.464844 39.898438 313.816406 39.746094 314.183594 39.628906 C 314.550781 39.511719 314.925781 39.429688 315.308594 39.382812 C 315.691406 39.339844 316.074219 39.332031 316.457031 39.363281 C 316.84375 39.394531 317.21875 39.464844 317.589844 39.570312 C 317.960938 39.675781 318.316406 39.816406 318.660156 39.992188 C 319.003906 40.167969 319.324219 40.375 319.628906 40.613281 C 319.929688 40.855469 320.207031 41.121094 320.453125 41.414062 Z M 320.453125 41.414062 " fill-opacity="1" fill-rule="nonzero"/><g clip-path="url(#59f3dff3d3)"><g clip-path="url(#13b2217206)"><path fill="url(#60a0325ede)" d="M 9.542969 254.414062 L 9.542969 370.851562 L 82.546875 370.851562 L 82.546875 254.414062 Z M 9.542969 254.414062 " fill-rule="nonzero"/></g></g><path fill="#34363a" d="M 356.546875 39.460938 L 352.078125 34.203125 L 342.382812 42.394531 L 346.878906 47.679688 C 347.078125 47.914062 347.296875 48.128906 347.539062 48.320312 C 347.78125 48.511719 348.039062 48.675781 348.3125 48.816406 C 348.585938 48.957031 348.871094 49.070312 349.164062 49.152344 C 349.460938 49.238281 349.761719 49.292969 350.066406 49.316406 C 350.375 49.339844 350.679688 49.335938 350.984375 49.300781 C 351.292969 49.265625 351.589844 49.199219 351.882812 49.105469 C 352.175781 49.011719 352.457031 48.890625 352.726562 48.738281 C 352.992188 48.589844 353.246094 48.414062 353.480469 48.21875 L 356.011719 46.0625 C 356.246094 45.863281 356.460938 45.644531 356.648438 45.402344 C 356.839844 45.164062 357.007812 44.90625 357.148438 44.632812 C 357.289062 44.359375 357.398438 44.074219 357.484375 43.777344 C 357.566406 43.480469 357.621094 43.179688 357.648438 42.875 C 357.671875 42.566406 357.667969 42.261719 357.632812 41.957031 C 357.597656 41.652344 357.53125 41.351562 357.4375 41.058594 C 357.34375 40.765625 357.222656 40.484375 357.070312 40.21875 C 356.921875 39.949219 356.746094 39.695312 356.546875 39.460938 Z M 318.425781 52.378906 L 328.089844 63.457031 C 328.089844 63.457031 330.886719 64.835938 332.976562 66.003906 L 334.535156 57.984375 L 321.78125 42.972656 Z M 168.808594 191.277344 C 168.695312 191.277344 168.59375 191.277344 168.484375 191.265625 C 167.960938 191.222656 167.46875 191.082031 167 190.84375 C 166.535156 190.605469 166.132812 190.285156 165.792969 189.886719 C 165.453125 189.488281 165.203125 189.039062 165.042969 188.539062 C 164.878906 188.039062 164.820312 187.53125 164.863281 187.007812 L 165.175781 183.15625 C 165.292969 181.667969 165.691406 180.261719 166.371094 178.933594 C 167.054688 177.605469 167.960938 176.460938 169.101562 175.496094 L 179.410156 166.734375 C 180.503906 165.800781 181.730469 165.105469 183.09375 164.644531 C 184.460938 164.183594 185.859375 163.996094 187.296875 164.074219 L 191.199219 164.285156 C 191.722656 164.3125 192.21875 164.441406 192.691406 164.667969 C 193.164062 164.894531 193.574219 165.199219 193.925781 165.589844 C 194.277344 165.980469 194.539062 166.421875 194.710938 166.917969 C 194.886719 167.410156 194.960938 167.921875 194.929688 168.441406 C 194.902344 168.964844 194.777344 169.464844 194.550781 169.9375 C 194.324219 170.410156 194.015625 170.820312 193.625 171.171875 C 193.238281 171.523438 192.792969 171.785156 192.300781 171.957031 C 191.804688 172.132812 191.296875 172.207031 190.773438 172.179688 L 186.871094 171.96875 C 185.988281 171.921875 185.207031 172.1875 184.53125 172.761719 L 174.222656 181.519531 C 173.519531 182.117188 173.128906 182.875 173.054688 183.796875 L 172.742188 187.644531 C 172.703125 188.140625 172.574219 188.609375 172.355469 189.054688 C 172.140625 189.503906 171.847656 189.894531 171.484375 190.230469 C 171.121094 190.566406 170.707031 190.824219 170.246094 191.007812 C 169.785156 191.1875 169.304688 191.277344 168.808594 191.277344 Z M 161.992188 246.253906 C 161.644531 246.257812 161.304688 246.203125 160.976562 246.101562 C 160.644531 245.996094 160.335938 245.84375 160.050781 245.648438 C 159.765625 245.449219 159.519531 245.210938 159.308594 244.9375 C 159.09375 244.664062 158.929688 244.363281 158.808594 244.039062 C 158.691406 243.710938 158.621094 243.375 158.605469 243.027344 C 158.589844 242.683594 158.625 242.34375 158.714844 242.007812 C 158.800781 241.671875 158.9375 241.355469 159.121094 241.0625 C 159.308594 240.769531 159.53125 240.511719 159.796875 240.285156 L 167.230469 233.964844 C 167.574219 233.667969 167.957031 233.449219 168.386719 233.308594 C 168.816406 233.164062 169.257812 233.109375 169.710938 233.144531 C 170.160156 233.175781 170.589844 233.296875 170.992188 233.503906 C 171.394531 233.707031 171.742188 233.984375 172.035156 234.328125 C 172.332031 234.671875 172.546875 235.0625 172.683594 235.492188 C 172.820312 235.921875 172.871094 236.363281 172.832031 236.816406 C 172.792969 237.265625 172.667969 237.691406 172.457031 238.09375 C 172.246094 238.496094 171.96875 238.839844 171.621094 239.128906 L 164.183594 245.449219 C 163.554688 245.988281 162.820312 246.257812 161.992188 246.253906 Z M 161.992188 246.253906 " fill-opacity="1" fill-rule="nonzero"/><path fill="#34363a" d="M 117.632812 238.019531 C 117.632812 238.285156 117.609375 238.546875 117.554688 238.804688 C 117.503906 239.066406 117.429688 239.316406 117.328125 239.5625 C 117.226562 239.804688 117.101562 240.039062 116.953125 240.257812 C 116.808594 240.480469 116.640625 240.683594 116.453125 240.871094 C 116.265625 241.058594 116.0625 241.222656 115.84375 241.371094 C 115.621094 241.519531 115.390625 241.644531 115.144531 241.742188 C 114.898438 241.84375 114.648438 241.921875 114.386719 241.972656 C 114.128906 242.023438 113.867188 242.050781 113.601562 242.050781 C 113.335938 242.050781 113.074219 242.023438 112.816406 241.972656 C 112.554688 241.921875 112.304688 241.84375 112.058594 241.742188 C 111.8125 241.644531 111.582031 241.519531 111.363281 241.371094 C 111.140625 241.222656 110.9375 241.058594 110.75 240.871094 C 110.5625 240.683594 110.394531 240.480469 110.25 240.257812 C 110.101562 240.039062 109.976562 239.804688 109.875 239.5625 C 109.777344 239.316406 109.699219 239.066406 109.648438 238.804688 C 109.59375 238.546875 109.570312 238.285156 109.570312 238.019531 C 109.570312 237.753906 109.59375 237.492188 109.648438 237.230469 C 109.699219 236.972656 109.777344 236.71875 109.875 236.476562 C 109.976562 236.230469 110.101562 236 110.25 235.777344 C 110.394531 235.558594 110.5625 235.355469 110.75 235.167969 C 110.9375 234.980469 111.140625 234.8125 111.363281 234.667969 C 111.582031 234.519531 111.8125 234.394531 112.058594 234.292969 C 112.304688 234.191406 112.554688 234.117188 112.816406 234.066406 C 113.074219 234.011719 113.335938 233.988281 113.601562 233.988281 C 113.867188 233.988281 114.128906 234.011719 114.386719 234.066406 C 114.648438 234.117188 114.898438 234.191406 115.144531 234.292969 C 115.390625 234.394531 115.621094 234.519531 115.84375 234.667969 C 116.0625 234.8125 116.265625 234.980469 116.453125 235.167969 C 116.640625 235.355469 116.808594 235.558594 116.953125 235.777344 C 117.101562 236 117.226562 236.230469 117.328125 236.476562 C 117.429688 236.71875 117.503906 236.972656 117.554688 237.230469 C 117.609375 237.492188 117.632812 237.753906 117.632812 238.019531 Z M 117.632812 238.019531 " fill-opacity="1" fill-rule="nonzero"/><path fill="#34363a" d="M 40.660156 293.667969 L 45.234375 293.667969 C 45.59375 293.667969 45.9375 293.742188 46.269531 293.894531 C 46.597656 294.042969 46.882812 294.25 47.121094 294.523438 C 47.359375 294.792969 47.53125 295.101562 47.636719 295.445312 C 47.746094 295.789062 47.773438 296.140625 47.730469 296.5 L 44.648438 321.089844 C 44.609375 321.394531 44.519531 321.683594 44.375 321.957031 C 44.230469 322.226562 44.046875 322.464844 43.816406 322.667969 C 43.585938 322.871094 43.328125 323.023438 43.039062 323.132812 C 42.753906 323.242188 42.457031 323.296875 42.148438 323.296875 L 36.617188 323.296875 Z M 56.1875 282.734375 C 55.839844 282.734375 55.503906 282.683594 55.171875 282.578125 C 54.839844 282.472656 54.53125 282.324219 54.25 282.125 C 53.964844 281.925781 53.714844 281.691406 53.503906 281.414062 C 53.292969 281.140625 53.125 280.839844 53.007812 280.515625 C 52.886719 280.1875 52.820312 279.851562 52.800781 279.507812 C 52.785156 279.160156 52.820312 278.820312 52.910156 278.484375 C 52.996094 278.148438 53.132812 277.835938 53.320312 277.539062 C 53.503906 277.246094 53.726562 276.988281 53.992188 276.761719 L 61.425781 270.445312 C 61.769531 270.144531 62.15625 269.921875 62.585938 269.773438 C 63.015625 269.628906 63.457031 269.574219 63.914062 269.605469 C 64.367188 269.636719 64.796875 269.757812 65.203125 269.960938 C 65.605469 270.167969 65.957031 270.445312 66.25 270.789062 C 66.546875 271.136719 66.761719 271.527344 66.898438 271.960938 C 67.039062 272.394531 67.085938 272.835938 67.042969 273.289062 C 67.003906 273.742188 66.875 274.171875 66.664062 274.574219 C 66.449219 274.972656 66.167969 275.320312 65.816406 275.605469 L 58.378906 281.933594 C 57.75 282.46875 57.015625 282.734375 56.1875 282.734375 Z M 56.1875 282.734375 " fill-opacity="1" fill-rule="nonzero"/></svg>