<svg xmlns="http://www.w3.org/2000/svg" xmlns:xlink="http://www.w3.org/1999/xlink" width="512" zoomAndPan="magnify" viewBox="0 0 384 383.999986" height="512" preserveAspectRatio="xMidYMid meet" version="1.0"><path fill="#c3c5c7" d="M 377.601562 155.46875 L 377.601562 153.601562 C 377.601562 97.046875 331.753906 51.199219 275.199219 51.199219 L 108.800781 51.199219 C 52.246094 51.199219 6.398438 97.046875 6.398438 153.601562 L 6.398438 243.199219 C 6.398438 299.753906 52.246094 345.601562 108.800781 345.601562 L 275.199219 345.601562 C 331.753906 345.601562 377.601562 299.753906 377.601562 243.199219 Z M 377.601562 155.46875 " fill-opacity="1" fill-rule="nonzero"/><path fill="#d1d4d6" d="M 108.800781 51.199219 L 275.199219 51.199219 C 331.753906 51.199219 377.601562 97.046875 377.601562 153.601562 C 377.601562 210.152344 331.753906 256 275.199219 256 L 108.800781 256 C 52.246094 256 6.398438 210.152344 6.398438 153.601562 C 6.398438 97.046875 52.246094 51.199219 108.800781 51.199219 Z M 108.800781 51.199219 " fill-opacity="1" fill-rule="nonzero"/><path fill="#4398d1" d="M 108.800781 230.398438 C 66.382812 230.398438 32 196.015625 32 153.601562 C 32 111.183594 66.382812 76.800781 108.800781 76.800781 L 275.199219 76.800781 C 317.617188 76.800781 352 111.183594 352 153.601562 C 352 196.015625 317.617188 230.398438 275.199219 230.398438 Z M 108.800781 230.398438 " fill-opacity="1" fill-rule="nonzero"/><path fill="#d1d4d6" d="M 185.601562 0 L 198.398438 0 L 198.398438 64 L 185.601562 64 Z M 121.601562 0 L 134.398438 0 L 134.398438 64 L 121.601562 64 Z M 313.601562 6.398438 L 326.398438 6.398438 L 326.398438 70.398438 L 313.601562 70.398438 Z M 249.601562 0 L 262.398438 0 L 262.398438 64 L 249.601562 64 Z M 57.601562 6.398438 L 70.398438 6.398438 L 70.398438 70.398438 L 57.601562 70.398438 Z M 57.601562 6.398438 " fill-opacity="1" fill-rule="nonzero"/><path fill="#e3584b" d="M 198.398438 0 L 224 0 L 224 25.601562 L 198.398438 25.601562 Z M 134.398438 0 L 160 0 L 160 25.601562 L 134.398438 25.601562 Z M 326.398438 6.398438 L 352 6.398438 L 352 32 L 326.398438 32 Z M 262.398438 0 L 288 0 L 288 25.601562 L 262.398438 25.601562 Z M 70.398438 6.398438 L 96 6.398438 L 96 32 L 70.398438 32 Z M 70.398438 6.398438 " fill-opacity="1" fill-rule="nonzero"/><path fill="#b1b3b5" d="M 381.023438 204.0625 C 382.976562 195.890625 383.96875 187.601562 384 179.199219 C 384 178.78125 383.957031 178.363281 383.878906 177.953125 C 383.796875 177.539062 383.671875 177.140625 383.511719 176.75 C 383.351562 176.363281 383.15625 175.992188 382.921875 175.644531 C 382.6875 175.292969 382.421875 174.972656 382.125 174.675781 C 381.828125 174.378906 381.503906 174.113281 381.15625 173.878906 C 380.804688 173.644531 380.4375 173.449219 380.050781 173.289062 C 379.660156 173.125 379.261719 173.003906 378.847656 172.921875 C 378.4375 172.839844 378.019531 172.800781 377.601562 172.800781 C 377.179688 172.800781 376.761719 172.839844 376.351562 172.921875 C 375.9375 173.003906 375.539062 173.125 375.152344 173.289062 C 374.761719 173.449219 374.394531 173.644531 374.042969 173.878906 C 373.695312 174.113281 373.371094 174.378906 373.074219 174.675781 C 372.777344 174.972656 372.511719 175.292969 372.277344 175.644531 C 372.046875 175.992188 371.847656 176.363281 371.6875 176.75 C 371.527344 177.140625 371.40625 177.539062 371.324219 177.953125 C 371.242188 178.363281 371.199219 178.78125 371.199219 179.199219 C 371.195312 182.90625 370.976562 186.601562 370.546875 190.28125 C 370.113281 193.960938 369.46875 197.605469 368.617188 201.210938 C 367.761719 204.820312 366.699219 208.363281 365.433594 211.847656 C 364.167969 215.332031 362.703125 218.730469 361.042969 222.042969 C 359.382812 225.355469 357.535156 228.5625 355.503906 231.664062 C 353.46875 234.761719 351.265625 237.734375 348.886719 240.578125 C 346.511719 243.417969 343.976562 246.117188 341.285156 248.664062 C 338.597656 251.214844 335.765625 253.601562 332.800781 255.820312 L 332.800781 243.199219 C 332.800781 242.78125 332.757812 242.363281 332.675781 241.953125 C 332.59375 241.539062 332.472656 241.140625 332.3125 240.75 C 332.152344 240.363281 331.953125 239.992188 331.722656 239.644531 C 331.488281 239.292969 331.222656 238.972656 330.925781 238.675781 C 330.628906 238.378906 330.304688 238.113281 329.957031 237.878906 C 329.605469 237.644531 329.238281 237.449219 328.847656 237.289062 C 328.460938 237.125 328.0625 237.003906 327.648438 236.921875 C 327.238281 236.839844 326.820312 236.800781 326.398438 236.800781 C 325.980469 236.800781 325.5625 236.839844 325.152344 236.921875 C 324.738281 237.003906 324.339844 237.125 323.949219 237.289062 C 323.5625 237.449219 323.195312 237.644531 322.84375 237.878906 C 322.496094 238.113281 322.171875 238.378906 321.875 238.675781 C 321.578125 238.972656 321.3125 239.292969 321.078125 239.644531 C 320.84375 239.992188 320.648438 240.363281 320.488281 240.75 C 320.328125 241.140625 320.203125 241.539062 320.121094 241.953125 C 320.039062 242.363281 320 242.78125 320 243.199219 L 320 264.039062 C 313.101562 267.703125 305.867188 270.484375 298.285156 272.371094 C 290.707031 274.261719 283.011719 275.203125 275.199219 275.199219 L 198.398438 275.199219 L 198.398438 256 C 198.398438 255.578125 198.359375 255.164062 198.277344 254.75 C 198.195312 254.339844 198.074219 253.9375 197.914062 253.550781 C 197.753906 253.164062 197.554688 252.792969 197.320312 252.445312 C 197.089844 252.09375 196.824219 251.773438 196.527344 251.472656 C 196.226562 251.175781 195.90625 250.910156 195.554688 250.679688 C 195.207031 250.445312 194.835938 250.246094 194.449219 250.085938 C 194.0625 249.925781 193.660156 249.804688 193.25 249.722656 C 192.835938 249.640625 192.421875 249.601562 192 249.601562 C 191.578125 249.601562 191.164062 249.640625 190.75 249.722656 C 190.339844 249.804688 189.9375 249.925781 189.550781 250.085938 C 189.164062 250.246094 188.792969 250.445312 188.445312 250.679688 C 188.09375 250.910156 187.773438 251.175781 187.472656 251.472656 C 187.175781 251.773438 186.910156 252.09375 186.679688 252.445312 C 186.445312 252.792969 186.246094 253.164062 186.085938 253.550781 C 185.925781 253.9375 185.804688 254.339844 185.722656 254.75 C 185.640625 255.164062 185.601562 255.578125 185.601562 256 L 185.601562 275.199219 L 108.800781 275.199219 C 100.988281 275.203125 93.292969 274.261719 85.714844 272.371094 C 78.132812 270.484375 70.898438 267.703125 64 264.039062 L 64 243.199219 C 64 242.78125 63.960938 242.363281 63.878906 241.953125 C 63.796875 241.539062 63.671875 241.140625 63.511719 240.75 C 63.351562 240.363281 63.15625 239.992188 62.921875 239.644531 C 62.6875 239.292969 62.421875 238.972656 62.125 238.675781 C 61.828125 238.378906 61.503906 238.113281 61.15625 237.878906 C 60.804688 237.644531 60.4375 237.449219 60.050781 237.289062 C 59.660156 237.125 59.261719 237.003906 58.847656 236.921875 C 58.4375 236.839844 58.019531 236.800781 57.601562 236.800781 C 57.179688 236.800781 56.761719 236.839844 56.351562 236.921875 C 55.9375 237.003906 55.539062 237.125 55.152344 237.289062 C 54.761719 237.449219 54.394531 237.644531 54.042969 237.878906 C 53.695312 238.113281 53.371094 238.378906 53.074219 238.675781 C 52.777344 238.972656 52.511719 239.292969 52.277344 239.644531 C 52.046875 239.992188 51.847656 240.363281 51.6875 240.75 C 51.527344 241.140625 51.40625 241.539062 51.324219 241.953125 C 51.242188 242.363281 51.199219 242.78125 51.199219 243.199219 L 51.199219 255.820312 C 48.234375 253.601562 45.402344 251.214844 42.714844 248.664062 C 40.023438 246.117188 37.488281 243.417969 35.113281 240.578125 C 32.734375 237.734375 30.53125 234.761719 28.496094 231.664062 C 26.464844 228.5625 24.617188 225.355469 22.957031 222.042969 C 21.296875 218.730469 19.832031 215.332031 18.566406 211.847656 C 17.300781 208.363281 16.238281 204.820312 15.382812 201.210938 C 14.53125 197.605469 13.886719 193.960938 13.453125 190.28125 C 13.023438 186.601562 12.804688 182.90625 12.800781 179.199219 C 12.800781 178.78125 12.757812 178.363281 12.675781 177.953125 C 12.59375 177.539062 12.472656 177.140625 12.3125 176.75 C 12.152344 176.363281 11.953125 175.992188 11.722656 175.644531 C 11.488281 175.292969 11.222656 174.972656 10.925781 174.675781 C 10.628906 174.378906 10.304688 174.113281 9.957031 173.878906 C 9.605469 173.644531 9.238281 173.449219 8.847656 173.289062 C 8.460938 173.125 8.0625 173.003906 7.648438 172.921875 C 7.238281 172.839844 6.820312 172.800781 6.398438 172.800781 C 5.980469 172.800781 5.5625 172.839844 5.152344 172.921875 C 4.738281 173.003906 4.339844 173.125 3.949219 173.289062 C 3.5625 173.449219 3.195312 173.644531 2.84375 173.878906 C 2.496094 174.113281 2.171875 174.378906 1.875 174.675781 C 1.578125 174.972656 1.3125 175.292969 1.078125 175.644531 C 0.84375 175.992188 0.648438 176.363281 0.488281 176.75 C 0.328125 177.140625 0.203125 177.539062 0.121094 177.953125 C 0.0390625 178.363281 0 178.78125 0 179.199219 C 0.03125 187.601562 1.023438 195.890625 2.976562 204.0625 C 2.0625 204.628906 1.34375 205.378906 0.8125 206.316406 C 0.285156 207.25 0.015625 208.257812 0 209.332031 L 0 211.199219 C 0.0351562 248.695312 19.382812 283.523438 51.199219 303.359375 L 51.199219 332.800781 C 51.199219 333.21875 51.242188 333.636719 51.324219 334.046875 C 51.40625 334.460938 51.527344 334.859375 51.6875 335.25 C 51.847656 335.636719 52.046875 336.007812 52.277344 336.355469 C 52.511719 336.703125 52.777344 337.027344 53.074219 337.324219 C 53.371094 337.621094 53.695312 337.886719 54.042969 338.121094 C 54.394531 338.355469 54.761719 338.550781 55.152344 338.710938 C 55.539062 338.875 55.9375 338.996094 56.351562 339.078125 C 56.761719 339.160156 57.179688 339.199219 57.601562 339.199219 C 58.019531 339.199219 58.4375 339.160156 58.847656 339.078125 C 59.261719 338.996094 59.660156 338.875 60.050781 338.710938 C 60.4375 338.550781 60.804688 338.355469 61.15625 338.121094 C 61.503906 337.886719 61.828125 337.621094 62.125 337.324219 C 62.421875 337.027344 62.6875 336.703125 62.921875 336.355469 C 63.15625 336.007812 63.351562 335.636719 63.511719 335.25 C 63.671875 334.859375 63.796875 334.460938 63.878906 334.046875 C 63.960938 333.636719 64 333.21875 64 332.800781 L 64 310.234375 C 71.03125 313.445312 78.324219 315.875 85.875 317.519531 C 93.429688 319.167969 101.070312 319.992188 108.800781 320 L 275.199219 320 C 282.929688 319.992188 290.570312 319.167969 298.125 317.519531 C 305.675781 315.875 312.96875 313.445312 320 310.234375 L 320 332.800781 C 320 333.21875 320.039062 333.636719 320.121094 334.046875 C 320.203125 334.460938 320.328125 334.859375 320.488281 335.25 C 320.648438 335.636719 320.84375 336.007812 321.078125 336.355469 C 321.3125 336.703125 321.578125 337.027344 321.875 337.324219 C 322.171875 337.621094 322.496094 337.886719 322.84375 338.121094 C 323.195312 338.355469 323.5625 338.550781 323.949219 338.710938 C 324.339844 338.875 324.738281 338.996094 325.152344 339.078125 C 325.5625 339.160156 325.980469 339.199219 326.398438 339.199219 C 326.820312 339.199219 327.238281 339.160156 327.648438 339.078125 C 328.0625 338.996094 328.460938 338.875 328.847656 338.710938 C 329.238281 338.550781 329.605469 338.355469 329.957031 338.121094 C 330.304688 337.886719 330.628906 337.621094 330.925781 337.324219 C 331.222656 337.027344 331.488281 336.703125 331.722656 336.355469 C 331.953125 336.007812 332.152344 335.636719 332.3125 335.25 C 332.472656 334.859375 332.59375 334.460938 332.675781 334.046875 C 332.757812 333.636719 332.800781 333.21875 332.800781 332.800781 L 332.800781 303.359375 C 364.617188 283.523438 383.964844 248.695312 384 211.199219 L 384 209.332031 C 383.984375 208.257812 383.714844 207.25 383.1875 206.316406 C 382.65625 205.378906 381.9375 204.628906 381.023438 204.0625 Z M 16.152344 235.957031 C 20.554688 243.125 25.714844 249.699219 31.636719 255.679688 C 37.554688 261.65625 44.074219 266.886719 51.199219 271.359375 L 51.199219 287.847656 C 46.941406 284.644531 42.980469 281.113281 39.3125 277.25 C 35.640625 273.386719 32.316406 269.25 29.332031 264.835938 C 26.351562 260.421875 23.753906 255.789062 21.542969 250.945312 C 19.332031 246.097656 17.535156 241.101562 16.152344 235.957031 Z M 275.199219 307.199219 L 108.800781 307.199219 C 100.988281 307.203125 93.292969 306.261719 85.714844 304.371094 C 78.132812 302.484375 70.898438 299.703125 64 296.039062 L 64 278.234375 C 71.03125 281.445312 78.324219 283.875 85.875 285.519531 C 93.429688 287.167969 101.070312 287.992188 108.800781 288 L 275.199219 288 C 282.929688 287.992188 290.570312 287.167969 298.125 285.519531 C 305.675781 283.875 312.96875 281.445312 320 278.234375 L 320 296.039062 C 313.101562 299.703125 305.867188 302.484375 298.285156 304.371094 C 290.707031 306.261719 283.011719 307.203125 275.199219 307.199219 Z M 332.800781 287.820312 L 332.800781 271.359375 C 339.921875 266.886719 346.445312 261.664062 352.363281 255.691406 C 358.28125 249.714844 363.441406 243.148438 367.847656 235.980469 C 366.464844 241.121094 364.664062 246.113281 362.449219 250.957031 C 360.238281 255.796875 357.640625 260.421875 354.660156 264.832031 C 351.675781 269.242188 348.351562 273.378906 344.683594 277.234375 C 341.015625 281.09375 337.054688 284.621094 332.800781 287.824219 Z M 332.800781 287.820312 " fill-opacity="1" fill-rule="nonzero"/><path fill="#c3c5c7" d="M 96 281.601562 L 288 281.601562 L 288 371.199219 L 96 371.199219 Z M 96 281.601562 " fill-opacity="1" fill-rule="nonzero"/><path fill="#d1d4d6" d="M 96 275.199219 L 288 275.199219 L 288 313.601562 L 96 313.601562 Z M 96 275.199219 " fill-opacity="1" fill-rule="nonzero"/><path fill="#a5a6a8" d="M 192 339.199219 C 199.070312 339.199219 204.800781 344.929688 204.800781 352 L 204.800781 371.199219 L 179.199219 371.199219 L 179.199219 352 C 179.199219 344.929688 184.929688 339.199219 192 339.199219 Z M 243.199219 339.199219 C 250.269531 339.199219 256 344.929688 256 352 L 256 371.199219 L 230.398438 371.199219 L 230.398438 352 C 230.398438 344.929688 236.132812 339.199219 243.199219 339.199219 Z M 140.800781 339.199219 C 147.867188 339.199219 153.601562 344.929688 153.601562 352 L 153.601562 371.199219 L 128 371.199219 L 128 352 C 128 344.929688 133.730469 339.199219 140.800781 339.199219 Z M 140.800781 339.199219 " fill-opacity="1" fill-rule="nonzero"/><path fill="#3181bd" d="M 108.800781 230.398438 L 275.199219 230.398438 C 278.308594 230.398438 281.402344 230.210938 284.488281 229.832031 C 287.570312 229.453125 290.621094 228.890625 293.636719 228.144531 C 296.652344 227.398438 299.613281 226.46875 302.515625 225.363281 C 305.417969 224.253906 308.246094 222.976562 310.992188 221.527344 C 313.742188 220.074219 316.390625 218.464844 318.941406 216.691406 C 321.496094 214.921875 323.929688 213 326.25 210.933594 C 328.570312 208.863281 330.753906 206.664062 332.804688 204.332031 C 334.859375 201.996094 336.761719 199.546875 338.515625 196.984375 C 351.3125 170.78125 346.484375 139.382812 326.398438 118.234375 L 326.398438 96.519531 C 322.453125 92.96875 318.1875 89.859375 313.601562 87.195312 L 313.601562 107.46875 C 309.558594 104.835938 305.292969 102.644531 300.800781 100.890625 L 300.800781 81.28125 C 296.628906 79.796875 292.363281 78.691406 288 77.960938 L 288 97.222656 C 283.769531 96.421875 279.503906 96.015625 275.199219 96 L 275.199219 76.800781 L 262.398438 76.800781 L 262.398438 96 L 249.601562 96 L 249.601562 76.800781 L 236.800781 76.800781 L 236.800781 96 L 224 96 L 224 76.800781 L 211.199219 76.800781 L 211.199219 96 L 198.398438 96 L 198.398438 76.800781 L 185.601562 76.800781 L 185.601562 96 L 172.800781 96 L 172.800781 76.800781 L 160 76.800781 L 160 96 L 147.199219 96 L 147.199219 76.800781 L 134.398438 76.800781 L 134.398438 96 L 121.601562 96 L 121.601562 76.800781 L 108.800781 76.800781 L 108.800781 96 C 104.496094 96.015625 100.230469 96.421875 96 97.222656 L 96 77.960938 C 91.636719 78.691406 87.371094 79.800781 83.199219 81.28125 L 83.199219 100.890625 C 78.707031 102.644531 74.441406 104.835938 70.398438 107.46875 L 70.398438 87.195312 C 65.8125 89.859375 61.546875 92.96875 57.601562 96.519531 L 57.601562 118.234375 C 37.515625 139.382812 32.6875 170.78125 45.484375 196.984375 C 47.238281 199.550781 49.140625 202 51.195312 204.332031 C 53.246094 206.664062 55.429688 208.863281 57.75 210.933594 C 60.070312 213 62.503906 214.921875 65.058594 216.691406 C 67.609375 218.464844 70.257812 220.074219 73.007812 221.527344 C 75.753906 222.976562 78.582031 224.253906 81.484375 225.363281 C 84.386719 226.46875 87.347656 227.398438 90.363281 228.144531 C 93.378906 228.890625 96.429688 229.453125 99.511719 229.832031 C 102.597656 230.210938 105.691406 230.398438 108.800781 230.398438 Z M 57.601562 140.160156 L 57.601562 179.199219 L 70.398438 179.199219 L 70.398438 123.589844 C 74.269531 120.105469 78.539062 117.203125 83.199219 114.882812 L 83.199219 140.800781 L 96 140.800781 L 96 110.285156 C 100.210938 109.308594 104.476562 108.8125 108.800781 108.800781 L 108.800781 128 L 121.601562 128 L 121.601562 108.800781 L 134.398438 108.800781 L 134.398438 128 L 147.199219 128 L 147.199219 108.800781 L 160 108.800781 L 160 128 L 172.800781 128 L 172.800781 108.800781 L 185.601562 108.800781 L 185.601562 128 L 198.398438 128 L 198.398438 108.800781 L 211.199219 108.800781 L 211.199219 128 L 224 128 L 224 108.800781 L 236.800781 108.800781 L 236.800781 128 L 249.601562 128 L 249.601562 108.800781 L 262.398438 108.800781 L 262.398438 128 L 275.199219 128 L 275.199219 108.800781 C 279.523438 108.8125 283.789062 109.308594 288 110.285156 L 288 147.199219 L 300.800781 147.199219 L 300.800781 114.882812 C 305.460938 117.203125 309.730469 120.105469 313.601562 123.589844 L 313.601562 179.199219 L 326.398438 179.199219 L 326.398438 140.160156 C 327.523438 142.34375 328.507812 144.589844 329.34375 146.902344 C 330.179688 149.210938 330.867188 151.5625 331.402344 153.960938 C 331.9375 156.359375 332.316406 158.78125 332.542969 161.226562 C 332.769531 163.675781 332.835938 166.125 332.746094 168.582031 C 332.65625 171.035156 332.410156 173.476562 332.011719 175.898438 C 331.609375 178.320312 331.054688 180.710938 330.347656 183.0625 C 329.636719 185.414062 328.78125 187.714844 327.78125 189.957031 C 326.777344 192.199219 325.636719 194.367188 324.355469 196.464844 C 323.074219 198.5625 321.667969 200.570312 320.128906 202.484375 C 318.59375 204.402344 316.9375 206.210938 315.167969 207.914062 C 313.398438 209.621094 311.527344 211.203125 309.554688 212.667969 C 307.582031 214.132812 305.523438 215.464844 303.382812 216.667969 C 301.238281 217.867188 299.027344 218.925781 296.746094 219.84375 C 294.46875 220.761719 292.140625 221.527344 289.761719 222.148438 C 287.386719 222.765625 284.976562 223.230469 282.539062 223.539062 C 280.105469 223.851562 277.65625 224.003906 275.199219 224 L 108.800781 224 C 106.34375 224.003906 103.894531 223.851562 101.460938 223.539062 C 99.023438 223.230469 96.613281 222.765625 94.238281 222.148438 C 91.859375 221.527344 89.53125 220.761719 87.253906 219.84375 C 84.972656 218.925781 82.761719 217.867188 80.617188 216.667969 C 78.476562 215.464844 76.417969 214.132812 74.445312 212.667969 C 72.472656 211.203125 70.601562 209.621094 68.832031 207.917969 C 67.0625 206.210938 65.40625 204.402344 63.871094 202.484375 C 62.332031 200.570312 60.925781 198.5625 59.644531 196.464844 C 58.363281 194.367188 57.222656 192.199219 56.21875 189.957031 C 55.21875 187.714844 54.363281 185.414062 53.652344 183.0625 C 52.945312 180.710938 52.390625 178.320312 51.988281 175.898438 C 51.585938 173.472656 51.34375 171.035156 51.253906 168.578125 C 51.164062 166.125 51.230469 163.675781 51.457031 161.226562 C 51.683594 158.78125 52.0625 156.359375 52.597656 153.960938 C 53.132812 151.5625 53.820312 149.210938 54.65625 146.898438 C 55.492188 144.589844 56.476562 142.34375 57.601562 140.160156 Z M 57.601562 140.160156 " fill-opacity="1" fill-rule="nonzero"/><path fill="#fd6d2f" d="M 108.800781 230.398438 C 80.523438 230.398438 57.601562 207.476562 57.601562 179.199219 C 57.601562 150.921875 80.523438 128 108.800781 128 L 275.199219 128 C 303.476562 128 326.398438 150.921875 326.398438 179.199219 C 326.398438 207.476562 303.476562 230.398438 275.199219 230.398438 Z M 108.800781 230.398438 " fill-opacity="1" fill-rule="nonzero"/><path fill="#88b337" d="M 115.199219 153.601562 L 268.800781 153.601562 L 268.800781 230.398438 L 115.199219 230.398438 Z M 115.199219 153.601562 " fill-opacity="1" fill-rule="nonzero"/><path fill="#dee1e3" d="M 268.800781 147.199219 L 115.199219 147.199219 C 114.78125 147.199219 114.363281 147.242188 113.953125 147.324219 C 113.539062 147.40625 113.140625 147.527344 112.75 147.6875 C 112.363281 147.847656 111.992188 148.046875 111.644531 148.277344 C 111.296875 148.511719 110.972656 148.777344 110.675781 149.074219 C 110.378906 149.371094 110.113281 149.695312 109.878906 150.042969 C 109.644531 150.394531 109.449219 150.761719 109.289062 151.152344 C 109.125 151.539062 109.003906 151.9375 108.921875 152.351562 C 108.839844 152.761719 108.800781 153.179688 108.800781 153.601562 L 108.800781 230.398438 L 121.601562 230.398438 L 121.601562 160 L 185.601562 160 L 185.601562 173.441406 C 184.09375 173.742188 182.617188 174.152344 181.167969 174.667969 C 179.722656 175.1875 178.320312 175.804688 176.960938 176.523438 C 175.601562 177.242188 174.304688 178.054688 173.0625 178.964844 C 171.820312 179.871094 170.652344 180.863281 169.554688 181.9375 C 168.457031 183.015625 167.445312 184.164062 166.515625 185.386719 C 165.582031 186.609375 164.746094 187.894531 164 189.238281 C 163.253906 190.582031 162.609375 191.972656 162.066406 193.410156 C 161.519531 194.847656 161.082031 196.316406 160.75 197.816406 C 160.417969 199.316406 160.195312 200.832031 160.082031 202.367188 C 159.96875 203.898438 159.96875 205.429688 160.078125 206.964844 C 160.1875 208.496094 160.402344 210.015625 160.734375 211.515625 C 161.0625 213.015625 161.496094 214.488281 162.035156 215.925781 C 162.578125 217.363281 163.21875 218.757812 163.960938 220.101562 C 164.703125 221.449219 165.535156 222.734375 166.464844 223.960938 C 167.390625 225.183594 168.402344 226.335938 169.496094 227.414062 C 170.59375 228.496094 171.757812 229.488281 172.996094 230.398438 L 211.003906 230.398438 C 212.242188 229.488281 213.40625 228.496094 214.503906 227.414062 C 215.597656 226.335938 216.609375 225.183594 217.535156 223.960938 C 218.464844 222.734375 219.296875 221.449219 220.039062 220.101562 C 220.78125 218.757812 221.421875 217.363281 221.964844 215.925781 C 222.503906 214.488281 222.9375 213.015625 223.265625 211.515625 C 223.597656 210.015625 223.8125 208.496094 223.921875 206.964844 C 224.03125 205.429688 224.03125 203.898438 223.917969 202.367188 C 223.804688 200.832031 223.582031 199.316406 223.25 197.816406 C 222.917969 196.316406 222.480469 194.847656 221.933594 193.410156 C 221.390625 191.972656 220.746094 190.582031 220 189.238281 C 219.253906 187.894531 218.417969 186.609375 217.484375 185.386719 C 216.554688 184.164062 215.542969 183.015625 214.445312 181.9375 C 213.347656 180.863281 212.179688 179.871094 210.9375 178.964844 C 209.695312 178.054688 208.398438 177.242188 207.039062 176.523438 C 205.679688 175.804688 204.277344 175.1875 202.832031 174.667969 C 201.382812 174.152344 199.90625 173.742188 198.398438 173.441406 L 198.398438 160 L 262.398438 160 L 262.398438 230.398438 L 275.199219 230.398438 L 275.199219 153.601562 C 275.199219 153.179688 275.160156 152.761719 275.078125 152.351562 C 274.996094 151.9375 274.875 151.539062 274.710938 151.152344 C 274.550781 150.761719 274.355469 150.394531 274.121094 150.042969 C 273.886719 149.695312 273.621094 149.371094 273.324219 149.074219 C 273.027344 148.777344 272.703125 148.511719 272.355469 148.277344 C 272.007812 148.046875 271.636719 147.847656 271.25 147.6875 C 270.859375 147.527344 270.460938 147.40625 270.046875 147.324219 C 269.636719 147.242188 269.21875 147.199219 268.800781 147.199219 Z M 185.601562 222.820312 C 184.671875 222.496094 183.769531 222.105469 182.902344 221.640625 C 182.035156 221.179688 181.207031 220.652344 180.417969 220.058594 C 179.632812 219.46875 178.894531 218.820312 178.207031 218.113281 C 177.523438 217.410156 176.894531 216.65625 176.324219 215.851562 C 175.753906 215.050781 175.246094 214.210938 174.808594 213.328125 C 174.367188 212.449219 174 211.539062 173.699219 210.601562 C 173.398438 209.664062 173.175781 208.707031 173.023438 207.734375 C 172.871094 206.761719 172.796875 205.785156 172.796875 204.800781 C 172.796875 203.816406 172.871094 202.835938 173.023438 201.863281 C 173.175781 200.890625 173.398438 199.9375 173.699219 199 C 174 198.0625 174.367188 197.152344 174.808594 196.269531 C 175.246094 195.390625 175.753906 194.550781 176.324219 193.746094 C 176.894531 192.945312 177.523438 192.191406 178.207031 191.484375 C 178.894531 190.78125 179.632812 190.132812 180.417969 189.539062 C 181.207031 188.949219 182.035156 188.421875 182.902344 187.957031 C 183.769531 187.496094 184.671875 187.101562 185.601562 186.777344 Z M 211.199219 204.800781 C 211.195312 205.785156 211.117188 206.761719 210.960938 207.730469 C 210.808594 208.703125 210.582031 209.65625 210.28125 210.59375 C 209.980469 211.527344 209.609375 212.4375 209.167969 213.316406 C 208.726562 214.195312 208.222656 215.035156 207.652344 215.835938 C 207.082031 216.640625 206.457031 217.390625 205.769531 218.097656 C 205.085938 218.804688 204.351562 219.453125 203.566406 220.042969 C 202.78125 220.636719 201.957031 221.164062 201.089844 221.632812 C 200.222656 222.097656 199.328125 222.492188 198.398438 222.820312 L 198.398438 186.777344 C 199.328125 187.105469 200.222656 187.503906 201.089844 187.96875 C 201.957031 188.433594 202.78125 188.964844 203.566406 189.554688 C 204.351562 190.148438 205.085938 190.796875 205.769531 191.503906 C 206.457031 192.207031 207.082031 192.960938 207.652344 193.761719 C 208.222656 194.5625 208.726562 195.40625 209.167969 196.285156 C 209.609375 197.164062 209.980469 198.070312 210.28125 199.007812 C 210.582031 199.945312 210.808594 200.898438 210.960938 201.867188 C 211.117188 202.839844 211.195312 203.816406 211.199219 204.800781 Z M 211.199219 204.800781 " fill-opacity="1" fill-rule="nonzero"/></svg>