<svg xmlns="http://www.w3.org/2000/svg" xmlns:xlink="http://www.w3.org/1999/xlink" width="512" zoomAndPan="magnify" viewBox="0 0 384 383.999986" height="512" preserveAspectRatio="xMidYMid meet" version="1.0"><path fill="#70b2e2" d="M 270 144 C 270 72.136719 209.839844 14.320312 137.128906 18.179688 C 72.335938 21.625 19.828125 75.601562 18.046875 140.460938 C 17.0625 176.328125 31.117188 208.859375 54.328125 232.351562 C 70.769531 248.988281 82.074219 270 85.648438 293.117188 L 90.179688 322.339844 L 197.820312 322.339844 L 202.351562 293.101562 C 205.816406 270.691406 216 249.679688 232.199219 233.808594 C 255.511719 210.976562 270 179.207031 270 144 Z M 270 144 " fill-opacity="1" fill-rule="nonzero"/><path fill="#57a0d7" d="M 72.328125 232.351562 C 49.117188 208.855469 35.0625 176.328125 36.046875 140.460938 C 37.816406 76.234375 89.328125 22.757812 153.246094 18.378906 C 147.878906 17.972656 142.507812 17.90625 137.128906 18.179688 C 72.335938 21.625 19.828125 75.601562 18.046875 140.460938 C 17.0625 176.328125 31.117188 208.859375 54.328125 232.351562 C 70.769531 248.988281 82.078125 270 85.648438 293.117188 L 90.179688 322.339844 L 108.179688 322.339844 L 103.65625 293.117188 C 100.078125 270 88.777344 248.988281 72.335938 232.351562 Z M 72.328125 232.351562 " fill-opacity="1" fill-rule="nonzero"/><path fill="#e53a35" d="M 240 144 C 240 145.570312 239.960938 147.140625 239.882812 148.710938 C 239.808594 150.28125 239.691406 151.847656 239.539062 153.410156 C 239.382812 154.972656 239.191406 156.53125 238.960938 158.085938 C 238.730469 159.640625 238.460938 161.1875 238.15625 162.730469 C 237.847656 164.269531 237.503906 165.800781 237.121094 167.324219 C 236.742188 168.851562 236.324219 170.363281 235.867188 171.867188 C 235.410156 173.371094 234.917969 174.863281 234.386719 176.339844 C 233.859375 177.820312 233.292969 179.285156 232.691406 180.738281 C 232.089844 182.1875 231.453125 183.625 230.78125 185.046875 C 230.109375 186.464844 229.40625 187.867188 228.664062 189.253906 C 227.921875 190.640625 227.148438 192.007812 226.34375 193.355469 C 225.535156 194.703125 224.695312 196.027344 223.820312 197.335938 C 222.949219 198.640625 222.042969 199.925781 221.109375 201.1875 C 220.171875 202.449219 219.207031 203.6875 218.207031 204.902344 C 217.210938 206.117188 216.1875 207.304688 215.132812 208.46875 C 214.078125 209.632812 212.992188 210.769531 211.882812 211.882812 C 210.769531 212.992188 209.632812 214.078125 208.46875 215.132812 C 207.304688 216.1875 206.117188 217.210938 204.902344 218.207031 C 203.6875 219.207031 202.449219 220.171875 201.1875 221.109375 C 199.925781 222.042969 198.640625 222.949219 197.335938 223.820312 C 196.027344 224.695312 194.703125 225.535156 193.355469 226.34375 C 192.007812 227.148438 190.640625 227.921875 189.253906 228.664062 C 187.867188 229.40625 186.464844 230.109375 185.046875 230.78125 C 183.625 231.453125 182.1875 232.089844 180.738281 232.691406 C 179.285156 233.292969 177.820312 233.859375 176.339844 234.386719 C 174.863281 234.917969 173.371094 235.410156 171.867188 235.867188 C 170.363281 236.324219 168.851562 236.742188 167.324219 237.121094 C 165.800781 237.503906 164.269531 237.847656 162.730469 238.15625 C 161.1875 238.460938 159.640625 238.730469 158.085938 238.960938 C 156.53125 239.191406 154.972656 239.382812 153.410156 239.539062 C 151.847656 239.691406 150.28125 239.808594 148.710938 239.882812 C 147.140625 239.960938 145.570312 240 144 240 C 142.429688 240 140.859375 239.960938 139.289062 239.882812 C 137.71875 239.808594 136.152344 239.691406 134.589844 239.539062 C 133.027344 239.382812 131.46875 239.191406 129.914062 238.960938 C 128.359375 238.730469 126.8125 238.460938 125.269531 238.15625 C 123.730469 237.847656 122.199219 237.503906 120.675781 237.121094 C 119.148438 236.742188 117.636719 236.324219 116.132812 235.867188 C 114.628906 235.410156 113.136719 234.917969 111.660156 234.386719 C 110.179688 233.859375 108.714844 233.292969 107.261719 232.691406 C 105.8125 232.089844 104.375 231.453125 102.953125 230.78125 C 101.535156 230.109375 100.132812 229.40625 98.746094 228.664062 C 97.359375 227.921875 95.992188 227.148438 94.644531 226.34375 C 93.296875 225.535156 91.972656 224.695312 90.664062 223.820312 C 89.359375 222.949219 88.074219 222.042969 86.8125 221.109375 C 85.550781 220.171875 84.3125 219.207031 83.097656 218.207031 C 81.882812 217.210938 80.695312 216.1875 79.53125 215.132812 C 78.367188 214.078125 77.230469 212.992188 76.117188 211.882812 C 75.007812 210.769531 73.921875 209.632812 72.867188 208.46875 C 71.8125 207.304688 70.789062 206.117188 69.789062 204.902344 C 68.792969 203.6875 67.828125 202.449219 66.890625 201.1875 C 65.957031 199.925781 65.050781 198.640625 64.179688 197.335938 C 63.304688 196.027344 62.464844 194.703125 61.65625 193.355469 C 60.851562 192.007812 60.078125 190.640625 59.335938 189.253906 C 58.59375 187.867188 57.890625 186.464844 57.21875 185.046875 C 56.546875 183.625 55.910156 182.1875 55.308594 180.738281 C 54.707031 179.285156 54.140625 177.820312 53.613281 176.339844 C 53.082031 174.863281 52.589844 173.371094 52.132812 171.867188 C 51.675781 170.363281 51.257812 168.851562 50.878906 167.324219 C 50.496094 165.800781 50.152344 164.269531 49.84375 162.730469 C 49.539062 161.1875 49.269531 159.640625 49.039062 158.085938 C 48.808594 156.53125 48.617188 154.972656 48.460938 153.410156 C 48.308594 151.847656 48.191406 150.28125 48.117188 148.710938 C 48.039062 147.140625 48 145.570312 48 144 C 48 142.429688 48.039062 140.859375 48.117188 139.289062 C 48.191406 137.71875 48.308594 136.152344 48.460938 134.589844 C 48.617188 133.027344 48.808594 131.46875 49.039062 129.914062 C 49.269531 128.359375 49.539062 126.8125 49.84375 125.269531 C 50.152344 123.730469 50.496094 122.199219 50.878906 120.675781 C 51.257812 119.148438 51.675781 117.636719 52.132812 116.132812 C 52.589844 114.628906 53.082031 113.136719 53.613281 111.660156 C 54.140625 110.179688 54.707031 108.714844 55.308594 107.261719 C 55.910156 105.8125 56.546875 104.375 57.21875 102.953125 C 57.890625 101.535156 58.59375 100.132812 59.335938 98.746094 C 60.078125 97.359375 60.851562 95.992188 61.65625 94.644531 C 62.464844 93.296875 63.304688 91.972656 64.179688 90.664062 C 65.050781 89.359375 65.957031 88.074219 66.890625 86.8125 C 67.828125 85.550781 68.792969 84.3125 69.789062 83.097656 C 70.789062 81.882812 71.8125 80.695312 72.867188 79.53125 C 73.921875 78.367188 75.007812 77.230469 76.117188 76.117188 C 77.230469 75.007812 78.367188 73.921875 79.53125 72.867188 C 80.695312 71.8125 81.882812 70.789062 83.097656 69.789062 C 84.3125 68.792969 85.550781 67.828125 86.8125 66.890625 C 88.074219 65.957031 89.359375 65.050781 90.664062 64.179688 C 91.972656 63.304688 93.296875 62.464844 94.644531 61.65625 C 95.992188 60.851562 97.359375 60.074219 98.746094 59.335938 C 100.132812 58.59375 101.535156 57.890625 102.953125 57.21875 C 104.375 56.546875 105.8125 55.910156 107.261719 55.308594 C 108.714844 54.707031 110.179688 54.140625 111.660156 53.613281 C 113.136719 53.082031 114.628906 52.589844 116.132812 52.132812 C 117.636719 51.675781 119.148438 51.257812 120.675781 50.878906 C 122.199219 50.496094 123.730469 50.152344 125.269531 49.84375 C 126.8125 49.539062 128.359375 49.269531 129.914062 49.039062 C 131.46875 48.808594 133.027344 48.617188 134.589844 48.460938 C 136.152344 48.308594 137.71875 48.191406 139.289062 48.117188 C 140.859375 48.039062 142.429688 48 144 48 C 145.570312 48 147.140625 48.039062 148.710938 48.117188 C 150.28125 48.191406 151.847656 48.308594 153.410156 48.460938 C 154.972656 48.617188 156.53125 48.808594 158.085938 49.039062 C 159.640625 49.269531 161.1875 49.539062 162.730469 49.84375 C 164.269531 50.152344 165.800781 50.496094 167.324219 50.878906 C 168.851562 51.257812 170.363281 51.675781 171.867188 52.132812 C 173.371094 52.589844 174.863281 53.082031 176.339844 53.613281 C 177.820312 54.140625 179.285156 54.707031 180.738281 55.308594 C 182.1875 55.910156 183.625 56.546875 185.046875 57.21875 C 186.464844 57.890625 187.867188 58.59375 189.253906 59.335938 C 190.640625 60.074219 192.007812 60.851562 193.355469 61.65625 C 194.703125 62.464844 196.027344 63.304688 197.335938 64.179688 C 198.640625 65.050781 199.925781 65.957031 201.1875 66.890625 C 202.449219 67.828125 203.6875 68.792969 204.902344 69.789062 C 206.117188 70.789062 207.304688 71.8125 208.46875 72.867188 C 209.632812 73.921875 210.769531 75.007812 211.882812 76.117188 C 212.992188 77.230469 214.078125 78.367188 215.132812 79.53125 C 216.1875 80.695312 217.210938 81.882812 218.207031 83.097656 C 219.207031 84.3125 220.171875 85.550781 221.109375 86.8125 C 222.042969 88.074219 222.949219 89.359375 223.820312 90.664062 C 224.695312 91.972656 225.535156 93.296875 226.34375 94.644531 C 227.148438 95.992188 227.921875 97.359375 228.664062 98.746094 C 229.40625 100.132812 230.109375 101.535156 230.78125 102.953125 C 231.453125 104.375 232.089844 105.8125 232.691406 107.261719 C 233.292969 108.714844 233.859375 110.179688 234.386719 111.660156 C 234.917969 113.136719 235.410156 114.628906 235.867188 116.132812 C 236.324219 117.636719 236.742188 119.148438 237.121094 120.675781 C 237.503906 122.199219 237.847656 123.730469 238.15625 125.269531 C 238.460938 126.8125 238.730469 128.359375 238.960938 129.914062 C 239.191406 131.46875 239.382812 133.027344 239.539062 134.589844 C 239.691406 136.152344 239.808594 137.71875 239.882812 139.289062 C 239.960938 140.859375 240 142.429688 240 144 Z M 240 144 " fill-opacity="1" fill-rule="nonzero"/><path fill="#f5f5f5" d="M 210 144 C 210 145.082031 209.972656 146.160156 209.921875 147.238281 C 209.867188 148.316406 209.789062 149.394531 209.683594 150.46875 C 209.578125 151.542969 209.445312 152.617188 209.285156 153.683594 C 209.128906 154.753906 208.941406 155.816406 208.730469 156.875 C 208.519531 157.933594 208.285156 158.988281 208.023438 160.035156 C 207.757812 161.085938 207.472656 162.125 207.15625 163.160156 C 206.84375 164.191406 206.503906 165.21875 206.140625 166.234375 C 205.777344 167.25 205.390625 168.257812 204.976562 169.257812 C 204.5625 170.253906 204.125 171.242188 203.664062 172.21875 C 203.203125 173.195312 202.714844 174.160156 202.207031 175.113281 C 201.699219 176.066406 201.164062 177.003906 200.609375 177.929688 C 200.054688 178.855469 199.476562 179.769531 198.875 180.667969 C 198.277344 181.566406 197.65625 182.449219 197.011719 183.316406 C 196.367188 184.183594 195.703125 185.035156 195.019531 185.871094 C 194.332031 186.703125 193.628906 187.523438 192.902344 188.324219 C 192.175781 189.125 191.433594 189.90625 190.667969 190.667969 C 189.90625 191.433594 189.125 192.175781 188.324219 192.902344 C 187.523438 193.628906 186.703125 194.332031 185.871094 195.019531 C 185.035156 195.703125 184.183594 196.367188 183.316406 197.011719 C 182.449219 197.65625 181.566406 198.277344 180.667969 198.878906 C 179.769531 199.476562 178.855469 200.054688 177.929688 200.609375 C 177.003906 201.164062 176.066406 201.699219 175.113281 202.207031 C 174.160156 202.714844 173.195312 203.203125 172.21875 203.664062 C 171.242188 204.125 170.253906 204.5625 169.257812 204.976562 C 168.257812 205.390625 167.25 205.777344 166.234375 206.140625 C 165.21875 206.503906 164.191406 206.84375 163.160156 207.15625 C 162.125 207.472656 161.085938 207.757812 160.035156 208.023438 C 158.988281 208.285156 157.933594 208.519531 156.875 208.730469 C 155.816406 208.941406 154.753906 209.128906 153.683594 209.285156 C 152.617188 209.445312 151.542969 209.578125 150.46875 209.683594 C 149.394531 209.789062 148.316406 209.867188 147.238281 209.921875 C 146.160156 209.972656 145.082031 210 144 210 C 142.917969 210 141.839844 209.972656 140.761719 209.921875 C 139.683594 209.867188 138.605469 209.789062 137.53125 209.683594 C 136.457031 209.578125 135.382812 209.445312 134.316406 209.285156 C 133.246094 209.128906 132.183594 208.941406 131.125 208.730469 C 130.066406 208.519531 129.011719 208.285156 127.964844 208.023438 C 126.914062 207.757812 125.875 207.472656 124.839844 207.15625 C 123.808594 206.84375 122.78125 206.503906 121.765625 206.140625 C 120.75 205.777344 119.742188 205.390625 118.742188 204.976562 C 117.746094 204.5625 116.757812 204.125 115.78125 203.664062 C 114.804688 203.203125 113.839844 202.714844 112.886719 202.207031 C 111.933594 201.699219 110.996094 201.164062 110.070312 200.609375 C 109.144531 200.054688 108.230469 199.476562 107.332031 198.875 C 106.433594 198.277344 105.550781 197.65625 104.683594 197.011719 C 103.816406 196.367188 102.964844 195.703125 102.128906 195.019531 C 101.296875 194.332031 100.476562 193.628906 99.675781 192.902344 C 98.875 192.175781 98.09375 191.433594 97.332031 190.667969 C 96.566406 189.90625 95.824219 189.125 95.097656 188.324219 C 94.371094 187.523438 93.667969 186.703125 92.980469 185.871094 C 92.296875 185.035156 91.632812 184.183594 90.988281 183.316406 C 90.34375 182.449219 89.722656 181.566406 89.121094 180.667969 C 88.523438 179.769531 87.945312 178.855469 87.390625 177.929688 C 86.835938 177.003906 86.300781 176.066406 85.792969 175.113281 C 85.285156 174.160156 84.796875 173.195312 84.335938 172.21875 C 83.875 171.242188 83.4375 170.253906 83.023438 169.257812 C 82.609375 168.257812 82.222656 167.25 81.859375 166.234375 C 81.496094 165.21875 81.15625 164.191406 80.84375 163.160156 C 80.527344 162.125 80.242188 161.085938 79.976562 160.035156 C 79.714844 158.988281 79.480469 157.933594 79.269531 156.875 C 79.058594 155.816406 78.871094 154.753906 78.714844 153.683594 C 78.554688 152.617188 78.421875 151.542969 78.316406 150.46875 C 78.210938 149.394531 78.132812 148.316406 78.078125 147.238281 C 78.027344 146.160156 78 145.082031 78 144 C 78 142.917969 78.027344 141.839844 78.078125 140.761719 C 78.132812 139.683594 78.210938 138.605469 78.316406 137.53125 C 78.421875 136.457031 78.554688 135.382812 78.714844 134.316406 C 78.871094 133.246094 79.058594 132.183594 79.269531 131.125 C 79.480469 130.066406 79.714844 129.011719 79.976562 127.964844 C 80.242188 126.914062 80.527344 125.875 80.84375 124.839844 C 81.15625 123.808594 81.496094 122.78125 81.859375 121.765625 C 82.222656 120.75 82.609375 119.742188 83.023438 118.742188 C 83.4375 117.746094 83.875 116.757812 84.335938 115.78125 C 84.796875 114.804688 85.285156 113.839844 85.792969 112.886719 C 86.300781 111.933594 86.835938 110.996094 87.390625 110.070312 C 87.945312 109.144531 88.523438 108.230469 89.121094 107.332031 C 89.722656 106.433594 90.34375 105.550781 90.988281 104.683594 C 91.632812 103.816406 92.296875 102.964844 92.980469 102.128906 C 93.667969 101.296875 94.371094 100.476562 95.097656 99.675781 C 95.824219 98.875 96.566406 98.09375 97.332031 97.332031 C 98.09375 96.566406 98.875 95.824219 99.675781 95.097656 C 100.476562 94.371094 101.296875 93.667969 102.128906 92.980469 C 102.964844 92.296875 103.816406 91.632812 104.683594 90.988281 C 105.550781 90.34375 106.433594 89.722656 107.332031 89.121094 C 108.230469 88.523438 109.144531 87.945312 110.070312 87.390625 C 110.996094 86.835938 111.933594 86.300781 112.886719 85.792969 C 113.839844 85.285156 114.804688 84.796875 115.78125 84.335938 C 116.757812 83.875 117.746094 83.4375 118.742188 83.023438 C 119.742188 82.609375 120.75 82.222656 121.765625 81.859375 C 122.78125 81.496094 123.808594 81.15625 124.839844 80.84375 C 125.875 80.527344 126.914062 80.242188 127.964844 79.976562 C 129.011719 79.714844 130.066406 79.480469 131.125 79.269531 C 132.183594 79.058594 133.246094 78.871094 134.316406 78.714844 C 135.382812 78.554688 136.457031 78.421875 137.53125 78.316406 C 138.605469 78.210938 139.683594 78.132812 140.761719 78.078125 C 141.839844 78.027344 142.917969 78 144 78 C 145.082031 78 146.160156 78.027344 147.238281 78.078125 C 148.316406 78.132812 149.394531 78.210938 150.46875 78.316406 C 151.542969 78.421875 152.617188 78.554688 153.683594 78.714844 C 154.753906 78.871094 155.816406 79.058594 156.875 79.269531 C 157.933594 79.480469 158.988281 79.714844 160.035156 79.976562 C 161.085938 80.242188 162.125 80.527344 163.160156 80.84375 C 164.191406 81.15625 165.21875 81.496094 166.234375 81.859375 C 167.25 82.222656 168.257812 82.609375 169.257812 83.023438 C 170.253906 83.4375 171.242188 83.875 172.21875 84.335938 C 173.195312 84.796875 174.160156 85.285156 175.113281 85.792969 C 176.066406 86.300781 177.003906 86.835938 177.929688 87.390625 C 178.855469 87.945312 179.769531 88.523438 180.667969 89.121094 C 181.566406 89.722656 182.449219 90.34375 183.316406 90.988281 C 184.183594 91.632812 185.035156 92.296875 185.871094 92.980469 C 186.703125 93.667969 187.523438 94.371094 188.324219 95.097656 C 189.125 95.824219 189.90625 96.566406 190.667969 97.332031 C 191.433594 98.09375 192.175781 98.875 192.902344 99.675781 C 193.628906 100.476562 194.332031 101.296875 195.019531 102.128906 C 195.703125 102.964844 196.367188 103.816406 197.011719 104.683594 C 197.65625 105.550781 198.277344 106.433594 198.878906 107.332031 C 199.476562 108.230469 200.054688 109.144531 200.609375 110.070312 C 201.164062 110.996094 201.699219 111.933594 202.207031 112.886719 C 202.714844 113.839844 203.203125 114.804688 203.664062 115.78125 C 204.125 116.757812 204.5625 117.746094 204.976562 118.742188 C 205.390625 119.742188 205.777344 120.75 206.140625 121.765625 C 206.503906 122.78125 206.84375 123.808594 207.15625 124.839844 C 207.472656 125.875 207.757812 126.914062 208.023438 127.964844 C 208.285156 129.011719 208.519531 130.066406 208.730469 131.125 C 208.941406 132.183594 209.128906 133.246094 209.285156 134.316406 C 209.445312 135.382812 209.578125 136.457031 209.683594 137.53125 C 209.789062 138.605469 209.867188 139.683594 209.921875 140.761719 C 209.972656 141.839844 210 142.917969 210 144 Z M 210 144 " fill-opacity="1" fill-rule="nonzero"/><path fill="#e53a35" d="M 180 144 C 180 145.179688 179.941406 146.355469 179.828125 147.527344 C 179.710938 148.703125 179.539062 149.867188 179.308594 151.023438 C 179.078125 152.179688 178.792969 153.320312 178.449219 154.449219 C 178.109375 155.578125 177.710938 156.6875 177.257812 157.777344 C 176.808594 158.867188 176.304688 159.929688 175.75 160.96875 C 175.191406 162.011719 174.589844 163.019531 173.933594 164 C 173.277344 164.980469 172.578125 165.925781 171.828125 166.839844 C 171.082031 167.75 170.289062 168.621094 169.457031 169.457031 C 168.621094 170.289062 167.75 171.082031 166.839844 171.828125 C 165.925781 172.578125 164.980469 173.277344 164 173.933594 C 163.019531 174.589844 162.011719 175.191406 160.96875 175.75 C 159.929688 176.304688 158.867188 176.808594 157.777344 177.257812 C 156.6875 177.710938 155.578125 178.109375 154.449219 178.449219 C 153.320312 178.792969 152.179688 179.078125 151.023438 179.308594 C 149.867188 179.539062 148.703125 179.710938 147.527344 179.828125 C 146.355469 179.941406 145.179688 180 144 180 C 142.820312 180 141.644531 179.941406 140.472656 179.828125 C 139.296875 179.710938 138.132812 179.539062 136.976562 179.308594 C 135.820312 179.078125 134.679688 178.792969 133.550781 178.449219 C 132.421875 178.109375 131.3125 177.710938 130.222656 177.257812 C 129.132812 176.808594 128.070312 176.304688 127.03125 175.75 C 125.988281 175.191406 124.980469 174.589844 124 173.933594 C 123.019531 173.277344 122.074219 172.578125 121.160156 171.828125 C 120.25 171.082031 119.378906 170.289062 118.542969 169.457031 C 117.710938 168.621094 116.917969 167.75 116.171875 166.839844 C 115.421875 165.925781 114.722656 164.980469 114.066406 164 C 113.410156 163.019531 112.804688 162.011719 112.25 160.96875 C 111.695312 159.929688 111.191406 158.867188 110.742188 157.777344 C 110.289062 156.6875 109.890625 155.578125 109.550781 154.449219 C 109.207031 153.320312 108.921875 152.179688 108.691406 151.023438 C 108.460938 149.867188 108.289062 148.703125 108.171875 147.527344 C 108.058594 146.355469 108 145.179688 108 144 C 108 142.820312 108.058594 141.644531 108.171875 140.472656 C 108.289062 139.296875 108.460938 138.132812 108.691406 136.976562 C 108.921875 135.820312 109.207031 134.679688 109.550781 133.550781 C 109.890625 132.421875 110.289062 131.3125 110.742188 130.222656 C 111.191406 129.132812 111.695312 128.070312 112.25 127.03125 C 112.804688 125.988281 113.410156 124.980469 114.066406 124 C 114.722656 123.019531 115.421875 122.074219 116.171875 121.160156 C 116.917969 120.25 117.710938 119.378906 118.542969 118.542969 C 119.378906 117.710938 120.25 116.917969 121.160156 116.171875 C 122.074219 115.421875 123.019531 114.722656 124 114.066406 C 124.980469 113.410156 125.988281 112.804688 127.03125 112.25 C 128.070312 111.695312 129.132812 111.191406 130.222656 110.742188 C 131.3125 110.289062 132.421875 109.890625 133.550781 109.550781 C 134.679688 109.207031 135.820312 108.921875 136.976562 108.691406 C 138.132812 108.460938 139.296875 108.289062 140.472656 108.171875 C 141.644531 108.058594 142.820312 108 144 108 C 145.179688 108 146.355469 108.058594 147.527344 108.171875 C 148.703125 108.289062 149.867188 108.460938 151.023438 108.691406 C 152.179688 108.921875 153.320312 109.207031 154.449219 109.550781 C 155.578125 109.890625 156.6875 110.289062 157.777344 110.742188 C 158.867188 111.191406 159.929688 111.695312 160.96875 112.25 C 162.011719 112.804688 163.019531 113.410156 164 114.066406 C 164.980469 114.722656 165.925781 115.421875 166.839844 116.171875 C 167.75 116.917969 168.621094 117.710938 169.457031 118.542969 C 170.289062 119.378906 171.082031 120.25 171.828125 121.160156 C 172.578125 122.074219 173.277344 123.019531 173.933594 124 C 174.589844 124.980469 175.191406 125.988281 175.75 127.03125 C 176.304688 128.070312 176.808594 129.132812 177.257812 130.222656 C 177.710938 131.3125 178.109375 132.421875 178.449219 133.550781 C 178.792969 134.679688 179.078125 135.820312 179.308594 136.976562 C 179.539062 138.132812 179.710938 139.296875 179.828125 140.472656 C 179.941406 141.644531 180 142.820312 180 144 Z M 180 144 " fill-opacity="1" fill-rule="nonzero"/><path fill="#3d82c4" d="M 81.089844 322.339844 L 206.910156 322.339844 C 207.699219 322.339844 208.476562 322.414062 209.25 322.570312 C 210.023438 322.722656 210.773438 322.949219 211.503906 323.25 C 212.230469 323.554688 212.921875 323.921875 213.578125 324.359375 C 214.230469 324.796875 214.839844 325.296875 215.394531 325.851562 C 215.953125 326.410156 216.449219 327.015625 216.886719 327.671875 C 217.324219 328.328125 217.695312 329.019531 217.996094 329.746094 C 218.296875 330.472656 218.527344 331.222656 218.679688 331.996094 C 218.832031 332.769531 218.910156 333.550781 218.910156 334.339844 L 218.910156 354 C 218.910156 354.789062 218.832031 355.566406 218.679688 356.339844 C 218.527344 357.113281 218.296875 357.863281 217.996094 358.59375 C 217.695312 359.320312 217.324219 360.011719 216.886719 360.667969 C 216.449219 361.320312 215.953125 361.929688 215.394531 362.484375 C 214.839844 363.042969 214.230469 363.539062 213.578125 363.976562 C 212.921875 364.414062 212.230469 364.785156 211.503906 365.085938 C 210.773438 365.386719 210.023438 365.617188 209.25 365.769531 C 208.476562 365.921875 207.699219 366 206.910156 366 L 81.089844 366 C 80.300781 366 79.523438 365.921875 78.75 365.769531 C 77.976562 365.617188 77.226562 365.386719 76.496094 365.085938 C 75.769531 364.785156 75.078125 364.414062 74.421875 363.976562 C 73.769531 363.539062 73.160156 363.042969 72.605469 362.484375 C 72.046875 361.929688 71.550781 361.320312 71.113281 360.667969 C 70.675781 360.011719 70.304688 359.320312 70.003906 358.59375 C 69.703125 357.863281 69.472656 357.113281 69.320312 356.339844 C 69.167969 355.566406 69.089844 354.789062 69.089844 354 L 69.089844 334.339844 C 69.089844 333.550781 69.167969 332.769531 69.320312 331.996094 C 69.472656 331.222656 69.703125 330.472656 70.003906 329.746094 C 70.304688 329.019531 70.675781 328.328125 71.113281 327.671875 C 71.550781 327.015625 72.046875 326.410156 72.605469 325.851562 C 73.160156 325.296875 73.769531 324.796875 74.421875 324.359375 C 75.078125 323.921875 75.769531 323.554688 76.496094 323.25 C 77.226562 322.949219 77.976562 322.722656 78.75 322.570312 C 79.523438 322.414062 80.300781 322.339844 81.089844 322.339844 Z M 81.089844 322.339844 " fill-opacity="1" fill-rule="nonzero"/><path fill="#f78c1e" d="M 301.828125 138 L 144 138 C 143.605469 138 143.214844 138.039062 142.828125 138.117188 C 142.441406 138.191406 142.066406 138.304688 141.703125 138.457031 C 141.339844 138.609375 140.992188 138.792969 140.667969 139.011719 C 140.339844 139.230469 140.035156 139.480469 139.757812 139.757812 C 139.480469 140.035156 139.230469 140.339844 139.011719 140.667969 C 138.792969 140.992188 138.609375 141.339844 138.457031 141.703125 C 138.304688 142.066406 138.191406 142.441406 138.117188 142.828125 C 138.039062 143.214844 138 143.605469 138 144 C 138 144.394531 138.039062 144.785156 138.117188 145.171875 C 138.191406 145.558594 138.304688 145.933594 138.457031 146.296875 C 138.609375 146.660156 138.792969 147.003906 139.011719 147.332031 C 139.230469 147.660156 139.480469 147.964844 139.757812 148.242188 C 140.035156 148.519531 140.339844 148.769531 140.667969 148.988281 C 140.992188 149.207031 141.339844 149.390625 141.703125 149.542969 C 142.066406 149.695312 142.441406 149.808594 142.828125 149.882812 C 143.214844 149.960938 143.605469 150 144 150 L 301.828125 150 C 302.222656 150 302.613281 149.960938 303 149.882812 C 303.386719 149.808594 303.761719 149.695312 304.125 149.542969 C 304.488281 149.390625 304.835938 149.207031 305.164062 148.988281 C 305.492188 148.769531 305.792969 148.519531 306.074219 148.242188 C 306.351562 147.964844 306.601562 147.660156 306.820312 147.332031 C 307.039062 147.003906 307.222656 146.660156 307.375 146.296875 C 307.523438 145.933594 307.636719 145.558594 307.714844 145.171875 C 307.792969 144.785156 307.828125 144.394531 307.828125 144 C 307.828125 143.605469 307.792969 143.214844 307.714844 142.828125 C 307.636719 142.441406 307.523438 142.066406 307.375 141.703125 C 307.222656 141.339844 307.039062 140.992188 306.820312 140.667969 C 306.601562 140.339844 306.351562 140.035156 306.074219 139.757812 C 305.792969 139.480469 305.492188 139.230469 305.164062 139.011719 C 304.835938 138.792969 304.488281 138.609375 304.125 138.457031 C 303.761719 138.304688 303.386719 138.191406 303 138.117188 C 302.613281 138.039062 302.222656 138 301.828125 138 Z M 301.828125 138 " fill-opacity="1" fill-rule="nonzero"/><path fill="#f78c1e" d="M 313.824219 121.199219 L 366 121.199219 L 348 144 L 366 166.800781 L 313.824219 166.800781 C 313.035156 166.800781 312.253906 166.722656 311.484375 166.570312 C 310.710938 166.414062 309.960938 166.1875 309.230469 165.886719 C 308.503906 165.585938 307.8125 165.214844 307.15625 164.777344 C 306.5 164.339844 305.894531 163.84375 305.339844 163.285156 C 304.78125 162.726562 304.285156 162.121094 303.847656 161.46875 C 303.410156 160.8125 303.039062 160.121094 302.738281 159.390625 C 302.4375 158.664062 302.207031 157.914062 302.054688 157.140625 C 301.902344 156.367188 301.824219 155.589844 301.824219 154.800781 L 301.824219 133.199219 C 301.824219 132.410156 301.902344 131.632812 302.054688 130.859375 C 302.207031 130.085938 302.4375 129.335938 302.738281 128.609375 C 303.039062 127.878906 303.410156 127.1875 303.847656 126.53125 C 304.285156 125.878906 304.78125 125.273438 305.339844 124.714844 C 305.894531 124.15625 306.503906 123.660156 307.15625 123.222656 C 307.8125 122.785156 308.503906 122.414062 309.230469 122.113281 C 309.960938 121.8125 310.710938 121.585938 311.484375 121.429688 C 312.253906 121.277344 313.035156 121.199219 313.824219 121.199219 Z M 313.824219 121.199219 " fill-opacity="1" fill-rule="nonzero"/></svg>