<svg xmlns="http://www.w3.org/2000/svg" xmlns:xlink="http://www.w3.org/1999/xlink" width="512" zoomAndPan="magnify" viewBox="0 0 384 383.999986" height="512" preserveAspectRatio="xMidYMid meet" version="1.0"><path fill="#f96262" d="M 118.289062 278.421875 C 118.289062 278.421875 56.144531 249.421875 56.144531 198.789062 C 56.144531 178.640625 60.007812 163.742188 64.660156 153.101562 C 68.640625 143.996094 81.445312 144.136719 85.632812 153.152344 C 89.683594 161.867188 96.953125 169.789062 110.003906 169.789062 C 110.003906 169.789062 130.972656 168.433594 136.960938 144.570312 C 138.535156 138.070312 138.648438 131.550781 137.300781 125 C 134.035156 108.5 126.96875 59.570312 149.675781 27.238281 C 157.5625 16.011719 175.113281 21.585938 175.105469 35.304688 C 175.089844 66.664062 183.175781 112.015625 228.300781 121.457031 C 228.300781 121.457031 247.125 124.265625 252.070312 104.863281 C 254.195312 96.515625 265.207031 94.648438 269.6875 102.007812 C 279.046875 117.398438 285.371094 141.808594 267.429688 174.390625 C 267.429688 174.390625 262.234375 182.886719 261.332031 192.152344 C 260.105469 204.628906 272.496094 214.460938 284.167969 209.886719 C 286.84375 208.847656 289.097656 207.226562 290.929688 205.019531 C 291.554688 204.273438 292.265625 203.621094 293.0625 203.0625 C 293.859375 202.503906 294.71875 202.0625 295.632812 201.730469 C 296.550781 201.398438 297.492188 201.195312 298.464844 201.113281 C 299.433594 201.03125 300.398438 201.082031 301.355469 201.257812 C 302.3125 201.429688 303.230469 201.730469 304.109375 202.148438 C 304.988281 202.566406 305.796875 203.09375 306.535156 203.726562 C 307.277344 204.359375 307.917969 205.082031 308.46875 205.886719 C 309.015625 206.6875 309.449219 207.550781 309.769531 208.472656 C 309.929688 208.941406 310.082031 209.421875 310.230469 209.910156 C 310.871094 212.164062 311.292969 214.464844 311.484375 216.800781 C 311.679688 219.140625 311.648438 221.472656 311.386719 223.804688 C 311.125 226.136719 310.640625 228.421875 309.933594 230.660156 C 309.222656 232.898438 308.308594 235.042969 307.179688 237.101562 C 299.261719 251.960938 279.257812 281.421875 244.871094 282.109375 L 198.378906 301.902344 Z M 118.289062 278.421875 " fill-opacity="1" fill-rule="nonzero"/><path fill="#996666" d="M 107.238281 317.765625 L 80.171875 325.472656 L 94.996094 362.765625 L 148.058594 347.917969 C 142.078125 330.734375 129.078125 320.527344 107.238281 317.765625 Z M 107.238281 317.765625 " fill-opacity="1" fill-rule="nonzero"/><path fill="#7f4c4c" d="M 175.269531 340.292969 L 287.734375 308.816406 C 288.519531 308.601562 289.277344 308.324219 290.015625 307.980469 C 290.753906 307.636719 291.457031 307.234375 292.128906 306.773438 C 292.796875 306.3125 293.425781 305.800781 294.007812 305.234375 C 294.59375 304.667969 295.128906 304.054688 295.609375 303.402344 C 296.089844 302.746094 296.515625 302.054688 296.882812 301.328125 C 297.25 300.601562 297.550781 299.851562 297.792969 299.074219 C 298.035156 298.296875 298.207031 297.503906 298.316406 296.699219 C 298.425781 295.894531 298.464844 295.082031 298.4375 294.269531 C 298.191406 288.238281 296.683594 280.867188 291.84375 274.582031 C 291.066406 273.589844 290.171875 272.714844 289.164062 271.953125 C 288.15625 271.195312 287.070312 270.578125 285.902344 270.105469 C 284.730469 269.628906 283.519531 269.316406 282.269531 269.160156 C 281.015625 269 279.765625 269.007812 278.515625 269.179688 C 277.789062 269.277344 277.074219 269.421875 276.371094 269.625 C 253.824219 279.210938 231.070312 286.515625 207.882812 289.117188 L 135.40625 309.746094 Z M 175.269531 340.292969 " fill-opacity="1" fill-rule="nonzero"/><path fill="#7f4c4c" d="M 158.390625 303.207031 L 106.308594 318.03125 C 117.457031 318.453125 142.660156 330.261719 148.058594 347.910156 L 223.496094 326.796875 C 217.816406 324.734375 179.109375 310.679688 158.390625 303.207031 Z M 80.171875 325.472656 C 80.171875 325.472656 85.589844 325 91.542969 332.300781 C 92.746094 333.738281 93.796875 335.285156 94.699219 336.929688 C 95.597656 338.574219 96.332031 340.292969 96.898438 342.082031 C 97.464844 343.871094 97.851562 345.699219 98.0625 347.5625 C 98.273438 349.429688 98.300781 351.296875 98.144531 353.167969 C 97.875 356.621094 96.828125 359.816406 95 362.761719 C 79.992188 361.300781 72.945312 338.5625 80.171875 325.472656 Z M 80.171875 325.472656 " fill-opacity="1" fill-rule="nonzero"/><path fill="#996666" d="M 82.589844 294.273438 C 82.832031 288.242188 84.34375 280.871094 89.183594 274.585938 C 89.625 274.019531 90.113281 273.492188 90.636719 272.996094 C 91.160156 272.503906 91.71875 272.050781 92.308594 271.640625 C 92.898438 271.230469 93.519531 270.863281 94.164062 270.546875 C 94.808594 270.226562 95.476562 269.957031 96.160156 269.738281 C 96.847656 269.519531 97.546875 269.351562 98.257812 269.234375 C 98.96875 269.117188 99.683594 269.054688 100.402344 269.046875 C 101.121094 269.039062 101.839844 269.082031 102.554688 269.179688 C 103.265625 269.277344 103.96875 269.425781 104.660156 269.628906 L 106.53125 270.160156 C 160.242188 290.78125 220.28125 307.027344 284.0625 320.691406 L 300.855469 325.472656 L 286.03125 362.765625 L 93.289062 308.820312 C 92.503906 308.605469 91.746094 308.324219 91.007812 307.980469 C 90.269531 307.640625 89.566406 307.238281 88.894531 306.777344 C 88.226562 306.316406 87.597656 305.800781 87.015625 305.234375 C 86.429688 304.667969 85.898438 304.058594 85.414062 303.402344 C 84.933594 302.75 84.507812 302.058594 84.144531 301.332031 C 83.777344 300.605469 83.472656 299.855469 83.234375 299.078125 C 82.992188 298.300781 82.816406 297.507812 82.710938 296.703125 C 82.601562 295.894531 82.5625 295.085938 82.589844 294.273438 Z M 82.589844 294.273438 " fill-opacity="1" fill-rule="nonzero"/><path fill="#7f4c4c" d="M 300.855469 325.472656 C 300.855469 325.472656 295.441406 325 289.484375 332.300781 C 288.28125 333.738281 287.230469 335.285156 286.328125 336.929688 C 285.425781 338.578125 284.695312 340.292969 284.128906 342.082031 C 283.5625 343.875 283.175781 345.699219 282.964844 347.566406 C 282.757812 349.429688 282.730469 351.296875 282.886719 353.167969 C 283.152344 356.621094 284.203125 359.820312 286.03125 362.761719 C 301.035156 361.300781 308.078125 338.5625 300.855469 325.472656 Z M 300.855469 325.472656 " fill-opacity="1" fill-rule="nonzero"/><path fill="#f9df8a" d="M 188.375 269.058594 C 188.375 269.058594 147.097656 270.597656 127.109375 234.539062 C 126.824219 234.027344 126.570312 233.496094 126.34375 232.953125 C 126.121094 232.410156 125.925781 231.855469 125.765625 231.292969 C 125.601562 230.726562 125.472656 230.15625 125.375 229.574219 C 125.277344 228.996094 125.214844 228.414062 125.183594 227.824219 C 125.152344 227.238281 125.152344 226.652344 125.191406 226.066406 C 125.226562 225.480469 125.292969 224.894531 125.394531 224.316406 C 125.496094 223.738281 125.632812 223.167969 125.796875 222.605469 C 125.964844 222.039062 126.164062 221.488281 126.390625 220.945312 C 126.621094 220.40625 126.882812 219.878906 127.171875 219.367188 C 127.460938 218.855469 127.777344 218.363281 128.121094 217.886719 C 128.464844 217.410156 128.835938 216.957031 129.234375 216.523438 C 129.632812 216.089844 130.050781 215.679688 130.496094 215.292969 C 130.9375 214.90625 131.402344 214.546875 131.886719 214.214844 C 132.371094 213.882812 132.871094 213.578125 133.390625 213.300781 C 133.910156 213.023438 134.441406 212.777344 134.988281 212.5625 C 135.535156 212.347656 136.089844 212.164062 136.660156 212.011719 C 139.605469 211.242188 142.5 210.3125 145.347656 209.226562 C 146.535156 208.757812 147.691406 208.210938 148.808594 207.589844 C 149.929688 206.96875 151 206.273438 152.027344 205.507812 C 153.054688 204.742188 154.023438 203.914062 154.941406 203.019531 C 155.855469 202.125 156.707031 201.175781 157.5 200.167969 C 158.289062 199.160156 159.007812 198.105469 159.65625 197.003906 C 160.308594 195.902344 160.882812 194.761719 161.378906 193.582031 C 161.878906 192.402344 162.296875 191.195312 162.632812 189.960938 C 162.972656 188.726562 163.226562 187.476562 163.398438 186.207031 C 163.523438 185.335938 163.660156 184.433594 163.804688 183.515625 C 166.628906 165.925781 189.894531 161.554688 198.929688 176.90625 C 201.445312 181.179688 203.421875 185.691406 204.855469 190.4375 C 205.25 191.679688 205.722656 192.894531 206.273438 194.078125 C 206.824219 195.261719 207.449219 196.402344 208.144531 197.507812 C 208.84375 198.609375 209.609375 199.664062 210.441406 200.667969 C 211.273438 201.671875 212.167969 202.617188 213.125 203.507812 C 214.078125 204.394531 215.089844 205.21875 216.148438 205.980469 C 217.210938 206.738281 218.316406 207.425781 219.464844 208.042969 C 220.617188 208.660156 221.800781 209.199219 223.019531 209.664062 C 224.242188 210.128906 225.484375 210.511719 226.753906 210.816406 C 232.921875 212.316406 238.714844 214.71875 244.136719 218.015625 C 244.738281 218.382812 245.316406 218.78125 245.871094 219.207031 C 246.429688 219.636719 246.964844 220.089844 247.476562 220.574219 C 247.984375 221.054688 248.46875 221.5625 248.925781 222.097656 C 249.382812 222.632812 249.8125 223.1875 250.210938 223.765625 C 250.613281 224.34375 250.980469 224.941406 251.316406 225.558594 C 251.65625 226.171875 251.960938 226.804688 252.230469 227.453125 C 252.503906 228.101562 252.738281 228.761719 252.941406 229.4375 C 253.144531 230.109375 253.3125 230.789062 253.441406 231.480469 C 253.574219 232.171875 253.667969 232.867188 253.730469 233.566406 C 253.789062 234.265625 253.808594 234.96875 253.796875 235.671875 C 253.78125 236.375 253.730469 237.074219 253.644531 237.769531 C 253.558594 238.46875 253.433594 239.160156 253.277344 239.84375 C 253.117188 240.527344 252.921875 241.203125 252.691406 241.867188 C 252.464844 242.53125 252.199219 243.183594 251.902344 243.820312 C 251.605469 244.457031 251.277344 245.074219 250.914062 245.675781 C 250.554688 246.28125 250.160156 246.863281 249.738281 247.421875 C 241.550781 258.070312 224.375 269.449219 188.375 269.058594 Z M 188.375 269.058594 " fill-opacity="1" fill-rule="nonzero"/><path fill="#f96262" d="M 95.335938 75.558594 C 97.609375 80.492188 99.007812 85.667969 99.535156 91.074219 C 99.644531 92.066406 99.683594 93.0625 99.648438 94.0625 C 99.617188 95.058594 99.511719 96.050781 99.332031 97.035156 C 99.15625 98.015625 98.90625 98.980469 98.589844 99.929688 C 98.273438 100.875 97.886719 101.796875 97.4375 102.6875 C 96.984375 103.578125 96.472656 104.433594 95.894531 105.25 C 95.320312 106.066406 94.6875 106.835938 94 107.558594 C 93.3125 108.285156 92.578125 108.957031 91.792969 109.574219 C 91.007812 110.191406 90.179688 110.75 89.316406 111.246094 C 88.910156 111.472656 88.488281 111.6875 88.050781 111.886719 C 87.6875 112.050781 87.316406 112.195312 86.9375 112.316406 C 86.558594 112.4375 86.175781 112.539062 85.785156 112.621094 C 85.394531 112.699219 85 112.753906 84.605469 112.789062 C 84.207031 112.824219 83.808594 112.835938 83.410156 112.828125 C 83.011719 112.816406 82.617188 112.785156 82.222656 112.730469 C 81.828125 112.675781 81.4375 112.597656 81.050781 112.5 C 80.667969 112.402344 80.289062 112.28125 79.914062 112.140625 C 79.542969 112 79.179688 111.835938 78.828125 111.652344 C 78.472656 111.472656 78.128906 111.269531 77.796875 111.046875 C 77.46875 110.828125 77.148438 110.589844 76.84375 110.332031 C 76.542969 110.074219 76.253906 109.800781 75.980469 109.511719 C 75.707031 109.222656 75.449219 108.917969 75.210938 108.601562 C 74.972656 108.28125 74.75 107.949219 74.550781 107.605469 C 74.347656 107.265625 74.164062 106.910156 74.003906 106.546875 C 73.84375 106.183594 73.699219 105.8125 73.582031 105.429688 C 73.460938 105.050781 73.363281 104.667969 73.285156 104.273438 C 72.34375 99.566406 72.082031 94.820312 72.496094 90.035156 C 72.910156 85.25 73.984375 80.621094 75.722656 76.144531 C 76.101562 75.167969 76.613281 74.269531 77.257812 73.445312 C 77.902344 72.621094 78.652344 71.910156 79.507812 71.308594 C 80.363281 70.703125 81.285156 70.238281 82.277344 69.90625 C 83.269531 69.574219 84.289062 69.394531 85.335938 69.363281 C 86.378906 69.332031 87.410156 69.453125 88.417969 69.722656 C 89.429688 69.996094 90.378906 70.40625 91.265625 70.957031 C 92.15625 71.507812 92.949219 72.175781 93.640625 72.957031 C 94.332031 73.742188 94.898438 74.609375 95.335938 75.558594 Z M 314.984375 131.394531 C 313.015625 136.457031 311.933594 141.707031 311.734375 147.136719 C 311.683594 148.136719 311.707031 149.132812 311.800781 150.125 C 311.894531 151.121094 312.0625 152.101562 312.300781 153.074219 C 312.535156 154.042969 312.84375 154.992188 313.214844 155.917969 C 313.589844 156.84375 314.03125 157.734375 314.535156 158.597656 C 315.039062 159.460938 315.605469 160.28125 316.230469 161.0625 C 316.851562 161.839844 317.53125 162.570312 318.261719 163.253906 C 318.992188 163.933594 319.765625 164.558594 320.585938 165.128906 C 321.410156 165.699219 322.265625 166.203125 323.160156 166.648438 C 323.578125 166.847656 324.011719 167.035156 324.460938 167.214844 C 324.832031 167.355469 325.210938 167.476562 325.597656 167.574219 C 325.984375 167.675781 326.375 167.75 326.769531 167.808594 C 327.164062 167.863281 327.558594 167.894531 327.957031 167.90625 C 328.355469 167.917969 328.753906 167.90625 329.148438 167.871094 C 329.546875 167.835938 329.9375 167.78125 330.328125 167.699219 C 330.71875 167.621094 331.105469 167.523438 331.484375 167.398438 C 331.863281 167.277344 332.234375 167.136719 332.597656 166.972656 C 332.960938 166.808594 333.3125 166.625 333.652344 166.421875 C 333.996094 166.214844 334.324219 165.996094 334.644531 165.753906 C 334.960938 165.511719 335.261719 165.253906 335.550781 164.980469 C 335.839844 164.707031 336.109375 164.414062 336.367188 164.109375 C 336.621094 163.804688 336.859375 163.484375 337.078125 163.152344 C 337.296875 162.820312 337.496094 162.476562 337.679688 162.121094 C 337.859375 161.765625 338.019531 161.402344 338.15625 161.03125 C 338.296875 160.65625 338.414062 160.277344 338.511719 159.890625 C 338.609375 159.503906 338.683594 159.113281 338.738281 158.71875 C 339.390625 153.960938 339.363281 149.207031 338.660156 144.457031 C 337.957031 139.707031 336.601562 135.148438 334.597656 130.785156 C 334.160156 129.835938 333.59375 128.972656 332.898438 128.1875 C 332.203125 127.40625 331.414062 126.738281 330.523438 126.191406 C 329.632812 125.640625 328.683594 125.230469 327.671875 124.960938 C 326.664062 124.691406 325.636719 124.574219 324.589844 124.605469 C 323.546875 124.636719 322.527344 124.820312 321.535156 125.152344 C 320.542969 125.484375 319.621094 125.953125 318.765625 126.554688 C 317.914062 127.160156 317.164062 127.871094 316.519531 128.695312 C 315.875 129.519531 315.363281 130.417969 314.984375 131.394531 Z M 232.699219 42.722656 C 232.398438 42.722656 232.101562 42.699219 231.804688 42.644531 C 231.519531 42.578125 231.242188 42.492188 230.96875 42.382812 C 230.695312 42.269531 230.429688 42.128906 230.179688 41.964844 C 229.933594 41.800781 229.710938 41.609375 229.503906 41.402344 C 229.289062 41.191406 229.101562 40.960938 228.9375 40.714844 C 228.773438 40.46875 228.632812 40.214844 228.519531 39.945312 C 228.414062 39.667969 228.324219 39.386719 228.261719 39.097656 C 228.203125 38.804688 228.171875 38.511719 228.167969 38.214844 C 228.171875 36.964844 228.613281 35.902344 229.503906 35.019531 C 229.707031 34.808594 229.933594 34.617188 230.179688 34.457031 C 230.425781 34.285156 230.691406 34.148438 230.96875 34.039062 C 231.242188 33.921875 231.519531 33.835938 231.804688 33.777344 C 232.132812 33.714844 232.464844 33.6875 232.800781 33.695312 C 233.132812 33.703125 233.460938 33.75 233.785156 33.832031 C 234.109375 33.914062 234.421875 34.03125 234.71875 34.179688 C 235.019531 34.332031 235.296875 34.511719 235.554688 34.722656 C 235.8125 34.9375 236.046875 35.171875 236.25 35.4375 C 236.457031 35.699219 236.632812 35.984375 236.777344 36.285156 C 236.917969 36.585938 237.027344 36.898438 237.101562 37.226562 C 237.175781 37.550781 237.214844 37.882812 237.214844 38.214844 C 237.214844 38.511719 237.183594 38.804688 237.125 39.097656 C 237.066406 39.386719 236.976562 39.667969 236.867188 39.945312 C 236.753906 40.214844 236.617188 40.472656 236.449219 40.714844 C 236.289062 40.964844 236.097656 41.195312 235.882812 41.402344 C 235.003906 42.28125 233.941406 42.722656 232.699219 42.722656 Z M 56.152344 40.484375 C 55.664062 40.484375 55.1875 40.410156 54.722656 40.253906 C 54.261719 40.101562 53.832031 39.878906 53.441406 39.585938 C 53.050781 39.292969 52.714844 38.945312 52.4375 38.546875 C 52.160156 38.144531 51.949219 37.710938 51.8125 37.242188 C 51.675781 36.773438 51.613281 36.296875 51.632812 35.808594 C 51.648438 35.320312 51.742188 34.847656 51.914062 34.386719 C 52.085938 33.929688 52.324219 33.511719 52.628906 33.132812 C 52.9375 32.75 53.292969 32.429688 53.707031 32.164062 L 58.070312 29.363281 C 58.320312 29.207031 58.582031 29.078125 58.859375 28.972656 C 59.132812 28.871094 59.414062 28.792969 59.707031 28.742188 C 59.996094 28.691406 60.289062 28.671875 60.582031 28.679688 C 60.875 28.6875 61.167969 28.722656 61.453125 28.789062 C 61.742188 28.851562 62.019531 28.945312 62.289062 29.0625 C 62.558594 29.179688 62.8125 29.324219 63.054688 29.492188 C 63.292969 29.664062 63.515625 29.851562 63.722656 30.066406 C 63.925781 30.277344 64.105469 30.507812 64.265625 30.753906 C 64.425781 31 64.558594 31.261719 64.667969 31.535156 C 64.773438 31.808594 64.855469 32.089844 64.910156 32.378906 C 64.960938 32.667969 64.984375 32.960938 64.980469 33.257812 C 64.976562 33.550781 64.945312 33.839844 64.886719 34.128906 C 64.824219 34.417969 64.738281 34.695312 64.621094 34.96875 C 64.503906 35.238281 64.367188 35.496094 64.199219 35.738281 C 64.035156 35.980469 63.847656 36.207031 63.636719 36.414062 C 63.425781 36.621094 63.199219 36.804688 62.953125 36.964844 L 58.589844 39.769531 C 57.847656 40.246094 57.035156 40.484375 56.152344 40.484375 Z M 44.808594 262.023438 C 44.511719 262.023438 44.21875 261.996094 43.929688 261.9375 C 43.636719 261.878906 43.355469 261.792969 43.082031 261.679688 C 42.804688 261.566406 42.546875 261.425781 42.300781 261.261719 C 42.054688 261.097656 41.824219 260.910156 41.613281 260.699219 C 41.40625 260.492188 41.21875 260.261719 41.054688 260.015625 C 40.886719 259.769531 40.75 259.507812 40.636719 259.234375 C 40.523438 258.960938 40.4375 258.679688 40.378906 258.386719 C 40.320312 258.097656 40.292969 257.800781 40.292969 257.507812 L 40.292969 253.019531 C 40.292969 252.722656 40.320312 252.429688 40.378906 252.136719 C 40.4375 251.847656 40.523438 251.5625 40.636719 251.289062 C 40.75 251.015625 40.886719 250.753906 41.054688 250.507812 C 41.21875 250.261719 41.40625 250.035156 41.613281 249.824219 C 41.824219 249.613281 42.054688 249.425781 42.300781 249.261719 C 42.546875 249.097656 42.804688 248.957031 43.082031 248.84375 C 43.355469 248.730469 43.636719 248.644531 43.929688 248.589844 C 44.21875 248.53125 44.511719 248.5 44.808594 248.5 C 45.105469 248.5 45.398438 248.53125 45.691406 248.589844 C 45.980469 248.644531 46.265625 248.730469 46.539062 248.84375 C 46.8125 248.957031 47.074219 249.097656 47.320312 249.261719 C 47.566406 249.425781 47.792969 249.613281 48.003906 249.824219 C 48.214844 250.035156 48.402344 250.261719 48.566406 250.507812 C 48.730469 250.753906 48.871094 251.015625 48.984375 251.289062 C 49.097656 251.5625 49.183594 251.847656 49.242188 252.136719 C 49.296875 252.429688 49.328125 252.722656 49.328125 253.019531 L 49.328125 257.507812 C 49.328125 257.800781 49.296875 258.097656 49.242188 258.386719 C 49.183594 258.679688 49.097656 258.960938 48.984375 259.234375 C 48.871094 259.507812 48.730469 259.769531 48.566406 260.015625 C 48.402344 260.261719 48.214844 260.492188 48.003906 260.699219 C 47.792969 260.910156 47.566406 261.097656 47.320312 261.261719 C 47.074219 261.425781 46.8125 261.566406 46.539062 261.679688 C 46.265625 261.792969 45.980469 261.878906 45.691406 261.9375 C 45.398438 261.996094 45.105469 262.023438 44.808594 262.023438 Z M 339.191406 276.035156 C 338.894531 276.039062 338.601562 276.007812 338.308594 275.945312 C 338.019531 275.890625 337.738281 275.808594 337.460938 275.699219 C 337.191406 275.582031 336.929688 275.441406 336.683594 275.28125 C 336.4375 275.113281 336.207031 274.925781 335.996094 274.714844 C 335.117188 273.832031 334.675781 272.765625 334.671875 271.519531 C 334.675781 271.222656 334.707031 270.929688 334.761719 270.636719 C 334.824219 270.347656 334.910156 270.066406 335.023438 269.789062 C 335.136719 269.515625 335.273438 269.257812 335.441406 269.011719 C 335.605469 268.765625 335.789062 268.535156 335.996094 268.324219 C 336.207031 268.117188 336.4375 267.929688 336.683594 267.769531 C 336.929688 267.601562 337.1875 267.464844 337.460938 267.351562 C 337.734375 267.238281 338.019531 267.148438 338.308594 267.089844 C 339.050781 266.949219 339.777344 266.988281 340.5 267.207031 C 341.21875 267.421875 341.847656 267.796875 342.386719 268.324219 C 342.597656 268.535156 342.785156 268.765625 342.953125 269.011719 C 343.113281 269.257812 343.253906 269.519531 343.371094 269.789062 C 343.480469 270.066406 343.5625 270.347656 343.617188 270.636719 C 343.679688 270.929688 343.710938 271.222656 343.707031 271.519531 C 343.707031 271.816406 343.679688 272.109375 343.621094 272.398438 C 343.566406 272.691406 343.480469 272.972656 343.367188 273.25 C 343.253906 273.523438 343.113281 273.78125 342.949219 274.03125 C 342.785156 274.277344 342.597656 274.503906 342.386719 274.714844 C 342.175781 274.925781 341.949219 275.113281 341.703125 275.277344 C 341.453125 275.441406 341.195312 275.582031 340.921875 275.695312 C 340.644531 275.808594 340.363281 275.894531 340.070312 275.949219 C 339.78125 276.007812 339.488281 276.035156 339.191406 276.035156 Z M 339.191406 276.035156 " fill-opacity="1" fill-rule="nonzero"/><path fill="#996666" d="M 276.367188 269.628906 L 207.878906 289.121094 L 186.765625 295.132812 L 207.878906 303.207031 L 235.96875 294.640625 L 236.164062 294.582031 L 262.40625 287.578125 C 273.503906 284.148438 277.269531 275.71875 278.472656 269.191406 C 277.761719 269.285156 277.058594 269.429688 276.367188 269.628906 Z M 276.367188 269.628906 " fill-opacity="1" fill-rule="nonzero"/><path fill="#f9df8a" d="M 98.265625 205.933594 C 97.535156 205.9375 96.847656 205.769531 96.199219 205.4375 C 95.550781 205.105469 95.015625 204.644531 94.589844 204.050781 L 92.175781 200.683594 C 92.003906 200.445312 91.855469 200.1875 91.734375 199.917969 C 91.609375 199.648438 91.515625 199.367188 91.449219 199.082031 C 91.378906 198.792969 91.339844 198.5 91.332031 198.203125 C 91.320312 197.90625 91.339844 197.609375 91.386719 197.316406 C 91.4375 197.027344 91.511719 196.742188 91.617188 196.460938 C 91.722656 196.183594 91.851562 195.921875 92.007812 195.667969 C 92.164062 195.417969 92.34375 195.183594 92.546875 194.964844 C 92.75 194.75 92.972656 194.554688 93.210938 194.382812 C 93.453125 194.207031 93.710938 194.058594 93.980469 193.9375 C 94.25 193.816406 94.527344 193.71875 94.816406 193.652344 C 95.105469 193.585938 95.398438 193.546875 95.695312 193.535156 C 95.992188 193.527344 96.285156 193.546875 96.578125 193.59375 C 96.871094 193.640625 97.15625 193.71875 97.433594 193.824219 C 97.710938 193.925781 97.976562 194.058594 98.230469 194.214844 C 98.480469 194.371094 98.714844 194.550781 98.933594 194.753906 C 99.148438 194.953125 99.34375 195.175781 99.515625 195.417969 L 101.933594 198.785156 C 102.425781 199.472656 102.703125 200.238281 102.765625 201.082031 C 102.828125 201.925781 102.667969 202.726562 102.28125 203.480469 C 101.894531 204.230469 101.339844 204.828125 100.617188 205.269531 C 99.894531 205.714844 99.109375 205.933594 98.265625 205.933594 Z M 236.058594 168.917969 C 235.761719 168.917969 235.46875 168.890625 235.179688 168.832031 C 234.886719 168.773438 234.605469 168.6875 234.332031 168.574219 C 234.054688 168.460938 233.796875 168.320312 233.550781 168.15625 C 233.304688 167.992188 233.074219 167.804688 232.863281 167.59375 C 232.65625 167.386719 232.46875 167.15625 232.304688 166.910156 C 232.136719 166.664062 232 166.402344 231.886719 166.128906 C 231.773438 165.855469 231.6875 165.574219 231.628906 165.28125 C 231.570312 164.992188 231.542969 164.699219 231.542969 164.402344 L 231.542969 161.566406 C 231.542969 161.269531 231.570312 160.976562 231.628906 160.6875 C 231.6875 160.394531 231.773438 160.113281 231.886719 159.839844 C 232 159.566406 232.136719 159.304688 232.304688 159.058594 C 232.46875 158.8125 232.65625 158.582031 232.863281 158.375 C 233.074219 158.164062 233.304688 157.976562 233.550781 157.8125 C 233.796875 157.648438 234.054688 157.507812 234.332031 157.394531 C 234.605469 157.28125 234.886719 157.195312 235.179688 157.136719 C 235.46875 157.078125 235.761719 157.050781 236.058594 157.050781 C 236.355469 157.050781 236.648438 157.078125 236.941406 157.136719 C 237.230469 157.195312 237.515625 157.28125 237.789062 157.394531 C 238.0625 157.507812 238.324219 157.648438 238.570312 157.8125 C 238.816406 157.976562 239.042969 158.164062 239.253906 158.375 C 239.464844 158.582031 239.652344 158.8125 239.816406 159.058594 C 239.980469 159.304688 240.121094 159.566406 240.234375 159.839844 C 240.347656 160.113281 240.433594 160.394531 240.492188 160.6875 C 240.546875 160.976562 240.578125 161.269531 240.578125 161.566406 L 240.578125 164.402344 C 240.578125 164.699219 240.546875 164.992188 240.492188 165.28125 C 240.433594 165.574219 240.347656 165.855469 240.234375 166.128906 C 240.121094 166.402344 239.980469 166.664062 239.816406 166.910156 C 239.652344 167.15625 239.464844 167.386719 239.253906 167.59375 C 239.042969 167.804688 238.816406 167.992188 238.570312 168.15625 C 238.324219 168.320312 238.0625 168.460938 237.789062 168.574219 C 237.515625 168.6875 237.230469 168.773438 236.941406 168.832031 C 236.648438 168.890625 236.355469 168.917969 236.058594 168.917969 Z M 236.058594 168.917969 " fill-opacity="1" fill-rule="nonzero"/><path fill="#bc9191" d="M 106.53125 270.160156 C 105.175781 275.648438 104.8125 286.636719 122.449219 289.328125 C 146.210938 292.960938 233.339844 321.34375 233.339844 321.34375 C 233.339844 321.34375 268.351562 335.800781 284.0625 320.691406 Z M 106.53125 270.160156 " fill-opacity="1" fill-rule="nonzero"/></svg>