<svg xmlns="http://www.w3.org/2000/svg" xmlns:xlink="http://www.w3.org/1999/xlink" width="512" zoomAndPan="magnify" viewBox="0 0 384 383.999986" height="512" preserveAspectRatio="xMidYMid meet" version="1.0"><path fill="#ffe5bb" d="M 293.859375 299.140625 L 293.859375 273.5 L 245.972656 273.5 L 245.972656 299.140625 C 220.867188 300.8125 201.199219 321.882812 201.199219 347.109375 L 201.199219 380.707031 C 201.199219 381.140625 201.285156 381.5625 201.449219 381.964844 C 201.617188 382.367188 201.855469 382.726562 202.164062 383.035156 C 202.472656 383.34375 202.828125 383.582031 203.230469 383.746094 C 203.632812 383.914062 204.050781 384 204.488281 384 L 335.339844 384 C 335.773438 384 336.195312 383.917969 336.597656 383.75 C 337 383.582031 337.355469 383.34375 337.664062 383.035156 C 337.972656 382.726562 338.210938 382.371094 338.378906 381.964844 C 338.542969 381.5625 338.628906 381.140625 338.628906 380.707031 L 338.628906 347.109375 C 338.628906 321.882812 318.964844 300.8125 293.859375 299.140625 Z M 293.859375 299.140625 " fill-opacity="1" fill-rule="nonzero"/><path fill="#f4d6ab" d="M 337.171875 219.210938 C 337.171875 252.449219 310.285156 279.398438 277.121094 279.398438 L 262.710938 279.398438 C 229.542969 279.398438 202.65625 252.449219 202.65625 219.210938 L 202.65625 163.835938 C 202.65625 130.597656 229.542969 103.648438 262.710938 103.648438 L 277.121094 103.648438 C 310.285156 103.648438 337.171875 130.597656 337.171875 163.835938 Z M 337.171875 219.210938 " fill-opacity="1" fill-rule="nonzero"/><path fill="#000000" d="M 219.425781 219.210938 L 219.425781 163.835938 C 219.425781 131 245.664062 104.320312 278.277344 103.679688 C 277.875 103.671875 277.480469 103.648438 277.078125 103.648438 L 262.664062 103.648438 C 229.496094 103.648438 202.609375 130.597656 202.609375 163.835938 L 202.609375 219.207031 C 202.609375 252.449219 229.496094 279.394531 262.664062 279.394531 L 277.078125 279.394531 C 277.480469 279.394531 277.875 279.375 278.277344 279.363281 C 245.667969 278.722656 219.425781 252.046875 219.425781 219.210938 Z M 219.425781 219.210938 " fill-opacity="0.098" fill-rule="nonzero"/><path fill="#684223" d="M 241.722656 221.464844 C 241.316406 221.464844 240.914062 221.425781 240.515625 221.34375 C 240.117188 221.265625 239.730469 221.148438 239.351562 220.992188 C 238.976562 220.835938 238.621094 220.648438 238.28125 220.421875 C 237.945312 220.195312 237.632812 219.9375 237.34375 219.648438 C 237.054688 219.363281 236.800781 219.050781 236.574219 218.710938 C 236.347656 218.375 236.15625 218.015625 236 217.640625 C 235.84375 217.265625 235.726562 216.878906 235.648438 216.480469 C 235.570312 216.078125 235.527344 215.675781 235.527344 215.269531 L 235.527344 206.5625 C 235.523438 206.15625 235.558594 205.75 235.636719 205.347656 C 235.710938 204.945312 235.828125 204.550781 235.980469 204.171875 C 236.132812 203.792969 236.324219 203.433594 236.550781 203.089844 C 236.773438 202.746094 237.03125 202.429688 237.320312 202.140625 C 237.605469 201.847656 237.921875 201.589844 238.261719 201.359375 C 238.601562 201.132812 238.957031 200.9375 239.335938 200.78125 C 239.714844 200.621094 240.105469 200.503906 240.507812 200.421875 C 240.90625 200.34375 241.3125 200.300781 241.722656 200.300781 C 242.132812 200.300781 242.539062 200.34375 242.941406 200.421875 C 243.339844 200.503906 243.730469 200.621094 244.109375 200.78125 C 244.488281 200.9375 244.847656 201.132812 245.1875 201.359375 C 245.523438 201.589844 245.839844 201.847656 246.128906 202.140625 C 246.414062 202.429688 246.671875 202.746094 246.898438 203.089844 C 247.121094 203.433594 247.3125 203.792969 247.464844 204.171875 C 247.617188 204.550781 247.734375 204.945312 247.808594 205.347656 C 247.886719 205.75 247.921875 206.15625 247.917969 206.5625 L 247.917969 215.269531 C 247.917969 215.675781 247.878906 216.078125 247.796875 216.480469 C 247.71875 216.878906 247.601562 217.265625 247.445312 217.640625 C 247.289062 218.015625 247.101562 218.375 246.875 218.710938 C 246.648438 219.050781 246.390625 219.363281 246.101562 219.652344 C 245.816406 219.9375 245.503906 220.195312 245.164062 220.421875 C 244.828125 220.648438 244.46875 220.835938 244.09375 220.992188 C 243.71875 221.148438 243.332031 221.265625 242.933594 221.34375 C 242.53125 221.425781 242.128906 221.464844 241.722656 221.464844 Z M 298.015625 221.464844 C 297.609375 221.464844 297.207031 221.425781 296.804688 221.34375 C 296.40625 221.265625 296.019531 221.148438 295.644531 220.992188 C 295.269531 220.835938 294.910156 220.644531 294.574219 220.421875 C 294.234375 220.195312 293.921875 219.9375 293.636719 219.648438 C 293.347656 219.363281 293.089844 219.050781 292.863281 218.710938 C 292.636719 218.375 292.449219 218.015625 292.292969 217.640625 C 292.136719 217.265625 292.019531 216.878906 291.941406 216.480469 C 291.859375 216.078125 291.820312 215.675781 291.820312 215.269531 L 291.820312 206.5625 C 291.828125 206.160156 291.871094 205.761719 291.957031 205.371094 C 292.039062 204.976562 292.160156 204.59375 292.320312 204.222656 C 292.476562 203.851562 292.671875 203.5 292.898438 203.167969 C 293.125 202.835938 293.382812 202.527344 293.667969 202.246094 C 293.957031 201.964844 294.265625 201.710938 294.601562 201.488281 C 294.9375 201.269531 295.292969 201.082031 295.667969 200.929688 C 296.039062 200.773438 296.421875 200.660156 296.816406 200.582031 C 297.214844 200.503906 297.613281 200.464844 298.015625 200.464844 C 298.417969 200.464844 298.816406 200.503906 299.210938 200.582031 C 299.605469 200.660156 299.992188 200.773438 300.363281 200.929688 C 300.734375 201.082031 301.089844 201.269531 301.425781 201.488281 C 301.761719 201.710938 302.074219 201.964844 302.359375 202.246094 C 302.648438 202.527344 302.90625 202.835938 303.132812 203.167969 C 303.359375 203.5 303.550781 203.851562 303.710938 204.222656 C 303.867188 204.59375 303.988281 204.976562 304.074219 205.371094 C 304.15625 205.761719 304.203125 206.160156 304.207031 206.5625 L 304.207031 215.269531 C 304.210938 215.675781 304.167969 216.078125 304.089844 216.480469 C 304.011719 216.878906 303.894531 217.265625 303.738281 217.640625 C 303.582031 218.015625 303.390625 218.375 303.164062 218.710938 C 302.941406 219.050781 302.683594 219.363281 302.394531 219.652344 C 302.109375 219.9375 301.792969 220.195312 301.457031 220.421875 C 301.117188 220.648438 300.761719 220.835938 300.386719 220.992188 C 300.007812 221.148438 299.621094 221.265625 299.222656 221.347656 C 298.824219 221.425781 298.421875 221.464844 298.015625 221.464844 Z M 298.015625 221.464844 " fill-opacity="1" fill-rule="nonzero"/><path fill="#ffffff" d="M 262.261719 260.394531 C 254.433594 260.394531 248.066406 254.007812 248.066406 246.164062 L 248.066406 242.097656 C 248.066406 241.761719 248.128906 241.4375 248.257812 241.125 C 248.386719 240.8125 248.570312 240.539062 248.804688 240.300781 C 249.042969 240.0625 249.316406 239.878906 249.628906 239.75 C 249.9375 239.621094 250.261719 239.554688 250.597656 239.554688 L 289.136719 239.554688 C 289.472656 239.554688 289.796875 239.621094 290.109375 239.75 C 290.417969 239.878906 290.691406 240.0625 290.929688 240.300781 C 291.167969 240.539062 291.351562 240.8125 291.480469 241.125 C 291.609375 241.4375 291.671875 241.761719 291.671875 242.097656 L 291.671875 246.164062 C 291.671875 254.011719 285.304688 260.394531 277.476562 260.394531 Z M 262.261719 260.394531 " fill-opacity="1" fill-rule="nonzero"/><path fill="#e84731" d="M 204.488281 384 L 335.339844 384 C 335.773438 384 336.195312 383.917969 336.597656 383.75 C 337 383.582031 337.355469 383.34375 337.664062 383.039062 C 337.972656 382.730469 338.207031 382.375 338.375 381.972656 C 338.542969 381.570312 338.625 381.148438 338.628906 380.714844 L 338.628906 370.152344 C 338.628906 350.878906 323.117188 335.25 303.984375 335.25 C 286.992188 335.25 272.867188 347.574219 269.910156 363.835938 C 266.960938 347.574219 252.835938 335.25 235.84375 335.25 C 216.710938 335.25 201.199219 350.875 201.199219 370.152344 L 201.199219 380.707031 C 201.199219 381.144531 201.28125 381.5625 201.449219 381.964844 C 201.617188 382.371094 201.855469 382.726562 202.164062 383.035156 C 202.46875 383.34375 202.828125 383.582031 203.230469 383.75 C 203.632812 383.914062 204.050781 384 204.488281 384 Z M 204.488281 384 " fill-opacity="1" fill-rule="nonzero"/><path fill="#c69c6d" d="M 273.128906 94.363281 L 266.703125 94.363281 C 221.648438 94.363281 185.128906 130.925781 185.128906 176.027344 L 185.128906 290.480469 C 185.128906 309.007812 191.292969 326.089844 201.679688 339.792969 C 205.046875 317.921875 223.25 300.648438 245.882812 299.140625 L 245.882812 277.023438 C 220.859375 269.757812 202.570312 246.628906 202.570312 219.210938 L 202.570312 184.503906 L 287.183594 184.503906 L 296.738281 167.921875 L 306.292969 184.503906 L 337.082031 184.503906 L 337.082031 219.210938 C 337.082031 246.628906 318.789062 269.761719 293.773438 277.023438 L 293.773438 299.140625 C 316.46875 300.652344 334.714844 318.023438 338.003906 339.980469 C 348.476562 326.246094 354.703125 309.09375 354.703125 290.480469 L 354.703125 176.027344 C 354.703125 130.925781 318.179688 94.363281 273.128906 94.363281 Z M 273.128906 94.363281 " fill-opacity="1" fill-rule="nonzero"/><path fill="#000000" d="M 202.53125 290.480469 L 202.53125 176.027344 C 202.53125 132.75 236.160156 97.34375 278.6875 94.546875 C 276.894531 94.429688 275.085938 94.363281 273.265625 94.363281 L 266.839844 94.363281 C 221.785156 94.363281 185.261719 130.925781 185.261719 176.027344 L 185.261719 290.480469 C 185.261719 309.007812 191.429688 326.089844 201.816406 339.792969 C 202.832031 333.179688 205.214844 326.996094 208.65625 321.53125 C 206.632812 316.605469 205.101562 311.53125 204.074219 306.308594 C 203.042969 301.082031 202.527344 295.808594 202.53125 290.480469 Z M 202.53125 290.480469 " fill-opacity="0.098" fill-rule="nonzero"/><path fill="#ffc529" d="M 269.867188 322.628906 C 284.609375 322.628906 297.257812 313.484375 302.519531 300.546875 C 299.753906 299.832031 296.949219 299.375 294.101562 299.167969 C 289.691406 308.164062 280.488281 314.371094 269.867188 314.371094 C 259.25 314.371094 250.046875 308.164062 245.640625 299.167969 C 242.753906 299.375 239.9375 299.84375 237.21875 300.546875 C 242.476562 313.484375 255.128906 322.628906 269.867188 322.628906 Z M 269.867188 322.628906 " fill-opacity="1" fill-rule="nonzero"/><path fill="#cc961d" d="M 280.058594 320.097656 C 280.058594 325.886719 275.371094 330.578125 269.597656 330.578125 C 263.820312 330.578125 259.132812 325.886719 259.132812 320.097656 C 259.132812 314.3125 263.820312 309.617188 269.597656 309.617188 C 275.371094 309.617188 280.058594 314.3125 280.058594 320.097656 Z M 280.058594 320.097656 " fill-opacity="1" fill-rule="nonzero"/><path fill="#ff9c88" d="M 230.304688 236.8125 L 221.101562 236.8125 C 217.679688 236.8125 214.90625 234.039062 214.90625 230.617188 C 214.90625 227.195312 217.679688 224.421875 221.101562 224.421875 L 230.304688 224.421875 C 233.726562 224.421875 236.5 227.195312 236.5 230.617188 C 236.5 234.039062 233.726562 236.8125 230.304688 236.8125 Z M 319.730469 236.8125 L 310.527344 236.8125 C 310.121094 236.804688 309.722656 236.761719 309.332031 236.675781 C 308.9375 236.59375 308.554688 236.472656 308.183594 236.3125 C 307.8125 236.15625 307.460938 235.960938 307.128906 235.734375 C 306.796875 235.507812 306.488281 235.25 306.207031 234.964844 C 305.925781 234.675781 305.671875 234.367188 305.449219 234.027344 C 305.230469 233.691406 305.042969 233.339844 304.890625 232.964844 C 304.734375 232.59375 304.621094 232.210938 304.542969 231.8125 C 304.464844 231.417969 304.425781 231.019531 304.425781 230.617188 C 304.425781 230.214844 304.464844 229.816406 304.542969 229.421875 C 304.621094 229.027344 304.734375 228.640625 304.890625 228.269531 C 305.042969 227.894531 305.230469 227.542969 305.449219 227.207031 C 305.671875 226.871094 305.925781 226.558594 306.207031 226.269531 C 306.488281 225.984375 306.796875 225.726562 307.128906 225.5 C 307.460938 225.273438 307.8125 225.082031 308.183594 224.921875 C 308.554688 224.761719 308.9375 224.640625 309.332031 224.558594 C 309.722656 224.472656 310.121094 224.429688 310.527344 224.421875 L 319.730469 224.421875 C 320.136719 224.421875 320.539062 224.464844 320.9375 224.542969 C 321.339844 224.621094 321.726562 224.738281 322.101562 224.894531 C 322.476562 225.050781 322.835938 225.242188 323.171875 225.46875 C 323.511719 225.695312 323.824219 225.949219 324.109375 226.238281 C 324.398438 226.523438 324.65625 226.839844 324.882812 227.175781 C 325.105469 227.515625 325.296875 227.871094 325.453125 228.246094 C 325.609375 228.621094 325.726562 229.011719 325.804688 229.410156 C 325.886719 229.808594 325.925781 230.210938 325.925781 230.617188 C 325.925781 231.023438 325.886719 231.425781 325.804688 231.824219 C 325.726562 232.226562 325.609375 232.613281 325.453125 232.988281 C 325.296875 233.363281 325.109375 233.722656 324.882812 234.058594 C 324.65625 234.398438 324.398438 234.710938 324.113281 234.996094 C 323.824219 235.285156 323.511719 235.542969 323.171875 235.769531 C 322.835938 235.996094 322.476562 236.183594 322.101562 236.339844 C 321.726562 236.496094 321.339844 236.613281 320.941406 236.691406 C 320.539062 236.773438 320.136719 236.8125 319.730469 236.8125 Z M 319.730469 236.8125 " fill-opacity="1" fill-rule="nonzero"/><path fill="#a5b8c4" d="M 32.546875 383.882812 C 32.117188 383.882812 31.699219 383.800781 31.304688 383.632812 C 30.90625 383.46875 30.554688 383.234375 30.25 382.929688 C 29.945312 382.621094 29.710938 382.269531 29.542969 381.871094 C 29.378906 381.472656 29.296875 381.058594 29.296875 380.628906 L 29.296875 332.28125 C 29.296875 318.757812 40.277344 307.757812 53.769531 307.757812 L 198.089844 307.757812 C 211.582031 307.757812 222.558594 318.757812 222.558594 332.28125 L 222.558594 380.628906 C 222.558594 381.058594 222.476562 381.472656 222.3125 381.871094 C 222.148438 382.269531 221.914062 382.621094 221.609375 382.925781 C 221.304688 383.234375 220.953125 383.46875 220.554688 383.632812 C 220.160156 383.800781 219.742188 383.882812 219.3125 383.882812 Z M 32.546875 383.882812 " fill-opacity="1" fill-rule="nonzero"/><path fill="#000000" d="M 54.964844 380.628906 L 54.964844 332.28125 C 54.964844 318.757812 65.945312 307.757812 79.4375 307.757812 L 53.769531 307.757812 C 40.277344 307.757812 29.296875 318.757812 29.296875 332.28125 L 29.296875 380.628906 C 29.296875 381.058594 29.378906 381.472656 29.542969 381.871094 C 29.710938 382.269531 29.945312 382.621094 30.25 382.929688 C 30.554688 383.234375 30.90625 383.46875 31.304688 383.632812 C 31.699219 383.800781 32.117188 383.882812 32.546875 383.882812 L 58.214844 383.882812 C 57.785156 383.882812 57.367188 383.800781 56.96875 383.632812 C 56.570312 383.46875 56.21875 383.234375 55.914062 382.929688 C 55.609375 382.621094 55.375 382.269531 55.210938 381.871094 C 55.046875 381.472656 54.964844 381.058594 54.964844 380.628906 Z M 54.964844 380.628906 " fill-opacity="0.098" fill-rule="nonzero"/><path fill="#ffe5bb" d="M 101.429688 265.664062 L 150.425781 265.664062 L 150.425781 311.140625 L 101.429688 311.140625 Z M 194.902344 187.996094 C 193.640625 187.996094 192.40625 188.132812 191.21875 188.382812 L 191.21875 223.246094 C 192.40625 223.496094 193.640625 223.632812 194.902344 223.632812 C 204.722656 223.632812 212.679688 215.652344 212.679688 205.816406 C 212.679688 195.972656 204.722656 187.996094 194.902344 187.996094 Z M 60.34375 188.324219 C 59.222656 188.105469 58.09375 187.996094 56.953125 187.996094 C 47.136719 187.996094 39.179688 195.972656 39.179688 205.816406 C 39.179688 215.652344 47.136719 223.632812 56.953125 223.632812 C 58.113281 223.632812 59.246094 223.515625 60.34375 223.304688 Z M 60.34375 188.324219 " fill-opacity="1" fill-rule="nonzero"/><path fill="#f4d6ab" d="M 194.746094 208.597656 C 194.746094 242.605469 167.234375 270.175781 133.300781 270.175781 L 118.554688 270.175781 C 84.621094 270.175781 57.113281 242.605469 57.113281 208.597656 L 57.113281 151.941406 C 57.113281 117.929688 84.621094 90.359375 118.554688 90.359375 L 133.300781 90.359375 C 167.238281 90.359375 194.746094 117.929688 194.746094 151.941406 Z M 194.746094 208.597656 " fill-opacity="1" fill-rule="nonzero"/><path fill="#000000" d="M 74.257812 208.640625 L 74.257812 161.402344 C 71.175781 161.265625 68.171875 160.691406 65.253906 159.683594 C 62.335938 158.675781 59.621094 157.273438 57.113281 155.472656 L 57.113281 208.59375 C 57.113281 242.605469 84.621094 270.175781 118.554688 270.175781 L 133.300781 270.175781 C 133.40625 270.175781 133.507812 270.167969 133.609375 270.167969 C 100.644531 269.0625 74.257812 241.949219 74.257812 208.640625 Z M 74.257812 208.640625 " fill-opacity="0.098" fill-rule="nonzero"/><path fill="#8c6239" d="M 133.300781 90.359375 L 118.554688 90.359375 C 84.621094 90.359375 57.113281 117.929688 57.113281 151.941406 L 57.113281 164.320312 C 62.359375 168.070312 68.777344 170.285156 75.710938 170.285156 C 85.882812 170.285156 94.941406 165.535156 100.820312 158.132812 C 106.699219 165.535156 115.761719 170.285156 125.929688 170.285156 C 136.101562 170.285156 145.160156 165.535156 151.039062 158.132812 C 156.914062 165.535156 165.976562 170.285156 176.144531 170.285156 C 179.480469 170.289062 182.738281 169.78125 185.914062 168.761719 C 189.089844 167.746094 192.035156 166.265625 194.746094 164.320312 L 194.746094 151.941406 C 194.746094 117.929688 167.234375 90.359375 133.300781 90.359375 Z M 133.300781 90.359375 " fill-opacity="1" fill-rule="nonzero"/><path fill="#000000" d="M 83.054688 164.320312 L 83.054688 151.941406 C 83.054688 119.820312 107.589844 93.460938 138.902344 90.625 C 137.039062 90.449219 135.171875 90.363281 133.300781 90.359375 L 118.558594 90.359375 C 84.621094 90.359375 57.113281 117.929688 57.113281 151.941406 L 57.113281 164.320312 C 62.359375 168.070312 68.777344 170.285156 75.714844 170.285156 C 80.230469 170.285156 84.554688 169.371094 88.679688 167.535156 C 86.695312 166.65625 84.820312 165.582031 83.054688 164.320312 Z M 83.054688 164.320312 " fill-opacity="0.098" fill-rule="nonzero"/><path fill="#684223" d="M 97.132812 210.761719 C 96.722656 210.761719 96.320312 210.722656 95.921875 210.640625 C 95.523438 210.5625 95.136719 210.445312 94.761719 210.289062 C 94.386719 210.132812 94.027344 209.941406 93.691406 209.714844 C 93.351562 209.492188 93.039062 209.234375 92.75 208.945312 C 92.464844 208.660156 92.207031 208.34375 91.980469 208.007812 C 91.753906 207.667969 91.566406 207.3125 91.410156 206.9375 C 91.253906 206.5625 91.136719 206.171875 91.054688 205.773438 C 90.976562 205.375 90.9375 204.972656 90.9375 204.566406 L 90.9375 195.660156 C 90.933594 195.25 90.96875 194.84375 91.042969 194.441406 C 91.121094 194.039062 91.234375 193.648438 91.390625 193.265625 C 91.542969 192.886719 91.730469 192.527344 91.957031 192.183594 C 92.183594 191.84375 92.4375 191.527344 92.726562 191.234375 C 93.015625 190.941406 93.328125 190.683594 93.667969 190.453125 C 94.007812 190.226562 94.367188 190.03125 94.746094 189.875 C 95.125 189.714844 95.511719 189.597656 95.914062 189.515625 C 96.316406 189.4375 96.722656 189.394531 97.132812 189.394531 C 97.539062 189.394531 97.945312 189.4375 98.347656 189.515625 C 98.75 189.597656 99.140625 189.714844 99.515625 189.875 C 99.894531 190.03125 100.253906 190.226562 100.59375 190.453125 C 100.933594 190.683594 101.246094 190.941406 101.535156 191.234375 C 101.824219 191.527344 102.078125 191.84375 102.304688 192.183594 C 102.53125 192.527344 102.71875 192.886719 102.875 193.265625 C 103.027344 193.648438 103.140625 194.039062 103.21875 194.441406 C 103.292969 194.84375 103.328125 195.25 103.324219 195.660156 L 103.324219 204.566406 C 103.324219 204.972656 103.285156 205.375 103.207031 205.773438 C 103.128906 206.171875 103.007812 206.5625 102.855469 206.9375 C 102.699219 207.3125 102.507812 207.667969 102.28125 208.007812 C 102.054688 208.347656 101.796875 208.660156 101.511719 208.945312 C 101.222656 209.234375 100.910156 209.492188 100.574219 209.71875 C 100.234375 209.941406 99.878906 210.132812 99.5 210.289062 C 99.125 210.445312 98.738281 210.5625 98.339844 210.640625 C 97.941406 210.722656 97.539062 210.761719 97.132812 210.761719 Z M 154.730469 210.761719 C 154.320312 210.761719 153.917969 210.722656 153.519531 210.640625 C 153.121094 210.5625 152.734375 210.445312 152.359375 210.289062 C 151.984375 210.132812 151.625 209.941406 151.289062 209.714844 C 150.949219 209.492188 150.636719 209.234375 150.347656 208.945312 C 150.0625 208.660156 149.804688 208.347656 149.578125 208.007812 C 149.351562 207.667969 149.160156 207.3125 149.007812 206.9375 C 148.851562 206.5625 148.734375 206.171875 148.652344 205.773438 C 148.574219 205.375 148.535156 204.972656 148.535156 204.566406 L 148.535156 195.660156 C 148.53125 195.25 148.566406 194.84375 148.640625 194.441406 C 148.71875 194.039062 148.832031 193.648438 148.984375 193.265625 C 149.140625 192.886719 149.328125 192.527344 149.554688 192.183594 C 149.78125 191.84375 150.035156 191.527344 150.324219 191.234375 C 150.613281 190.941406 150.925781 190.683594 151.265625 190.453125 C 151.605469 190.226562 151.964844 190.03125 152.34375 189.875 C 152.71875 189.714844 153.109375 189.597656 153.511719 189.515625 C 153.914062 189.4375 154.320312 189.394531 154.726562 189.394531 C 155.136719 189.394531 155.542969 189.4375 155.945312 189.515625 C 156.347656 189.597656 156.738281 189.714844 157.113281 189.875 C 157.492188 190.03125 157.851562 190.226562 158.191406 190.453125 C 158.53125 190.683594 158.84375 190.941406 159.132812 191.234375 C 159.421875 191.527344 159.675781 191.84375 159.902344 192.183594 C 160.128906 192.527344 160.316406 192.886719 160.46875 193.265625 C 160.625 193.648438 160.738281 194.039062 160.816406 194.441406 C 160.890625 194.84375 160.925781 195.25 160.921875 195.660156 L 160.921875 204.566406 C 160.921875 204.972656 160.882812 205.375 160.804688 205.773438 C 160.722656 206.171875 160.605469 206.5625 160.449219 206.9375 C 160.296875 207.3125 160.105469 207.667969 159.878906 208.007812 C 159.652344 208.34375 159.394531 208.660156 159.109375 208.945312 C 158.820312 209.234375 158.507812 209.488281 158.167969 209.714844 C 157.832031 209.941406 157.472656 210.132812 157.097656 210.289062 C 156.722656 210.445312 156.335938 210.5625 155.9375 210.640625 C 155.539062 210.71875 155.136719 210.761719 154.730469 210.761719 Z M 154.730469 210.761719 " fill-opacity="1" fill-rule="nonzero"/><path fill="#ffffff" d="M 145.644531 229.414062 L 106.214844 229.414062 C 105.871094 229.414062 105.539062 229.480469 105.21875 229.609375 C 104.902344 229.742188 104.621094 229.929688 104.378906 230.175781 C 104.136719 230.417969 103.949219 230.699219 103.816406 231.019531 C 103.683594 231.335938 103.621094 231.667969 103.621094 232.011719 L 103.621094 236.171875 C 103.621094 244.203125 110.136719 250.730469 118.144531 250.730469 L 133.710938 250.730469 C 141.722656 250.730469 148.238281 244.203125 148.238281 236.171875 L 148.238281 232.011719 C 148.238281 231.667969 148.171875 231.335938 148.039062 231.019531 C 147.910156 230.699219 147.722656 230.417969 147.480469 230.175781 C 147.234375 229.929688 146.957031 229.742188 146.636719 229.609375 C 146.320312 229.480469 145.988281 229.414062 145.644531 229.414062 Z M 145.644531 229.414062 " fill-opacity="1" fill-rule="nonzero"/><path fill="#889da8" d="M 119.730469 318.34375 L 132.121094 318.34375 L 132.121094 383.882812 L 119.730469 383.882812 Z M 119.730469 318.34375 " fill-opacity="1" fill-rule="nonzero"/><path fill="#6c8796" d="M 166.390625 280.6875 C 164.691406 279.777344 162.988281 279.777344 161.289062 280.6875 L 125.929688 301.097656 L 90.570312 280.6875 C 87.46875 278.894531 82.917969 281.039062 82.917969 285.105469 L 82.917969 327.214844 C 82.917969 331.277344 87.46875 333.421875 90.570312 331.632812 L 125.929688 311.222656 L 161.289062 331.632812 C 164.390625 333.421875 168.941406 331.28125 168.941406 327.214844 L 168.941406 285.105469 C 168.941406 280.894531 166.679688 280.855469 166.390625 280.6875 C 165.597656 280.230469 167.96875 281.597656 166.390625 280.6875 C 164.691406 279.777344 167.96875 281.597656 166.390625 280.6875 C 164.691406 279.777344 167.96875 281.597656 166.390625 280.6875 Z M 166.390625 280.6875 " fill-opacity="1" fill-rule="nonzero"/><path fill="#506672" d="M 141.40625 305.9375 C 141.40625 306.957031 141.308594 307.96875 141.109375 308.964844 C 140.910156 309.964844 140.617188 310.9375 140.230469 311.878906 C 139.839844 312.820312 139.363281 313.714844 138.796875 314.5625 C 138.234375 315.410156 137.59375 316.195312 136.875 316.914062 C 136.15625 317.636719 135.375 318.277344 134.527344 318.84375 C 133.683594 319.410156 132.792969 319.890625 131.851562 320.277344 C 130.914062 320.667969 129.945312 320.964844 128.949219 321.164062 C 127.953125 321.359375 126.945312 321.460938 125.929688 321.460938 C 124.914062 321.460938 123.90625 321.359375 122.910156 321.164062 C 121.914062 320.964844 120.945312 320.667969 120.007812 320.277344 C 119.066406 319.890625 118.175781 319.410156 117.332031 318.84375 C 116.484375 318.277344 115.703125 317.636719 114.984375 316.914062 C 114.265625 316.195312 113.625 315.410156 113.058594 314.5625 C 112.496094 313.714844 112.019531 312.820312 111.628906 311.878906 C 111.242188 310.9375 110.949219 309.964844 110.75 308.964844 C 110.550781 307.96875 110.453125 306.957031 110.453125 305.9375 C 110.453125 304.917969 110.550781 303.910156 110.75 302.910156 C 110.949219 301.910156 111.242188 300.941406 111.628906 300 C 112.019531 299.058594 112.496094 298.164062 113.058594 297.316406 C 113.625 296.46875 114.265625 295.683594 114.984375 294.960938 C 115.703125 294.242188 116.484375 293.597656 117.332031 293.03125 C 118.175781 292.464844 119.066406 291.988281 120.007812 291.597656 C 120.945312 291.207031 121.914062 290.914062 122.910156 290.714844 C 123.90625 290.515625 124.914062 290.417969 125.929688 290.417969 C 126.945312 290.417969 127.953125 290.515625 128.949219 290.714844 C 129.945312 290.914062 130.914062 291.207031 131.851562 291.597656 C 132.792969 291.988281 133.683594 292.464844 134.527344 293.03125 C 135.375 293.597656 136.15625 294.242188 136.875 294.960938 C 137.59375 295.683594 138.234375 296.46875 138.796875 297.316406 C 139.363281 298.164062 139.839844 299.058594 140.230469 300 C 140.617188 300.941406 140.910156 301.910156 141.109375 302.910156 C 141.308594 303.910156 141.40625 304.917969 141.40625 305.9375 Z M 141.40625 305.9375 " fill-opacity="1" fill-rule="nonzero"/><path fill="#e84731" d="M 199.867188 102.191406 C 199.023438 102.195312 198.214844 102.03125 197.4375 101.710938 C 196.660156 101.386719 195.972656 100.925781 195.378906 100.332031 L 151.570312 56.367188 C 145.378906 50.15625 141.957031 41.890625 141.941406 33.09375 C 141.925781 24.296875 145.316406 16.015625 151.488281 9.785156 C 157.660156 3.550781 165.871094 0.109375 174.613281 0.09375 C 183.359375 0.078125 191.585938 3.488281 197.777344 9.699219 L 199.703125 11.628906 L 201.621094 9.691406 C 207.792969 3.457031 216.003906 0.0195312 224.746094 0 C 233.492188 -0.0117188 241.71875 3.394531 247.910156 9.605469 C 254.105469 15.816406 257.527344 24.082031 257.542969 32.878906 C 257.558594 41.675781 254.167969 49.957031 247.996094 56.191406 L 204.347656 100.3125 C 203.753906 100.914062 203.070312 101.375 202.292969 101.703125 C 201.519531 102.027344 200.707031 102.191406 199.867188 102.191406 Z M 199.867188 102.191406 " fill-opacity="1" fill-rule="nonzero"/><path fill="#000000" d="M 177.746094 47.910156 C 171.554688 41.699219 168.136719 33.4375 168.121094 24.640625 C 168.101562 15.839844 171.492188 7.5625 177.664062 1.328125 C 177.996094 0.992188 178.339844 0.667969 178.6875 0.347656 C 177.335938 0.179688 175.976562 0.09375 174.617188 0.09375 C 165.871094 0.109375 157.660156 3.550781 151.488281 9.785156 C 145.320312 16.015625 141.925781 24.296875 141.945312 33.09375 C 141.960938 41.894531 145.378906 50.15625 151.570312 56.367188 L 195.382812 100.332031 C 195.976562 100.929688 196.660156 101.386719 197.4375 101.710938 C 198.214844 102.035156 199.027344 102.195312 199.867188 102.195312 C 200.710938 102.191406 201.519531 102.027344 202.296875 101.703125 C 203.070312 101.375 203.753906 100.914062 204.347656 100.316406 L 217.109375 87.414062 Z M 177.746094 47.910156 " fill-opacity="0.098" fill-rule="nonzero"/></svg>